<?xml version="1.0" encoding="utf-8"?>
<!-- Generator: Adobe Illustrator 28.1.0, SVG Export Plug-In . SVG Version: 6.00 Build 0)  -->
<svg version="1.1" id="Layer_1" xmlns="http://www.w3.org/2000/svg" xmlns:xlink="http://www.w3.org/1999/xlink" x="0px" y="0px"
	 viewBox="0 0 1920 1080" style="enable-background:new 0 0 1920 1080;" xml:space="preserve">
<style type="text/css">
	.st0{fill:#6F927F;}
	.st1{fill:url(#SVGID_1_);}
	.st2{fill:#F2E5D3;}
	.st3{font-family:'Mestiza-Bold';}
	.st4{font-size:47.7803px;}
	.st5{font-family:'Mestiza-Regular';}
	.st6{fill:#873036;}
	.st7{font-size:30.8863px;}
	.st8{font-family:'LibreBaskerville-Italic';}
	.st9{fill:none;}
	.st10{fill:none;stroke:#000000;stroke-width:0.25;stroke-miterlimit:10;stroke-dasharray:1,1;}
	.st11{fill:none;stroke:#808080;stroke-width:0.25;stroke-miterlimit:10;}
	.st12{font-family:'Mestiza-RegularItalic';}
	.st13{font-size:27.4545px;}
</style>
<rect x="2" y="-4" class="st0" width="1916.21" height="1086.35"/>
<radialGradient id="SVGID_1_" cx="963.5475" cy="614.5762" r="66.2065" gradientTransform="matrix(0.9991 0 0 1.0004 0.8946 -0.2333)" gradientUnits="userSpaceOnUse">
	<stop  offset="0" style="stop-color:#FFFFFF"/>
	<stop  offset="0" style="stop-color:#FEF5EF"/>
	<stop  offset="0" style="stop-color:#F8CCA8"/>
	<stop  offset="0" style="stop-color:#F6BC8C"/>
	<stop  offset="0.245" style="stop-color:#F5B988"/>
	<stop  offset="0.4784" style="stop-color:#F1AE7D"/>
	<stop  offset="0.7072" style="stop-color:#EB9D6A"/>
	<stop  offset="0.9318" style="stop-color:#E3864F"/>
	<stop  offset="1" style="stop-color:#E07D45"/>
</radialGradient>
<ellipse class="st1" cx="963.56" cy="614.62" rx="66.15" ry="66.24"/>
<text transform="matrix(1 0 0 1 99.1732 186.2526)" class="st2 st3 st4">Curved lines = per capita CO2 emissions between the years 2003 and 2022.</text>
<text transform="matrix(1 0 0 1 99.3626 314.3405)"><tspan x="0" y="0" class="st2 st5 st4">Each line represents one year.</tspan><tspan x="626.39" y="0" class="st2 st3 st4"> </tspan></text>
<g>
	<path class="st6" d="M964.43,350.3c-16.34,17.19-17.55,43.32-12.52,65.39c6.8,28.43,23.95,53.18,32.03,81.26
		c11.35,39.4,4.95,84.36-19.83,117.41c21.71-34.29,29.4-77.67,17.91-116.85c-8.12-28.1-25.23-52.75-32.06-81.36
		C944.54,393.71,946.34,366.68,964.43,350.3L964.43,350.3z"/>
</g>
<g>
	<path class="st6" d="M1011.48,349.8c-19.88,13.99-25.89,40.23-24.71,63.32c1.75,29.75,14.52,57.58,17.62,87.16
		c4.41,41.46-10.29,84.87-40.27,114.06c28.61-30.03,43.76-72.62,39.28-113.96c-3.12-29.6-15.88-57.38-17.62-87.22
		C984.4,389.86,990.86,363.28,1011.48,349.8L1011.48,349.8z"/>
</g>
<g>
	<path class="st6" d="M1061.38,362.44c-22.28,10-33.23,34.74-36.47,57.74c-3.96,29.68,3.32,59.57,0.73,89.34
		c-3.57,41.74-26.37,81.75-61.52,104.82c33.96-24.15,57.04-63.27,60.52-104.9c2.58-29.79-4.7-59.63-0.72-89.4
		C1027.03,396.78,1038.47,371.8,1061.38,362.44L1061.38,362.44z"/>
</g>
<g>
	<path class="st6" d="M1104.01,382.73c-23.73,5.99-38.84,28.48-46.06,50.61c-9.08,28.6-7.11,59.36-14.86,88.29
		c-10.8,40.57-40.27,76.07-78.97,92.71c37.73-17.91,67.31-52.49,78-92.97c7.74-28.95,5.76-59.66,14.87-88.34
		C1064.12,410.63,1079.77,387.97,1104.01,382.73L1104.01,382.73z"/>
</g>
<g>
	<path class="st6" d="M1141.72,411.45c-24.33,1.74-43.07,21.18-54,41.64c-13.89,26.48-17.32,57.01-29.95,84.04
		c-17.66,37.92-52.76,67.63-93.64,77.21c40.13-11,75.19-39.77,92.73-77.63c12.63-27.05,16.04-57.54,29.98-84.09
		C1097.73,431.88,1117.02,412.37,1141.72,411.45L1141.72,411.45z"/>
</g>
<g>
	<path class="st6" d="M1179.92,447.76c-24.37-2.51-46.48,13.02-61.32,31.07c-18.92,23.52-28.29,53.16-46.11,77.49
		c-24.99,34.16-65.73,57.31-108.36,58.01c41.73-3.89,82.01-25.05,106.74-59.19c17.81-24.38,27.13-53.93,46.17-77.58
		C1131.93,458.97,1155.12,443.37,1179.92,447.76L1179.92,447.76z"/>
</g>
<g>
	<path class="st6" d="M1205.89,486.72c-23.66-7.19-48.47,4.41-66.24,19.82c-22.76,20.03-37.08,47.68-58.86,68.69
		c-30.48,29.49-74.49,44.87-116.66,39.11c41.99,4.16,85.62-10.36,115.96-39.83c21.78-21.03,36.07-48.65,58.9-68.72
		C1156.84,490.09,1182.18,478.63,1205.89,486.72L1205.89,486.72z"/>
</g>
<g>
	<path class="st6" d="M1225.6,530.75c-22.13-11.27-48.69-4.17-68.97,7.92c-26.02,15.79-45.05,40.61-70.28,57.53
		c-35.32,23.79-81.53,31.23-122.21,18.13c40.78,11.51,86.46,4.84,121.65-18.95c25.23-16.95,44.22-41.74,70.32-57.56
		C1176.51,525.45,1203.58,518.58,1225.6,530.75L1225.6,530.75z"/>
</g>
<g>
	<path class="st6" d="M1235.87,577.84c-19.79-14.95-47.15-12.61-69.21-4.26c-28.35,10.98-51.4,32.06-79.16,44.3
		c-38.89,17.22-85.64,16.47-123.35-3.53c38.09,18.44,84.18,19.87,122.94,2.62c27.77-12.26,50.78-33.32,79.22-44.32
		C1188.52,564.04,1216.34,562.02,1235.87,577.84L1235.87,577.84z"/>
</g>
<g>
	<path class="st6" d="M1239.13,630.53c-16.64-18.55-44.08-21.5-67.44-17.5c-30.07,5.38-56.85,21.74-86.58,28.48
		c-41.66,9.51-87.61-0.21-120.96-27.17c34.02,25.51,79.2,35.76,120.74,26.2c29.75-6.76,56.48-23.11,86.63-28.49
		C1195.09,607.83,1222.91,611.18,1239.13,630.53L1239.13,630.53z"/>
</g>
<g>
	<path class="st6" d="M1231.58,677.1c-13.53-20.65-39.73-28.07-63.28-28.18c-30.42,0.17-59.54,11.68-89.89,13.23
		c-42.59,2.19-86.59-14.95-114.25-47.81c29.56,30.16,71.73,48.19,114.14,45.81c30.39-1.58,59.41-13.08,90-13.23
		C1192.3,646.73,1219.23,654.93,1231.58,677.1L1231.58,677.1z"/>
</g>
<g>
	<path class="st6" d="M1215.27,721.94c-9.29-22.9-33.9-34.88-57.03-39c-29.86-5.09-60.35,1.17-90.36-2.55
		c-42.07-5.14-81.68-29.66-103.72-66.04c23.17,35.23,61.87,60,103.84,65.05c30.02,3.7,60.46-2.56,90.41,2.55
		C1181.81,685.95,1206.65,698.43,1215.27,721.94L1215.27,721.94z"/>
</g>
<g>
	<path class="st6" d="M1190.74,768.87c-4.73-24.36-26.65-40.91-48.65-49.45c-28.43-10.79-59.68-10.52-88.52-19.97
		c-40.45-13.19-74.73-45.01-89.41-85.1c16.01,39.19,49.35,71.07,89.72,84.15c28.86,9.45,60.06,9.16,88.57,19.99
		C1164.73,726.95,1186.79,744.05,1190.74,768.87L1190.74,768.87z"/>
</g>
<g>
	<path class="st6" d="M1160.4,804.85c-0.49-24.74-19.2-44.74-39.35-56.88c-26.1-15.45-56.84-20.52-83.56-34.73
		c-37.49-19.87-65.74-56.97-73.32-98.87c9.04,41.23,36.36,78.24,73.79,97.99c26.74,14.21,57.44,19.25,83.61,34.76
		C1142,759.22,1160.75,779.78,1160.4,804.85L1160.4,804.85z"/>
</g>
<g>
	<path class="st6" d="M1121.87,832.51c3.74-24.06-10.98-46.64-28.44-61.85c-22.66-19.43-51.6-29.59-75.07-47.93
		c-32.95-25.66-54.01-66.45-54.19-108.37c1.74,41.51,21.89,82.05,54.8,107.58c23.5,18.34,52.4,28.47,75.11,47.97
		C1111.83,785.14,1126.5,808.28,1121.87,832.51L1121.87,832.51z"/>
</g>
<g>
	<path class="st6" d="M1081.72,857.8c7.41-23.14-3.14-47.76-17.63-65.85c-18.96-23.16-45.8-38.31-65.78-60.57
		c-28.04-31.23-42.19-75.5-34.15-117.01c-4.74,41.29,7.56,84.7,35.63,115.67c20.02,22.27,46.79,37.35,65.85,60.66
		C1080.65,808.94,1091.05,834.63,1081.72,857.8L1081.72,857.8z"/>
</g>
<g>
	<path class="st6" d="M1033.94,876.44c12.19-21.29,6.48-47.84-4.47-68.44c-14.32-26.45-37.88-46.43-53.36-72.15
		c-21.76-36.01-26.87-81.98-11.94-121.48c-13.33,39.68-8.97,85.08,12.8,120.96c15.5,25.72,39.04,45.66,53.39,72.19
		C1041.56,828.25,1047.02,855.3,1033.94,876.44L1033.94,876.44z"/>
</g>
<g>
	<path class="st6" d="M987.99,884.05c15.63-18.85,14.55-45.95,7.3-68.08c-9.56-28.46-29.32-52.14-40.15-80.08
		c-15.24-39.14-12.41-85.22,9.02-121.52c-19.89,36.75-23.36,82.15-8.09,121.16c10.85,27.95,30.59,51.58,40.17,80.13
		C1003.72,837.96,1004.47,865.5,987.99,884.05L987.99,884.05z"/>
</g>
<g>
	<path class="st6" d="M940.16,884.37c18.73-15.83,22.43-42.72,19.18-65.82c-4.41-29.73-19.72-56.55-25.47-85.99
		c-8.13-41.26,2.77-86.18,30.29-118.18c-26.08,32.72-37.49,76.85-29.31,117.99c5.77,29.46,21.07,56.23,25.48,86.05
		C963.78,841.71,959.67,868.99,940.16,884.37L940.16,884.37z"/>
</g>
<g>
	<path class="st6" d="M887.22,872.81c19.05-14.26,28.49-37.93,30.84-61.02c1.1-11.68,0.11-23.46-1.3-35.12
		c-2.12-17.48-5.4-35.09-4.38-52.8c0.23-5.91,1.02-11.77,1.97-17.6c6.39-34.84,24.26-67.42,49.78-91.9
		c-24.39,25.29-42.45,57.37-48.8,92.08c-0.95,5.79-1.73,11.61-1.96,17.47c-1.01,17.67,2.26,35.13,4.37,52.63
		C923.04,810.7,917.45,851.59,887.22,872.81L887.22,872.81z"/>
</g>
<text transform="matrix(1 0 0 1 813.4861 612.9542)" class="st3 st7">Country</text>
<text transform="matrix(1 0 0 1 808.2087 654.0597)" class="st8 st7">10–20</text>
<line class="st9" x1="883.67" y1="662.86" x2="883.67" y2="694.72"/>
<line class="st9" x1="792.98" y1="691.96" x2="884.1" y2="691.96"/>
<line class="st10" x1="787.49" y1="688.12" x2="878.62" y2="688.12"/>
<line class="st10" x1="878.07" y1="657.77" x2="878.07" y2="688.12"/>
<path class="st11" d="M849.48,663.23"/>
<path class="st11" d="M846.85,666.73"/>
<line class="st10" x1="802.4" y1="642.92" x2="738.69" y2="642.92"/>
<g>
	<polygon points="801.46,641.9 809.13,642.9 801.46,643.9 801.46,641.9 	"/>
</g>
<text transform="matrix(1 0 0 1 561.3054 613.0748)"><tspan x="0" y="0" class="st12 st13">Per capita CO2 </tspan><tspan x="-28.69" y="32.95" class="st12 st13">emissions in 2003</tspan></text>
<text transform="matrix(1 0 0 1 615.781 705.3722)"><tspan x="0" y="0" class="st12 st13">Per capita CO2</tspan><tspan x="-30.12" y="32.95" class="st12 st13">emissions in 2022</tspan></text>
<g>
	<polygon points="877.02,663.94 878.02,656.27 879.02,663.94 877.02,663.94 	"/>
</g>
<text transform="matrix(1 0 0 1 925.9602 336.2745)" class="st8 st7">2003</text>
<text transform="matrix(1 0 0 1 1197.1301 446.2233)" class="st8 st7">2008</text>
<text transform="matrix(1 0 0 1 1244.2258 676.5148)" class="st8 st7">2013</text>
<text transform="matrix(1 0 0 1 1053.803 895.795)" class="st8 st7">2018</text>
<text transform="matrix(1 0 0 1 844.6511 903.8214)" class="st8 st7">2022</text>
</svg>
