<?xml version="1.0" encoding="utf-8"?>
<!-- Generator: Adobe Illustrator 28.1.0, SVG Export Plug-In . SVG Version: 6.00 Build 0)  -->
<svg version="1.1" id="Layer_1" xmlns="http://www.w3.org/2000/svg" xmlns:xlink="http://www.w3.org/1999/xlink" x="0px" y="0px"
	 viewBox="0 0 1920 1080" style="enable-background:new 0 0 1920 1080;" xml:space="preserve">
<style type="text/css">
	.st0{fill:#CBCBCA;}
	.st1{font-family:'LibreBaskerville-Bold';}
	.st2{font-size:30.8863px;}
	.st3{font-family:'LibreBaskerville-Regular';}
	.st4{fill:#873036;}
	.st5{font-family:'LibreBaskerville-Italic';}
	.st6{fill:none;}
	.st7{fill:none;stroke:#000000;stroke-width:0.25;stroke-miterlimit:10;stroke-dasharray:1,1;}
	.st8{fill:none;stroke:#808080;stroke-width:0.25;stroke-miterlimit:10;}
	.st9{font-size:27.4545px;}
	.st10{fill:none;stroke:#231F20;stroke-width:2;stroke-miterlimit:10;}
</style>
<g>
	<circle class="st0" cx="965.65" cy="615.91" r="66.39"/>
	<text transform="matrix(1 0 0 1 350.5352 203.0806)" class="st1 st2">Curved lines = per capita CO2 emissions between the years 2003 and 2022.</text>
	<text transform="matrix(1 0 0 1 350.4717 285.8799)"><tspan x="0" y="0" class="st3 st2">Each line represents one year.</tspan><tspan x="473.51" y="0" class="st1 st2"> </tspan></text>
	<g>
		<path class="st4" d="M965.72,351.45c-16.34,17.19-17.55,43.32-12.52,65.39c6.8,28.43,23.95,53.18,32.03,81.26
			c11.35,39.4,4.95,84.36-19.83,117.41c21.71-34.29,29.4-77.67,17.91-116.85c-8.12-28.1-25.23-52.75-32.06-81.36
			C945.83,394.85,947.63,367.83,965.72,351.45L965.72,351.45z"/>
	</g>
	<g>
		<path class="st4" d="M1012.77,350.95c-19.88,13.99-25.89,40.23-24.71,63.32c1.75,29.75,14.52,57.58,17.62,87.16
			c4.41,41.46-10.29,84.87-40.27,114.06c28.61-30.03,43.76-72.62,39.28-113.96c-3.12-29.6-15.88-57.38-17.62-87.22
			C985.7,391.01,992.15,364.43,1012.77,350.95L1012.77,350.95z"/>
	</g>
	<g>
		<path class="st4" d="M1062.67,363.59c-22.28,10-33.23,34.74-36.47,57.74c-3.96,29.68,3.32,59.57,0.73,89.34
			c-3.57,41.74-26.37,81.75-61.52,104.82c33.96-24.15,57.04-63.27,60.52-104.9c2.58-29.79-4.7-59.63-0.72-89.4
			C1028.32,397.93,1039.76,372.95,1062.67,363.59L1062.67,363.59z"/>
	</g>
	<g>
		<path class="st4" d="M1105.3,383.87c-23.73,5.99-38.84,28.48-46.06,50.61c-9.08,28.6-7.11,59.36-14.86,88.29
			c-10.8,40.57-40.27,76.07-78.97,92.71c37.73-17.91,67.31-52.49,78-92.97c7.74-28.95,5.76-59.66,14.87-88.34
			C1065.41,411.77,1081.06,389.12,1105.3,383.87L1105.3,383.87z"/>
	</g>
	<g>
		<path class="st4" d="M1143.02,412.6c-24.33,1.74-43.07,21.18-54,41.64c-13.89,26.48-17.32,57.01-29.96,84.04
			c-17.66,37.92-52.76,67.63-93.64,77.21c40.13-11,75.19-39.77,92.73-77.63c12.63-27.05,16.04-57.54,29.98-84.09
			C1099.02,433.02,1118.32,413.52,1143.02,412.6L1143.02,412.6z"/>
	</g>
	<g>
		<path class="st4" d="M1181.21,448.9c-24.37-2.51-46.48,13.02-61.32,31.07c-18.92,23.52-28.29,53.16-46.11,77.49
			c-24.99,34.16-65.73,57.31-108.36,58.01c41.73-3.89,82.01-25.05,106.74-59.19c17.81-24.38,27.13-53.93,46.17-77.58
			C1133.23,460.12,1156.41,444.51,1181.21,448.9L1181.21,448.9z"/>
	</g>
	<g>
		<path class="st4" d="M1207.19,487.86c-23.66-7.19-48.47,4.41-66.24,19.82c-22.76,20.03-37.08,47.68-58.86,68.69
			c-30.48,29.49-74.49,44.87-116.66,39.11c41.99,4.16,85.62-10.36,115.96-39.83c21.78-21.03,36.07-48.65,58.9-68.72
			C1158.13,491.24,1183.47,479.78,1207.19,487.86L1207.19,487.86z"/>
	</g>
	<g>
		<path class="st4" d="M1226.89,531.9c-22.13-11.27-48.69-4.17-68.97,7.92c-26.02,15.79-45.05,40.61-70.28,57.54
			c-35.32,23.79-81.53,31.23-122.21,18.13c40.78,11.51,86.46,4.84,121.65-18.95c25.23-16.95,44.22-41.74,70.32-57.56
			C1177.8,526.6,1204.87,519.73,1226.89,531.9L1226.89,531.9z"/>
	</g>
	<g>
		<path class="st4" d="M1237.16,578.98c-19.79-14.95-47.15-12.61-69.21-4.26c-28.35,10.98-51.4,32.06-79.16,44.3
			c-38.89,17.22-85.64,16.47-123.35-3.53c38.09,18.44,84.18,19.87,122.94,2.62c27.77-12.26,50.78-33.32,79.22-44.32
			C1189.81,565.19,1217.63,563.17,1237.16,578.98L1237.16,578.98z"/>
	</g>
	<g>
		<path class="st4" d="M1240.43,631.67c-16.64-18.55-44.08-21.5-67.44-17.5c-30.07,5.38-56.85,21.74-86.58,28.48
			c-41.66,9.51-87.61-0.21-120.96-27.17c34.02,25.51,79.2,35.76,120.74,26.2c29.74-6.76,56.48-23.11,86.63-28.49
			C1196.38,608.98,1224.21,612.33,1240.43,631.67L1240.43,631.67z"/>
	</g>
	<g>
		<path class="st4" d="M1232.87,678.25c-13.53-20.65-39.73-28.07-63.28-28.18c-30.42,0.17-59.54,11.68-89.89,13.23
			c-42.59,2.19-86.59-14.95-114.25-47.81c29.56,30.16,71.73,48.19,114.14,45.81c30.39-1.58,59.41-13.08,90-13.23
			C1193.59,647.88,1220.53,656.08,1232.87,678.25L1232.87,678.25z"/>
	</g>
	<g>
		<path class="st4" d="M1216.56,723.08c-9.29-22.9-33.9-34.88-57.03-39c-29.86-5.09-60.35,1.17-90.36-2.55
			c-42.07-5.14-81.68-29.66-103.72-66.04c23.17,35.23,61.87,60,103.84,65.05c30.02,3.7,60.46-2.56,90.41,2.55
			C1183.1,687.09,1207.94,699.58,1216.56,723.08L1216.56,723.08z"/>
	</g>
	<g>
		<path class="st4" d="M1192.03,770.02c-4.73-24.36-26.65-40.91-48.65-49.45c-28.43-10.79-59.68-10.52-88.52-19.97
			c-40.45-13.19-74.73-45.01-89.41-85.1c16.01,39.19,49.35,71.07,89.72,84.15c28.86,9.45,60.06,9.16,88.57,19.99
			C1166.03,728.1,1188.08,745.19,1192.03,770.02L1192.03,770.02z"/>
	</g>
	<g>
		<path class="st4" d="M1161.69,805.99c-0.49-24.74-19.2-44.74-39.35-56.88c-26.1-15.45-56.84-20.52-83.56-34.73
			c-37.49-19.87-65.74-56.97-73.32-98.87c9.04,41.23,36.36,78.24,73.79,97.99c26.74,14.21,57.44,19.25,83.61,34.76
			C1143.3,760.37,1162.05,780.93,1161.69,805.99L1161.69,805.99z"/>
	</g>
	<g>
		<path class="st4" d="M1123.16,833.66c3.74-24.06-10.98-46.64-28.44-61.85c-22.66-19.43-51.6-29.59-75.07-47.93
			c-32.95-25.66-54.01-66.45-54.19-108.37c1.74,41.51,21.89,82.05,54.8,107.58c23.5,18.34,52.4,28.47,75.11,47.97
			C1113.12,786.29,1127.79,809.42,1123.16,833.66L1123.16,833.66z"/>
	</g>
	<g>
		<path class="st4" d="M1083.01,858.94c7.41-23.14-3.14-47.76-17.63-65.85c-18.96-23.16-45.8-38.31-65.78-60.57
			c-28.04-31.23-42.19-75.5-34.15-117.01c-4.74,41.29,7.56,84.7,35.63,115.67c20.02,22.27,46.79,37.35,65.85,60.66
			C1081.94,810.08,1092.34,835.77,1083.01,858.94L1083.01,858.94z"/>
	</g>
	<g>
		<path class="st4" d="M1035.23,877.59c12.19-21.29,6.48-47.84-4.47-68.44c-14.32-26.45-37.88-46.43-53.36-72.15
			c-21.76-36.01-26.87-81.98-11.94-121.48c-13.33,39.68-8.97,85.08,12.8,120.96c15.5,25.72,39.04,45.66,53.39,72.19
			C1042.85,829.4,1048.31,856.45,1035.23,877.59L1035.23,877.59z"/>
	</g>
	<g>
		<path class="st4" d="M989.28,885.2c15.63-18.85,14.55-45.95,7.3-68.08c-9.56-28.46-29.32-52.14-40.15-80.08
			c-15.24-39.14-12.41-85.22,9.02-121.52c-19.89,36.75-23.36,82.15-8.09,121.16c10.85,27.95,30.59,51.58,40.17,80.13
			C1005.02,839.11,1005.76,866.65,989.28,885.2L989.28,885.2z"/>
	</g>
	<g>
		<path class="st4" d="M941.45,885.52c18.73-15.83,22.43-42.72,19.18-65.82c-4.41-29.73-19.72-56.55-25.47-85.99
			c-8.13-41.26,2.77-86.18,30.29-118.18c-26.08,32.72-37.49,76.85-29.31,117.99c5.77,29.46,21.07,56.23,25.48,86.05
			C965.07,842.86,960.96,870.13,941.45,885.52L941.45,885.52z"/>
	</g>
	<g>
		<path class="st4" d="M888.52,873.95c19.05-14.26,28.49-37.93,30.84-61.02c1.1-11.68,0.11-23.46-1.3-35.12
			c-2.12-17.48-5.4-35.09-4.38-52.8c0.23-5.91,1.02-11.77,1.97-17.6c6.39-34.84,24.26-67.42,49.78-91.9
			c-24.39,25.29-42.45,57.37-48.8,92.08c-0.95,5.79-1.73,11.61-1.96,17.47c-1.01,17.67,2.26,35.13,4.37,52.63
			C924.33,811.84,918.74,852.73,888.52,873.95L888.52,873.95z"/>
	</g>
	<text transform="matrix(1 0 0 1 807.9219 614.1006)" class="st1 st2">Country</text>
	<text transform="matrix(1 0 0 1 809.5015 655.2061)" class="st5 st2">10–20</text>
	<line class="st6" x1="884.96" y1="664.01" x2="884.96" y2="695.87"/>
	<line class="st6" x1="794.27" y1="693.11" x2="885.39" y2="693.11"/>
	<line class="st7" x1="788.79" y1="689.27" x2="879.91" y2="689.27"/>
	<line class="st7" x1="879.36" y1="658.91" x2="879.36" y2="689.27"/>
	<path class="st8" d="M850.78,664.37"/>
	<path class="st8" d="M848.15,667.88"/>
	<line class="st7" x1="803.69" y1="644.06" x2="739.99" y2="644.06"/>
	<g>
		<polygon points="802.75,643.05 810.42,644.05 802.75,645.05 802.75,643.05 		"/>
	</g>
	<text transform="matrix(1 0 0 1 527.813 614.2212)"><tspan x="0" y="0" class="st5 st9">Per capita CO2 </tspan><tspan x="-25.94" y="32.95" class="st5 st9">emissions in 2003</tspan></text>
	<text transform="matrix(1 0 0 1 584.7046 706.5186)"><tspan x="0" y="0" class="st5 st9">Per capita CO2</tspan><tspan x="-32.86" y="32.95" class="st5 st9">emissions in 2022</tspan></text>
	<g>
		<polygon points="878.32,665.09 879.32,657.42 880.32,665.09 878.32,665.09 		"/>
	</g>
	<text transform="matrix(1 0 0 1 927.2529 337.4209)" class="st5 st2">2003</text>
	<text transform="matrix(1 0 0 1 1198.4229 447.3696)" class="st5 st2">2008</text>
	<text transform="matrix(1 0 0 1 1245.5186 677.6611)" class="st5 st2">2013</text>
	<text transform="matrix(1 0 0 1 1055.0957 896.9414)" class="st5 st2">2018</text>
	<text transform="matrix(1 0 0 1 845.9438 904.9678)" class="st5 st2">2022</text>
</g>
<rect x="60" y="72" class="st10" width="1808" height="948.32"/>
</svg>
