<?xml version="1.0" encoding="utf-8"?>
<!-- Generator: Adobe Illustrator 28.1.0, SVG Export Plug-In . SVG Version: 6.00 Build 0)  -->
<svg version="1.1" id="Layer_1" xmlns="http://www.w3.org/2000/svg" xmlns:xlink="http://www.w3.org/1999/xlink" x="0px" y="0px"
	 viewBox="0 0 600 600" style="enable-background:new 0 0 600 600;" xml:space="preserve">
<style type="text/css">
	.st0{fill:#CCCCCC;}
	.st1{fill:#883037;}
	.st2{fill:#010101;}
	.st3{font-family:'LibreBaskerville-Bold';}
	.st4{font-size:53.5495px;}
	.st5{fill:none;stroke:#000000;stroke-width:2;stroke-miterlimit:10;}
</style>
<circle class="st0" cx="316.39" cy="334.45" r="48.8"/>
<g>
	<path class="st1" d="M315.16,90.5c-14.75,15.64-15.82,39.31-11.27,59.32c6.17,25.8,21.74,48.26,29.07,73.74
		c10.3,35.77,4.54,76.65-18.08,106.58c19.56-31.17,26.6-70.48,16.16-106.03c-7.37-25.5-22.9-47.88-29.1-73.85
		C297.02,129.93,298.65,105.28,315.16,90.5L315.16,90.5z"/>
</g>
<g>
	<path class="st1" d="M358.08,88.88c-18.09,12.78-23.56,36.69-22.49,57.74c1.6,27.13,13.24,52.51,16.07,79.48
		c4.02,37.82-9.37,77.44-36.77,104.02c26.03-27.42,39.86-66.22,35.78-103.92c-2.85-26.99-14.48-52.32-16.07-79.54
		C333.34,125.4,339.24,101.15,358.08,88.88L358.08,88.88z"/>
</g>
<g>
	<path class="st1" d="M399.49,101.38c-19.96,9.35-29.5,31.81-32.15,52.62c-3.19,26.85,3.77,53.75,1.81,80.67
		c-2.69,37.75-22.75,74.21-54.25,95.45c30.3-22.3,50.65-57.88,53.25-95.52c1.94-26.94-5.01-53.79-1.8-80.72
		C368.85,132.82,378.89,110.1,399.49,101.38L399.49,101.38z"/>
</g>
<g>
	<path class="st1" d="M438.13,119.6c-21.29,5.73-34.61,26.18-40.84,46.21c-7.83,25.89-5.67,53.59-12.29,79.76
		c-9.23,36.7-35.35,69.12-70.08,84.53c33.73-16.67,59.98-48.16,69.11-84.78c6.61-26.19,4.45-53.85,12.31-79.81
		C402.48,145.21,416.32,124.59,438.13,119.6L438.13,119.6z"/>
</g>
<g>
	<path class="st1" d="M476.19,145.89c-22.07,1.62-39.06,19.27-48.99,37.83c-12.61,24.04-15.72,51.76-27.2,76.3
		c-16.04,34.43-47.91,61.45-85.06,70.08c36.41-10.06,68.23-36.14,84.15-70.5c11.47-24.56,14.56-52.24,27.22-76.35
		C436.2,164.4,453.75,146.68,476.19,145.89L476.19,145.89z"/>
</g>
<g>
	<path class="st1" d="M503.91,178.53c-21.67-1.72-40.99,12.43-53.87,28.69c-16.41,21.2-24.25,47.69-39.67,69.61
		c-21.65,30.77-57.49,52.12-95.4,53.27c36.95-4.32,72.37-23.68,93.76-54.42c15.42-21.96,23.21-48.36,39.74-69.69
		C461.36,189.22,481.81,174.89,503.91,178.53L503.91,178.53z"/>
</g>
<g>
	<path class="st1" d="M523.67,214.49c-20.77-5.8-42.17,4.77-57.4,18.5c-19.5,17.87-31.51,42.26-50.14,60.96
		c-26.08,26.27-64.23,40.52-101.14,36.14c36.7,2.79,74.48-10.6,100.43-36.84c18.63-18.73,30.61-43.08,50.18-61
		C480.89,218.23,502.83,207.79,523.67,214.49L523.67,214.49z"/>
</g>
<g>
	<path class="st1" d="M538.4,258.69c-18.91-9.57-41.57-3.48-58.89,6.83c-22.23,13.49-38.49,34.69-60.04,49.16
		C389.27,335,349.75,341.42,315,330.1c34.85,9.72,73.84,4.07,103.9-16.25c21.56-14.48,37.78-35.66,60.09-49.19
		C496.42,254.08,519.59,248.23,538.4,258.69L538.4,258.69z"/>
</g>
<g>
	<path class="st1" d="M543.96,296.91c-16.85-12.37-39.88-10.13-58.41-2.91c-23.82,9.51-43.08,27.5-66.4,38.07
		c-32.68,14.87-72.17,14.7-104.14-1.96c32.33,15.1,71.18,15.95,103.72,1.05c23.33-10.59,42.55-28.56,66.45-38.1
		C503.87,285.6,527.37,283.67,543.96,296.91L543.96,296.91z"/>
</g>
<g>
	<path class="st1" d="M544,337.8c-14.26-15-37.1-16.84-56.42-13.05c-24.88,5.11-46.8,19.27-71.38,25.5
		c-34.45,8.78-72.92,1.71-101.16-20.13c28.87,20.37,66.59,27.99,100.91,19.16c24.59-6.24,46.47-20.4,71.43-25.51
		C506.9,319.76,530.14,321.99,544,337.8L544,337.8z"/>
</g>
<g>
	<path class="st1" d="M530.28,375.93c-11.3-16.16-32.32-21.59-51.15-21.32c-29.16,0.89-56.99,14.41-86.47,12.21
		c-29.27-1.62-58.35-14.31-77.61-36.69c24.36,23.39,58.26,37.22,92.17,34.59c24.31-1.77,47.36-11.47,71.87-12.1
		C498.32,352.04,520.19,358.23,530.28,375.93L530.28,375.93z"/>
</g>
<g>
	<path class="st1" d="M510.97,414.09c-7.32-17.8-26.49-27.09-44.52-30.32c-23.29-3.97-47.08,0.91-70.49-1.99
		c-32.83-4.02-63.84-23.13-80.91-51.63c18.19,27.36,48.29,46.71,81.03,50.64c23.43,2.89,47.17-2,70.54,1.99
		C484.91,385.89,504.31,395.69,510.97,414.09L510.97,414.09z"/>
</g>
<g>
	<path class="st1" d="M493.64,447.03c-4.12-18.82-21.41-31.32-38.62-37.65c-26.7-9.44-56.55-6.95-82.44-19.26
		c-25.87-11.68-47.34-33.35-57.51-59.96c13.18,30.15,39.49,54.47,71.08,64.04c22.6,6.92,46.86,6.24,69.21,14.24
		C472.85,414.69,490.28,427.73,493.64,447.03L493.64,447.03z"/>
</g>
<g>
	<path class="st1" d="M474.08,478.28c-0.88-19.6-16.07-35.13-32.24-44.45c-20.97-11.84-45.48-15.36-66.94-26.22
		c-30.11-15.18-53.26-44.2-59.82-77.43c8,32.53,30.22,61.48,60.26,76.54c21.48,10.85,45.94,14.35,66.99,26.24
		C458.8,442.25,474.03,458.33,474.08,478.28L474.08,478.28z"/>
</g>
<g>
	<path class="st1" d="M440.81,503.53c2.86-19.12-8.89-37.01-22.77-49.09c-21.66-18.38-50.55-26.71-70.43-47.49
		c-20.09-20.19-32.48-48.17-32.53-76.75c1.59,32.97,17.59,65.17,43.8,85.42c18.72,14.56,41.71,22.57,59.82,38.06
		C432.86,465.79,444.55,484.23,440.81,503.53L440.81,503.53z"/>
</g>
<g>
	<path class="st1" d="M407.5,520.72c5.56-18.13-2.75-37.28-14.07-51.41c-17.9-21.62-44.62-34.76-60.38-58.45
		c-16.07-23.19-23.64-52.79-17.97-80.64c-3.3,32.31,6.2,66.21,28.24,90.4c15.72,17.41,36.7,29.18,51.67,47.43
		C406.79,482.31,415.02,502.6,407.5,520.72L407.5,520.72z"/>
</g>
<g>
	<path class="st1" d="M372.48,530.49c8.95-16.54,4.14-36.8-4.54-52.45c-13.71-24-37.36-41.21-48.64-66.81
		c-11.67-25.13-13.72-54.85-4.25-81c-9.47,30.69-5.54,65.43,11.7,92.65c12.28,19.53,30.65,34.5,42.06,54.67
		C377.76,493.33,382.32,514.08,372.48,530.49L372.48,530.49z"/>
</g>
<g>
	<path class="st1" d="M336.05,526.01c10.99-13.96,9.79-33.58,4.25-49.56c-8.87-24.57-28.1-44.42-34.45-70.09
		c-6.79-25.3-3.89-53.31,9.21-76.11c-11.75,23.19-15.01,50.7-8.24,75.85c6.38,25.66,25.57,45.39,34.43,70.02
		C347.02,492.26,347.9,512.33,336.05,526.01L336.05,526.01z"/>
</g>
<g>
	<path class="st1" d="M300.07,521.18c13-11.38,15.36-30.36,12.93-46.62c-4.08-25.08-18.91-47.51-20.39-73.19
		c-1.96-25.4,5.82-51.67,22.44-71.12c-15.37,20.08-23.41,45.79-21.45,71.04c1.51,25.67,16.32,47.97,20.38,73.11
		C316.62,490.88,313.86,510.24,300.07,521.18L300.07,521.18z"/>
</g>
<g>
	<path class="st1" d="M265.86,514.32c13.07-10.54,19.19-27.39,20.41-43.72c1.06-16.66-3.63-32.95-5.25-49.46
		c-0.88-8.3-0.67-16.74,0.53-25.01c3.82-24.75,15.76-48.2,33.47-65.88c-16.55,18.46-28.7,41.4-32.48,66.03
		c-1.19,8.19-1.4,16.52-0.53,24.76c1.63,16.52,6.33,32.86,5.25,49.62C286.22,487.2,279.61,504.35,265.86,514.32L265.86,514.32z"/>
</g>
<text transform="matrix(1 0 0 1 54.8926 327.5132)" class="st2 st3 st4">Australia</text>
<rect x="34.42" y="34.42" class="st5" width="531.15" height="531.15"/>
<rect x="34.42" y="34.42" class="st5" width="531.15" height="531.15"/>
</svg>
