<?xml version="1.0" encoding="utf-8"?>
<!-- Generator: Adobe Illustrator 28.1.0, SVG Export Plug-In . SVG Version: 6.00 Build 0)  -->
<svg version="1.1" id="Layer_1" xmlns="http://www.w3.org/2000/svg" xmlns:xlink="http://www.w3.org/1999/xlink" x="0px" y="0px"
	 viewBox="0 0 600 600" style="enable-background:new 0 0 600 600;" xml:space="preserve">
<style type="text/css">
	.st0{fill:none;stroke:#000000;stroke-width:2;stroke-miterlimit:10;}
	.st1{fill:#CCCCCC;}
	.st2{fill:#883037;}
	.st3{fill:#010101;}
	.st4{font-family:'LibreBaskerville-Bold';}
	.st5{font-size:53.7048px;}
</style>
<rect x="34.42" y="34.42" class="st0" width="531.15" height="531.15"/>
<circle class="st1" cx="363.64" cy="335.76" r="20.93"/>
<g>
	<path class="st2" d="M363.73,213.82c-7.43,7.87-7.96,19.78-5.67,29.85c3.78,15.54,14.18,28.91,16.36,44.97
		c2.45,15.87-1.07,32.87-10.82,45.77c8.41-13.47,12.31-29.87,9.84-45.62c-2.19-16.03-12.57-29.31-16.34-44.9
		C354.59,233.68,355.43,221.21,363.73,213.82L363.73,213.82z"/>
</g>
<g>
	<path class="st2" d="M384.83,215.77c-8.92,6.31-11.57,18.04-11.06,28.39c1,15.97,8.89,30.91,8.22,47.1
		c-0.35,16.02-6.87,31.95-18.41,43.15c10.95-11.57,17.57-27.21,17.91-43.16c0.66-16.17-7.24-31.07-8.22-47.06
		C372.65,233.74,375.57,221.79,384.83,215.77L384.83,215.77z"/>
</g>
<g>
	<path class="st2" d="M405.72,220.47c-9.97,4.68-14.68,15.84-16.01,26.21c-1.84,16.02,3.33,32.25-0.2,48.18
		c-3.19,15.83-12.48,30.48-25.92,39.54c12.92-9.54,22.26-23.88,25.43-39.64c3.52-15.92-1.67-32.11,0.19-48.15
		C390.46,236.14,395.47,224.79,405.72,220.47L405.72,220.47z"/>
</g>
<g>
	<path class="st2" d="M423.69,231.74c-10.41,2.81-16.86,12.77-19.91,22.54c-4.52,15.13-2.29,31.67-8.43,46.43
		c-5.78,14.72-17.25,27.26-31.75,33.69c14.08-7,25.54-19.22,31.29-33.88c6.11-14.75,3.88-31.24,8.41-46.39
		C406.28,244.24,413.06,234.16,423.69,231.74L423.69,231.74z"/>
</g>
<g>
	<path class="st2" d="M439.12,248.14c-10.36,0.78-18.27,9.03-22.93,17.72c-7.02,13.5-7.92,29.56-16.4,42.42
		c-8.14,12.89-21.27,22.68-36.18,26.13c14.59-4.08,27.66-13.56,35.76-26.39c8.47-12.85,9.34-28.87,16.38-42.39
		C420.37,256.8,428.62,248.48,439.12,248.14L439.12,248.14z"/>
</g>
<g>
	<path class="st2" d="M451.47,263.92c-10.07-0.77-19.03,5.81-25.02,13.36c-9.1,11.85-12.74,27.25-23.16,38.23
		c-10.12,11.08-24.57,18.49-39.67,18.89c14.71-1.8,28.92-8.55,38.93-19.56c10.39-10.98,13.97-26.3,23.12-38.17
		C431.64,268.87,441.23,262.18,451.47,263.92L451.47,263.92z"/>
</g>
<g>
	<path class="st2" d="M454.34,284.15c-9.06-2.49-18.3,2.11-24.93,8.07c-10.11,9.33-15.81,22.73-26.97,31.07
		c-10.89,8.47-25.07,12.79-38.82,11.12c13.67,0.97,27.69-3.08,38.51-11.51c11.15-8.34,16.8-21.7,26.94-31.05
		C435.71,285.74,445.3,281.2,454.34,284.15L454.34,284.15z"/>
</g>
<g>
	<path class="st2" d="M468.75,300.8c-8.93-4.5-19.55-1.62-27.71,3.23c-12.5,7.64-21.22,20.44-34.6,26.82
		c-13.12,6.58-28.82,8.13-42.82,3.56c14.06,3.88,29.54,2.55,42.59-4c13.37-6.39,22.05-19.16,34.57-26.81
		C448.98,298.61,459.92,295.86,468.75,300.8L468.75,300.8z"/>
</g>
<g>
	<path class="st2" d="M469.1,319.11c-7.79-5.69-18.36-4.64-26.9-1.32c-13.12,5.29-23.46,16.09-37.23,20.05
		c-13.55,4.18-28.75,3.17-41.35-3.43c12.78,5.92,27.73,7.12,41.2,2.95c13.75-3.96,24.05-14.75,37.19-20.04
		C450.62,313.88,461.49,313,469.1,319.11L469.1,319.11z"/>
</g>
<g>
	<path class="st2" d="M466.58,337.86c-6.45-6.74-16.67-7.54-25.36-5.84c-13.38,2.8-25.06,11.3-38.83,12.72
		c-13.6,1.67-27.89-1.89-38.75-10.33c11.15,7.8,25.17,11.5,38.69,9.83c13.75-1.42,25.39-9.92,38.8-12.71
		C449.89,329.72,460.38,330.74,466.58,337.86L466.58,337.86z"/>
</g>
<g>
	<path class="st2" d="M464.11,355.79c-5.29-7.52-15.09-10.04-23.88-9.92c-9.07,0.23-17.79,3.2-26.7,4.76
		c-8.99,1.73-18.42,1.25-27.16-1.52c-8.74-2.69-16.78-7.77-22.74-14.7c9.8,9.29,22.74,15.45,36.29,16.17
		c13.75,1,26.63-5.31,40.3-5.7C449.18,344.59,459.46,347.53,464.11,355.79L464.11,355.79z"/>
</g>
<g>
	<path class="st2" d="M452.62,372.55c-1.61-4-4.74-7.18-8.35-9.35c-11.2-7.12-24.85-4.69-37.46-4.88c-8.6-0.04-17.18-2.2-24.73-6.35
		c-7.55-4.09-14.03-10.19-18.45-17.55c7.12,10.62,18.13,18.64,30.54,21.79c12.55,3.44,25.56-0.03,38.31,2.09
		C440.79,359.71,449.63,364.19,452.62,372.55L452.62,372.55z"/>
</g>
<g>
	<path class="st2" d="M446.41,388.59c-0.91-4.31-3.49-8.07-6.74-10.9c-10.01-9.15-24.18-9.13-36.83-11.56
		c-8.64-1.57-16.9-5.26-23.75-10.77c-6.87-5.46-12.31-12.74-15.45-20.93c5.27,11.95,14.93,21.98,26.86,27.35
		c12.01,5.69,25.73,4.51,38.18,8.91C436.78,373.58,444.88,379.65,446.41,388.59L446.41,388.59z"/>
</g>
<g>
	<path class="st2" d="M436.51,402.31c-0.16-4.43-2.08-8.6-4.83-11.96c-8.36-10.79-22.43-13.19-34.57-17.76
		c-8.31-3.03-15.87-8.11-21.73-14.75c-5.89-6.59-10.03-14.74-11.76-23.41c3.19,12.76,11.06,24.35,21.98,31.73
		c10.95,7.7,24.76,8.87,36.36,15.36C429.52,385.76,436.52,393.17,436.51,402.31L436.51,402.31z"/>
</g>
<g>
	<path class="st2" d="M423.31,416.98c1.36-9.12-4.21-17.59-10.8-23.36c-10.29-8.76-24.02-12.74-33.47-22.64
		c-9.54-9.62-15.42-22.94-15.4-36.54c0.66,13.44,6.26,26.63,15.76,36.19c9.46,9.89,23.09,13.81,33.44,22.62
		C419.57,399,425.12,407.82,423.31,416.98L423.31,416.98z"/>
</g>
<g>
	<path class="st2" d="M406.33,420.34c1.23-4.09,0.86-8.44-0.55-12.35c-3.88-12.52-15.67-19.36-25.07-27.62
		c-6.49-5.57-11.62-12.75-14.66-20.76c-3.11-7.96-4.06-16.8-2.42-25.18c-1.06,12.56,1.93,25.58,9.27,35.91
		c7.27,10.65,19.26,16.33,27.57,26.16C405.89,402.9,409.71,412.14,406.33,420.34L406.33,420.34z"/>
</g>
<g>
	<path class="st2" d="M391.69,429.33c4.18-7.92,1.81-17.48-2.37-24.89c-6.58-11.31-17.91-19.43-23.37-31.55
		c-5.64-11.89-6.74-26-2.32-38.46c-3.71,12.53-2.84,26.42,2.78,38.25c5.48,12.12,16.7,20.1,23.35,31.51
		C394.06,411.65,396.31,421.53,391.69,429.33L391.69,429.33z"/>
</g>
<g>
	<path class="st2" d="M373.2,423.73c5.01-6.4,4.43-15.3,1.92-22.6c-4.03-11.16-12.82-20.27-15.71-31.97
		c-3.1-11.54-1.78-24.33,4.22-34.72c-3.57,7.06-5.37,14.99-5.34,22.89c0.08,7.91,2.18,15.75,6.04,22.66
		c3.72,6.97,8.56,13.42,11.26,20.98C378.24,408.32,378.62,417.52,373.2,423.73L373.2,423.73z"/>
</g>
<g>
	<path class="st2" d="M356.24,428.67c3.19-2.74,5.15-6.63,6.02-10.66c3.08-12.59-3.45-24.45-7.22-36.16
		c-2.66-7.96-3.35-16.58-1.88-24.85c1.42-8.27,5.03-16.16,10.46-22.55c-7.58,9.91-11.55,22.6-10.58,35.06
		c0.75,12.68,8.03,23.63,10.06,36.08C364.42,413.71,363.04,423.29,356.24,428.67L356.24,428.67z"/>
</g>
<g>
	<path class="st2" d="M340.79,419.89c6.06-4.9,8.89-12.72,9.46-20.3c0.49-7.7-1.68-15.26-2.44-22.96
		c-0.84-7.73,0.44-15.61,3.25-22.84c2.76-7.25,7.06-13.9,12.55-19.36c-5.16,5.72-9.27,12.38-12.08,19.54
		c-2.79,7.16-4.06,14.94-3.22,22.61c0.75,7.64,2.93,15.22,2.44,23.04C350.27,407.31,347.19,415.28,340.79,419.89L340.79,419.89z"/>
</g>
<text transform="matrix(1 0 0 1 166.7128 330.6395)" class="st3 st4 st5">Austria</text>
</svg>
