<?xml version="1.0" encoding="utf-8"?>
<!-- Generator: Adobe Illustrator 28.1.0, SVG Export Plug-In . SVG Version: 6.00 Build 0)  -->
<svg version="1.1" id="Layer_1" xmlns="http://www.w3.org/2000/svg" xmlns:xlink="http://www.w3.org/1999/xlink" x="0px" y="0px"
	 viewBox="0 0 600 600" style="enable-background:new 0 0 600 600;" xml:space="preserve">
<style type="text/css">
	.st0{fill:none;stroke:#000000;stroke-width:2;stroke-miterlimit:10;}
	.st1{fill:#CCCCCC;}
	.st2{fill:#883037;}
	.st3{fill:#010101;}
	.st4{font-family:'LibreBaskerville-Bold';}
	.st5{font-size:59.0341px;}
</style>
<rect x="34.42" y="34.42" class="st0" width="531.15" height="531.15"/>
<circle class="st1" cx="324.95" cy="340.09" r="68.19"/>
<g>
	<path class="st2" d="M325.1,82.4c-15.92,16.78-17.09,42.26-12.19,63.78c6.64,27.73,23.36,51.88,31.25,79.27
		c11.07,38.43,4.84,82.32-19.36,114.54c21.14-33.46,28.66-75.77,17.44-113.98c-7.92-27.41-24.61-51.46-31.27-79.37
		C305.68,124.78,307.41,98.32,325.1,82.4L325.1,82.4z"/>
</g>
<g>
	<path class="st2" d="M369.71,89.18c-18.82,13.28-24.51,38.14-23.4,60.03c1.66,28.2,13.76,54.59,16.7,82.63
		c4.18,39.31-9.75,80.48-38.2,108.14c27.09-28.49,41.46-68.84,37.21-108.03c-2.96-28.06-15.05-54.39-16.71-82.68
		C344.01,127.15,350.14,101.94,369.71,89.18L369.71,89.18z"/>
</g>
<g>
	<path class="st2" d="M411.15,106.52c-20.38,9.54-30.12,32.47-32.82,53.7c-3.26,27.4,3.84,54.86,1.85,82.33
		c-2.74,38.52-23.22,75.73-55.35,97.41c30.94-22.75,51.7-59.07,54.36-97.48c1.98-27.49-5.12-54.89-1.84-82.38
		C379.89,138.61,390.13,115.42,411.15,106.52L411.15,106.52z"/>
</g>
<g>
	<path class="st2" d="M448.51,128.66c-21.37,5.75-34.74,26.28-40.99,46.38c-7.86,25.98-5.69,53.79-12.34,80.06
		c-9.27,36.84-35.48,69.37-70.34,84.85c33.86-16.73,60.21-48.34,69.37-85.09c6.64-26.29,4.46-54.05,12.35-80.11
		C412.73,154.37,426.62,133.67,448.51,128.66L448.51,128.66z"/>
</g>
<g>
	<path class="st2" d="M490.71,150.48c-22.71,1.65-40.19,19.81-50.4,38.9c-12.97,24.72-16.17,53.23-27.97,78.48
		c-16.5,35.42-49.28,63.19-87.47,72.09c37.45-10.32,70.19-37.16,86.56-72.51c11.8-25.26,14.98-53.73,28-78.53
		C449.59,169.52,467.63,151.31,490.71,150.48L490.71,150.48z"/>
</g>
<g>
	<path class="st2" d="M511.81,189.99c-21.43-1.69-40.55,12.31-53.29,28.39c-16.23,20.98-23.99,47.18-39.25,68.86
		c-21.42,30.44-56.88,51.57-94.39,52.7c36.55-4.29,71.59-23.44,92.75-53.84c15.26-21.72,22.96-47.84,39.32-68.95
		C469.71,200.56,489.95,186.38,511.81,189.99L511.81,189.99z"/>
</g>
<g>
	<path class="st2" d="M522.25,230.62c-19.64-5.46-39.86,4.54-54.27,17.52c-18.44,16.9-29.8,39.96-47.42,57.65
		c-24.67,24.84-60.76,38.34-95.67,34.16c34.7,2.59,70.42-10.04,94.96-34.86c17.62-17.71,28.94-40.74,47.46-57.69
		C481.78,234.13,502.54,224.27,522.25,230.62L522.25,230.62z"/>
</g>
<g>
	<path class="st2" d="M542.64,270.35c-18.43-9.31-40.51-3.38-57.39,6.67c-21.66,13.14-37.51,33.81-58.52,47.91
		c-29.43,19.81-67.95,26.07-101.81,15.02c33.96,9.45,71.96,3.96,101.25-15.85c21.01-14.12,36.82-34.75,58.56-47.94
		C501.73,265.84,524.31,260.14,542.64,270.35L542.64,270.35z"/>
</g>
<g>
	<path class="st2" d="M552.79,306.91c-16.77-12.31-39.69-10.08-58.13-2.9c-23.7,9.47-42.88,27.37-66.08,37.89
		c-32.52,14.8-71.83,14.63-103.64-1.96c32.17,15.03,70.84,15.87,103.22,1.05c23.22-10.54,42.34-28.42,66.13-37.91
		C512.89,295.65,536.27,293.74,552.79,306.91L552.79,306.91z"/>
</g>
<g>
	<path class="st2" d="M553.69,347.63c-14.25-14.99-37.06-16.83-56.36-13.04c-24.85,5.1-46.76,19.25-71.31,25.47
		c-34.42,8.77-72.85,1.71-101.06-20.11c28.84,20.35,66.53,27.96,100.82,19.14c24.57-6.24,46.42-20.38,71.36-25.49
		C516.63,329.61,539.85,331.84,553.69,347.63L553.69,347.63z"/>
</g>
<g>
	<path class="st2" d="M546.72,387.16c-11.62-16.67-33.3-22.27-52.7-21.99c-25.08,0.66-48.92,10.67-73.94,12.47
		c-35.12,2.52-71.89-10.78-95.11-37.66c25.07,24.14,60.02,38.37,94.96,35.66c25.05-1.83,48.79-11.82,74.05-12.47
		C513.79,362.58,536.31,368.94,546.72,387.16L546.72,387.16z"/>
</g>
<g>
	<path class="st2" d="M530.25,427.95c-7.66-18.66-27.75-28.41-46.64-31.79c-24.4-4.16-49.33,0.96-73.86-2.08
		c-34.4-4.21-66.86-24.23-84.77-54.08c19.04,28.7,50.6,48.97,84.89,53.08c24.55,3.02,49.42-2.1,73.91,2.09
		C502.94,398.42,523.26,408.67,530.25,427.95L530.25,427.95z"/>
</g>
<g>
	<path class="st2" d="M511.38,461.99c-4.28-19.66-22.33-32.71-40.3-39.32c-23.25-8.32-48.62-7.62-72.19-14.85
		c-33.06-10.1-61.48-35.4-73.9-67.82c13.73,31.49,41.21,56.87,74.19,66.86c23.59,7.23,48.91,6.51,72.24,14.87
		C489.67,428.26,507.85,441.85,511.38,461.99L511.38,461.99z"/>
</g>
<g>
	<path class="st2" d="M483.75,487.89c-0.88-19.57-16.04-35.08-32.2-44.38c-25.12-14.06-55.46-16.71-79.28-33.51
		c-23.91-16.16-41.67-41.57-47.29-69.98c7.99,32.48,30.17,61.38,60.17,76.42c21.45,10.83,45.87,14.33,66.89,26.2
		C468.49,451.92,483.7,467.97,483.75,487.89L483.75,487.89z"/>
</g>
<g>
	<path class="st2" d="M453.18,516.76c2.92-19.5-9.06-37.74-23.21-50.05c-22.09-18.74-51.53-27.23-71.81-48.41
		c-20.48-20.58-33.11-49.11-33.17-78.25c1.61,33.62,17.93,66.45,44.65,87.1c19.08,14.84,42.53,23.02,60.98,38.8
		C445.07,478.28,456.99,497.08,453.18,516.76L453.18,516.76z"/>
</g>
<g>
	<path class="st2" d="M420.01,535.89c5.74-18.64-2.8-38.34-14.44-52.87c-18.41-22.22-45.87-35.73-62.07-60.08
		c-16.52-23.84-24.29-54.25-18.5-82.88c-3.44,33.22,6.35,68.08,29.01,92.95c16.16,17.9,37.73,30,53.12,48.75
		C419.25,496.42,427.71,517.26,420.01,535.89L420.01,535.89z"/>
</g>
<g>
	<path class="st2" d="M384.58,547.93c9.31-17.17,4.32-38.2-4.69-54.44c-14.23-24.92-38.77-42.77-50.49-69.35
		c-12.11-26.08-14.23-56.91-4.43-84.06c-9.86,31.85-5.77,67.92,12.13,96.18c12.75,20.27,31.81,35.8,43.66,56.74
		C390.04,509.37,394.78,530.9,384.58,547.93L384.58,547.93z"/>
</g>
<g>
	<path class="st2" d="M345.83,534.59c10.92-13.87,9.72-33.37,4.22-49.24c-8.81-24.41-27.92-44.14-34.23-69.65
		c-6.75-25.14-3.86-52.97,9.15-75.62c-11.67,23.05-14.91,50.37-8.19,75.36c6.34,25.49,25.4,45.1,34.21,69.57
		C356.74,501.06,357.6,521,345.83,534.59L345.83,534.59z"/>
</g>
<g>
	<path class="st2" d="M309.44,538.02c13.49-11.79,15.94-31.47,13.42-48.33c-4.23-26-19.61-49.25-21.14-75.87
		c-2.03-26.33,6.04-53.55,23.25-73.73c-18.65,24.25-26.75,56.56-20.44,86.61c4.45,21.53,15.86,41.02,19.32,62.84
		C326.58,506.61,323.72,526.67,309.44,538.02L309.44,538.02z"/>
</g>
<g>
	<path class="st2" d="M273.16,533.97c13.79-11.08,20.24-28.85,21.53-46.05c1.12-17.55-3.83-34.71-5.53-52.1
		c-0.92-8.75-0.71-17.63,0.56-26.33c4.03-26.07,16.61-50.75,35.23-69.39c-17.46,19.42-30.25,43.6-34.24,69.54
		c-1.26,8.63-1.47,17.4-0.55,26.09c1.71,17.4,6.66,34.61,5.53,52.26C294.57,505.4,287.62,523.46,273.16,533.97L273.16,533.97z"/>
</g>
<text transform="matrix(1 0 0 1 80.3788 328.91)" class="st3 st4 st5">Canada</text>
</svg>
