<?xml version="1.0" encoding="utf-8"?>
<!-- Generator: Adobe Illustrator 28.1.0, SVG Export Plug-In . SVG Version: 6.00 Build 0)  -->
<svg version="1.1" id="Layer_1" xmlns="http://www.w3.org/2000/svg" xmlns:xlink="http://www.w3.org/1999/xlink" x="0px" y="0px"
	 viewBox="0 0 600 600" style="enable-background:new 0 0 600 600;" xml:space="preserve">
<style type="text/css">
	.st0{fill:#CCCCCC;}
	.st1{fill:#883037;}
	.st2{fill:#010101;}
	.st3{font-family:'LibreBaskerville-Bold';}
	.st4{font-size:57.6202px;}
	.st5{fill:none;stroke:#000000;stroke-width:2;stroke-miterlimit:10;}
</style>
<circle class="st0" cx="384.06" cy="305.1" r="29.9"/>
<g>
	<path class="st1" d="M384.02,133.13c-10.74,11.04-11.51,28.06-8.25,42.36c5.36,22.03,20.1,40.97,23.18,63.73
		c3.49,22.48-1.61,46.42-15.13,64.83c12.22-18.95,17.63-42.35,14.15-64.68c-3.11-22.74-17.82-41.56-23.16-63.65
		C371.31,161.23,372.46,143.8,384.02,133.13L384.02,133.13z"/>
</g>
<g>
	<path class="st1" d="M413.92,135.86c-12.69,8.86-16.54,25.57-15.78,40.26c1.41,22.64,12.6,43.83,11.66,66.76
		c-0.49,22.7-9.76,45.22-25.99,61.17c15.65-16.33,25.01-38.56,25.49-61.19c0.93-22.93-10.26-44.06-11.66-66.73
		C396.79,161.34,400.86,144.46,413.92,135.86L413.92,135.86z"/>
</g>
<g>
	<path class="st1" d="M439.87,146.96c-13.64,6.5-20.04,21.96-21.67,36.23c-2.29,22.03,5.08,44.24,0.48,66.17
		c-4.13,21.78-16.67,41.98-34.88,54.72c17.69-13.21,30.29-33.1,34.39-54.81c4.59-21.93-2.79-44.08-0.49-66.13
		C419.27,168.73,425.91,153.14,439.87,146.96L439.87,146.96z"/>
</g>
<g>
	<path class="st1" d="M467.6,158.71c-14.67,3.97-23.79,18.12-27.98,31.95c-6.23,21.38-2.95,44.69-11.45,65.56
		c-8.01,20.81-24.07,38.53-44.38,47.86c19.89-9.89,35.94-27.3,43.92-48.04c8.49-20.87,5.19-44.12,11.44-65.53
		C443.28,176.54,452.67,162.31,467.6,158.71L467.6,158.71z"/>
</g>
<g>
	<path class="st1" d="M496.21,175.63c-15.43,1.05-27.33,13.36-34.25,26.33c-10.46,20.1-11.8,44.01-24.42,63.15
		c-12.12,19.18-31.65,33.68-53.77,38.97c21.81-5.92,41.28-20.12,53.35-39.23c12.61-19.15,13.92-43,24.4-63.12
		C468.42,188.62,480.6,176.27,496.21,175.63L496.21,175.63z"/>
</g>
<g>
	<path class="st1" d="M509.35,202.25c-14.51-1.27-27.45,8.32-35.99,19.24c-12.98,17.08-18.09,39.21-32.95,55.04
		c-14.42,15.98-35.05,26.53-56.65,27.56c21.2-2.37,41.59-12.35,55.91-28.23c14.84-15.85,19.87-37.88,32.9-54.99
		C481.12,209.67,494.62,200.11,509.35,202.25L509.35,202.25z"/>
</g>
<g>
	<path class="st1" d="M515.87,230.73c-13.17-3.72-26.75,2.98-36.4,11.71c-14.73,13.62-23,33.14-39.25,45.31
		c-15.84,12.35-36.46,18.6-56.48,16.35c19.93,1.56,40.4-4.43,56.17-16.75c16.23-12.18,24.46-31.66,39.22-45.29
		C488.81,233.2,502.67,226.57,515.87,230.73L515.87,230.73z"/>
</g>
<g>
	<path class="st1" d="M529.76,257.41c-12.36-6.32-27.21-2.36-38.54,4.4c-17.36,10.62-29.48,28.39-48.06,37.26
		c-18.21,9.14-39.97,11.25-59.44,5.03c19.52,5.52,41.07,3.64,59.21-5.47c18.57-8.88,30.64-26.62,48.03-37.24
		C502.35,254.48,517.46,250.64,529.76,257.41L529.76,257.41z"/>
</g>
<g>
	<path class="st1" d="M532.56,284.1c-10.84-8.21-25.84-6.94-37.93-2.36c-18.56,7.26-33.3,22.33-52.74,27.7
		c-19.13,5.69-40.49,4-58.19-5.35c17.88,8.66,38.99,10.54,58.05,4.87c19.44-5.38,34.11-20.42,52.71-27.69
		C506.63,276.57,521.86,275.46,532.56,284.1L532.56,284.1z"/>
</g>
<g>
	<path class="st1" d="M527.73,309.1c-8.94-9.5-23.33-10.7-35.5-8.32c-18.73,3.89-35.09,15.77-54.35,17.73
		c-19.02,2.31-38.95-2.72-54.2-14.42c15.53,11.06,35.19,16.23,54.14,13.92c19.25-1.97,35.56-13.84,54.32-17.72
		C504.4,297.79,519.02,299.2,527.73,309.1L527.73,309.1z"/>
</g>
<g>
	<path class="st1" d="M520.04,332.96c-7.09-10.33-20.47-13.81-32.42-13.6c-18.48,0.58-36.07,9.16-54.76,7.79
		c-18.53-1-36.86-9.05-49.19-23.06c13.16,12.81,30.84,21.11,49.25,22.06c18.66,1.34,36.15-7.24,54.68-7.79
		C499.74,317.99,513.59,321.87,520.04,332.96L520.04,332.96z"/>
</g>
<g>
	<path class="st1" d="M508.86,357.71c-4.65-11.44-16.89-17.38-28.44-19.45c-17.83-2.98-36.3,1.9-53.95-2.96
		c-17.55-4.47-33.4-15.71-42.82-31.24c9.92,15.04,25.46,26.31,42.94,30.76c17.63,4.85,36.06-0.04,53.91,2.95
		C492.17,339.76,504.58,346,508.86,357.71L508.86,357.71z"/>
</g>
<g>
	<path class="st1" d="M498.38,378.44c-2.65-12.11-13.75-20.07-24.82-24.08c-17.14-5.98-36.24-4.3-52.87-12.11
		c-16.6-7.41-30.37-21.23-37.04-38.2c7.25,16.57,20.71,30.37,37.25,37.74c16.62,7.8,35.68,6.1,52.83,12.1
		C484.92,357.84,496.13,366.13,498.38,378.44L498.38,378.44z"/>
</g>
<g>
	<path class="st1" d="M485.5,398.89c-0.51-12.61-10.24-22.55-20.62-28.53c-16.12-9.03-35.57-10.71-50.85-21.49
		c-15.33-10.36-26.68-26.65-30.38-44.83c4.33,17.89,15.39,34.11,30.66,44.42c15.28,10.75,34.69,12.42,50.82,21.47
		C475.65,375.86,485.42,386.15,485.5,398.89L485.5,398.89z"/>
</g>
<g>
	<path class="st1" d="M465.88,417.77c1.96-12.55-5.72-24.33-14.83-32.26c-14.19-12.08-33.1-17.55-46.12-31.2
		c-13.14-13.25-21.19-31.58-21.3-50.3c0.79,18.55,8.56,36.76,21.65,49.95c13.02,13.63,31.89,19.07,46.09,31.17
		C460.63,393.07,468.29,405.15,465.88,417.77L465.88,417.77z"/>
</g>
<g>
	<path class="st1" d="M444.19,429.37c3.83-11.92-1.6-24.61-9.07-33.92c-11.75-14.25-29.28-22.9-39.63-38.5
		c-10.53-15.25-15.38-34.66-11.85-52.96c-2.07,18.23,2.18,37.27,12.67,52.39c10.35,15.56,27.82,24.13,39.58,38.44
		C443.6,404.18,449,417.51,444.19,429.37L444.19,429.37z"/>
</g>
<g>
	<path class="st1" d="M419.99,430.45c5.71-10.47,2.67-23.26-2.83-33.16c-8.67-15.17-23.61-26.01-30.75-42.18
		c-7.38-15.86-8.65-34.6-2.77-51.14c-5.18,16.61-4.13,35.13,3.23,50.93c7.15,16.16,22.06,26.96,30.73,42.15
		C423.23,406.99,426.14,420.09,419.99,430.45L419.99,430.45z"/>
</g>
<g>
	<path class="st1" d="M396.71,422.8c6.71-8.51,5.95-20.41,2.55-30.12c-5.43-14.91-17.14-26.92-21.04-42.51
		c-4.16-15.34-2.43-32.33,5.41-46.22c-7.17,14.09-9.08,30.82-4.93,46.09c3.91,15.57,15.6,27.53,21.03,42.47
		C403.26,402.29,403.83,414.48,396.71,422.8L396.71,422.8z"/>
</g>
<g>
	<path class="st1" d="M372.44,430.03c8.75-7.42,10.45-19.94,8.94-30.74c-2.53-16.61-12.17-31.52-12.98-48.51
		c-1.12-16.79,4.22-34.06,15.24-46.85c-10.4,13.12-15.87,30.1-14.74,46.82c0.82,16.98,10.46,31.83,12.97,48.47
		C383.5,410.1,381.56,422.87,372.44,430.03L372.44,430.03z"/>
</g>
<g>
	<path class="st1" d="M350,427.95c8.9-7.02,13.12-18.4,13.97-29.43c0.76-11.24-2.36-22.25-3.41-33.39
		c-1.18-11.22,0.73-22.64,4.85-33.11c4.06-10.49,10.3-20.13,18.24-28.1c-11.31,12.34-19.55,27.83-22.17,44.44
		c-3.07,16.86,3.97,33.33,2.99,50.19C363.7,409.68,359.24,421.21,350,427.95L350,427.95z"/>
</g>
<text transform="matrix(1 0 0 1 130.8906 300.3156)" class="st2 st3 st4">Czechia</text>
<rect x="34.43" y="34.7" class="st5" width="531.15" height="531.15"/>
</svg>
