<?xml version="1.0" encoding="utf-8"?>
<!-- Generator: Adobe Illustrator 28.1.0, SVG Export Plug-In . SVG Version: 6.00 Build 0)  -->
<svg version="1.1" id="Layer_1" xmlns="http://www.w3.org/2000/svg" xmlns:xlink="http://www.w3.org/1999/xlink" x="0px" y="0px"
	 viewBox="0 0 600 600" style="enable-background:new 0 0 600 600;" xml:space="preserve">
<style type="text/css">
	.st0{fill:none;stroke:#000000;stroke-width:2;stroke-miterlimit:10;}
	.st1{fill:#CCCCCC;}
	.st2{fill:#883037;}
	.st3{fill:#010101;}
	.st4{font-family:'LibreBaskerville-Bold';}
	.st5{font-size:64.046px;}
</style>
<rect x="34.42" y="34.42" class="st0" width="531.15" height="531.15"/>
<circle class="st1" cx="352.52" cy="312.05" r="100.58"/>
<g>
	<path class="st2" d="M352.99,163.02c-9.32,9.66-9.98,24.5-7.14,36.97c4.68,19.23,17.55,35.78,20.24,55.64
		c3.05,19.64-1.39,40.57-13.28,56.62c10.59-16.58,15.33-36.98,12.29-56.46c-2.71-19.85-15.56-36.28-20.22-55.57
		C341.82,187.56,342.85,172.31,352.99,163.02L352.99,163.02z"/>
</g>
<g>
	<path class="st2" d="M378.86,166.71c-10.96,7.69-14.28,22.13-13.62,34.84c1.22,19.59,10.91,37.94,10.09,57.78
		c-0.43,19.65-8.44,39.16-22.53,52.94c13.5-14.16,21.61-33.37,22.03-52.95c0.8-19.84-8.88-38.12-10.09-57.74
		C363.99,188.76,367.55,174.12,378.86,166.71L378.86,166.71z"/>
</g>
<g>
	<path class="st2" d="M406.98,171.94c-12.43,5.56-18.54,19.34-20.35,32.16c-2.57,19.8,3.56,40-1.1,59.66
		c-4.23,19.54-16,37.48-32.74,48.52c16.23-11.53,28.05-29.15,32.25-48.62c4.64-19.66-1.49-39.8,1.09-59.63
		C387.87,191.08,394.23,177.17,406.98,171.94L406.98,171.94z"/>
</g>
<g>
	<path class="st2" d="M429.1,185.9c-12.96,3.25-21.22,15.53-25.16,27.61c-5.86,18.7-3.39,39.27-11.25,57.48
		c-7.42,18.17-21.86,33.49-39.93,41.3c17.65-8.37,32.08-23.39,39.47-41.49c7.84-18.21,5.35-38.72,11.24-57.44
		C407.36,201.15,415.9,188.77,429.1,185.9L429.1,185.9z"/>
</g>
<g>
	<path class="st2" d="M455.03,200.88c-13.68,0.63-24.46,11.29-30.86,22.63c-9.68,17.59-11.36,38.74-22.94,55.43
		c-11.13,16.74-28.74,29.19-48.45,33.38c19.42-4.83,36.95-16.98,48.04-33.66c11.56-16.7,13.22-37.79,22.92-55.4
		C430.12,211.78,441.18,201.1,455.03,200.88L455.03,200.88z"/>
</g>
<g>
	<path class="st2" d="M467.7,225.04c-12.9-1.5-24.69,6.68-32.63,16.17c-12.06,14.87-17.26,34.47-30.98,48.17
		c-13.33,13.85-32.05,22.71-51.37,22.93c18.96-1.58,37.43-9.87,50.65-23.62c13.69-13.71,18.82-33.23,30.93-48.11
		C442.24,230.8,454.65,222.64,467.7,225.04L467.7,225.04z"/>
</g>
<g>
	<path class="st2" d="M474.33,250.66c-11.77-3.78-24.2,1.8-33.2,9.34c-13.74,11.78-21.86,29.1-36.93,39.52
		c-14.7,10.6-33.52,15.55-51.49,12.8c17.92,2.05,36.56-2.64,51.2-13.21c15.05-10.43,23.13-27.71,36.9-39.5
		C449.82,251.94,462.59,246.42,474.33,250.66L474.33,250.66z"/>
</g>
<g>
	<path class="st2" d="M491.44,272.52c-11.45-6.29-25.53-2.98-36.39,3.06c-16.64,9.5-28.54,25.88-46.29,33.7
		c-17.4,8.08-37.95,9.45-56.08,3.03c18.22,5.73,38.54,4.58,55.87-3.48c17.73-7.83,29.59-24.18,46.26-33.68
		C465.72,268.97,480.08,265.79,491.44,272.52L491.44,272.52z"/>
</g>
<g>
	<path class="st2" d="M503.75,297.06c-10.67-8.66-25.87-7.87-38.23-3.64c-18.99,6.72-34.38,21.45-54.2,26.23
		c-19.52,5.11-41.03,2.69-58.6-7.33c17.78,9.35,39.03,11.94,58.48,6.84c19.81-4.79,35.14-19.5,54.16-26.22
		C477.8,288.6,493.22,287.98,503.75,297.06L503.75,297.06z"/>
</g>
<g>
	<path class="st2" d="M508.62,322.34c-9.37-10.6-24.94-12.38-38.21-10.18c-20.43,3.61-38.54,15.97-59.48,17.47
		c-20.68,1.89-42.12-4.21-58.28-17.35c16.47,12.51,37.62,18.74,58.23,16.85c20.93-1.52,38.98-13.86,59.44-17.47
		C483.7,309.37,499.47,311.34,508.62,322.34L508.62,322.34z"/>
</g>
<g>
	<path class="st2" d="M506.29,349.84c-7.6-12.04-22.73-16.45-36.28-16.64c-20.98,0-41.24,9.11-62.37,6.9
		c-20.98-1.78-41.41-11.6-54.99-27.82c14.4,15.09,34.23,25.08,55.07,26.83c21.13,2.18,41.26-6.93,62.3-6.91
		C483.81,332.22,499.24,337.08,506.29,349.84L506.29,349.84z"/>
</g>
<g>
	<path class="st2" d="M492.61,376.14c-4.91-13.03-18.61-20.12-31.59-22.74c-20.06-3.83-41.05,1.19-60.84-4.76
		c-19.69-5.5-37.28-18.62-47.53-36.37c10.77,17.27,28.05,30.41,47.67,35.89c19.79,5.94,40.72,0.9,60.8,4.75
		C474.23,355.47,488.05,362.81,492.61,376.14L492.61,376.14z"/>
</g>
<g>
	<path class="st2" d="M477,397.07c-2.58-13.38-14.62-22.49-26.7-27.17c-18.71-7.02-39.79-5.66-57.89-14.69
		c-18.08-8.58-32.87-24.15-39.81-42.98c7.53,18.44,22.01,33.99,40.03,42.53c18.1,9.01,39.12,7.63,57.86,14.67
		C462.71,374.08,474.81,383.46,477,397.07L477,397.07z"/>
</g>
<g>
	<path class="st2" d="M459.78,416.27c-0.25-13.52-10.47-24.46-21.48-31.09c-17.1-10.04-37.93-12.29-54.09-24.19
		c-16.22-11.46-28.03-29.19-31.61-48.77c4.23,19.31,15.74,36.96,31.9,48.36c16.16,11.88,36.95,14.1,54.06,24.17
		C449.71,391.36,459.96,402.58,459.78,416.27L459.78,416.27z"/>
</g>
<g>
	<path class="st2" d="M437.74,434.11c2.31-13.26-5.62-25.88-15.13-34.44c-14.81-13.04-34.75-19.17-48.3-33.84
		c-13.69-14.25-21.89-33.81-21.69-53.63c0.49,19.66,8.41,39.08,22.05,53.28c13.56,14.66,33.45,20.75,48.27,33.82
		C432.6,407.88,440.49,420.77,437.74,434.11L437.74,434.11z"/>
</g>
<g>
	<path class="st2" d="M414.75,440.89c3.99-12.22-1.65-25.28-9.3-34.84c-12.07-14.63-30.06-23.51-40.68-39.52
		c-10.83-15.66-15.76-35.57-12.18-54.36c-2.18,18.71,2.24,38.27,13,53.8c10.62,15.98,28.56,24.78,40.64,39.46
		C414.15,415.05,419.64,428.7,414.75,440.89L414.75,440.89z"/>
</g>
<g>
	<path class="st2" d="M390.58,446.44c6.11-11.05,2.96-24.67-2.85-35.19c-9.13-16.12-24.93-27.68-32.44-44.87
		c-7.76-16.85-9.02-36.73-2.74-54.24c-5.59,17.6-4.54,37.25,3.19,54.03c7.51,17.17,23.29,28.69,32.42,44.84
		C394.1,421.57,397.14,435.47,390.58,446.44L390.58,446.44z"/>
</g>
<g>
	<path class="st2" d="M366.38,444.96c7.58-9.45,6.81-22.77,3.08-33.64c-5.97-16.7-18.96-30.19-23.22-47.62
		c-4.55-17.16-2.49-36.11,6.32-51.59c-8.14,15.68-10.38,34.37-5.84,51.46c4.27,17.42,17.25,30.86,23.21,47.59
		C373.8,422.1,374.37,435.71,366.38,444.96L366.38,444.96z"/>
</g>
<g>
	<path class="st2" d="M340.57,447.53c9.41-7.96,11.24-21.42,9.62-33.01c-2.71-17.84-13.07-33.85-13.94-52.1
		c-1.21-18.03,4.54-36.56,16.35-50.32c-11.19,14.08-17.06,32.32-15.85,50.28c0.87,18.23,11.23,34.19,13.93,52.06
		C352.42,426.13,350.34,439.84,340.57,447.53L340.57,447.53z"/>
</g>
<g>
	<path class="st2" d="M319.8,443.13c9.22-7.57,13.41-19.62,14.07-31.23c0.56-11.84-2.96-23.33-4.3-35.02
		c-1.48-11.77,0.28-23.81,4.39-34.9c4.04-11.11,10.4-21.38,18.56-29.93c-11.64,13.2-19.97,29.66-22.37,47.18
		c-2.87,17.8,4.89,34.95,4.22,52.69C333.8,423.64,329.36,435.85,319.8,443.13L319.8,443.13z"/>
</g>
<text transform="matrix(1 0 0 1 150.1126 303.9509)" class="st3 st4 st5">Japan</text>
</svg>
