<?xml version="1.0" encoding="utf-8"?>
<!-- Generator: Adobe Illustrator 28.1.0, SVG Export Plug-In . SVG Version: 6.00 Build 0)  -->
<svg version="1.1" id="Layer_1" xmlns="http://www.w3.org/2000/svg" xmlns:xlink="http://www.w3.org/1999/xlink" x="0px" y="0px"
	 viewBox="0 0 600 600" style="enable-background:new 0 0 600 600;" xml:space="preserve">
<style type="text/css">
	.st0{fill:none;stroke:#000000;stroke-width:2;stroke-miterlimit:10;}
	.st1{fill:#CCCCCC;}
	.st2{fill:#883037;}
	.st3{fill:#010101;}
	.st4{font-family:'LibreBaskerville-Bold';}
	.st5{font-size:51.1141px;}
</style>
<rect x="34.42" y="34.42" class="st0" width="531.15" height="531.15"/>
<circle class="st1" cx="370.79" cy="306.81" r="26.01"/>
<g>
	<path class="st2" d="M371.4,168.05c-8.19,9.34-8.66,22.69-6.12,34.26c4.36,17.87,16.34,33.29,18.83,51.79
		c2.81,18.33-1.09,38.16-12.88,52.74c9.11-15.72,13.75-34.36,10.9-52.43c-2.53-18.44-14.47-33.68-18.8-51.64
		C360.41,190.9,361.45,176.41,371.4,168.05L371.4,168.05z"/>
</g>
<g>
	<path class="st2" d="M396.91,163.41c-10.61,7.7-13.77,21.85-13.17,34.32c1.21,19.29,10.76,37.4,9.94,56.96
		c-0.42,19.4-8.27,38.78-22.45,52.16c13-14.14,21.05-32.93,21.46-52.19c0.79-19.54-8.76-37.54-9.94-56.88
		C381.95,185.1,385.58,170.55,396.91,163.41L396.91,163.41z"/>
</g>
<g>
	<path class="st2" d="M424.4,160.62c-12.59,6.15-18.51,20.47-20.15,33.7c-2.25,20.52,4.49,41.31,0.07,61.74
		c-3.98,20.33-15.78,39.26-33.11,50.79c16.29-12.47,28.19-30.79,32.13-50.98c4.39-20.43-2.36-41.09-0.08-61.66
		C404.75,180.71,411.17,166.14,424.4,160.62L424.4,160.62z"/>
</g>
<g>
	<path class="st2" d="M455.71,160.31c-14.66,4.18-23.72,18.4-27.97,32.27c-6.28,21.55-2.98,45.07-11.56,66.11
		c-8.1,21.01-24.29,39.03-44.98,48.16c19.83-10.23,36.02-27.64,44.05-48.52c8.55-21.04,5.22-44.45,11.53-66.04
		C430.93,178.15,440.52,163.75,455.71,160.31L455.71,160.31z"/>
</g>
<g>
	<path class="st2" d="M485.25,176.54c-15.56,1.26-27.5,13.74-34.53,26.83c-10.6,20.39-11.97,44.67-24.78,64.08
		c-12.32,19.48-32.17,34.35-54.76,39.4c21.97-6.31,41.69-20.57,53.91-39.93c12.78-19.43,14.1-43.59,24.75-64.02
		C456.83,189.52,469.32,176.98,485.25,176.54L485.25,176.54z"/>
</g>
<g>
	<path class="st2" d="M503.97,200.62c-15.14-0.95-28.56,8.95-37.62,20.28c-13.74,17.86-19.31,41.14-35.06,57.69
		c-15.33,16.72-37.22,28.04-60.12,28.27c22.11-3.03,43.53-13.03,58.64-29.62c15.7-16.57,21.12-39.66,34.97-57.57
		C473.83,207.84,488.49,197.73,503.97,200.62L503.97,200.62z"/>
</g>
<g>
	<path class="st2" d="M516.8,226.04c-14.49-3.9-29.35,3.51-39.97,13.06c-16.22,15-25.37,36.53-43.28,49.94
		c-17.49,13.63-40.3,20.63-62.39,17.83c21.93,1.41,44.41-5.07,61.77-18.62c17.89-13.42,26.94-34.87,43.22-49.89
		C486.84,228.52,502.24,221.24,516.8,226.04L516.8,226.04z"/>
</g>
<g>
	<path class="st2" d="M544.66,251.38c-14.7-7.33-32.24-2.58-45.69,5.4c-20.61,12.61-35.03,33.74-57.12,44.28
		c-21.67,10.87-47.61,13.47-70.71,5.79c23.21,6.28,48.73,4.13,70.26-6.68c22.06-10.56,36.37-31.62,57.05-44.24
		C512.02,247.67,530.06,243.15,544.66,251.38L544.66,251.38z"/>
</g>
<g>
	<path class="st2" d="M542.67,283.81c-12.54-9.28-29.73-7.74-43.63-2.52c-21.38,8.37-38.38,25.74-60.79,31.92
		c-22.08,6.56-46.79,4.69-67.11-6.36c20.68,9.7,44.89,11.94,66.83,5.4c22.39-6.21,39.28-23.53,60.72-31.9
		C512.75,274.88,530.39,273.66,542.67,283.81L542.67,283.81z"/>
</g>
<g>
	<path class="st2" d="M545.96,312.3c-10.96-11.33-28.35-12.65-43.08-9.75c-22.7,4.8-42.53,19.3-65.9,21.75
		c-23.1,2.88-47.42-3.08-65.86-17.46c19.01,13.1,42.78,19.35,65.73,16.47c23.36-2.48,43.06-16.95,65.82-21.74
		C517.6,298.45,535.4,300.15,545.96,312.3L545.96,312.3z"/>
</g>
<g>
	<path class="st2" d="M546.4,344.03c-9.31-13.01-26.36-17.35-41.66-17.15c-23.73,0.74-46.41,11.76-70.42,9.99
		c-23.86-1.31-47.67-11.59-63.2-30.03c20.01,18.77,47.46,30.11,75.05,27.93c19.8-1.46,38.55-9.37,58.53-9.89
		C520.4,324.37,538.29,329.47,546.4,344.03L546.4,344.03z"/>
</g>
<g>
	<path class="st2" d="M544.88,381.27c-6.53-15.75-23.52-23.96-39.49-26.84c-24.74-4.12-50.4,2.64-74.88-4.11
		c-24.37-6.21-46.47-21.8-59.38-43.5c16.2,24.2,42.84,41.38,71.87,44.86c20.78,2.56,41.83-1.77,62.57,1.77
		C521.79,356.2,539.01,364.91,544.88,381.27L544.88,381.27z"/>
</g>
<g>
	<path class="st2" d="M529.39,409.54c-3.75-16.6-19.07-27.56-34.29-33.1c-23.63-8.26-50.03-5.96-72.96-16.75
		c-22.92-10.24-42.01-29.33-51.03-52.87c10.17,22.74,28.64,41.79,51.44,51.96c22.94,10.76,49.21,8.42,72.89,16.72
		C510.94,380.96,526.4,392.45,529.39,409.54L529.39,409.54z"/>
</g>
<g>
	<path class="st2" d="M508.46,434.83c-0.81-16.92-13.93-30.3-27.88-38.36c-21.73-12.17-47.99-14.48-68.6-29.02
		c-20.69-14-36.1-36.01-40.87-60.63c6.04,24.04,20.85,45.9,41.43,59.81c20.62,14.51,46.77,16.76,68.54,28.98
		C495.32,403.62,508.49,417.56,508.46,434.83L508.46,434.83z"/>
</g>
<g>
	<path class="st2" d="M485.05,464.41c2.58-17.36-8.07-33.6-20.64-44.58c-19.65-16.73-45.87-24.33-63.9-43.24
		c-18.22-18.37-29.46-43.82-29.4-69.79c1.3,25.65,11.98,50.83,30.11,69.09c18.05,18.88,44.17,26.4,63.85,43.18
		C477.94,430.08,488.52,446.87,485.05,464.41L485.05,464.41z"/>
</g>
<g>
	<path class="st2" d="M459.05,488.87c5.3-17.3-2.61-35.58-13.38-49.09c-17.06-20.67-42.55-33.28-57.56-55.92
		c-15.31-22.18-22.51-50.48-16.99-77.07c-3.13,30.84,5.84,63.22,26.84,86.35c14.98,16.66,35,27.93,49.26,45.38
		C458.49,452.17,466.31,471.58,459.05,488.87L459.05,488.87z"/>
</g>
<g>
	<path class="st2" d="M420.07,477.38c7.56-14.1,3.44-31.32-3.94-44.65c-11.68-20.44-31.84-35.1-41.46-56.92
		c-9.95-21.42-11.73-46.77-3.56-69.04c-6.77,22.43-5.43,47.34,4.47,68.62c9.64,21.8,29.73,36.35,41.42,56.85
		C424.64,445.69,428.52,463.41,420.07,477.38L420.07,477.38z"/>
</g>
<g>
	<path class="st2" d="M389.12,470.52c9.1-11.73,8.02-28.11,3.37-41.45c-7.48-20.53-23.62-37.11-28.99-58.58
		c-5.74-21.17-3.41-44.65,7.61-63.73c-9.67,19.47-12.36,42.45-6.64,63.47c5.4,21.45,21.5,37.91,28.97,58.51
		C398.32,442.25,399.07,459.08,389.12,470.52L389.12,470.52z"/>
</g>
<g>
	<path class="st2" d="M356.72,468.58c11.07-9.57,13.2-25.62,11.3-39.42c-3.24-21.31-15.63-40.47-16.65-62.27
		c-1.44-21.58,5.38-43.84,19.74-60.14c-13.12,16.95-20.19,38.64-18.74,60.07c1.05,21.79,13.42,40.83,16.65,62.19
		C371.12,443.03,368.57,459.45,356.72,468.58L356.72,468.58z"/>
</g>
<g>
	<path class="st2" d="M326.83,472.15c11.72-9.49,17.2-24.63,18.32-39.29c0.96-14.97-3.25-29.61-4.7-44.44
		c-0.79-7.47-0.6-15.05,0.49-22.49c3.45-22.25,14.18-43.34,30.16-59.19c-14.82,16.62-25.76,37.21-29.17,59.34
		c-1.07,7.36-1.26,14.83-0.48,22.24c1.45,14.85,5.67,29.54,4.7,44.61C345.2,447.8,339.23,463.23,326.83,472.15L326.83,472.15z"/>
</g>
<text transform="matrix(1 0 0 1 55.0751 302.3486)" class="st3 st4 st5">Kazakhstan</text>
</svg>
