<?xml version="1.0" encoding="utf-8"?>
<!-- Generator: Adobe Illustrator 28.1.0, SVG Export Plug-In . SVG Version: 6.00 Build 0)  -->
<svg version="1.1" id="Layer_1" xmlns="http://www.w3.org/2000/svg" xmlns:xlink="http://www.w3.org/1999/xlink" x="0px" y="0px"
	 viewBox="0 0 600 600" style="enable-background:new 0 0 600 600;" xml:space="preserve">
<style type="text/css">
	.st0{fill:none;stroke:#000000;stroke-width:2;stroke-miterlimit:10;}
	.st1{fill:#CCCCCC;}
	.st2{fill:#883037;}
	.st3{fill:#010101;}
	.st4{font-family:'LibreBaskerville-Bold';}
	.st5{font-size:64.5775px;}
</style>
<rect x="34.42" y="34.42" class="st0" width="531.15" height="531.15"/>
<circle class="st1" cx="337.18" cy="311.03" r="25.26"/>
<g>
	<path class="st2" d="M335.54,155.42c-9.76,10.08-10.45,25.59-7.48,38.62c4.89,20.09,18.33,37.37,21.14,58.12
		c3.19,20.51-1.46,42.36-13.85,59.13c11.09-17.31,16.04-38.62,12.86-58.98c-2.83-20.74-16.25-37.9-21.12-58.05
		C323.9,181.05,324.96,165.13,335.54,155.42L335.54,155.42z"/>
</g>
<g>
	<path class="st2" d="M362.61,159.02c-11.47,8.04-14.95,23.15-14.26,36.46c1.28,20.5,11.41,39.69,10.56,60.45
		c-0.44,20.56-8.83,40.96-23.56,55.39c14.14-14.81,22.62-34.92,23.06-55.4c0.84-20.76-9.29-39.89-10.56-60.42
		C347.07,182.08,350.77,166.8,362.61,159.02L362.61,159.02z"/>
</g>
<g>
	<path class="st2" d="M390.28,161.63c-13.09,6.1-19.33,20.82-21.02,34.45c-2.37,21.03,4.47,42.33-0.12,63.25
		c-4.13,20.79-16.3,39.99-33.83,52c17.01-12.49,29.23-31.39,33.34-52.1c4.57-20.92-2.28-42.15,0.11-63.21
		C370.39,182.26,376.87,167.41,390.28,161.63L390.28,161.63z"/>
</g>
<g>
	<path class="st2" d="M408.5,185.95c-12.7,3.39-20.63,15.59-24.32,27.52c-5.49,18.47-2.76,38.66-10.21,56.68
		c-7.03,17.97-21,33.26-38.66,41.2c17.22-8.5,31.19-23.47,38.19-41.38c7.44-18.02,4.69-38.15,10.2-56.65
		C387.33,201.25,395.56,188.95,408.5,185.95L408.5,185.95z"/>
</g>
<g>
	<path class="st2" d="M422.27,212c-11.94,0.87-21.08,10.37-26.44,20.4c-8.09,15.55-9.12,34.04-18.89,48.86
		c-9.38,14.84-24.5,26.09-41.64,30.11c16.83-4.65,31.89-15.6,41.22-30.38c9.75-14.81,10.76-33.26,18.87-48.82
		C400.71,222.01,410.19,212.44,422.27,212L422.27,212z"/>
</g>
<g>
	<path class="st2" d="M439.52,228.19c-11.94-1.03-22.63,6.74-29.74,15.69c-10.81,14-15.17,32.22-27.54,45.19
		c-12.01,13.08-29.11,21.74-46.97,22.3c17.46-1.96,34.33-9.96,46.23-22.98c12.34-12.97,16.63-31.11,27.49-45.13
		C416.1,234.07,427.41,226.19,439.52,228.19L439.52,228.19z"/>
</g>
<g>
	<path class="st2" d="M450.42,249.09c-11.4-3.32-23.17,2.36-31.62,9.82c-12.89,11.66-20.24,28.49-34.44,38.88
		c-13.85,10.55-31.78,15.79-49.11,13.59c17.25,1.49,35.02-3.48,48.81-13.99c14.18-10.39,21.5-27.19,34.41-38.85
		C426.92,250.93,439.04,245.31,450.42,249.09L450.42,249.09z"/>
</g>
<g>
	<path class="st2" d="M475.16,266.62c-11.84-6.05-26.07-2.25-36.93,4.23c-16.64,10.17-28.25,27.2-46.06,35.71
		c-17.45,8.76-38.31,10.78-56.96,4.81c18.71,5.28,39.35,3.47,56.74-5.25c17.8-8.51,29.36-25.51,46.02-35.69
		C448.88,263.81,463.39,260.12,475.16,266.62L475.16,266.62z"/>
</g>
<g>
	<path class="st2" d="M474.66,292.62c-10.16-7.68-24.2-6.48-35.53-2.19c-17.4,6.81-31.19,20.92-49.42,25.95
		c-17.93,5.33-37.94,3.75-54.52-5.02c16.76,8.1,36.52,9.86,54.38,4.54c18.21-5.04,31.96-19.14,49.38-25.94
		C450.35,285.55,464.65,284.51,474.66,292.62L474.66,292.62z"/>
</g>
<g>
	<path class="st2" d="M481.82,317.57c-9.02-9.75-23.67-11.09-36.08-8.75c-19.1,3.81-35.86,15.78-55.49,17.63
		c-19.38,2.2-39.64-3.08-55.07-15.11c15.73,11.39,35.71,16.81,55.02,14.61c19.62-1.85,36.32-13.82,55.45-17.62
		C458.14,305.89,473.02,307.43,481.82,317.57L481.82,317.57z"/>
</g>
<g>
	<path class="st2" d="M446.5,336.07c-5.77-8.44-16.65-11.36-26.42-11.3c-15.13,0.32-29.59,7.2-44.88,5.93
		c-15.16-0.97-30.17-7.69-40.06-19.36c10.74,10.48,25.08,17.43,40.13,18.36c15.26,1.25,29.63-5.63,44.8-5.93
		C430.02,323.55,441.37,326.89,446.5,336.07L446.5,336.07z"/>
</g>
<g>
	<path class="st2" d="M476.64,371.93c-5.22-12.92-19.09-19.69-32.13-22.01c-20.15-3.36-41.03,2.15-60.97-3.34
		c-19.83-5.05-37.72-17.76-48.4-35.27c11.18,17.03,28.76,29.77,48.52,34.79c19.93,5.48,40.75-0.05,60.93,3.33
		C457.77,351.68,471.76,358.7,476.64,371.93L476.64,371.93z"/>
</g>
<g>
	<path class="st2" d="M450.03,386.87c-2.59-12.2-13.7-20.28-24.81-24.39c-17.2-6.13-36.42-4.56-53.09-12.53
		c-16.65-7.56-30.4-21.55-37-38.66c7.18,16.71,20.63,30.68,37.21,38.21c16.67,7.95,35.85,6.37,53.06,12.52
		C436.63,366.06,447.85,374.47,450.03,386.87L450.03,386.87z"/>
</g>
<g>
	<path class="st2" d="M429,399.7c-0.43-11.69-9.38-20.94-18.97-26.53c-14.89-8.45-32.91-10.12-47.02-20.18
		c-14.15-9.68-24.6-24.84-27.91-41.72c3.95,16.59,14.09,31.67,28.19,41.31c14.11,10.05,32.08,11.69,46.98,20.16
		C420.01,378.3,429.01,387.9,429,399.7L429,399.7z"/>
</g>
<g>
	<path class="st2" d="M412.5,418.3c1.83-11.84-5.39-22.87-13.96-30.35c-13.35-11.37-31.15-16.52-43.4-29.36
		c-12.37-12.47-19.95-29.73-20.03-47.34c0.76,17.45,8.06,34.58,20.39,46.99c12.25,12.82,30.01,17.94,43.37,29.34
		C407.57,395.04,414.78,406.42,412.5,418.3L412.5,418.3z"/>
</g>
<g>
	<path class="st2" d="M392.46,429.99c3.6-11.29-1.54-23.3-8.61-32.12c-11.13-13.5-27.74-21.69-37.54-36.47
		c-9.98-14.45-14.59-32.85-11.21-50.18c-1.93,17.27,2.09,35.29,12.03,49.62c9.8,14.74,26.35,22.86,37.49,36.41
		C391.94,406.11,397.05,418.75,392.46,429.99L392.46,429.99z"/>
</g>
<g>
	<path class="st2" d="M381.47,472.98c7.37-13.34,3.53-29.78-3.52-42.44c-11.07-19.4-30.16-33.29-39.27-53.97
		c-9.41-20.28-10.99-44.22-3.55-65.37c-6.74,21.23-5.38,44.94,4,65.16c9.13,20.68,28.18,34.5,39.26,53.94
		C385.57,443.02,389.29,459.71,381.47,472.98L381.47,472.98z"/>
</g>
<g>
	<path class="st2" d="M347.29,425.82c6.49-8.18,5.8-19.66,2.56-29.03c-5.18-14.4-16.43-26.02-20.14-41.06
		c-3.96-14.81-2.23-31.19,5.39-44.55c-6.95,13.56-8.86,29.69-4.91,44.42c3.72,15.03,14.95,26.6,20.13,41.03
		C353.69,406.06,354.2,417.83,347.29,425.82L347.29,425.82z"/>
</g>
<g>
	<path class="st2" d="M321.96,459.41c10.3-8.68,12.35-23.46,10.56-36.14c-2.97-19.53-14.31-37.06-15.26-57.03
		c-1.32-19.74,4.98-40.01,17.88-55.08c-12.28,15.4-18.7,35.38-17.38,55.05c0.96,19.96,12.29,37.43,15.25,56.99
		C334.91,435.98,332.66,450.95,321.96,459.41L321.96,459.41z"/>
</g>
<g>
	<path class="st2" d="M298.3,451.1c9.99-7.97,14.65-20.83,15.52-33.26c0.76-12.67-2.85-25.04-4.13-37.58
		c-0.69-6.3-0.56-12.69,0.33-18.97c2.83-18.79,11.86-36.57,25.11-50.16c-12.67,13.97-21.81,31.5-24.62,50.23
		c-0.88,6.24-1.02,12.57-0.33,18.84c1.28,12.55,4.9,24.93,4.13,37.66C313.54,430.4,308.63,443.42,298.3,451.1L298.3,451.1z"/>
</g>
<text transform="matrix(1 0 0 1 126.7351 307.7617)" class="st3 st4 st5">Libya</text>
</svg>
