<?xml version="1.0" encoding="utf-8"?>
<!-- Generator: Adobe Illustrator 28.1.0, SVG Export Plug-In . SVG Version: 6.00 Build 0)  -->
<svg version="1.1" id="Layer_1" xmlns="http://www.w3.org/2000/svg" xmlns:xlink="http://www.w3.org/1999/xlink" x="0px" y="0px"
	 viewBox="0 0 600 600" style="enable-background:new 0 0 600 600;" xml:space="preserve">
<style type="text/css">
	.st0{fill:none;stroke:#000000;stroke-width:2;stroke-miterlimit:10;}
	.st1{fill:#CCCCCC;}
	.st2{fill:#883037;}
	.st3{fill:#010101;}
	.st4{font-family:'LibreBaskerville-Bold';}
	.st5{font-size:68.7917px;}
</style>
<rect x="34.42" y="34.42" class="st0" width="531.15" height="531.15"/>
<circle class="st1" cx="380.69" cy="322.76" r="17.26"/>
<g>
	<path class="st2" d="M381.66,165.27c-9.86,10.19-10.56,25.85-7.56,39.01c4.94,20.29,18.52,37.75,21.35,58.71
		c3.22,20.72-1.47,42.79-13.98,59.74c11.21-17.48,16.2-39.02,12.99-59.58c-2.86-20.95-16.41-38.28-21.34-58.64
		C369.9,191.15,370.98,175.08,381.66,165.27L381.66,165.27z"/>
</g>
<g>
	<path class="st2" d="M409.11,168.37c-11.63,8.14-15.15,23.46-14.46,36.95c1.3,20.77,11.57,40.22,10.7,61.27
		c-0.45,20.83-8.95,41.51-23.87,56.13c14.33-15,22.93-35.39,23.37-56.15c0.85-21.04-9.41-40.43-10.7-61.23
		C393.37,191.75,397.11,176.26,409.11,168.37L409.11,168.37z"/>
</g>
<g>
	<path class="st2" d="M434.5,179.37c-12.55,5.82-18.56,19.91-20.21,32.97c-2.32,20.15,4.19,40.58-0.25,60.62
		c-4.01,19.91-15.71,38.3-32.55,49.76c16.32-11.94,28.07-30.02,32.06-49.86c4.43-20.04-2.09-40.4,0.24-60.58
		C415.37,199.09,421.62,184.87,434.5,179.37L434.5,179.37z"/>
</g>
<g>
	<path class="st2" d="M458.93,190.41c-13.41,3.55-21.82,16.42-25.73,29.02c-5.82,19.5-2.96,40.81-10.86,59.83
		c-7.44,18.96-22.22,35.07-40.85,43.45c18.21-8.94,32.98-24.73,40.39-43.63c7.88-19.02,5-40.27,10.84-59.79
		C436.59,206.55,445.26,193.6,458.93,190.41L458.93,190.41z"/>
</g>
<g>
	<path class="st2" d="M485.87,203.47c-14.31,0.99-25.35,12.41-31.78,24.45c-9.71,18.66-10.95,40.85-22.67,58.62
		c-11.25,17.8-29.38,31.27-49.93,36.16c20.23-5.52,38.3-18.68,49.5-36.43c11.7-17.77,12.92-39.91,22.65-58.59
		C460.05,215.51,471.37,204.05,485.87,203.47L485.87,203.47z"/>
</g>
<g>
	<path class="st2" d="M500.58,227.19c-13.68-1.25-25.93,7.74-34.05,18c-12.33,16.06-17.27,36.92-31.38,51.8
		c-13.7,15.02-33.23,24.89-53.63,25.72c20.01-2.17,39.31-11.47,52.9-26.39c14.09-14.89,18.95-35.66,31.34-51.74
		C473.87,234.02,486.68,225.06,500.58,227.19L500.58,227.19z"/>
</g>
<g>
	<path class="st2" d="M508.78,252.21c-12.67-3.58-25.75,2.85-35.04,11.24c-14.19,13.1-22.18,31.88-37.83,43.58
		c-15.26,11.88-35.12,17.88-54.39,15.68c19.19,1.5,38.89-4.23,54.08-16.07c15.64-11.7,23.58-30.45,37.8-43.56
		C482.71,254.55,496.1,248.17,508.78,252.21L508.78,252.21z"/>
</g>
<g>
	<path class="st2" d="M527.04,276.19c-12.31-6.3-27.11-2.35-38.4,4.38c-17.3,10.58-29.37,28.29-47.89,37.13
		c-18.15,9.1-39.83,11.21-59.23,5.01c19.45,5.5,40.92,3.62,59-5.45c18.51-8.85,30.53-26.53,47.86-37.11
		C499.73,273.27,514.79,269.44,527.04,276.19L527.04,276.19z"/>
</g>
<g>
	<path class="st2" d="M527.82,301.5c-10.75-7.97-25.5-6.56-37.34-1.93c-18.19,7.34-32.54,22.32-51.62,27.8
		c-18.77,5.8-39.8,4.35-57.32-4.66c17.69,8.34,38.47,9.97,57.17,4.19c19.07-5.5,33.36-20.45,51.58-27.79
		C502.21,294.35,517.22,293.1,527.82,301.5L527.82,301.5z"/>
</g>
<g>
	<path class="st2" d="M525.48,327.54c-8.94-9.48-23.32-10.67-35.48-8.27c-18.71,3.91-35.04,15.8-54.29,17.78
		c-19,2.33-38.93-2.67-54.17-14.34c15.53,11.03,35.18,16.17,54.11,13.85c19.23-1.99,35.51-13.87,54.25-17.78
		C502.15,316.28,516.76,317.66,525.48,327.54L525.48,327.54z"/>
</g>
<g>
	<path class="st2" d="M521.53,352.51c-7.23-10.65-21.01-14.2-33.27-14.01c-18.98,0.57-37.05,9.37-56.23,7.94
		c-19.03-1.04-37.81-9.35-50.49-23.72c13.47,13.2,31.66,21.7,50.54,22.72c19.16,1.4,37.13-7.4,56.16-7.95
		C500.72,337.12,514.88,341.16,521.53,352.51L521.53,352.51z"/>
</g>
<g>
	<path class="st2" d="M513.38,379.21c-4.87-12.03-17.79-18.32-29.94-20.49c-18.78-3.13-38.23,2.01-56.8-3.11
		c-18.47-4.7-35.16-16.54-45.09-32.88c10.43,15.85,26.81,27.72,45.21,32.4c18.57,5.1,37.97-0.04,56.77,3.11
		C495.8,360.33,508.86,366.89,513.38,379.21L513.38,379.21z"/>
</g>
<g>
	<path class="st2" d="M501.2,401.04c-2.7-12.66-14.29-21.07-25.85-25.3c-17.89-6.33-37.88-4.66-55.23-12.9
		c-17.32-7.82-31.65-22.33-38.57-40.1c7.5,17.37,21.52,31.86,38.77,39.64c17.35,8.23,37.28,6.54,55.2,12.89
		C487.21,379.45,498.9,388.16,501.2,401.04L501.2,401.04z"/>
</g>
<g>
	<path class="st2" d="M483.59,417.78c-0.51-12.64-10.25-22.6-20.66-28.59c-16.15-9.04-35.63-10.74-50.95-21.53
		c-15.36-10.38-26.73-26.7-30.43-44.92c4.34,17.93,15.41,34.17,30.71,44.51c15.31,10.78,34.75,12.45,50.92,21.51
		C473.72,394.71,483.51,405.02,483.59,417.78L483.59,417.78z"/>
</g>
<g>
	<path class="st2" d="M461.46,432.91c1.62-12.12-5.8-23.39-14.59-31.06c-13.77-11.68-32.13-16.97-44.77-30.19
		c-12.77-12.85-20.79-30.69-20.54-48.91c1.17,17.89,8.54,35.47,21.25,48.2c12.64,13.18,30.93,18.41,44.72,30.14
		C456.55,408.77,464.05,420.66,461.46,432.91L461.46,432.91z"/>
</g>
<g>
	<path class="st2" d="M441.13,445.56c3.99-11.72-1.38-24.25-8.77-33.39c-11.55-13.96-28.74-22.39-38.91-37.65
		c-10.35-14.9-14.98-33.82-11.91-51.76c-2.36,17.9,2.01,36.64,12.32,51.48c10.17,15.25,27.33,23.64,38.88,37.62
		C440.28,421.02,445.58,433.89,441.13,445.56L441.13,445.56z"/>
</g>
<g>
	<path class="st2" d="M417.57,448.46c5.68-10.41,2.67-23.11-2.79-32.95c-8.61-15.07-23.44-25.86-30.53-41.93
		c-7.32-15.77-8.58-34.39-2.72-50.82c-5.16,16.5-4.12,34.91,3.18,50.61c7.09,16.06,21.91,26.8,30.51,41.9
		C420.81,425.15,423.69,438.17,417.57,448.46L417.57,448.46z"/>
</g>
<g>
	<path class="st2" d="M394.94,447.7c7.09-8.92,6.33-21.43,2.78-31.65c-5.66-15.69-17.93-28.34-21.99-44.73
		c-4.33-16.14-2.46-33.98,5.81-48.56c-7.59,14.78-9.65,32.36-5.33,48.43c4.07,16.37,16.32,28.98,21.98,44.7
		C401.86,426.17,402.44,438.98,394.94,447.7L394.94,447.7z"/>
</g>
<g>
	<path class="st2" d="M371.81,446.83c8.52-7.39,10.06-19.71,8.47-30.3c-2.65-16.3-12.29-30.86-13.25-47.55
		c-1.28-16.5,3.8-33.52,14.51-46.21c-10.08,13-15.29,29.75-14.01,46.17c0.97,16.68,10.6,31.19,13.25,47.51
		C382.48,427.13,380.7,439.7,371.81,446.83L371.81,446.83z"/>
</g>
<g>
	<path class="st2" d="M349.73,441.79c8.5-6.77,12.5-17.7,13.27-28.27c0.69-10.78-2.35-21.32-3.4-31.99
		c-1.17-10.76,0.61-21.71,4.53-31.76c3.85-10.08,9.81-19.34,17.39-27c-10.79,11.88-18.63,26.75-21.08,42.69
		c-2.88,16.17,3.93,31.94,3.06,48.11C362.81,424.23,358.57,435.3,349.73,441.79L349.73,441.79z"/>
</g>
<text transform="matrix(1 0 0 1 81.0749 317.4994)" class="st3 st4 st5">Norway</text>
</svg>
