<?xml version="1.0" encoding="utf-8"?>
<!-- Generator: Adobe Illustrator 28.1.0, SVG Export Plug-In . SVG Version: 6.00 Build 0)  -->
<svg version="1.1" id="Layer_1" xmlns="http://www.w3.org/2000/svg" xmlns:xlink="http://www.w3.org/1999/xlink" x="0px" y="0px"
	 viewBox="0 0 600 600" style="enable-background:new 0 0 600 600;" xml:space="preserve">
<style type="text/css">
	.st0{fill:none;stroke:#000000;stroke-width:2;stroke-miterlimit:10;}
	.st1{fill:#CCCCCC;}
	.st2{fill:#883037;}
	.st3{fill:#010101;}
	.st4{font-family:'LibreBaskerville-Bold';}
	.st5{font-size:75.1339px;}
</style>
<rect x="34.42" y="34.42" class="st0" width="531.15" height="531.15"/>
<circle class="st1" cx="400.92" cy="318.78" r="64.39"/>
<g>
	<path class="st2" d="M406.08,165.2c-9.11,9.45-9.74,23.95-6.97,36.14c4.57,18.8,17.16,34.98,19.79,54.4
		c2.98,19.2-1.35,39.68-12.99,55.36c10.34-16.22,14.98-36.15,12-55.2c-2.65-19.4-15.21-35.47-19.77-54.33
		C395.13,189.21,396.17,174.24,406.08,165.2L406.08,165.2z"/>
</g>
<g>
	<path class="st2" d="M432.15,164.4c-11.04,7.75-14.39,22.31-13.73,35.12c1.23,19.75,10.99,38.24,10.17,58.24
		c-0.43,19.81-8.5,39.47-22.71,53.36c13.61-14.27,21.79-33.64,22.21-53.37c0.81-20-8.95-38.43-10.17-58.2
		C417.17,186.63,420.74,171.9,432.15,164.4L432.15,164.4z"/>
</g>
<g>
	<path class="st2" d="M457.36,170.56c-12.27,5.74-18.12,19.57-19.69,32.36c-2.21,19.75,4.23,39.74-0.06,59.39
		c-3.87,19.52-15.28,37.57-31.74,48.84c15.95-11.75,27.4-29.49,31.25-48.94c4.28-19.65-2.17-39.57,0.06-59.35
		C438.67,189.94,444.76,175.99,457.36,170.56L457.36,170.56z"/>
</g>
<g>
	<path class="st2" d="M484.21,176.17c-13.65,3.66-22.16,16.8-26.1,29.64c-5.86,19.87-2.87,41.57-10.84,60.96
		c-7.51,19.34-22.5,35.79-41.44,44.39c18.51-9.16,33.49-25.3,40.97-44.57c7.96-19.39,4.95-41.02,10.82-60.92
		C461.52,192.68,470.3,179.46,484.21,176.17L484.21,176.17z"/>
</g>
<g>
	<path class="st2" d="M508.23,194.73c-14.01,0.94-24.83,12.1-31.15,23.86c-9.54,18.24-10.81,39.95-22.32,57.32
		c-11.05,17.4-28.83,30.54-48.95,35.27c19.81-5.36,37.52-18.2,48.52-35.54c11.49-17.37,12.74-39.03,22.3-57.28
		C482.93,206.44,494.03,195.25,508.23,194.73L508.23,194.73z"/>
</g>
<g>
	<path class="st2" d="M525.06,215.19c-13.72-1.23-26,7.8-34.13,18.11c-12.35,16.12-17.27,37.06-31.4,52
		c-13.71,15.08-33.29,25.02-53.75,25.88c20.07-2.21,39.41-11.57,53.01-26.55c14.1-14.96,18.95-35.79,31.35-51.94
		C498.28,222.09,511.11,213.09,525.06,215.19L525.06,215.19z"/>
</g>
<g>
	<path class="st2" d="M533.88,239.96c-12.77-3.59-25.94,2.91-35.29,11.38c-14.28,13.22-22.3,32.15-38.05,43.97
		c-15.36,11.99-35.36,18.07-54.78,15.88c19.34,1.49,39.18-4.32,54.47-16.27c15.74-11.82,23.71-30.72,38.02-43.94
		C507.62,242.36,521.09,235.91,533.88,239.96L533.88,239.96z"/>
</g>
<g>
	<path class="st2" d="M552.72,264.18c-12.44-6.37-27.39-2.38-38.79,4.43c-17.47,10.69-29.67,28.57-48.38,37.5
		c-18.33,9.2-40.23,11.32-59.82,5.06c19.65,5.56,41.34,3.66,59.6-5.51c18.7-8.94,30.84-26.79,48.34-37.49
		C525.13,261.24,540.34,257.37,552.72,264.18L552.72,264.18z"/>
</g>
<g>
	<path class="st2" d="M560.13,290.42c-11.24-8.53-26.8-7.21-39.35-2.45c-19.26,7.54-34.54,23.16-54.72,28.73
		c-19.85,5.9-41.99,4.14-60.36-5.54c18.55,9,40.45,10.95,60.22,5.06c20.16-5.59,35.39-21.19,54.68-28.72
		C533.22,282.62,549.02,281.46,560.13,290.42L560.13,290.42z"/>
</g>
<g>
	<path class="st2" d="M556.96,316.86c-9.35-10.02-24.47-11.33-37.27-8.86c-19.69,4.03-36.91,16.46-57.15,18.46
		c-19.98,2.37-40.9-2.98-56.88-15.3c16.27,11.68,36.91,17.17,56.82,14.8c20.23-2.01,37.39-14.43,57.11-18.45
		C532.5,304.93,547.82,306.43,556.96,316.86L556.96,316.86z"/>
</g>
<g>
	<path class="st2" d="M551.13,341.78c-7.52-11.06-21.85-14.73-34.59-14.51c-19.71,0.63-38.47,9.81-58.39,8.37
		c-19.77-1.04-39.28-9.64-52.49-24.51c14.01,13.71,32.92,22.5,52.55,23.51c19.91,1.41,38.55-7.76,58.32-8.37
		C529.47,325.86,544.18,330.02,551.13,341.78L551.13,341.78z"/>
</g>
<g>
	<path class="st2" d="M539.24,368.36c-4.93-12.2-18.03-18.58-30.34-20.77c-19.03-3.18-38.75,2.03-57.57-3.16
		c-18.72-4.77-35.63-16.77-45.7-33.32c10.57,16.07,27.17,28.1,45.82,32.84c18.82,5.17,38.48-0.05,57.54,3.15
		C521.43,349.22,534.66,355.88,539.24,368.36L539.24,368.36z"/>
</g>
<g>
	<path class="st2" d="M527.69,390.59c-2.77-12.89-14.61-21.44-26.39-25.73c-18.24-6.41-38.61-4.66-56.3-13.02
		c-17.67-7.93-32.3-22.68-39.39-40.76c7.67,17.68,21.99,32.41,39.59,40.3c17.69,8.34,38,6.57,56.27,13
		C513.39,368.64,525.31,377.48,527.69,390.59L527.69,390.59z"/>
</g>
<g>
	<path class="st2" d="M516.2,414.05c-0.53-13.67-11.1-24.52-22.38-31c-17.5-9.8-38.62-11.64-55.21-23.33
		c-16.64-11.25-28.96-28.93-33-48.66c4.68,19.44,16.69,37.05,33.28,48.25c16.6,11.68,37.66,13.49,55.18,23.31
		C505.49,389.08,516.08,400.21,516.2,414.05L516.2,414.05z"/>
</g>
<g>
	<path class="st2" d="M497.86,438.64c2.23-14.08-6.38-27.32-16.61-36.21c-15.91-13.55-37.13-19.7-51.73-35
		c-14.74-14.86-23.75-35.42-23.91-56.4c0.84,20.82,9.57,41.25,24.27,56.05c14.61,15.29,35.78,21.39,51.7,34.97
		C491.95,410.96,500.53,424.47,497.86,438.64L497.86,438.64z"/>
</g>
<g>
	<path class="st2" d="M473.28,451.13c4.38-13.31-1.75-27.54-10.09-37.95c-13.13-15.92-32.73-25.6-44.28-43.02
		c-11.79-17.04-17.13-38.7-13.29-59.16c-2.43,20.38,2.4,41.68,14.12,58.59c11.57,17.4,31.09,26.98,44.24,42.96
		C472.59,423.03,478.56,437.8,473.28,451.13L473.28,451.13z"/>
</g>
<g>
	<path class="st2" d="M447.73,452.87c6.34-11.8,2.82-26.21-3.48-37.28c-9.9-16.97-26.81-29.02-35-47.14
		c-8.45-17.76-10.06-38.81-3.65-57.47c-5.71,18.73-4.33,39.56,4.1,57.26c8.2,18.11,25.08,30.1,34.98,47.1
		C451.11,426.46,454.52,441.15,447.73,452.87L447.73,452.87z"/>
</g>
<g>
	<path class="st2" d="M420.74,451.57c7.99-10,7.16-24.15,3.15-35.64c-6.38-17.66-20.19-31.9-24.76-50.34
		c-4.88-18.16-2.76-38.22,6.49-54.65c-8.58,16.62-10.88,36.44-6.01,54.52c4.58,18.43,18.38,32.62,24.75,50.3
		C428.49,427.33,429.15,441.73,420.74,451.57L420.74,451.57z"/>
</g>
<g>
	<path class="st2" d="M393.31,464.45c10.59-9.07,12.58-24.38,10.62-37.49c-3.24-20.18-15.13-38.22-16.29-58.88
		c-1.54-20.41,4.8-41.44,18-57.15c-12.58,16.03-19.05,36.78-17.5,57.12c1.17,20.65,13.05,38.63,16.29,58.84
		C406.48,440.1,404.29,455.6,393.31,464.45L393.31,464.45z"/>
</g>
<g>
	<path class="st2" d="M368.83,450.38c9.96-7.94,14.62-20.75,15.48-33.14c0.77-12.63-2.83-24.96-4.09-37.45
		c-0.68-6.28-0.55-12.65,0.34-18.9c2.83-18.73,11.84-36.44,25.06-49.98c-12.64,13.92-21.75,31.38-24.56,50.05
		c-0.89,6.22-1.02,12.53-0.34,18.78c1.27,12.5,4.87,24.85,4.09,37.54C384.03,429.76,379.13,442.73,368.83,450.38L368.83,450.38z"/>
</g>
<text transform="matrix(1 0 0 1 104.9136 312.4277)" class="st3 st4 st5">Poland</text>
</svg>
