<?xml version="1.0" encoding="utf-8"?>
<!-- Generator: Adobe Illustrator 28.1.0, SVG Export Plug-In . SVG Version: 6.00 Build 0)  -->
<svg version="1.1" id="Layer_1" xmlns="http://www.w3.org/2000/svg" xmlns:xlink="http://www.w3.org/1999/xlink" x="0px" y="0px"
	 viewBox="0 0 600 600" style="enable-background:new 0 0 600 600;" xml:space="preserve">
<style type="text/css">
	.st0{fill:none;stroke:#000000;stroke-width:2;stroke-miterlimit:10;}
	.st1{fill:#CCCCCC;}
	.st2{fill:#883037;}
	.st3{fill:#010101;}
	.st4{font-family:'LibreBaskerville-Bold';}
	.st5{font-size:45.288px;}
</style>
<rect x="34.42" y="34.42" class="st0" width="531.15" height="531.15"/>
<circle class="st1" cx="360.77" cy="318.24" r="159.4"/>
<g>
	<path class="st2" d="M367.19,89.1c-13.66,14.58-14.63,36.56-10.41,55.16c6.99,28.71,26.22,53.45,30.23,83.13
		c4.53,29.35-1.96,60.82-20.08,84.6c18.09-29.03,24.68-65.54,14.96-98.59c-6.85-23.72-21.3-44.52-27.06-68.69
		C350.23,125.78,351.77,102.82,367.19,89.1L367.19,89.1z"/>
</g>
<g>
	<path class="st2" d="M406.51,90.9c-16.55,11.73-21.54,33.63-20.57,52.91c1.46,24.85,12.13,48.11,14.72,72.83
		c3.68,34.66-8.57,71-33.74,95.33c23.8-25.16,36.49-60.68,32.74-95.22c-2.61-24.73-13.27-47.94-14.73-72.89
		C383.79,124.36,389.22,102.13,406.51,90.9L406.51,90.9z"/>
</g>
<g>
	<path class="st2" d="M444.27,102.87c-18.22,8.58-26.92,29.1-29.34,48.1c-2.92,24.54,3.44,49.13,1.66,73.74
		c-2.46,34.51-20.78,67.88-49.63,87.25c27.65-20.43,46.26-52.92,48.63-87.32c1.78-24.62-4.58-49.17-1.65-73.79
		C416.21,131.59,425.41,110.81,444.27,102.87L444.27,102.87z"/>
</g>
<g>
	<path class="st2" d="M477.44,123.21c-19.06,5.17-30.97,23.51-36.57,41.45c-7.02,23.21-5.08,48.05-11.02,71.51
		c-8.28,32.91-31.7,62.03-62.89,75.78c30.19-15.01,53.74-43.2,61.92-76.03c5.93-23.48,3.99-48.28,11.04-71.57
		C445.42,146.14,457.86,127.64,477.44,123.21L477.44,123.21z"/>
</g>
<g>
	<path class="st2" d="M511.76,146.56c-19.8,1.49-35.03,17.34-43.94,33.99c-11.32,21.58-14.11,46.47-24.42,68.5
		c-14.41,30.92-43.03,55.22-76.41,62.9c32.65-9.1,61.22-32.47,75.51-63.32c10.3-22.06,13.07-46.9,24.44-68.55
		C475.81,163.13,491.59,147.23,511.76,146.56L511.76,146.56z"/>
</g>
<g>
	<path class="st2" d="M529.7,181.44c-18.62-1.35-35.19,10.82-46.28,24.79c-16.83,21.93-23.61,50.47-42.9,70.79
		c-18.75,20.52-45.52,34.28-73.52,34.92c31.75-3.93,62.22-20.47,80.62-46.94c13.28-18.91,19.98-41.64,34.22-60.02
		C492.96,190.52,510.64,178.17,529.7,181.44L529.7,181.44z"/>
</g>
<g>
	<path class="st2" d="M535.76,218.48c-16.78-4.6-34.04,3.96-46.35,15.03c-18.8,17.36-29.41,42.28-50.17,57.79
		c-20.25,15.76-46.65,23.81-72.22,20.65c25.41,1.76,51.48-5.76,71.61-21.44c20.73-15.53,31.24-40.36,50.11-57.74
		C501.11,221.41,518.9,212.98,535.76,218.48L535.76,218.48z"/>
</g>
<g>
	<path class="st2" d="M555.25,251.79c-15.94-7.99-34.99-2.85-49.58,5.82c-22.36,13.68-38,36.6-61.95,48.03
		c-23.5,11.78-51.62,14.59-76.68,6.32c25.18,6.87,52.87,4.52,76.23-7.21c23.93-11.45,39.46-34.3,61.89-47.99
		C519.86,247.81,539.42,242.9,555.25,251.79L555.25,251.79z"/>
</g>
<g>
	<path class="st2" d="M555.65,284.62c-13.9-10.12-32.83-8.24-48.08-2.32c-23.45,9.46-41.96,28.78-66.56,35.85
		c-24.23,7.48-51.43,5.69-73.95-6.18c22.86,10.51,49.57,12.68,73.66,5.23c24.59-7.09,42.98-26.36,66.49-35.82
		C522.61,275.2,542,273.63,555.65,284.62L555.65,284.62z"/>
</g>
<g>
	<path class="st2" d="M549.5,318.09c-11.4-11.87-29.56-13.3-44.94-10.3c-23.7,4.96-44.43,20.04-68.82,22.54
		c-24.11,2.95-49.47-3.33-68.68-18.36c19.79,13.75,44.6,20.32,68.56,17.37c24.38-2.53,44.98-17.58,68.75-22.53
		C519.94,303.6,538.5,305.41,549.5,318.09L549.5,318.09z"/>
</g>
<g>
	<path class="st2" d="M547.95,350.47c-9.59-13.46-27.19-17.96-42.98-17.75c-24.5,0.75-47.9,12.11-72.68,10.26
		c-24.62-1.37-49.17-12-65.21-31c20.61,19.43,48.96,31.13,77.44,28.91c20.43-1.49,39.79-9.64,60.41-10.17
		C521.13,330.21,539.58,335.47,547.95,350.47L547.95,350.47z"/>
</g>
<g>
	<path class="st2" d="M536.26,384.48c-6.37-15.33-22.91-23.31-38.45-26.12c-24.09-4.01-49.07,2.57-72.91-4
		c-23.73-6.05-45.26-21.23-57.82-42.37c13.56,20.16,34.47,35.41,58.06,41.4c23.83,6.54,48.7-0.07,72.84,3.98
		C513.79,360.06,530.56,368.55,536.26,384.48L536.26,384.48z"/>
</g>
<g>
	<path class="st2" d="M514.87,408.73c-3.47-15.54-17.77-25.83-31.99-31.07c-22.09-7.81-46.8-5.75-68.23-15.94
		c-21.42-9.67-39.24-27.61-47.56-49.7c9.48,21.3,26.68,39.19,47.97,48.79c21.43,10.16,46.03,8.06,68.16,15.91
		C497.72,381.87,512.15,392.71,514.87,408.73L514.87,408.73z"/>
</g>
<g>
	<path class="st2" d="M493.15,429.43c-0.78-15.5-12.82-27.76-25.61-35.15c-19.94-11.16-44.04-13.27-62.95-26.61
		c-18.99-12.84-33.16-33.03-37.49-55.65c5.6,22.03,19.17,42.08,38.05,54.82c18.92,13.31,42.91,15.36,62.89,26.57
		C481.12,400.78,493.2,413.58,493.15,429.43L493.15,429.43z"/>
</g>
<g>
	<path class="st2" d="M467.01,449.78c2.18-15.18-7.16-29.34-18.16-38.93c-17.21-14.6-40.17-21.22-55.98-37.74
		c-15.98-16.05-25.88-38.32-25.78-61.07c1.26,22.42,10.6,44.42,26.49,60.36c15.82,16.49,38.68,23.03,55.92,37.69
		C460.79,419.71,470.07,434.42,467.01,449.78L467.01,449.78z"/>
</g>
<g>
	<path class="st2" d="M442.97,468.45c4.39-14.88-2.44-30.5-11.69-42.1c-14.7-17.73-36.64-28.54-49.58-47.99
		c-13.2-19.06-19.52-43.43-14.61-66.3c-2.01,22.73,3.13,46.35,16.25,65.17c12.97,19.4,34.76,30.02,49.49,47.87
		C442.57,436.78,449.33,453.66,442.97,468.45L442.97,468.45z"/>
</g>
<g>
	<path class="st2" d="M413.43,473.7c7.14-13.36,3.23-29.66-3.75-42.28c-11.06-19.37-30.16-33.26-39.26-53.93
		c-9.42-20.3-11.12-44.32-3.34-65.42c-6.38,21.25-5.13,44.83,4.25,65c9.13,20.65,28.16,34.44,39.23,53.87
		C417.8,443.67,421.46,460.47,413.43,473.7L413.43,473.7z"/>
</g>
<g>
	<path class="st2" d="M383.21,462.58c8.35-10.76,7.39-25.8,3.16-38.06c-6.82-18.88-21.61-34.16-26.49-53.9
		c-5.22-19.47-3.03-41.06,7.19-58.54c-8.88,17.88-11.42,38.96-6.23,58.29c4.91,19.72,19.65,34.88,26.47,53.83
		C391.79,436.62,392.42,452.1,383.21,462.58L383.21,462.58z"/>
</g>
<g>
	<path class="st2" d="M354.57,471.53c10.79-9.54,12.73-25.35,10.71-38.92c-3.41-20.94-15.8-39.68-17.03-61.13
		c-1.64-21.23,4.84-43.21,18.82-59.4c-12.73,16.82-19.47,38.24-17.83,59.32c1.26,21.44,13.63,40.05,17.02,61.05
		C368.49,446.23,366.15,462.43,354.57,471.53L354.57,471.53z"/>
</g>
<g>
	<path class="st2" d="M325.69,466.94c10.94-8.91,16.05-23.07,17.1-36.79c0.89-14.01-3.06-27.71-4.42-41.6
		c-0.74-6.99-0.57-14.1,0.45-21.06c3.22-20.83,13.25-40.6,28.24-55.41c-13.83,15.59-24.07,34.85-27.25,55.56
		c-1,6.89-1.17,13.88-0.44,20.81c1.37,13.9,5.32,27.65,4.42,41.76C342.91,444.14,337.31,458.6,325.69,466.94L325.69,466.94z"/>
</g>
<text transform="matrix(1 0 0 1 49.5781 309.2383)" class="st3 st4 st5">United States</text>
</svg>
