<?xml version="1.0" encoding="utf-8"?>
<!-- Generator: Adobe Illustrator 28.1.0, SVG Export Plug-In . SVG Version: 6.00 Build 0)  -->
<svg version="1.1" id="Layer_1" xmlns="http://www.w3.org/2000/svg" xmlns:xlink="http://www.w3.org/1999/xlink" x="0px" y="0px"
	 viewBox="0 0 600 600" style="enable-background:new 0 0 600 600;" xml:space="preserve">
<style type="text/css">
	.st0{fill:none;stroke:#000000;stroke-width:2;stroke-miterlimit:10;}
	.st1{fill:#CCCCCC;}
	.st2{fill:#883037;}
	.st3{fill:#010101;}
	.st4{font-family:'LibreBaskerville-Bold';}
	.st5{font-size:54.0003px;}
</style>
<rect x="34.42" y="34.42" class="st0" width="531.15" height="531.15"/>
<circle class="st1" cx="386.1" cy="331.97" r="28.34"/>
<g>
	<path class="st2" d="M385.4,173.46c-9.9,10.22-10.6,25.95-7.59,39.15c4.95,20.37,18.58,37.89,21.43,58.92
		c3.23,20.79-1.48,42.94-14.03,59.95c11.25-17.54,16.26-39.16,13.04-59.8c-2.87-21.02-16.47-38.42-21.42-58.85
		C373.6,199.45,374.68,183.31,385.4,173.46L385.4,173.46z"/>
</g>
<g>
	<path class="st2" d="M413.03,176.1c-11.71,8.2-15.26,23.62-14.56,37.19c1.3,20.91,11.64,40.49,10.77,61.68
		c-0.45,20.97-9.01,41.79-24.03,56.51c14.43-15.1,23.09-35.62,23.53-56.52c0.86-21.18-9.48-40.7-10.77-61.64
		C397.18,199.64,400.96,184.04,413.03,176.1L413.03,176.1z"/>
</g>
<g>
	<path class="st2" d="M438.4,187.68c-12.59,5.84-18.62,19.98-20.27,33.07c-2.33,20.22,4.21,40.71-0.25,60.81
		c-4.02,19.98-15.76,38.42-32.65,49.92c16.37-11.98,28.16-30.11,32.16-50.02c4.44-20.1-2.1-40.53,0.25-60.77
		C419.21,207.47,425.49,193.2,438.4,187.68L438.4,187.68z"/>
</g>
<g>
	<path class="st2" d="M461.62,200.97c-13.23,3.51-21.52,16.2-25.38,28.63c-5.74,19.23-2.92,40.26-10.71,59.02
		c-7.34,18.71-21.92,34.6-40.3,42.86c17.96-8.82,32.53-24.4,39.84-43.04c7.77-18.76,4.93-39.72,10.7-58.98
		C439.58,216.89,448.13,204.11,461.62,200.97L461.62,200.97z"/>
</g>
<g>
	<path class="st2" d="M480.95,222.14c-13.12,0.92-23.23,11.4-29.12,22.43c-8.9,17.11-10.04,37.46-20.79,53.76
		c-10.32,16.33-26.95,28.69-45.8,33.15c18.54-5.08,35.1-17.15,45.38-33.41c10.73-16.29,11.85-36.6,20.77-53.72
		C457.25,233.17,467.67,222.64,480.95,222.14L480.95,222.14z"/>
</g>
<g>
	<path class="st2" d="M498.48,240.65c-13-1.17-24.64,7.38-32.36,17.13c-11.73,15.27-16.42,35.11-29.84,49.26
		c-13.03,14.28-31.6,23.69-51.02,24.44c19.02-2.1,37.36-10.93,50.28-25.11c13.39-14.15,18.02-33.91,29.79-49.2
		C473.04,247.13,485.29,238.59,498.48,240.65L498.48,240.65z"/>
</g>
<g>
	<path class="st2" d="M498.54,268.73c-11.31-3.17-22.89,2.57-31.17,10.03c-12.63,11.66-19.73,28.38-33.67,38.79
		c-13.59,10.57-31.28,15.93-48.43,13.93c17.07,1.3,34.6-3.79,48.13-14.33c13.92-10.42,20.99-27.1,33.64-38.77
		C475.32,270.78,487.26,265.11,498.54,268.73L498.54,268.73z"/>
</g>
<g>
	<path class="st2" d="M514.98,290.02c-11.01-5.6-24.14-2.06-34.22,3.93c-15.42,9.43-26.18,25.21-42.69,33.09
		c-16.18,8.12-35.52,10-52.8,4.44c17.34,4.86,36.47,3.2,52.58-4.89c16.49-7.89,27.21-23.64,42.66-33.08
		C490.62,287.38,504.08,283.98,514.98,290.02L514.98,290.02z"/>
</g>
<g>
	<path class="st2" d="M508.67,313.6c-9.1-6.7-21.49-5.48-31.49-1.59c-15.35,6.19-27.44,18.82-43.54,23.45
		c-15.84,4.89-33.6,3.69-48.36-3.97c14.93,6.98,32.45,8.37,48.21,3.49c16.08-4.64,28.13-17.25,43.51-23.44
		C487.06,307.52,499.74,306.48,508.67,313.6L508.67,313.6z"/>
</g>
<g>
	<path class="st2" d="M505.79,335.54c-7.53-7.92-19.52-8.87-29.7-6.88c-15.67,3.27-29.34,13.23-45.45,14.89
		c-15.91,1.95-32.62-2.22-45.36-12.05c13.03,9.18,29.46,13.5,45.3,11.55c16.1-1.67,29.73-11.62,45.42-14.88
		C486.26,326.05,498.51,327.23,505.79,335.54L505.79,335.54z"/>
</g>
<g>
	<path class="st2" d="M501.98,356.33c-6.1-8.8-17.52-11.75-27.73-11.6c-15.82,0.48-30.88,7.81-46.88,6.62
		c-15.87-0.88-31.6-7.77-42.08-19.85c11.32,10.89,26.39,18.02,42.14,18.85c15.97,1.16,30.94-6.17,46.8-6.62
		C484.63,343.42,496.52,346.79,501.98,356.33L501.98,356.33z"/>
</g>
<g>
	<path class="st2" d="M488.77,375.85c-3.88-9.43-13.98-14.31-23.51-16.03c-14.74-2.46-30.01,1.58-44.59-2.44
		c-14.51-3.69-27.64-12.99-35.38-25.86c8.24,12.39,21.06,21.71,35.5,25.38c14.57,4,29.8-0.04,44.56,2.44
		C475,360.96,485.27,366.15,488.77,375.85L488.77,375.85z"/>
</g>
<g>
	<path class="st2" d="M483.23,395.61c-2.26-10.36-11.72-17.19-21.17-20.67c-14.65-5.18-31.01-3.81-45.21-10.56
		c-14.19-6.4-25.94-18.29-31.55-32.86c6.19,14.18,17.64,26.04,31.76,32.41c14.2,6.73,30.51,5.35,45.18,10.55
		C471.81,377.89,481.38,385.05,483.23,395.61L483.23,395.61z"/>
</g>
<g>
	<path class="st2" d="M468.21,408.74c-0.46-10.26-8.37-18.32-16.81-23.19c-13.12-7.35-28.96-8.73-41.4-17.5
		c-12.48-8.44-21.76-21.71-24.7-36.54c3.59,14.54,12.56,27.73,24.98,36.13c12.44,8.75,28.23,10.11,41.37,17.48
		C460.23,389.95,468.18,398.36,468.21,408.74L468.21,408.74z"/>
</g>
<g>
	<path class="st2" d="M451.47,423.06c1.53-10.12-4.65-19.53-11.96-25.92c-11.42-9.72-26.63-14.12-37.11-25.11
		c-10.58-10.66-17.08-25.43-17.1-40.51c0.7,14.91,6.92,29.55,17.46,40.15c10.48,10.96,25.66,15.34,37.08,25.08
		C447.29,403.14,453.45,412.9,451.47,423.06L451.47,423.06z"/>
</g>
<g>
	<path class="st2" d="M434.87,431.26c2.86-9.56-1.61-19.61-7.64-26.99c-9.53-11.29-23.64-18.05-32.05-30.44
		c-8.57-12.11-12.68-27.63-9.88-42.31c-1.35,14.59,2.17,29.74,10.7,41.73c8.42,12.35,22.47,19.04,32.01,30.38
		C434.27,411.06,438.71,421.74,434.87,431.26L434.87,431.26z"/>
</g>
<g>
	<path class="st2" d="M416.54,437.26c4.68-8.82,2.04-19.49-2.62-27.74c-7.36-12.65-19.95-21.64-26.04-35.14
		c-6.29-13.25-7.49-28.96-2.62-42.84c-4.18,13.96-3.19,29.45,3.07,42.63c6.09,13.49,18.66,22.44,26.02,35.11
		C419.16,417.57,421.67,428.56,416.54,437.26L416.54,437.26z"/>
</g>
<g>
	<path class="st2" d="M396.16,433.02c5.72-7.26,5.08-17.4,2.21-25.69c-4.6-12.74-14.56-23.02-17.86-36.34
		c-3.52-13.11-2.01-27.63,4.76-39.45c-4.08,8.02-6.15,17.03-6.1,26.01c0.08,9,2.5,17.9,6.87,25.77c4.23,7.92,9.73,15.25,12.8,23.85
		C401.85,415.52,402.29,425.95,396.16,433.02L396.16,433.02z"/>
</g>
<g>
	<path class="st2" d="M377.1,435.88c7.14-6.23,8.41-16.58,7.09-25.48c-2.23-13.71-10.33-25.95-11.14-39.99
		c-1.07-13.88,3.19-28.22,12.24-38.86c-8.43,10.96-12.82,25.02-11.74,38.83c0.82,14.03,8.92,26.22,11.14,39.96
		C386.12,419.31,384.61,429.91,377.1,435.88L377.1,435.88z"/>
</g>
<g>
	<path class="st2" d="M359.82,426.81c6.77-5.45,9.94-14.18,10.58-22.63c0.55-8.6-1.87-17.02-2.72-25.6
		c-0.94-8.62,0.49-17.4,3.63-25.45c3.08-8.08,7.86-15.49,13.97-21.6c-5.77,6.37-10.37,13.79-13.5,21.78
		c-3.11,7.99-4.52,16.67-3.59,25.22c0.84,8.52,3.27,16.97,2.72,25.69C370.35,412.77,366.93,421.65,359.82,426.81L359.82,426.81z"/>
</g>
<text transform="matrix(1 0 0 1 129.002 327.6633)" class="st3 st4 st5">Belgium</text>
</svg>
