<?xml version="1.0" encoding="utf-8"?>
<!-- Generator: Adobe Illustrator 28.1.0, SVG Export Plug-In . SVG Version: 6.00 Build 0)  -->
<svg version="1.1" id="Layer_2" xmlns="http://www.w3.org/2000/svg" xmlns:xlink="http://www.w3.org/1999/xlink" x="0px" y="0px"
	 viewBox="0 0 600 600" style="enable-background:new 0 0 600 600;" xml:space="preserve">
<style type="text/css">
	.st0{fill:#CBCBCA;}
	.st1{fill:#873036;}
	.st2{font-family:'LibreBaskerville-Bold';}
	.st3{font-size:59.1389px;}
	.st4{fill:none;stroke:#000000;stroke-width:2;stroke-miterlimit:10;}
</style>
<polyline class="st0" points="563.76,191.76 563.76,496.16 35.36,496.16 35.36,176.84 555.93,176.84 "/>
<path class="st0" d="M555.93,176.78c-55.17-84.47-150.55-140.3-258.96-140.3c-109.81,0-206.24,57.26-261.06,143.56"/>
<path class="st0" d="M558.51,180.88c-0.85-1.37-1.7-2.75-2.59-4.1l2.62,4.22C558.53,180.97,558.52,180.92,558.51,180.88z"/>
<path class="st0" d="M510.57,565.23c21.18-20.36,39.47-43.71,54.18-69.37L35,431.75c0,0.02,0,0.04,0,0.06
	c0.09,11.6,1.16,23.04,0.51,34.64c-0.16,2.82-0.34,5.63-0.53,8.45c-0.01,0.57-0.02,1.14-0.03,1.71c0.15,0.47,0.24,0.97,0.23,1.53
	c-0.03,0.89-0.06,1.77-0.09,2.66c0.5,0.73,0.81,1.65,0.81,2.77c0.01,8.27,0.14,16.53-0.18,24.79c0,0.01,0,0.01,0,0.02
	c13.1,20.53,28.55,39.4,45.98,56.25"/>
<path class="st0" d="M82.24,567.84c0.81,0.78,1.62,1.56,2.44,2.33"/>
<g>
	<path class="st1" d="M300.1,281.17c-2.85,3.43-2.96,8.17-2.07,12.33c1,4.22,3.28,8.08,4.95,12.22c2.66,6.21,2.87,13.45,0.54,19.81
		c-0.92,2.06-2.06,4.02-3.49,5.73c1.09-1.94,1.97-3.96,2.54-6.06c2.24-6.14,2.04-13.07-0.53-19.09
		C298.88,298.71,292.46,287.96,300.1,281.17L300.1,281.17z"/>
</g>
<g>
	<path class="st1" d="M309.63,277.57c-3.94,2.94-5.07,8.18-4.87,12.84c0.28,4.78,1.99,9.36,2.99,14.09
		c1.65,7.11,0.51,14.82-3.16,21.14c-1.28,2.07-2.82,3.96-4.57,5.62c1.63-1.78,3.02-3.76,4.14-5.87c3.61-6.22,4.73-13.78,3.1-20.78
		C305.24,296.01,300.61,283.79,309.63,277.57L309.63,277.57z"/>
</g>
<g>
	<path class="st1" d="M322.05,274.16c-4.99,2.37-7.37,7.92-8.14,13.11c-0.72,5.34,0.2,10.75,0.29,16.17
		c0.3,8.18-2.6,16.43-7.99,22.6c-1.85,2.01-3.94,3.78-6.22,5.24c2.19-1.6,4.15-3.48,5.84-5.57c5.31-6.09,8.16-14.19,7.87-22.27
		c-0.08-5.38-1.01-10.8-0.28-16.25C314.1,281.9,316.79,276.17,322.05,274.16L322.05,274.16z"/>
</g>
<g>
	<path class="st1" d="M334.45,274.21c-5.81,1.58-9.43,7.09-11.23,12.51c-1.78,5.6-1.82,11.57-2.76,17.4
		c-1.23,8.83-5.9,17.12-12.84,22.71c-2.35,1.81-4.93,3.32-7.65,4.46c2.65-1.29,5.11-2.94,7.33-4.85
		c6.85-5.53,11.45-13.68,12.66-22.4c0.93-5.79,0.97-11.78,2.78-17.48C324.48,281.02,328.43,275.39,334.45,274.21L334.45,274.21z"/>
</g>
<g>
	<path class="st1" d="M348.42,278.12c-6.49,0.44-11.49,5.51-14.53,10.88c-3.06,5.55-4.36,11.87-6.58,17.84
		c-3.15,9.08-9.83,16.87-18.35,21.33c-2.87,1.42-5.9,2.49-9.02,3.13c3.08-0.81,6.04-2.02,8.79-3.57c8.42-4.41,15-12.08,18.12-21.06
		c2.2-5.93,3.5-12.26,6.61-17.91C336.46,283.25,341.81,278.13,348.42,278.12L348.42,278.12z"/>
</g>
<g>
	<path class="st1" d="M360.7,284.38c-6.87-0.49-12.9,3.85-17.1,8.89c-4.21,5.23-6.75,11.62-10.19,17.51
		c-5.01,9-13.53,16-23.36,19.13c-3.32,0.9-6.73,1.41-10.13,1.4c3.38-0.39,6.69-1.16,9.82-2.35c9.61-3.07,17.89-9.86,22.8-18.68
		c3.4-5.81,5.93-12.23,10.28-17.63C346.99,287.36,353.73,282.91,360.7,284.38L360.7,284.38z"/>
</g>
<g>
	<path class="st1" d="M372.56,293.64c-7.09-2.12-14.45,1.32-19.81,5.86c-5.46,4.73-9.33,10.95-14.05,16.46
		c-6.93,8.44-17.12,14.12-27.96,15.53c-3.62,0.4-7.27,0.35-10.86-0.18c3.6,0.36,7.24,0.24,10.79-0.32
		c10.73-1.39,20.78-6.99,27.65-15.36c4.69-5.46,8.56-11.71,14.1-16.51C357.8,294.43,365.5,291.07,372.56,293.64L372.56,293.64z"/>
</g>
<g>
	<path class="st1" d="M385.07,305.87c-7.13-3.72-15.7-1.56-22.35,2.21c-10.14,5.94-17.42,16.14-28.3,21.07
		c-10.68,5.1-23.37,6.12-34.57,2.15c7.52,2.2,15.56,2.53,23.25,1.07c7.68-1.5,14.94-4.97,20.97-9.97
		c6.11-4.88,11.52-10.76,18.4-14.75C369.17,303.74,378.05,301.71,385.07,305.87L385.07,305.87z"/>
</g>
<g>
	<path class="st1" d="M396.75,319.7c-3.42-2.68-7.75-3.88-12.01-3.95c-13.37-0.57-24.06,8.44-35.16,14.63
		c-7.53,4.3-16.11,6.74-24.78,6.93c-8.66,0.24-17.38-1.82-24.95-6.02c11.57,5.68,25.22,7.13,37.65,3.63
		c12.69-3.32,22.3-12.91,34.5-17.49C379.94,314.46,389.92,313.91,396.75,319.7L396.75,319.7z"/>
</g>
<g>
	<path class="st1" d="M400.71,337.21c-6.16-6.77-16.16-7.8-24.73-6.35c-13.19,2.41-24.86,10.47-38.41,11.51
		c-13.38,1.3-27.31-2.54-37.75-11.1c7.17,5.29,15.63,8.78,24.41,10.2c8.81,1.39,17.89,0.48,26.29-2.5
		c8.43-2.84,16.48-7.02,25.38-8.61C384.54,328.8,394.81,330.07,400.71,337.21L400.71,337.21z"/>
</g>
<g>
	<path class="st1" d="M399.34,354.61c-5.11-7.59-14.81-10.3-23.55-10.36c-13.56,0.13-26.6,6.14-40.29,4.84
		c-13.59-1.04-27-7.21-35.7-17.83c6.39,6.33,14.17,11.2,22.65,14.16c8.51,2.89,17.66,3.55,26.52,2.04
		c8.87-1.37,17.63-4.15,26.82-4.2C384.71,343.16,394.88,346.29,399.34,354.61L399.34,354.61z"/>
</g>
<g>
	<path class="st1" d="M394.31,373.46c-3.45-8.72-12.66-13.34-21.4-15.05c-13.51-2.47-27.62,1.03-40.97-2.88
		c-13.29-3.6-25.25-12.33-32.16-24.3c7.42,11.49,19.07,20.24,32.29,23.82c13.34,3.89,27.4,0.38,40.93,2.87
		C381.86,359.55,391.24,364.48,394.31,373.46L394.31,373.46z"/>
</g>
<g>
	<path class="st1" d="M383.82,388.53c-1.81-9.03-9.92-15.1-18.07-18.28c-12.64-4.74-26.89-3.82-39.12-9.93
		c-12.23-5.8-22.27-16.33-26.86-29.11c3.45,8.28,8.95,15.67,15.8,21.44c6.89,5.75,15.2,9.67,23.99,11.44
		c8.75,1.91,17.86,2.47,26.37,5.69C374.21,372.91,382.42,379.31,383.82,388.53L383.82,388.53z"/>
</g>
<g>
	<path class="st1" d="M372.08,401.39c-0.24-9.12-7.13-16.42-14.54-20.91c-11.53-6.77-25.59-8.29-36.5-16.32
		c-10.95-7.74-18.97-19.71-21.28-32.97c1.96,8.67,6.08,16.81,11.79,23.6c5.75,6.78,13.19,12.01,21.48,15.23
		c8.21,3.35,17.02,5.44,24.77,10.03C365.35,384.51,372.27,392.15,372.08,401.39L372.08,401.39z"/>
</g>
<g>
	<path class="st1" d="M359.06,414.48c1.43-9.15-4.1-17.69-10.67-23.53c-10.27-8.87-24.02-12.97-33.43-22.98
		c-9.51-9.73-15.31-23.15-15.2-36.8c0.57,13.5,6.09,26.78,15.56,36.45c9.43,10,23.08,14.03,33.41,22.95
		C355.44,396.4,360.95,405.3,359.06,414.48L359.06,414.48z"/>
</g>
<g>
	<path class="st1" d="M345.13,426.48c2.84-9.02-1.23-18.6-6.82-25.69c-8.85-10.85-22.11-17.49-29.89-29.37
		c-7.93-11.62-11.59-26.41-8.66-40.28c-1.48,13.81,1.59,28.21,9.48,39.72c7.78,11.84,20.98,18.41,29.84,29.31
		C344.93,407.31,348.96,417.52,345.13,426.48L345.13,426.48z"/>
</g>
<g>
	<path class="st1" d="M329.65,436.45c4.75-8.71,2.24-19.33-2.3-27.58c-7.17-12.64-19.57-21.71-25.47-35.19
		c-6.1-13.23-7.12-28.84-2.12-42.57c-4.3,13.81-3.49,29.21,2.58,42.36c5.9,13.46,18.28,22.49,25.45,35.15
		C332.47,416.92,334.84,427.86,329.65,436.45L329.65,436.45z"/>
</g>
<g>
	<path class="st1" d="M310.8,441.15c6.27-7.82,5.66-18.82,2.61-27.83c-4.89-13.84-15.61-25.06-19.08-39.51
		c-3.72-14.23-1.96-29.94,5.44-42.71c-6.73,12.97-8.66,28.42-4.96,42.58c3.48,14.43,14.19,25.61,19.07,39.47
		C317.07,422.23,317.48,433.53,310.8,441.15L310.8,441.15z"/>
</g>
<g>
	<path class="st1" d="M289.62,445.49c7.92-6.75,9.45-18.1,8.09-27.89c-2.29-15.07-11.05-28.6-11.77-44.02
		c-1.02-15.24,3.83-30.92,13.85-42.51c-9.4,11.92-14.38,27.31-13.35,42.48c0.74,15.4,9.49,28.88,11.77,43.98
		C299.68,427.41,297.91,439.01,289.62,445.49L289.62,445.49z"/>
</g>
<g>
	<path class="st1" d="M270.95,441.77c7.84-6.35,11.48-16.51,12.15-26.33c0.7-14.99-5.71-29.65-3.11-44.69
		c2.2-14.87,9.29-28.97,19.8-39.69c-6.68,7.41-11.97,16.05-15.54,25.34c-3.55,9.29-5.13,19.38-3.99,29.3
		c1.03,9.88,3.91,19.66,3.34,29.77C283.01,425.4,279.13,435.71,270.95,441.77L270.95,441.77z"/>
</g>
<text transform="matrix(1 0 0 1 96.5857 325.735)" class="st2 st3">China</text>
<g>
	<g>
		<path class="st0" d="M39.61,506.93c0.22-19,0.45-38,0.67-57c0.04-3.22-4.96-3.22-5,0c-0.22,19-0.45,38-0.67,57
			C34.57,510.15,39.57,510.15,39.61,506.93L39.61,506.93z"/>
	</g>
</g>
<rect x="34.42" y="34.42" class="st4" width="531.15" height="531.15"/>
<rect x="34.42" y="34.42" class="st4" width="531.15" height="531.15"/>
</svg>
