<?xml version="1.0" encoding="utf-8"?>
<!-- Generator: Adobe Illustrator 28.1.0, SVG Export Plug-In . SVG Version: 6.00 Build 0)  -->
<svg version="1.1" id="Layer_1" xmlns="http://www.w3.org/2000/svg" xmlns:xlink="http://www.w3.org/1999/xlink" x="0px" y="0px"
	 viewBox="0 0 600 600" style="enable-background:new 0 0 600 600;" xml:space="preserve">
<style type="text/css">
	.st0{fill:#CCCCCC;}
	.st1{fill:#883037;}
	.st2{fill:#010101;}
	.st3{font-family:'LibreBaskerville-Bold';}
	.st4{font-size:62.4078px;}
	.st5{fill:none;stroke:#000000;stroke-width:2;stroke-miterlimit:10;}
</style>
<circle class="st0" cx="398.04" cy="311.19" r="81.26"/>
<g>
	<path class="st1" d="M397.5,142.95c-10.26,10.58-11,26.86-7.87,40.54c5.13,21.09,19.24,39.23,22.19,61.01
		c3.34,21.52-1.54,44.45-14.51,62.07c11.67-18.15,16.86-40.54,13.52-61.92c-2.98-21.77-17.06-39.78-22.17-60.93
		C385.31,169.85,386.42,153.16,397.5,142.95L397.5,142.95z"/>
</g>
<g>
	<path class="st1" d="M425.58,148.68c-11.9,8.33-15.51,24-14.8,37.79c1.33,21.25,11.83,41.15,10.94,62.67
		c-0.46,21.31-9.16,42.46-24.42,57.42c14.67-15.34,23.46-36.2,23.92-57.43c0.87-21.52-9.63-41.36-10.94-62.63
		C409.48,172.59,413.31,156.75,425.58,148.68L425.58,148.68z"/>
</g>
<g>
	<path class="st1" d="M451.89,158.74c-12.94,6-19.13,20.54-20.82,34c-2.38,20.78,4.35,41.83-0.22,62.5
		c-4.12,20.53-16.18,39.49-33.52,51.32c16.83-12.31,28.93-30.96,33.03-51.42c4.55-20.66-2.18-41.66,0.22-62.46
		C432.19,179.09,438.63,164.43,451.89,158.74L451.89,158.74z"/>
</g>
<g>
	<path class="st1" d="M477.35,169.04c-13.92,3.72-22.61,17.09-26.63,30.19c-5.99,20.25-2.96,42.36-11.11,62.12
		c-7.67,19.7-22.97,36.45-42.28,45.21c18.88-9.31,34.17-25.75,41.81-45.39c8.13-19.76,5.09-41.81,11.1-62.09
		C454.21,185.85,463.17,172.38,477.35,169.04L477.35,169.04z"/>
</g>
<g>
	<path class="st1" d="M499.3,190.07c-13.98,0.97-24.76,12.13-31.04,23.89c-9.48,18.23-10.7,39.91-22.15,57.27
		c-10.99,17.39-28.71,30.56-48.78,35.32c19.76-5.4,37.41-18.26,48.36-35.59c11.43-17.36,12.62-38.99,22.13-57.24
		C474.08,201.82,485.14,190.63,499.3,190.07L499.3,190.07z"/>
</g>
<g>
	<path class="st1" d="M519.01,209.64c-13.94-1.33-26.46,7.79-34.77,18.22c-12.62,16.32-17.73,37.56-32.16,52.67
		c-14.01,15.25-33.94,25.24-54.74,26.02c20.4-2.13,40.1-11.54,54-26.7c14.41-15.12,19.43-36.27,32.11-52.62
		C491.78,216.52,504.85,207.44,519.01,209.64L519.01,209.64z"/>
</g>
<g>
	<path class="st1" d="M524.19,237.7c-12.54-3.66-25.57,2.61-34.86,10.86c-14.19,12.87-22.26,31.43-37.89,42.91
		c-15.24,11.65-34.99,17.44-54.09,15.09c19.02,1.65,38.61-3.87,53.79-15.49c15.61-11.48,23.65-30.01,37.87-42.89
		C498.31,239.8,511.64,233.59,524.19,237.7L524.19,237.7z"/>
</g>
<g>
	<path class="st1" d="M541.34,261.7c-12.11-6.3-26.74-2.52-37.94,4.05c-17.15,10.32-29.2,27.71-47.55,36.3
		c-17.98,8.85-39.4,10.77-58.5,4.51c19.16,5.57,40.37,3.87,58.28-4.96c18.33-8.6,30.33-25.96,47.51-36.28
		C514.4,258.62,529.29,254.95,541.34,261.7L541.34,261.7z"/>
</g>
<g>
	<path class="st1" d="M543.55,286.93c-10.64-8.06-25.37-6.81-37.24-2.31c-18.23,7.13-32.7,21.93-51.8,27.2
		c-18.79,5.59-39.76,3.93-57.15-5.25c17.56,8.5,38.29,10.35,57.01,4.77c19.09-5.29,33.5-20.06,51.76-27.19
		C518.07,279.53,533.06,278.44,543.55,286.93L543.55,286.93z"/>
</g>
<g>
	<path class="st1" d="M544.9,313.34c-9.04-9.84-23.78-11.24-36.28-8.93c-19.24,3.77-36.14,15.76-55.89,17.54
		c-19.51,2.15-39.88-3.24-55.36-15.39c15.78,11.52,35.87,17.04,55.31,14.89c19.75-1.8,36.59-13.77,55.85-17.54
		C521.12,301.5,536.08,303.11,544.9,313.34L544.9,313.34z"/>
</g>
<g>
	<path class="st1" d="M544.38,339.32c-7.48-11.3-21.96-15.19-34.87-15.11c-19.97,0.41-39.09,9.48-59.25,7.79
		c-20.01-1.28-39.67-10.23-52.89-25.44c14.02,14.06,33.09,23.18,52.96,24.44c20.16,1.66,39.14-7.41,59.17-7.79
		C522.64,322.96,537.44,327.3,544.38,339.32L544.38,339.32z"/>
</g>
<g>
	<path class="st1" d="M529.25,364.92c-4.75-12.15-17.67-18.63-29.86-20.95c-18.84-3.37-38.46,1.57-57.07-3.8
		c-18.52-4.95-35.15-17.05-44.94-33.59c10.3,16.06,26.62,28.19,45.07,33.11c18.61,5.35,38.17,0.4,57.04,3.79
		C511.8,345.73,524.85,352.48,529.25,364.92L529.25,364.92z"/>
</g>
<g>
	<path class="st1" d="M518.14,386.26c-2.68-12.82-14.38-21.38-26.06-25.7c-18.08-6.47-38.31-4.85-55.84-13.26
		c-17.5-7.98-31.94-22.72-38.88-40.72c7.52,17.6,21.65,32.32,39.08,40.26c17.52,8.39,37.7,6.75,55.8,13.25
		C504.07,364.37,515.86,373.22,518.14,386.26L518.14,386.26z"/>
</g>
<g>
	<path class="st1" d="M503.3,406.49c-0.44-13.17-10.55-23.69-21.38-29.99c-16.8-9.55-37.14-11.45-53.06-22.81
		c-15.97-10.94-27.73-28.05-31.49-47.09c4.4,18.75,15.86,35.79,31.77,46.68c15.92,11.35,36.21,13.22,53.03,22.79
		C493.14,382.34,503.3,393.16,503.3,406.49L503.3,406.49z"/>
</g>
<g>
	<path class="st1" d="M480.65,421.79c1.99-12.71-5.79-24.64-15.01-32.67c-14.37-12.23-33.52-17.78-46.7-31.6
		c-13.31-13.41-21.46-31.98-21.57-50.93c0.79,18.79,8.66,37.22,21.92,50.58c13.18,13.8,32.3,19.31,46.67,31.57
		C475.34,396.77,483.09,409.01,480.65,421.79L480.65,421.79z"/>
</g>
<g>
	<path class="st1" d="M456.57,429.18c3.73-11.65-1.58-24.05-8.88-33.16c-11.49-13.93-28.63-22.39-38.74-37.64
		c-10.3-14.91-15.05-33.89-11.58-51.79c-2.01,17.83,2.14,36.43,12.4,51.22c10.12,15.21,27.2,23.6,38.7,37.58
		C456.01,404.55,461.29,417.58,456.57,429.18L456.57,429.18z"/>
</g>
<g>
	<path class="st1" d="M432.55,429.68c5.57-10.18,2.63-22.62-2.71-32.26c-8.41-14.76-22.93-25.33-29.85-41.08
		c-7.16-15.44-8.37-33.68-2.62-49.75c-5.06,16.15-4.06,34.17,3.07,49.54c6.93,15.73,21.42,26.25,29.84,41.04
		C435.75,406.86,438.56,419.62,432.55,429.68L432.55,429.68z"/>
</g>
<g>
	<path class="st1" d="M409.79,422.18c6.54-8.26,5.82-19.83,2.54-29.28c-5.24-14.51-16.6-26.22-20.36-41.38
		c-4.01-14.93-2.29-31.44,5.38-44.93c-6.99,13.68-8.9,29.94-4.9,44.8c3.77,15.14,15.11,26.8,20.34,41.34
		C416.21,402.25,416.74,414.11,409.79,422.18L409.79,422.18z"/>
</g>
<g>
	<path class="st1" d="M386.5,428.75c8.47-7.2,10.11-19.32,8.66-29.77c-2.45-16.09-11.79-30.53-12.57-46.99
		c-1.09-16.27,4.09-33,14.77-45.38c-10.06,12.71-15.36,29.16-14.27,45.35c0.79,16.44,10.13,30.84,12.57,46.95
		C397.22,409.45,395.34,421.82,386.5,428.75L386.5,428.75z"/>
</g>
<g>
	<path class="st1" d="M366.72,421.65c8.21-6.56,12.05-17.11,12.8-27.33c0.66-10.42-2.29-20.6-3.31-30.92
		c-1.14-10.39,0.57-20.99,4.35-30.7c3.71-9.74,9.46-18.7,16.79-26.11c-10.41,11.5-17.97,25.87-20.33,41.27
		c-2.77,15.63,3.83,30.86,2.99,46.49C379.35,404.67,375.26,415.38,366.72,421.65L366.72,421.65z"/>
</g>
<text transform="matrix(1 0 0 1 70.528 302.7034)" class="st2 st3 st4">Germany</text>
<rect x="34.42" y="34.42" class="st5" width="531.15" height="531.15"/>
</svg>
