<?xml version="1.0" encoding="utf-8"?>
<!-- Generator: Adobe Illustrator 28.1.0, SVG Export Plug-In . SVG Version: 6.00 Build 0)  -->
<svg version="1.1" id="Layer_1" xmlns="http://www.w3.org/2000/svg" xmlns:xlink="http://www.w3.org/1999/xlink" x="0px" y="0px"
	 viewBox="0 0 600 600" style="enable-background:new 0 0 600 600;" xml:space="preserve">
<style type="text/css">
	.st0{fill:none;stroke:#000000;stroke-width:2;stroke-miterlimit:10;}
	.st1{fill:#CCCCCC;}
	.st2{fill:#883037;}
	.st3{fill:#010101;}
	.st4{font-family:'LibreBaskerville-Bold';}
	.st5{font-size:66.5333px;}
</style>
<rect x="34.42" y="34.42" class="st0" width="531.15" height="531.15"/>
<circle class="st1" cx="392.38" cy="306.7" r="17.49"/>
<g>
	<path class="st2" d="M391.8,124.48c-11.47,11.75-12.3,29.89-8.81,45.12c5.71,23.47,21.4,43.64,24.69,67.87
		c3.72,23.94-1.73,49.42-16.09,69.05c13.06-20.17,18.81-45.11,15.1-68.9c-3.31-24.22-18.98-44.27-24.67-67.8
		C378.3,154.41,379.51,135.85,391.8,124.48L391.8,124.48z"/>
</g>
<g>
	<path class="st2" d="M423.56,127.96c-13.48,9.4-17.58,27.14-16.77,42.74c1.5,24.03,13.38,46.53,12.38,70.88
		c-0.52,24.1-10.36,47.99-27.58,64.94c16.63-17.33,26.57-40.93,27.08-64.95c0.99-24.34-10.89-46.77-12.38-70.84
		C405.39,155.01,409.71,137.1,423.56,127.96L423.56,127.96z"/>
</g>
<g>
	<path class="st2" d="M455.94,132.51c-15.27,7.03-22.59,24.15-24.58,40.01c-2.82,24.46,5.09,49.25-0.3,73.58
		c-4.86,24.16-19.07,46.44-39.46,60.41c19.87-14.44,34.12-36.42,38.97-60.51c5.38-24.33-2.54-49.05,0.3-73.54
		C432.78,156.47,440.35,139.22,455.94,132.51L455.94,132.51z"/>
</g>
<g>
	<path class="st2" d="M480.2,152.34c-15.55,4.22-25.19,19.22-29.61,33.89c-6.57,22.67-3.05,47.36-12.03,69.49
		c-8.45,22.06-25.44,40.86-46.94,50.79c21.07-10.49,38.05-28.97,46.48-50.97c8.96-22.13,5.43-46.76,12.02-69.45
		C454.48,171.28,464.39,156.19,480.2,152.34L480.2,152.34z"/>
</g>
<g>
	<path class="st2" d="M505.08,176.9c-15.47,1.26-27.35,13.67-34.34,26.69c-10.54,20.28-11.91,44.42-24.65,63.74
		c-12.25,19.38-31.99,34.16-54.46,39.18c21.84-6.28,41.46-20.46,53.62-39.72c12.71-19.32,14.02-43.36,24.61-63.67
		C476.8,189.81,489.23,177.33,505.08,176.9L505.08,176.9z"/>
</g>
<g>
	<path class="st2" d="M522.42,200.07c-15.2-1.53-28.83,8.48-37.71,19.96c-13.52,17.84-18.79,40.9-34.25,57.44
		c-14.98,16.66-36.4,27.55-58.82,29.02c22.21-2.15,43.52-12.74,58.45-29.36c15.45-16.55,20.68-39.56,34.23-57.41
		C493.2,208.1,507.11,198.1,522.42,200.07L522.42,200.07z"/>
</g>
<g>
	<path class="st2" d="M521.5,234.58c-12.93-3.66-26.28,2.91-35.76,11.47c-14.48,13.36-22.63,32.53-38.6,44.47
		c-15.57,12.12-35.84,18.24-55.5,16c19.58,1.54,39.68-4.32,55.19-16.4c15.96-11.95,24.06-31.07,38.57-44.44
		C494.91,236.97,508.54,230.47,521.5,234.58L521.5,234.58z"/>
</g>
<g>
	<path class="st2" d="M530,262.29c-11.71-5.98-25.77-2.22-36.5,4.18c-16.45,10.06-27.93,26.89-45.53,35.3
		c-17.26,8.66-37.88,10.66-56.31,4.75c18.49,5.21,38.9,3.43,56.09-5.2c17.59-8.41,29.02-25.22,45.5-35.28
		C504.02,259.51,518.37,255.87,530,262.29L530,262.29z"/>
</g>
<g>
	<path class="st2" d="M524,287.34c-9.76-7.2-23.05-5.9-33.78-1.72c-16.46,6.64-29.43,20.19-46.7,25.15
		c-16.99,5.25-36.03,3.95-51.87-4.24c16.01,7.51,34.81,8.99,51.72,3.76c17.25-4.97,30.18-18.5,46.67-25.14
		C500.83,280.84,514.42,279.72,524,287.34L524,287.34z"/>
</g>
<g>
	<path class="st2" d="M523.69,310.96c-8.33-8.45-21.38-9.48-32.49-7.32c-17.15,3.59-32.15,14.5-49.82,16.31
		c-17.46,2.12-35.92-2.35-49.72-13.42c14.42,9.75,32.27,14.58,49.6,12.43c17.63-1.83,32.54-12.73,49.74-16.3
		C502.27,300.31,515.86,301.66,523.69,310.96L523.69,310.96z"/>
</g>
<g>
	<path class="st2" d="M517.73,333.36c-6.43-9.76-18.87-13.02-29.97-12.82c-17.1,0.51-33.35,8.43-50.62,7.15
		c-17.11-0.93-33.9-8.45-45.48-21.16c11.98,12.12,28.47,19.74,45.51,20.66c17.26,1.26,33.46-6.66,50.59-7.15
		C498.95,319.74,511.62,323.27,517.73,333.36L517.73,333.36z"/>
</g>
<g>
	<path class="st2" d="M507.41,356.14c-4.31-10.57-15.63-16.04-26.29-17.96c-16.49-2.75-33.56,1.76-49.87-2.73
		c-16.22-4.13-30.89-14.52-39.58-28.9c9.19,13.88,23.55,24.31,39.7,28.42c16.3,4.48,33.33-0.04,49.84,2.73
		C491.99,339.52,503.47,345.3,507.41,356.14L507.41,356.14z"/>
</g>
<g>
	<path class="st2" d="M501.4,378.36c-2.5-11.62-13.11-19.29-23.71-23.19c-16.41-5.81-34.74-4.27-50.65-11.83
		c-15.89-7.17-29.04-20.49-35.36-36.79c6.9,15.91,19.74,29.2,35.57,36.34c15.91,7.55,34.19,5.99,50.62,11.82
		C488.59,358.54,499.31,366.54,501.4,378.36L501.4,378.36z"/>
</g>
<g>
	<path class="st2" d="M490.94,399c-0.5-12.29-9.98-21.98-20.1-27.8c-15.71-8.8-34.66-10.45-49.56-20.95
		c-14.94-10.1-26.01-25.98-29.6-43.7c4.23,17.43,15,33.24,29.88,43.29c14.89,10.48,33.8,12.11,49.53,20.93
		C481.35,376.56,490.87,386.59,490.94,399L490.94,399z"/>
</g>
<g>
	<path class="st2" d="M468.12,412.3c1.55-11.62-5.55-22.42-13.96-29.79c-13.18-11.22-30.78-16.32-42.88-29.02
		c-12.22-12.34-19.9-29.47-19.61-46.94c1.12,17.15,8.15,34.01,20.32,46.24c12.1,12.66,29.63,17.7,42.83,28.96
		C463.47,389.14,470.65,400.56,468.12,412.3L468.12,412.3z"/>
</g>
<g>
	<path class="st2" d="M447.88,422.96c3.79-11.09-1.28-22.96-8.25-31.63c-10.91-13.24-27.18-21.25-36.78-35.73
		c-9.78-14.13-14.13-32.06-11.18-49.04c-2.25,16.94,1.85,34.69,11.59,48.76c9.6,14.45,25.84,22.43,36.76,35.69
		C447.13,399.71,452.12,411.92,447.88,422.96L447.88,422.96z"/>
</g>
<g>
	<path class="st2" d="M425.29,423.23c5.25-9.67,2.43-21.45-2.65-30.58c-8.01-13.98-21.8-23.98-28.41-38.9
		c-6.82-14.63-8.02-31.93-2.58-47.19c-4.74,15.33-3.76,32.41,3.04,46.98c6.61,14.9,20.38,24.85,28.39,38.86
		C428.29,401.58,430.98,413.68,425.29,423.23L425.29,423.23z"/>
</g>
<g>
	<path class="st2" d="M403.71,418.93c6.35-8.03,5.66-19.27,2.48-28.46c-5.09-14.11-16.13-25.49-19.77-40.23
		c-3.9-14.51-2.22-30.57,5.25-43.67c-6.79,13.3-8.65,29.1-4.77,43.54c3.66,14.72,14.68,26.06,19.76,40.19
		C409.97,399.56,410.47,411.09,403.71,418.93L403.71,418.93z"/>
</g>
<g>
	<path class="st2" d="M381.04,426.13c8.29-7.05,9.89-18.91,8.47-29.14c-2.39-15.75-11.54-29.88-12.3-45.99
		c-1.07-15.92,4-32.3,14.46-44.42c-9.84,12.45-15.03,28.54-13.97,44.39c0.77,16.1,9.91,30.18,12.3,45.96
		C391.53,407.24,389.69,419.35,381.04,426.13L381.04,426.13z"/>
</g>
<g>
	<path class="st2" d="M359.97,425.21c8.47-6.75,12.45-17.64,13.23-28.18c0.69-10.75-2.34-21.25-3.39-31.89
		c-1.17-10.72,0.61-21.64,4.51-31.66c3.84-10.04,9.77-19.28,17.33-26.91c-10.75,11.84-18.57,26.67-21.01,42.55
		c-2.87,16.12,3.92,31.84,3.05,47.95C373,407.71,368.78,418.74,359.97,425.21L359.97,425.21z"/>
</g>
<text transform="matrix(1 0 0 1 125.1445 302.1265)" class="st3 st4 st5">Ireland</text>
<rect x="34.42" y="34.42" class="st0" width="531.15" height="531.15"/>
</svg>
