<?xml version="1.0" encoding="utf-8"?>
<!-- Generator: Adobe Illustrator 28.1.0, SVG Export Plug-In . SVG Version: 6.00 Build 0)  -->
<svg version="1.1" id="Layer_1" xmlns="http://www.w3.org/2000/svg" xmlns:xlink="http://www.w3.org/1999/xlink" x="0px" y="0px"
	 viewBox="0 0 600 600" style="enable-background:new 0 0 600 600;" xml:space="preserve">
<style type="text/css">
	.st0{fill:none;stroke:#000000;stroke-width:2;stroke-miterlimit:10;}
	.st1{fill:#CCCCCC;}
	.st2{fill:#883037;}
	.st3{fill:#010101;}
	.st4{font-family:'LibreBaskerville-Bold';}
	.st5{font-size:61.6275px;}
</style>
<rect x="37" y="34.77" class="st0" width="531.15" height="531.15"/>
<circle class="st1" cx="395.48" cy="306.8" r="47.17"/>
<g>
	<path class="st2" d="M394.78,213.13c-2.73,2.92-4.23,6.73-4.67,10.58c-1.98,12.11,5.04,22.76,9.47,33.61
		c3.11,7.38,4.41,15.56,3.62,23.54c-0.71,7.98-3.62,15.79-8.52,22.12c4.09-6.76,6.69-14.38,7.53-22.22
		c0.77-7.84-0.47-15.81-3.55-23.07c-2.94-7.31-7.07-14.25-8.95-22.13C387.82,227.94,388.49,218.58,394.78,213.13L394.78,213.13z"/>
</g>
<g>
	<path class="st2" d="M411.76,207.42c-3.54,2.48-5.94,6.25-7.25,10.28c-4.42,12.56,1.05,25.35,3.71,37.71
		c1.91,8.41,1.74,17.29-0.6,25.6c-2.29,8.31-6.78,16.01-12.98,22c8.76-9.36,14.11-21.93,14.38-34.77
		c0.52-13.04-5.81-24.97-6.63-37.91C401.89,221.89,404.27,212.24,411.76,207.42L411.76,207.42z"/>
</g>
<g>
	<path class="st2" d="M429.09,213.77c-3.89,1.73-6.92,4.94-8.93,8.59c-6.63,11.32-3.74,24.71-3.48,37.17
		c0.27,8.49-1.55,17.05-5.38,24.65c-3.77,7.61-9.56,14.22-16.68,18.85c10.23-7.42,17.75-18.57,20.42-30.95
		c2.95-12.52-0.94-25.25,0.69-37.92C416.83,225.91,420.94,217.02,429.09,213.77L429.09,213.77z"/>
</g>
<g>
	<path class="st2" d="M443.17,222.63c-4.06,1.01-7.53,3.59-10.1,6.78c-8.34,9.81-7.83,23.25-9.71,35.34
		c-1.19,8.26-4.41,16.22-9.41,22.91c-4.94,6.71-11.67,12.12-19.35,15.37c11.15-5.43,20.33-14.93,25.03-26.43
		c4.99-11.6,3.4-24.57,7.15-36.54C429.24,232.28,434.73,224.38,443.17,222.63L443.17,222.63z"/>
</g>
<g>
	<path class="st2" d="M458.41,231.38c-4.26,0.26-8.24,2.2-11.42,4.92c-13.72,11.25-12.44,31.15-21.9,45.17
		c-6.91,10.74-17.98,18.86-30.51,21.59c12.22-3.36,23.22-11.18,30.09-21.86c7.18-10.72,8.01-24.04,14.02-35.36
		C442.61,238.46,449.61,231.56,458.41,231.38L458.41,231.38z"/>
</g>
<g>
	<path class="st2" d="M474.9,239.34c-9.15-0.71-17.32,5.23-22.81,12.07c-8.34,10.74-11.74,24.74-21.29,34.69
		c-9.28,10.04-22.48,16.74-36.25,16.96c13.38-1.63,26.35-7.67,35.51-17.64c9.52-9.97,12.8-23.77,21.24-34.63
		C456.79,243.7,465.58,237.66,474.9,239.34L474.9,239.34z"/>
</g>
<g>
	<path class="st2" d="M483.96,254.55c-8.86-2.52-17.97,1.91-24.52,7.7c-10,9.07-15.7,22.15-26.73,30.24
		c-10.75,8.22-24.71,12.33-38.18,10.56c13.39,1.07,27.18-2.78,37.87-10.96c11.01-8.1,16.64-21.09,26.7-30.22
		C465.67,255.95,475.12,251.58,483.96,254.55L483.96,254.55z"/>
</g>
<g>
	<path class="st2" d="M492.35,271.77c-8.32-4.17-18.18-1.49-25.78,3.02c-11.63,7.11-19.75,19.02-32.21,24.97
		c-12.22,6.13-26.83,7.58-39.86,3.29c13.09,3.58,27.49,2.36,39.64-3.74c12.44-5.95,20.52-17.84,32.18-24.95
		C473.95,269.71,484.14,267.16,492.35,271.77L492.35,271.77z"/>
</g>
<g>
	<path class="st2" d="M497.35,289.22c-7.53-5.62-17.83-4.7-26.18-1.56c-12.83,5.02-23.01,15.43-36.46,19.14
		c-13.23,3.93-28.03,2.79-40.24-3.77c12.38,5.88,26.93,7.21,40.09,3.29c13.43-3.72,23.57-14.11,36.42-19.13
		C479.41,283.93,490,283.19,497.35,289.22L497.35,289.22z"/>
</g>
<g>
	<path class="st2" d="M501.16,307.11c-6.65-7.03-17.25-7.91-26.27-6.19c-13.89,2.84-26.04,11.6-40.32,13
		c-14.11,1.66-28.9-2.1-40.12-10.89c11.52,8.15,26.03,12.05,40.06,10.39c14.27-1.41,26.37-10.16,40.28-12.99
		C483.9,298.59,494.77,299.7,501.16,307.11L501.16,307.11z"/>
</g>
<g>
	<path class="st2" d="M511.16,327.95c-6.09-8.8-17.51-11.77-27.73-11.63c-15.82,0.47-30.9,7.78-46.9,6.58
		c-15.87-0.89-31.61-7.8-42.08-19.9c11.31,10.91,26.38,18.05,42.14,18.9c15.97,1.18,30.96-6.14,46.83-6.58
		C493.81,315.02,505.71,318.4,511.16,327.95L511.16,327.95z"/>
</g>
<g>
	<path class="st2" d="M503.26,349.62c-4.07-9.93-14.7-15.07-24.72-16.87c-15.5-2.59-31.56,1.66-46.9-2.57
		c-15.26-3.89-29.06-13.66-37.21-27.19c8.65,13.04,22.15,22.84,37.33,26.7c15.33,4.21,31.34-0.04,46.86,2.56
		C488.76,333.97,499.56,339.42,503.26,349.62L503.26,349.62z"/>
</g>
<g>
	<path class="st2" d="M489.2,364.33c-2.23-9.98-11.4-16.52-20.53-19.83c-14.15-4.93-29.93-3.53-43.67-9.97
		c-13.72-6.11-25.12-17.52-30.59-31.56c6.05,13.64,17.14,25.03,30.8,31.1c13.73,6.43,29.46,5.01,43.63,9.96
		C478.1,347.28,487.37,354.15,489.2,364.33L489.2,364.33z"/>
</g>
<g>
	<path class="st2" d="M476.12,378.35c-0.5-10.06-8.3-17.93-16.6-22.67c-12.91-7.15-28.46-8.43-40.71-16.98
		c-12.29-8.22-21.45-21.2-24.4-35.75c3.59,14.25,12.45,27.15,24.68,35.33c12.25,8.53,27.75,9.79,40.68,16.96
		C468.2,359.95,476.05,368.16,476.12,378.35L476.12,378.35z"/>
</g>
<g>
	<path class="st2" d="M461.51,393.91c1.44-10.14-4.84-19.5-12.22-25.83c-11.52-9.62-26.8-13.88-37.39-24.78
		c-10.69-10.57-17.34-25.29-17.51-40.38c0.84,14.92,7.21,29.51,17.86,40.03c10.59,10.87,25.83,15.11,37.36,24.75
		C457.14,374.02,463.4,383.73,461.51,393.91L461.51,393.91z"/>
</g>
<g>
	<path class="st2" d="M448.31,410.81c3.12-10.37-1.74-21.26-8.3-29.24c-10.35-12.2-25.64-19.5-34.78-32.89
		c-9.31-13.1-13.77-29.88-10.83-45.78c-1.49,15.81,2.38,32.23,11.64,45.2c9.14,13.36,24.38,20.58,34.73,32.83
		C447.58,388.95,452.41,400.48,448.31,410.81L448.31,410.81z"/>
</g>
<g>
	<path class="st2" d="M428.52,417.64c5.09-9.58,2.22-21.17-2.87-30.13c-8.01-13.72-21.69-23.47-28.32-38.13
		c-6.84-14.37-8.17-31.42-2.92-46.51c-4.55,15.16-3.44,31.99,3.37,46.3c6.64,14.64,20.29,24.34,28.31,38.09
		C431.3,396.26,434.05,408.18,428.52,417.64L428.52,417.64z"/>
</g>
<g>
	<path class="st2" d="M408.34,422.9c6.73-8.64,5.89-20.66,2.4-30.46c-5.58-15.04-17.48-27.11-21.52-42.84
		c-4.3-15.48-2.65-32.66,5.19-46.75c-7.16,14.28-9,31.21-4.71,46.62c4.05,15.71,15.94,27.74,21.51,42.8
		C414.83,402.13,415.49,414.45,408.34,422.9L408.34,422.9z"/>
</g>
<g>
	<path class="st2" d="M385.12,425.17c8.38-7.31,9.87-19.46,8.28-29.9c-2.65-16.07-12.19-30.39-13.17-46.85
		c-1.3-16.26,3.67-33.06,14.2-45.59c-9.9,12.85-15,29.36-13.7,45.55c1,16.44,10.53,30.72,13.17,46.81
		C395.6,405.72,393.88,418.12,385.12,425.17L385.12,425.17z"/>
</g>
<g>
	<path class="st2" d="M363.08,425.44c8.66-7.05,12.65-18.31,13.33-29.18c0.59-11.08-2.65-21.87-3.84-32.83
		c-1.32-11.03,0.39-22.31,4.3-32.67c3.84-10.39,9.86-19.97,17.56-27.93c-10.96,12.32-18.85,27.69-21.19,44.08
		c-2.78,16.64,4.39,32.77,3.67,49.38C376.32,407.26,372.09,418.68,363.08,425.44L363.08,425.44z"/>
</g>
<text transform="matrix(1 0 0 1 94.1411 296.7203)" class="st3 st4 st5">Malaysia</text>
</svg>
