<?xml version="1.0" encoding="utf-8"?>
<!-- Generator: Adobe Illustrator 28.1.0, SVG Export Plug-In . SVG Version: 6.00 Build 0)  -->
<svg version="1.1" id="Layer_2" xmlns="http://www.w3.org/2000/svg" xmlns:xlink="http://www.w3.org/1999/xlink" x="0px" y="0px"
	 viewBox="0 0 600 600" style="enable-background:new 0 0 600 600;" xml:space="preserve">
<style type="text/css">
	.st0{fill:none;stroke:#000000;stroke-width:2;stroke-miterlimit:10;}
	.st1{fill:#CCCCCC;}
	.st2{fill:#883037;}
	.st3{fill:#010101;}
	.st4{font-family:'LibreBaskerville-Bold';}
	.st5{font-size:54.8833px;}
</style>
<g id="Layer_1">
	<rect x="33.29" y="36.38" class="st0" width="531.15" height="531.15"/>
	<circle class="st1" cx="415.52" cy="320.03" r="42.29"/>
	<g>
		<path class="st2" d="M415.15,174.77c-9.06,9.41-9.69,23.84-6.93,35.97c4.55,18.72,17.08,34.82,19.69,54.15
			c2.97,19.11-1.35,39.49-12.93,55.1c10.29-16.14,14.91-35.98,11.95-54.95c-2.64-19.31-15.14-35.31-19.68-54.08
			C404.26,198.67,405.29,183.76,415.15,174.77L415.15,174.77z"/>
	</g>
	<g>
		<path class="st2" d="M440.51,177.41c-10.73,7.53-13.98,21.68-13.34,34.13c1.2,19.19,10.68,37.16,9.88,56.6
			c-0.42,19.25-8.26,38.36-22.07,51.85c13.22-13.87,21.16-32.69,21.57-51.86c0.79-19.43-8.7-37.34-9.88-56.56
			C425.94,199.01,429.42,184.67,440.51,177.41L440.51,177.41z"/>
	</g>
	<g>
		<path class="st2" d="M464.55,185.98c-11.72,5.45-17.33,18.62-18.87,30.82c-2.17,18.84,3.92,37.93-0.24,56.67
			c-3.75,18.62-14.69,35.81-30.44,46.51c15.24-11.18,26.23-28.07,29.95-46.61c4.14-18.73-1.96-37.77,0.23-56.63
			C446.64,204.42,452.52,191.1,464.55,185.98L464.55,185.98z"/>
	</g>
	<g>
		<path class="st2" d="M484.36,201.48c-12.03,3.22-19.5,14.72-23.02,26c-5.21,17.47-2.65,36.55-9.72,53.59
			c-6.67,16.99-19.9,31.43-36.62,38.91c16.29-8.03,29.51-22.17,36.15-39.09c7.06-17.03,4.48-36.07,9.71-53.55
			C464.32,215.93,472.12,204.3,484.36,201.48L484.36,201.48z"/>
	</g>
	<g>
		<path class="st2" d="M505.05,217.13c-12.36,0.89-21.83,10.73-27.38,21.11c-8.37,16.1-9.44,35.24-19.56,50.57
			c-9.71,15.36-25.35,27-43.1,31.17c17.43-4.8,33.01-16.14,42.67-31.44c10.09-15.33,11.14-34.43,19.54-50.54
			C482.74,227.49,492.54,217.58,505.05,217.13L505.05,217.13z"/>
	</g>
	<g>
		<path class="st2" d="M522.71,233.59c-12.37-1.05-23.42,7.02-30.76,16.31c-11.16,14.53-15.61,33.39-28.39,46.85
			c-12.39,13.57-30.07,22.57-48.54,23.23c18.08-2.06,35.52-10.4,47.81-23.9c12.74-13.46,17.13-32.25,28.34-46.8
			C498.5,239.75,510.17,231.57,522.71,233.59L522.71,233.59z"/>
	</g>
	<g>
		<path class="st2" d="M531.92,255.22c-11.67-3.28-23.63,2.64-32.17,10.34c-13.04,12.03-20.36,29.28-34.75,40.03
			c-14.02,10.91-32.27,16.44-49.97,14.38c17.62,1.35,35.71-3.91,49.66-14.78c14.36-10.75,21.66-27.97,34.72-40.01
			C507.97,257.35,520.27,251.49,531.92,255.22L531.92,255.22z"/>
	</g>
	<g>
		<path class="st2" d="M550.38,276.71c-11.45-5.84-25.21-2.17-35.71,4.09c-16.09,9.84-27.31,26.31-44.54,34.53
			c-16.88,8.47-37.06,10.43-55.09,4.64c18.09,5.09,38.05,3.35,54.87-5.09c17.21-8.23,28.39-24.67,44.51-34.51
			C524.96,273.98,539,270.42,550.38,276.71L550.38,276.71z"/>
	</g>
	<g>
		<path class="st2" d="M544.67,301.19c-9.56-7.05-22.57-5.77-33.08-1.68c-16.12,6.51-28.83,19.77-45.74,24.64
			c-16.64,5.14-35.29,3.87-50.8-4.16c15.68,7.35,34.09,8.8,50.65,3.68c16.9-4.87,29.56-18.12,45.71-24.62
			C521.97,294.82,535.29,293.72,544.67,301.19L544.67,301.19z"/>
	</g>
	<g>
		<path class="st2" d="M544.04,324.31c-8.05-8.49-20.89-9.52-31.79-7.38c-16.77,3.5-31.4,14.16-48.65,15.93
			c-17.03,2.09-34.9-2.39-48.55-12.88c13.93,9.85,31.53,14.47,48.49,12.38c17.24-1.78,31.82-12.43,48.61-15.93
			C523.13,314.18,536.24,315.44,544.04,324.31L544.04,324.31z"/>
	</g>
	<g>
		<path class="st2" d="M540.06,346.59c-6.51-9.45-18.76-12.63-29.71-12.46c-16.95,0.51-33.08,8.36-50.21,7.09
			c-16.99-0.94-33.82-8.33-45.08-21.23c12.09,11.71,28.26,19.34,45.14,20.23c17.11,1.25,33.15-6.61,50.14-7.09
			C521.46,332.8,534.19,336.39,540.06,346.59L540.06,346.59z"/>
	</g>
	<g>
		<path class="st2" d="M526.77,367.87c-4.17-10.2-15.08-15.47-25.38-17.32c-15.91-2.65-32.39,1.7-48.14-2.64
			c-15.66-3.99-29.82-14.02-38.2-27.9c8.88,13.39,22.73,23.45,38.32,27.42c15.73,4.32,32.17-0.04,48.1,2.63
			C511.89,351.82,522.97,357.41,526.77,367.87L526.77,367.87z"/>
	</g>
	<g>
		<path class="st2" d="M520.21,388.82c-2.41-11.13-12.57-18.48-22.72-22.21c-15.73-5.56-33.29-4.09-48.54-11.34
			c-15.23-6.87-27.84-19.63-33.88-35.27c6.62,15.24,18.92,27.97,34.09,34.81c15.24,7.23,32.76,5.74,48.51,11.32
			C507.94,369.81,518.21,377.49,520.21,388.82L520.21,388.82z"/>
	</g>
	<g>
		<path class="st2" d="M506.36,405.05c-0.48-11.3-9.19-20.19-18.5-25.56c-14.45-8.09-31.88-9.61-45.59-19.27
			c-13.74-9.29-23.94-23.9-27.21-40.21c3.92,16.02,13.81,30.56,27.5,39.8c13.7,9.64,31.09,11.13,45.55,19.25
			C497.55,384.38,506.32,393.62,506.36,405.05L506.36,405.05z"/>
	</g>
	<g>
		<path class="st2" d="M486.76,419.2c1.68-10.96-5.01-21.18-12.95-28.1c-12.37-10.53-28.86-15.3-40.21-27.2
			c-11.46-11.55-18.5-27.55-18.54-43.87c0.73,16.16,7.49,32.03,18.9,43.52c11.35,11.88,27.8,16.62,40.18,27.18
			C482.22,397.64,488.89,408.2,486.76,419.2L486.76,419.2z"/>
	</g>
	<g>
		<path class="st2" d="M468.5,427.54c3.12-10.31-1.69-21.16-8.21-29.12c-10.27-12.17-25.48-19.46-34.55-32.81
			c-9.24-13.05-13.65-29.77-10.68-45.59c-1.51,15.73,2.3,32.08,11.5,45.01c9.08,13.31,24.22,20.53,34.51,32.75
			C467.82,405.79,472.61,417.27,468.5,427.54L468.5,427.54z"/>
	</g>
	<g>
		<path class="st2" d="M447.87,431.03c4.93-9.26,2.16-20.46-2.74-29.13c-7.73-13.28-20.94-22.71-27.33-36.9
			c-6.6-13.91-7.86-30.39-2.76-44.97c-4.4,14.65-3.36,30.92,3.21,44.76c6.4,14.16,19.59,23.56,27.32,36.86
			C450.6,410.36,453.24,421.89,447.87,431.03L447.87,431.03z"/>
	</g>
	<g>
		<path class="st2" d="M425.99,422.1c5.75-7.3,5.11-17.5,2.23-25.84c-4.62-12.81-14.65-23.15-17.96-36.54
			c-3.54-13.19-2.02-27.78,4.79-39.68c-6.14,12.09-7.84,26.43-4.31,39.55c3.32,13.37,13.33,23.67,17.95,36.51
			C431.7,404.49,432.16,414.99,425.99,422.1L425.99,422.1z"/>
	</g>
	<g>
		<path class="st2" d="M406.82,424.97c7.18-6.27,8.46-16.67,7.13-25.62c-2.24-13.79-10.39-26.1-11.21-40.22
			c-1.08-13.96,3.21-28.38,12.31-39.09c-8.48,11.02-12.89,25.16-11.81,39.05c0.83,14.11,8.97,26.37,11.2,40.19
			C415.89,408.31,414.36,418.96,406.82,424.97L406.82,424.97z"/>
	</g>
	<g>
		<path class="st2" d="M390.88,410.44c6.42-5.18,9.42-13.46,10.02-21.48c0.52-8.16-1.77-16.15-2.58-24.29
			c-0.89-8.18,0.46-16.51,3.44-24.15c2.92-7.67,7.46-14.7,13.27-20.49c-5.47,6.05-9.82,13.09-12.8,20.67
			c-2.95,7.58-4.29,15.81-3.41,23.92c0.8,8.09,3.1,16.1,2.58,24.37C400.89,397.12,397.64,405.55,390.88,410.44L390.88,410.44z"/>
	</g>
	<text transform="matrix(1 0 0 1 55.2104 315.2588)" class="st3 st4 st5">Netherlands</text>
</g>
</svg>
