<?xml version="1.0" encoding="utf-8"?>
<!-- Generator: Adobe Illustrator 28.1.0, SVG Export Plug-In . SVG Version: 6.00 Build 0)  -->
<svg version="1.1" id="Layer_1" xmlns="http://www.w3.org/2000/svg" xmlns:xlink="http://www.w3.org/1999/xlink" x="0px" y="0px"
	 viewBox="0 0 600 600" style="enable-background:new 0 0 600 600;" xml:space="preserve">
<style type="text/css">
	.st0{fill:none;stroke:#000000;stroke-width:2;stroke-miterlimit:10;}
	.st1{fill:#CCCCCC;}
	.st2{fill:#883037;}
	.st3{fill:#010101;}
	.st4{font-family:'LibreBaskerville-Bold';}
	.st5{font-size:44.4548px;}
</style>
<rect x="34.42" y="34.42" class="st0" width="531.15" height="531.15"/>
<circle class="st1" cx="356.52" cy="309.33" r="57.95"/>
<g>
	<path class="st2" d="M356.09,151.52c-9.13,10.16-9.71,25.15-6.87,37.91c4.82,19.75,18.07,36.83,20.82,57.27
		c3.12,20.25-1.24,42.12-14.14,58.31c10.22-17.33,15.31-38,12.16-58c-2.81-20.41-16-37.25-20.79-57.12
		C344.04,176.83,345.23,160.74,356.09,151.52L356.09,151.52z"/>
</g>
<g>
	<path class="st2" d="M387.57,128.07c-13.17,9.44-17.12,26.94-16.36,42.34c1.49,23.8,13.26,46.13,12.27,70.25
		c-0.52,23.92-10.22,47.75-27.58,64.35c16.18-17.36,26.08-40.6,26.58-64.37c0.97-24.12-10.8-46.32-12.27-70.18
		C369.27,154.83,373.65,137,387.57,128.07L387.57,128.07z"/>
</g>
<g>
	<path class="st2" d="M416.54,139.92c-14.29,6.86-21.07,23.04-22.97,38.01c-2.62,23.19,4.93,46.7-0.14,69.78
		c-4.57,22.96-17.98,44.27-37.55,57.3c18.53-13.98,32.03-34.68,36.56-57.5c5.04-23.07-2.52-46.47,0.13-69.71
		C394.34,162.58,401.61,146.15,416.54,139.92L416.54,139.92z"/>
</g>
<g>
	<path class="st2" d="M446.44,146.43c-15.83,4.55-25.57,19.95-30.08,34.96c-6.68,23.29-3.01,48.67-12.17,71.42
		c-8.64,22.71-26.04,42.22-48.3,52.21c21.4-11.1,38.79-29.98,47.37-52.56c9.14-22.76,5.43-48.01,12.15-71.35
		C419.82,165.82,430.09,150.25,446.44,146.43L446.44,146.43z"/>
</g>
<g>
	<path class="st2" d="M460.56,185.44c-14.26,1.19-25.2,12.64-31.65,24.64c-9.72,18.71-10.99,40.99-22.75,58.81
		c-11.31,17.89-29.53,31.55-50.29,36.14c20.13-5.84,38.23-18.9,49.44-36.67c11.73-17.83,12.94-40,22.71-58.75
		C434.44,197.32,445.93,185.81,460.56,185.44L460.56,185.44z"/>
</g>
<g>
	<path class="st2" d="M489.17,196.82c-15.29-0.86-28.77,9.23-37.84,20.74c-13.74,18.13-19.19,41.67-34.98,58.49
		c-15.36,16.99-37.37,28.57-60.48,28.98c22.3-3.21,43.86-13.46,59-30.32c15.73-16.84,21.03-40.19,34.88-58.37
		C458.8,204.33,473.52,194.03,489.17,196.82L489.17,196.82z"/>
</g>
<g>
	<path class="st2" d="M509.72,219.25c-15.33-4.12-31.05,3.74-42.26,13.87c-17.13,15.9-26.75,38.68-45.67,52.9
		c-18.46,14.45-42.56,21.88-65.92,19c23.2,1.48,46.97-5.43,65.31-19.79c18.89-14.23,28.43-36.93,45.61-52.85
		C478.06,221.96,494.31,214.23,509.72,219.25L509.72,219.25z"/>
</g>
<g>
	<path class="st2" d="M535.67,245.89c-15.33-7.51-33.53-2.42-47.43,5.99c-21.31,13.28-36.11,35.36-58.96,46.5
		c-22.42,11.48-49.34,14.39-73.41,6.64c24.17,6.35,50.67,3.89,72.96-7.53c22.84-11.16,37.52-33.17,58.9-46.46
		C501.72,242.34,520.43,237.48,535.67,245.89L535.67,245.89z"/>
</g>
<g>
	<path class="st2" d="M532.19,279.68c-12.99-9.45-30.68-7.71-44.93-2.19c-21.93,8.82-39.26,26.86-62.27,33.43
		c-22.66,6.96-48.11,5.27-69.14-5.9c21.37,9.8,46.33,11.88,68.84,4.94c22.99-6.6,40.21-24.59,62.2-33.41
		C501.31,270.8,519.46,269.37,532.19,279.68L532.19,279.68z"/>
</g>
<g>
	<path class="st2" d="M551.2,310.8c-12.24-12.69-31.7-14.16-48.16-10.87c-25.36,5.4-47.48,21.63-73.59,24.42
		c-25.8,3.26-52.95-3.37-73.6-19.34c24.74,17.17,56.89,23.59,86.13,15.94c20.96-5.41,39.57-17.55,60.86-22
		C519.5,295.45,539.36,297.3,551.2,310.8L551.2,310.8z"/>
</g>
<g>
	<path class="st2" d="M536.99,342.42c-9.67-13.4-27.3-17.8-43.1-17.5c-24.5,0.89-47.84,12.4-72.64,10.7
		c-24.64-1.22-49.25-11.71-65.41-30.61c20.73,19.31,49.16,30.84,77.63,28.45c20.43-1.62,39.74-9.88,60.36-10.54
		C510.04,322.32,528.52,327.47,536.99,342.42L536.99,342.42z"/>
</g>
<g>
	<path class="st2" d="M541.99,384.75c-6.97-16.9-25.18-25.71-42.3-28.79c-26.5-4.42-53.99,2.83-80.21-4.4
		c-26.11-6.65-49.75-23.36-63.62-46.57c17.31,25.97,45.89,44.36,76.99,48.09c22.26,2.74,44.82-1.9,67.03,1.89
		C517.24,357.93,535.68,367.25,541.99,384.75L541.99,384.75z"/>
</g>
<g>
	<path class="st2" d="M540.95,423.56c-4.42-19.36-22.36-32.06-40.15-38.4c-23.02-7.98-48.05-7.05-71.38-13.96
		c-32.72-9.65-61.01-34.34-73.57-66.21c13.86,30.93,41.22,55.71,73.85,65.25c23.34,6.9,48.33,5.95,71.43,13.97
		C519.21,390.48,537.29,403.72,540.95,423.56L540.95,423.56z"/>
</g>
<g>
	<path class="st2" d="M517.32,455.02c-0.91-19.89-16.33-35.62-32.76-45.06c-21.29-11.99-46.16-15.53-67.94-26.51
		c-30.56-15.36-54.07-44.77-60.77-78.46c8.15,33,30.72,62.33,61.22,77.57c21.8,10.98,46.62,14.5,67.98,26.54
		C501.78,418.5,517.25,434.79,517.32,455.02L517.32,455.02z"/>
</g>
<g>
	<path class="st2" d="M480.66,474.43c2.66-18.81-9.01-36.31-22.74-48.07c-21.42-17.91-49.87-25.88-69.56-46.16
		c-19.89-19.7-32.27-47.11-32.51-75.21c1.82,32.39,17.76,63.92,43.66,83.63c18.5,14.17,41.16,21.89,59.06,36.98
		C472.58,437.39,484.2,455.44,480.66,474.43L480.66,474.43z"/>
</g>
<g>
	<path class="st2" d="M447.25,490.99c5.33-17.77-2.9-36.46-14.04-50.24c-17.63-21.07-43.85-33.81-59.39-56.91
		c-15.85-22.62-23.42-51.56-17.97-78.86c-3.04,31.64,6.41,64.77,28.1,88.33c15.47,16.97,36.07,28.38,50.81,46.17
		C446.39,453.39,454.55,473.21,447.25,490.99L447.25,490.99z"/>
</g>
<g>
	<path class="st2" d="M414.43,504.88c8.85-16.59,3.93-36.81-4.84-52.41c-13.85-23.92-37.59-40.98-49.02-66.52
		c-11.81-25.06-14.03-54.76-4.72-80.96c-9.29,30.74-5.16,65.46,12.23,92.57c12.4,19.45,30.85,34.31,42.37,54.42
		C419.49,467.69,424.17,488.41,414.43,504.88L414.43,504.88z"/>
</g>
<g>
	<path class="st2" d="M375.64,483c9.91-12.75,8.73-30.58,3.65-45.09c-8.16-22.32-25.73-40.32-31.6-63.65
		c-6.27-23-3.75-48.51,8.14-69.29c-10.54,21.16-13.43,46.17-7.18,69.03c5.9,23.32,23.42,41.2,31.58,63.58
		C385.56,452.25,386.41,470.53,375.64,483L375.64,483z"/>
</g>
<g>
	<path class="st2" d="M340.69,488.34c12.52-10.89,14.85-29.11,12.58-44.73c-3.82-24.11-17.98-45.72-19.3-70.4
		c-1.79-24.42,5.79-49.64,21.86-68.24c-14.82,19.25-22.66,43.9-20.87,68.17c1.35,24.67,15.49,46.15,19.29,70.32
		C356.74,459.3,354,477.89,340.69,488.34L340.69,488.34z"/>
</g>
<g>
	<path class="st2" d="M306.52,490.21c13.43-10.72,16.03-29.1,16.61-45.29c0.96-16.77-2.88-33.15-4.14-49.81
		c-0.62-8.36-0.21-16.82,1.29-25.07c4.57-24.72,17.22-47.89,35.51-65.12c-17.16,18.03-30,40.69-34.52,65.3
		c-1.49,8.18-1.89,16.53-1.28,24.83c1.26,16.61,5.1,33.15,4.14,49.91C323.73,461.28,320.69,480.01,306.52,490.21L306.52,490.21z"/>
</g>
<text transform="matrix(1 0 0 1 50.2743 302.4738)" class="st3 st4 st5">Saudi Arabia</text>
</svg>
