<?xml version="1.0" encoding="utf-8"?>
<!-- Generator: Adobe Illustrator 28.1.0, SVG Export Plug-In . SVG Version: 6.00 Build 0)  -->
<svg version="1.1" id="Layer_1" xmlns="http://www.w3.org/2000/svg" xmlns:xlink="http://www.w3.org/1999/xlink" x="0px" y="0px"
	 viewBox="0 0 600 600" style="enable-background:new 0 0 600 600;" xml:space="preserve">
<style type="text/css">
	.st0{fill:none;stroke:#000000;stroke-width:2;stroke-miterlimit:10;}
	.st1{fill:#CCCCCC;}
	.st2{fill:#883037;}
	.st3{fill:#010101;}
	.st4{font-family:'LibreBaskerville-Bold';}
	.st5{font-size:64.5217px;}
</style>
<rect x="34.43" y="34.7" class="st0" width="531.15" height="531.15"/>
<circle class="st1" cx="410.41" cy="323.14" r="25.15"/>
<g>
	<path class="st2" d="M410.62,144.62c-11.24,11.52-12.05,29.31-8.63,44.25c5.6,23.01,20.99,42.8,24.21,66.56
		c3.65,23.48-1.69,48.47-15.79,67.72c12.8-19.79,18.44-44.24,14.8-67.56c-3.24-23.75-18.61-43.41-24.19-66.49
		C397.37,173.97,398.57,155.77,410.62,144.62L410.62,144.62z"/>
</g>
<g>
	<path class="st2" d="M440.12,157.21c-12.52,8.75-16.32,25.23-15.56,39.72c1.39,22.33,12.43,43.25,11.5,65.87
		c-0.48,22.4-9.62,44.62-25.65,60.36c15.43-16.12,24.67-38.04,25.15-60.37c0.92-22.62-10.12-43.47-11.5-65.83
		C423.21,182.35,427.23,165.7,440.12,157.21L440.12,157.21z"/>
</g>
<g>
	<path class="st2" d="M460.86,184.13c-12.11,5.71-17.84,19.39-19.36,32.03c-2.13,19.52,4.3,39.25,0.11,58.68
		c-3.76,19.3-14.98,37.17-31.22,48.35c15.72-11.66,26.99-29.22,30.73-48.45c4.17-19.42-2.26-39.09-0.12-58.64
		C442.45,203.34,448.44,189.51,460.86,184.13L460.86,184.13z"/>
</g>
<g>
	<path class="st2" d="M482.17,198.59c-12.55,3.43-20.34,15.55-23.93,27.4c-5.33,18.33-2.51,38.3-9.79,56.2
		c-6.86,17.84-20.62,33.06-38.06,41.02c17.01-8.52,30.76-23.43,37.59-41.2c7.27-17.89,4.43-37.81,9.78-56.16
		C461.29,213.87,469.36,201.63,482.17,198.59L482.17,198.59z"/>
</g>
<g>
	<path class="st2" d="M478.24,245.7c-9.3,0.72-16.4,8.14-20.59,15.94c-6.31,12.13-7.12,26.57-14.75,38.13
		c-7.32,11.59-19.13,20.4-32.54,23.47c13.1-3.7,24.84-12.21,32.12-23.74c7.61-11.55,8.4-25.95,14.73-38.1
		C461.37,253.46,468.8,245.99,478.24,245.7L478.24,245.7z"/>
</g>
<g>
	<path class="st2" d="M524.7,230.43c-13.2-1.12-24.96,7.62-32.74,17.56c-11.81,15.56-16.46,35.72-30,50.14
		c-13.13,14.56-31.93,24.21-51.62,25.09c19.29-2.23,37.85-11.29,50.88-25.76c13.51-14.43,18.09-34.5,29.95-50.09
		C498.93,237.15,511.31,228.42,524.7,230.43L524.7,230.43z"/>
</g>
<g>
	<path class="st2" d="M531.98,255.6c-12.23-3.14-24.55,3.31-33.27,11.54c-13.29,12.84-20.51,30.98-35.23,42.52
		c-14.34,11.7-33.21,17.88-51.69,16.19c18.39,1,37.1-4.92,51.38-16.58c14.7-11.54,21.89-29.65,35.2-42.5
		C507.09,258.41,519.76,252.01,531.98,255.6L531.98,255.6z"/>
</g>
<g>
	<path class="st2" d="M532.94,284.01c-10.41-5.28-22.82-1.94-32.35,3.73c-14.58,8.92-24.75,23.84-40.37,31.29
		c-15.3,7.67-33.59,9.47-49.94,4.19c16.4,4.58,34.48,3.02,49.71-4.63c15.6-7.46,25.73-22.36,40.33-31.28
		C509.9,281.51,522.63,278.29,532.94,284.01L532.94,284.01z"/>
</g>
<g>
	<path class="st2" d="M510.86,309.72c-7.37-5.49-17.43-4.59-25.6-1.52c-12.54,4.91-22.5,15.09-35.65,18.72
		c-12.94,3.85-27.41,2.73-39.35-3.69c8.08,3.85,17.09,5.66,26.02,5.37c8.95-0.32,17.73-2.96,25.43-7.51
		c7.77-4.42,14.9-10.08,23.37-13.36C493.31,304.53,503.67,303.81,510.86,309.72L510.86,309.72z"/>
</g>
<g>
	<path class="st2" d="M555.95,328.15c-9.04-9.61-23.6-10.81-35.91-8.39c-18.94,3.95-35.48,15.98-54.96,17.97
		c-19.23,2.35-39.4-2.72-54.83-14.54c15.72,11.18,35.61,16.39,54.77,14.04c19.47-2,35.95-14.03,54.93-17.97
		C532.34,316.74,547.13,318.15,555.95,328.15L555.95,328.15z"/>
</g>
<g>
	<path class="st2" d="M560.94,355.08c-7.77-11.48-22.62-15.31-35.82-15.09c-20.42,0.64-39.87,10.12-60.51,8.61
		c-20.48-1.09-40.67-10.03-54.37-25.43c14.48,14.24,34.09,23.36,54.42,24.43c20.63,1.48,39.95-8,60.43-8.61
		C538.52,338.6,553.7,342.87,560.94,355.08L560.94,355.08z"/>
</g>
<g>
	<path class="st2" d="M542.42,379.81c-4.88-12.07-17.84-18.38-30.03-20.55c-18.83-3.14-38.33,2.01-56.97-3.12
		c-18.53-4.72-35.26-16.59-45.22-32.98c10.46,15.89,26.88,27.8,45.34,32.49c18.62,5.12,38.08-0.04,56.93,3.11
		C524.79,360.87,537.89,367.45,542.42,379.81L542.42,379.81z"/>
</g>
<g>
	<path class="st2" d="M551.12,414.52c-3.2-14.87-16.86-24.72-30.46-29.63c-21.05-7.35-44.51-5.29-64.93-14.88
		c-20.38-9.1-37.25-26.07-45.51-46.87c8.84,20.39,25.4,37.35,45.72,46.41c20.42,9.58,43.82,7.5,64.89,14.87
		C534.57,389.28,548.31,399.41,551.12,414.52L551.12,414.52z"/>
</g>
<g>
	<path class="st2" d="M490.06,397.45c-0.45-9.87-8.07-17.63-16.21-22.31c-12.64-7.07-27.89-8.38-39.88-16.83
		c-12.03-8.12-20.97-20.89-23.8-35.18c3.47,13.99,12.11,26.69,24.08,34.77c11.98,8.42,27.19,9.72,39.85,16.81
		C482.37,379.35,490.04,387.45,490.06,397.45L490.06,397.45z"/>
</g>
<g>
	<path class="st2" d="M472.7,409.6c1.44-9.56-4.4-18.44-11.31-24.49c-10.79-9.18-25.17-13.35-35.07-23.73
		c-10-10.08-16.15-24.04-16.15-38.29c0.68,14.08,6.55,27.91,16.51,37.94c9.9,10.36,24.25,14.49,35.04,23.7
		C468.77,390.77,474.59,400,472.7,409.6L472.7,409.6z"/>
</g>
<g>
	<path class="st2" d="M467.72,442.22c3.88-11.35-1.31-23.5-8.44-32.38c-11.17-13.55-27.82-21.75-37.65-36.57
		c-10.01-14.46-14.46-32.81-11.45-50.2c-2.31,17.34,1.89,35.52,11.86,49.92c9.83,14.8,26.45,22.96,37.62,36.54
		C466.95,418.42,472.06,430.91,467.72,442.22L467.72,442.22z"/>
</g>
<g>
	<path class="st2" d="M436.13,411.82c3.66-7.47,1.45-16.21-2.38-23.14c-6.09-10.53-16.7-18.23-21.76-29.57
		c-5.24-11.17-6.38-24.5-1.82-36.07c-2.1,7.86-2.45,16.14-1.01,24.13c1.52,7.96,5.05,15.48,10.2,21.76
		c5.02,6.37,11.12,12.03,15.26,19.25C438.68,395.19,440.74,404.62,436.13,411.82L436.13,411.82z"/>
</g>
<g>
	<path class="st2" d="M425.23,465.13c8.09-10.09,7.28-24.38,3.25-36c-6.41-17.85-20.34-32.26-24.93-50.9
		c-4.9-18.35-2.72-38.62,6.66-55.2c-8.7,16.78-11.06,36.79-6.17,55.07c4.6,18.63,18.51,32.99,24.92,50.86
		C433.1,440.66,433.74,455.21,425.23,465.13L425.23,465.13z"/>
</g>
<g>
	<path class="st2" d="M397.51,465.92c9.92-8.37,11.89-22.61,10.17-34.84c-2.86-18.83-13.8-35.72-14.71-54.98
		c-1.27-19.03,4.79-38.57,17.24-53.1c-11.82,14.85-18.02,34.11-16.74,53.06c0.92,19.24,11.85,36.08,14.7,54.94
		C410,443.33,407.82,457.79,397.51,465.92L397.51,465.92z"/>
</g>
<g>
	<path class="st2" d="M374.94,455.03c9.45-7.5,13.89-19.62,14.75-31.36c0.76-11.96-2.6-23.65-3.77-35.5
		c-0.63-5.95-0.48-11.99,0.38-17.91c2.74-17.74,11.33-34.5,23.9-47.27c-12,13.16-20.69,29.67-23.41,47.35
		c-3.2,17.99,4.36,35.41,3.39,53.37C389.41,435.55,384.73,447.82,374.94,455.03L374.94,455.03z"/>
</g>
<text transform="matrix(1 0 0 1 54.9297 319.4446)" class="st3 st4 st5">Singapore</text>
</svg>
