<?xml version="1.0" encoding="utf-8" standalone="no"?>
<!DOCTYPE svg PUBLIC "-//W3C//DTD SVG 1.1//EN"
  "http://www.w3.org/Graphics/SVG/1.1/DTD/svg11.dtd">
<svg xmlns:xlink="http://www.w3.org/1999/xlink" width="313.582379pt" height="359.127454pt" viewBox="0 0 313.582379 359.127454" xmlns="http://www.w3.org/2000/svg" version="1.1">
 <metadata>
  <rdf:RDF xmlns:dc="http://purl.org/dc/elements/1.1/" xmlns:cc="http://creativecommons.org/ns#" xmlns:rdf="http://www.w3.org/1999/02/22-rdf-syntax-ns#">
   <cc:Work>
    <dc:type rdf:resource="http://purl.org/dc/dcmitype/StillImage"/>
    <dc:date>2024-04-28T18:32:47.517222</dc:date>
    <dc:format>image/svg+xml</dc:format>
    <dc:creator>
     <cc:Agent>
      <dc:title>Matplotlib v3.8.3, https://matplotlib.org/</dc:title>
     </cc:Agent>
    </dc:creator>
   </cc:Work>
  </rdf:RDF>
 </metadata>
 <defs>
  <style type="text/css">*{stroke-linejoin: round; stroke-linecap: butt}</style>
 </defs>
 <g id="figure_1">
  <g id="patch_1">
   <path d="M 0 359.127454 
L 313.582379 359.127454 
L 313.582379 0 
L 0 0 
z
" style="fill: #ffffff"/>
  </g>
  <g id="axes_1">
   <g id="patch_2">
    <path d="M 273.312 194.150562 
C 273.312 176.677809 269.870248 159.374955 263.183715 143.232236 
C 256.497182 127.089516 246.695903 112.420865 234.3408 100.065763 
C 221.985697 87.71066 207.317046 77.909381 191.174327 71.222847 
C 175.031607 64.536314 157.728754 61.094562 140.256 61.094562 
C 122.783246 61.094562 105.480393 64.536314 89.337673 71.222847 
C 73.194954 77.909381 58.526303 87.71066 46.1712 100.065763 
C 33.816097 112.420865 24.014818 127.089516 17.328285 143.232236 
C 10.641752 159.374955 7.2 176.677809 7.2 194.150562 
C 7.2 211.623316 10.641752 228.92617 17.328285 245.068889 
C 24.014818 261.211609 33.816097 275.88026 46.1712 288.235362 
C 58.526303 300.590465 73.194954 310.391744 89.337673 317.078278 
C 105.480393 323.764811 122.783246 327.206562 140.256 327.206562 
C 157.728754 327.206562 175.031607 323.764811 191.174327 317.078278 
C 207.317046 310.391744 221.985697 300.590465 234.3408 288.235362 
C 246.695903 275.88026 256.497182 261.211609 263.183715 245.068889 
C 269.870248 228.92617 273.312 211.623316 273.312 194.150562 
M 140.256 194.150562 
C 140.256 194.150562 140.256 194.150562 140.256 194.150562 
C 140.256 194.150562 140.256 194.150562 140.256 194.150562 
C 140.256 194.150562 140.256 194.150562 140.256 194.150562 
C 140.256 194.150562 140.256 194.150562 140.256 194.150562 
C 140.256 194.150562 140.256 194.150562 140.256 194.150562 
C 140.256 194.150562 140.256 194.150562 140.256 194.150562 
C 140.256 194.150562 140.256 194.150562 140.256 194.150562 
C 140.256 194.150562 140.256 194.150562 140.256 194.150562 
C 140.256 194.150562 140.256 194.150562 140.256 194.150562 
C 140.256 194.150562 140.256 194.150562 140.256 194.150562 
C 140.256 194.150562 140.256 194.150562 140.256 194.150562 
C 140.256 194.150562 140.256 194.150562 140.256 194.150562 
C 140.256 194.150562 140.256 194.150562 140.256 194.150562 
C 140.256 194.150562 140.256 194.150562 140.256 194.150562 
C 140.256 194.150562 140.256 194.150562 140.256 194.150562 
C 140.256 194.150562 140.256 194.150562 140.256 194.150562 
z
" style="fill: #ffffff"/>
   </g>
   <g id="matplotlib.axis_1">
    <g id="xtick_1">
     <g id="line2d_1">
      <path d="M 140.256 194.150562 
L 140.256 61.094562 
" clip-path="url(#pf35e053255)" style="fill: none; stroke: #b0b0b0; stroke-width: 0.8; stroke-linecap: square"/>
     </g>
     <g id="text_1">
      <!-- 2003 -->
      <g style="fill: #808080" transform="translate(127.531 43.353937) scale(0.1 -0.1)">
       <defs>
        <path id="DejaVuSans-32" d="M 1228 531 
L 3431 531 
L 3431 0 
L 469 0 
L 469 531 
Q 828 903 1448 1529 
Q 2069 2156 2228 2338 
Q 2531 2678 2651 2914 
Q 2772 3150 2772 3378 
Q 2772 3750 2511 3984 
Q 2250 4219 1831 4219 
Q 1534 4219 1204 4116 
Q 875 4013 500 3803 
L 500 4441 
Q 881 4594 1212 4672 
Q 1544 4750 1819 4750 
Q 2544 4750 2975 4387 
Q 3406 4025 3406 3419 
Q 3406 3131 3298 2873 
Q 3191 2616 2906 2266 
Q 2828 2175 2409 1742 
Q 1991 1309 1228 531 
z
" transform="scale(0.015625)"/>
        <path id="DejaVuSans-30" d="M 2034 4250 
Q 1547 4250 1301 3770 
Q 1056 3291 1056 2328 
Q 1056 1369 1301 889 
Q 1547 409 2034 409 
Q 2525 409 2770 889 
Q 3016 1369 3016 2328 
Q 3016 3291 2770 3770 
Q 2525 4250 2034 4250 
z
M 2034 4750 
Q 2819 4750 3233 4129 
Q 3647 3509 3647 2328 
Q 3647 1150 3233 529 
Q 2819 -91 2034 -91 
Q 1250 -91 836 529 
Q 422 1150 422 2328 
Q 422 3509 836 4129 
Q 1250 4750 2034 4750 
z
" transform="scale(0.015625)"/>
        <path id="DejaVuSans-33" d="M 2597 2516 
Q 3050 2419 3304 2112 
Q 3559 1806 3559 1356 
Q 3559 666 3084 287 
Q 2609 -91 1734 -91 
Q 1441 -91 1130 -33 
Q 819 25 488 141 
L 488 750 
Q 750 597 1062 519 
Q 1375 441 1716 441 
Q 2309 441 2620 675 
Q 2931 909 2931 1356 
Q 2931 1769 2642 2001 
Q 2353 2234 1838 2234 
L 1294 2234 
L 1294 2753 
L 1863 2753 
Q 2328 2753 2575 2939 
Q 2822 3125 2822 3475 
Q 2822 3834 2567 4026 
Q 2313 4219 1838 4219 
Q 1578 4219 1281 4162 
Q 984 4106 628 3988 
L 628 4550 
Q 988 4650 1302 4700 
Q 1616 4750 1894 4750 
Q 2613 4750 3031 4423 
Q 3450 4097 3450 3541 
Q 3450 3153 3228 2886 
Q 3006 2619 2597 2516 
z
" transform="scale(0.015625)"/>
       </defs>
       <use xlink:href="#DejaVuSans-32"/>
       <use xlink:href="#DejaVuSans-30" x="63.623047"/>
       <use xlink:href="#DejaVuSans-30" x="127.246094"/>
       <use xlink:href="#DejaVuSans-33" x="190.869141"/>
      </g>
     </g>
    </g>
    <g id="xtick_2">
     <g id="line2d_2">
      <path d="M 140.256 194.150562 
L 164.014066 63.232827 
" clip-path="url(#pf35e053255)" style="fill: none; stroke: #b0b0b0; stroke-width: 0.8; stroke-linecap: square"/>
     </g>
     <g id="text_2">
      <!-- 2004 -->
      <g style="fill: #808080" transform="translate(154.949483 45.821646) scale(0.1 -0.1)">
       <defs>
        <path id="DejaVuSans-34" d="M 2419 4116 
L 825 1625 
L 2419 1625 
L 2419 4116 
z
M 2253 4666 
L 3047 4666 
L 3047 1625 
L 3713 1625 
L 3713 1100 
L 3047 1100 
L 3047 0 
L 2419 0 
L 2419 1100 
L 313 1100 
L 313 1709 
L 2253 4666 
z
" transform="scale(0.015625)"/>
       </defs>
       <use xlink:href="#DejaVuSans-32"/>
       <use xlink:href="#DejaVuSans-30" x="63.623047"/>
       <use xlink:href="#DejaVuSans-30" x="127.246094"/>
       <use xlink:href="#DejaVuSans-34" x="190.869141"/>
      </g>
     </g>
    </g>
    <g id="xtick_3">
     <g id="line2d_3">
      <path d="M 140.256 194.150562 
L 187.008529 69.578896 
" clip-path="url(#pf35e053255)" style="fill: none; stroke: #b0b0b0; stroke-width: 0.8; stroke-linecap: square"/>
     </g>
     <g id="text_3">
      <!-- 2005 -->
      <g style="fill: #808080" transform="translate(181.486712 53.145456) scale(0.1 -0.1)">
       <defs>
        <path id="DejaVuSans-35" d="M 691 4666 
L 3169 4666 
L 3169 4134 
L 1269 4134 
L 1269 2991 
Q 1406 3038 1543 3061 
Q 1681 3084 1819 3084 
Q 2600 3084 3056 2656 
Q 3513 2228 3513 1497 
Q 3513 744 3044 326 
Q 2575 -91 1722 -91 
Q 1428 -91 1123 -41 
Q 819 9 494 109 
L 494 744 
Q 775 591 1075 516 
Q 1375 441 1709 441 
Q 2250 441 2565 725 
Q 2881 1009 2881 1497 
Q 2881 1984 2565 2268 
Q 2250 2553 1709 2553 
Q 1456 2553 1204 2497 
Q 953 2441 691 2322 
L 691 4666 
z
" transform="scale(0.015625)"/>
       </defs>
       <use xlink:href="#DejaVuSans-32"/>
       <use xlink:href="#DejaVuSans-30" x="63.623047"/>
       <use xlink:href="#DejaVuSans-30" x="127.246094"/>
       <use xlink:href="#DejaVuSans-35" x="190.869141"/>
      </g>
     </g>
    </g>
    <g id="xtick_4">
     <g id="line2d_4">
      <path d="M 140.256 194.150562 
L 208.500326 79.9288 
" clip-path="url(#pf35e053255)" style="fill: none; stroke: #b0b0b0; stroke-width: 0.8; stroke-linecap: square"/>
     </g>
     <g id="text_4">
      <!-- 2006 -->
      <g style="fill: #808080" transform="translate(206.289761 65.089975) scale(0.1 -0.1)">
       <defs>
        <path id="DejaVuSans-36" d="M 2113 2584 
Q 1688 2584 1439 2293 
Q 1191 2003 1191 1497 
Q 1191 994 1439 701 
Q 1688 409 2113 409 
Q 2538 409 2786 701 
Q 3034 994 3034 1497 
Q 3034 2003 2786 2293 
Q 2538 2584 2113 2584 
z
M 3366 4563 
L 3366 3988 
Q 3128 4100 2886 4159 
Q 2644 4219 2406 4219 
Q 1781 4219 1451 3797 
Q 1122 3375 1075 2522 
Q 1259 2794 1537 2939 
Q 1816 3084 2150 3084 
Q 2853 3084 3261 2657 
Q 3669 2231 3669 1497 
Q 3669 778 3244 343 
Q 2819 -91 2113 -91 
Q 1303 -91 875 529 
Q 447 1150 447 2328 
Q 447 3434 972 4092 
Q 1497 4750 2381 4750 
Q 2619 4750 2861 4703 
Q 3103 4656 3366 4563 
z
" transform="scale(0.015625)"/>
       </defs>
       <use xlink:href="#DejaVuSans-32"/>
       <use xlink:href="#DejaVuSans-30" x="63.623047"/>
       <use xlink:href="#DejaVuSans-30" x="127.246094"/>
       <use xlink:href="#DejaVuSans-36" x="190.869141"/>
      </g>
     </g>
    </g>
    <g id="xtick_5">
     <g id="line2d_5">
      <path d="M 140.256 194.150562 
L 227.798695 93.949886 
" clip-path="url(#pf35e053255)" style="fill: none; stroke: #b0b0b0; stroke-width: 0.8; stroke-linecap: square"/>
     </g>
     <g id="text_5">
      <!-- 2007 -->
      <g style="fill: #808080" transform="translate(228.561439 81.271295) scale(0.1 -0.1)">
       <defs>
        <path id="DejaVuSans-37" d="M 525 4666 
L 3525 4666 
L 3525 4397 
L 1831 0 
L 1172 0 
L 2766 4134 
L 525 4134 
L 525 4666 
z
" transform="scale(0.015625)"/>
       </defs>
       <use xlink:href="#DejaVuSans-32"/>
       <use xlink:href="#DejaVuSans-30" x="63.623047"/>
       <use xlink:href="#DejaVuSans-30" x="127.246094"/>
       <use xlink:href="#DejaVuSans-37" x="190.869141"/>
      </g>
     </g>
    </g>
    <g id="xtick_6">
     <g id="line2d_6">
      <path d="M 140.256 194.150562 
L 244.28337 111.191503 
" clip-path="url(#pf35e053255)" style="fill: none; stroke: #b0b0b0; stroke-width: 0.8; stroke-linecap: square"/>
     </g>
     <g id="text_6">
      <!-- 2008 -->
      <g style="fill: #808080" transform="translate(247.585915 101.169337) scale(0.1 -0.1)">
       <defs>
        <path id="DejaVuSans-38" d="M 2034 2216 
Q 1584 2216 1326 1975 
Q 1069 1734 1069 1313 
Q 1069 891 1326 650 
Q 1584 409 2034 409 
Q 2484 409 2743 651 
Q 3003 894 3003 1313 
Q 3003 1734 2745 1975 
Q 2488 2216 2034 2216 
z
M 1403 2484 
Q 997 2584 770 2862 
Q 544 3141 544 3541 
Q 544 4100 942 4425 
Q 1341 4750 2034 4750 
Q 2731 4750 3128 4425 
Q 3525 4100 3525 3541 
Q 3525 3141 3298 2862 
Q 3072 2584 2669 2484 
Q 3125 2378 3379 2068 
Q 3634 1759 3634 1313 
Q 3634 634 3220 271 
Q 2806 -91 2034 -91 
Q 1263 -91 848 271 
Q 434 634 434 1313 
Q 434 1759 690 2068 
Q 947 2378 1403 2484 
z
M 1172 3481 
Q 1172 3119 1398 2916 
Q 1625 2713 2034 2713 
Q 2441 2713 2670 2916 
Q 2900 3119 2900 3481 
Q 2900 3844 2670 4047 
Q 2441 4250 2034 4250 
Q 1625 4250 1398 4047 
Q 1172 3844 1172 3481 
z
" transform="scale(0.015625)"/>
       </defs>
       <use xlink:href="#DejaVuSans-32"/>
       <use xlink:href="#DejaVuSans-30" x="63.623047"/>
       <use xlink:href="#DejaVuSans-30" x="127.246094"/>
       <use xlink:href="#DejaVuSans-38" x="190.869141"/>
      </g>
     </g>
    </g>
    <g id="xtick_7">
     <g id="line2d_7">
      <path d="M 140.256 194.150562 
L 257.424519 131.099494 
" clip-path="url(#pf35e053255)" style="fill: none; stroke: #b0b0b0; stroke-width: 0.8; stroke-linecap: square"/>
     </g>
     <g id="text_7">
      <!-- 2009 -->
      <g style="fill: #808080" transform="translate(262.751727 124.144561) scale(0.1 -0.1)">
       <defs>
        <path id="DejaVuSans-39" d="M 703 97 
L 703 672 
Q 941 559 1184 500 
Q 1428 441 1663 441 
Q 2288 441 2617 861 
Q 2947 1281 2994 2138 
Q 2813 1869 2534 1725 
Q 2256 1581 1919 1581 
Q 1219 1581 811 2004 
Q 403 2428 403 3163 
Q 403 3881 828 4315 
Q 1253 4750 1959 4750 
Q 2769 4750 3195 4129 
Q 3622 3509 3622 2328 
Q 3622 1225 3098 567 
Q 2575 -91 1691 -91 
Q 1453 -91 1209 -44 
Q 966 3 703 97 
z
M 1959 2075 
Q 2384 2075 2632 2365 
Q 2881 2656 2881 3163 
Q 2881 3666 2632 3958 
Q 2384 4250 1959 4250 
Q 1534 4250 1286 3958 
Q 1038 3666 1038 3163 
Q 1038 2656 1286 2365 
Q 1534 2075 1959 2075 
z
" transform="scale(0.015625)"/>
       </defs>
       <use xlink:href="#DejaVuSans-32"/>
       <use xlink:href="#DejaVuSans-30" x="63.623047"/>
       <use xlink:href="#DejaVuSans-30" x="127.246094"/>
       <use xlink:href="#DejaVuSans-39" x="190.869141"/>
      </g>
     </g>
    </g>
    <g id="xtick_8">
     <g id="line2d_8">
      <path d="M 140.256 194.150562 
L 266.799776 153.033997 
" clip-path="url(#pf35e053255)" style="fill: none; stroke: #b0b0b0; stroke-width: 0.8; stroke-linecap: square"/>
     </g>
     <g id="text_8">
      <!-- 2010 -->
      <g style="fill: #808080" transform="translate(273.571434 149.458524) scale(0.1 -0.1)">
       <defs>
        <path id="DejaVuSans-31" d="M 794 531 
L 1825 531 
L 1825 4091 
L 703 3866 
L 703 4441 
L 1819 4666 
L 2450 4666 
L 2450 531 
L 3481 531 
L 3481 0 
L 794 0 
L 794 531 
z
" transform="scale(0.015625)"/>
       </defs>
       <use xlink:href="#DejaVuSans-32"/>
       <use xlink:href="#DejaVuSans-30" x="63.623047"/>
       <use xlink:href="#DejaVuSans-31" x="127.246094"/>
       <use xlink:href="#DejaVuSans-30" x="190.869141"/>
      </g>
     </g>
    </g>
    <g id="xtick_9">
     <g id="line2d_9">
      <path d="M 140.256 194.150562 
L 272.107812 176.290021 
" clip-path="url(#pf35e053255)" style="fill: none; stroke: #b0b0b0; stroke-width: 0.8; stroke-linecap: square"/>
     </g>
     <g id="text_9">
      <!-- 2011 -->
      <g style="fill: #808080" transform="translate(279.697282 176.297614) scale(0.1 -0.1)">
       <use xlink:href="#DejaVuSans-32"/>
       <use xlink:href="#DejaVuSans-30" x="63.623047"/>
       <use xlink:href="#DejaVuSans-31" x="127.246094"/>
       <use xlink:href="#DejaVuSans-31" x="190.869141"/>
      </g>
     </g>
    </g>
    <g id="xtick_10">
     <g id="line2d_10">
      <path d="M 140.256 194.150562 
L 273.178021 200.120097 
" clip-path="url(#pf35e053255)" style="fill: none; stroke: #b0b0b0; stroke-width: 0.8; stroke-linecap: square"/>
     </g>
     <g id="text_10">
      <!-- 2012 -->
      <g style="fill: #808080" transform="translate(280.932379 203.799201) scale(0.1 -0.1)">
       <use xlink:href="#DejaVuSans-32"/>
       <use xlink:href="#DejaVuSans-30" x="63.623047"/>
       <use xlink:href="#DejaVuSans-31" x="127.246094"/>
       <use xlink:href="#DejaVuSans-32" x="190.869141"/>
      </g>
     </g>
    </g>
    <g id="xtick_11">
     <g id="line2d_11">
      <path d="M 140.256 194.150562 
L 269.976008 223.758308 
" clip-path="url(#pf35e053255)" style="fill: none; stroke: #b0b0b0; stroke-width: 0.8; stroke-linecap: square"/>
     </g>
     <g id="text_11">
      <!-- 2013 -->
      <g style="fill: #808080" transform="translate(277.23703 231.079362) scale(0.1 -0.1)">
       <use xlink:href="#DejaVuSans-32"/>
       <use xlink:href="#DejaVuSans-30" x="63.623047"/>
       <use xlink:href="#DejaVuSans-31" x="127.246094"/>
       <use xlink:href="#DejaVuSans-33" x="190.869141"/>
      </g>
     </g>
    </g>
    <g id="xtick_12">
     <g id="line2d_12">
      <path d="M 140.256 194.150562 
L 262.604687 246.444901 
" clip-path="url(#pf35e053255)" style="fill: none; stroke: #b0b0b0; stroke-width: 0.8; stroke-linecap: square"/>
     </g>
     <g id="text_12">
      <!-- 2014 -->
      <g style="fill: #808080" transform="translate(268.730007 257.261289) scale(0.1 -0.1)">
       <use xlink:href="#DejaVuSans-32"/>
       <use xlink:href="#DejaVuSans-30" x="63.623047"/>
       <use xlink:href="#DejaVuSans-31" x="127.246094"/>
       <use xlink:href="#DejaVuSans-34" x="190.869141"/>
      </g>
     </g>
    </g>
    <g id="xtick_13">
     <g id="line2d_13">
      <path d="M 140.256 194.150562 
L 251.300979 267.450711 
" clip-path="url(#pf35e053255)" style="fill: none; stroke: #b0b0b0; stroke-width: 0.8; stroke-linecap: square"/>
     </g>
     <g id="text_13">
      <!-- 2015 -->
      <g style="fill: #808080" transform="translate(255.684731 281.503474) scale(0.1 -0.1)">
       <use xlink:href="#DejaVuSans-32"/>
       <use xlink:href="#DejaVuSans-30" x="63.623047"/>
       <use xlink:href="#DejaVuSans-31" x="127.246094"/>
       <use xlink:href="#DejaVuSans-35" x="190.869141"/>
      </g>
     </g>
    </g>
    <g id="xtick_14">
     <g id="line2d_14">
      <path d="M 140.256 194.150562 
L 236.428193 286.100594 
" clip-path="url(#pf35e053255)" style="fill: none; stroke: #b0b0b0; stroke-width: 0.8; stroke-linecap: square"/>
     </g>
     <g id="text_14">
      <!-- 2016 -->
      <g style="fill: #808080" transform="translate(238.520488 303.026754) scale(0.1 -0.1)">
       <use xlink:href="#DejaVuSans-32"/>
       <use xlink:href="#DejaVuSans-30" x="63.623047"/>
       <use xlink:href="#DejaVuSans-31" x="127.246094"/>
       <use xlink:href="#DejaVuSans-36" x="190.869141"/>
      </g>
     </g>
    </g>
    <g id="xtick_15">
     <g id="line2d_15">
      <path d="M 140.256 194.150562 
L 218.464355 301.795128 
" clip-path="url(#pf35e053255)" style="fill: none; stroke: #b0b0b0; stroke-width: 0.8; stroke-linecap: square"/>
     </g>
     <g id="text_15">
      <!-- 2017 -->
      <g style="fill: #808080" transform="translate(217.788952 321.139351) scale(0.1 -0.1)">
       <use xlink:href="#DejaVuSans-32"/>
       <use xlink:href="#DejaVuSans-30" x="63.623047"/>
       <use xlink:href="#DejaVuSans-31" x="127.246094"/>
       <use xlink:href="#DejaVuSans-37" x="190.869141"/>
      </g>
     </g>
    </g>
    <g id="xtick_16">
     <g id="line2d_16">
      <path d="M 140.256 194.150562 
L 197.986835 314.029876 
" clip-path="url(#pf35e053255)" style="fill: none; stroke: #b0b0b0; stroke-width: 0.8; stroke-linecap: square"/>
     </g>
     <g id="text_16">
      <!-- 2018 -->
      <g style="fill: #808080" transform="translate(194.156451 335.259113) scale(0.1 -0.1)">
       <use xlink:href="#DejaVuSans-32"/>
       <use xlink:href="#DejaVuSans-30" x="63.623047"/>
       <use xlink:href="#DejaVuSans-31" x="127.246094"/>
       <use xlink:href="#DejaVuSans-38" x="190.869141"/>
      </g>
     </g>
    </g>
    <g id="xtick_17">
     <g id="line2d_17">
      <path d="M 140.256 194.150562 
L 175.653799 322.411605 
" clip-path="url(#pf35e053255)" style="fill: none; stroke: #b0b0b0; stroke-width: 0.8; stroke-linecap: square"/>
     </g>
     <g id="text_17">
      <!-- 2019 -->
      <g style="fill: #808080" transform="translate(168.382554 344.932219) scale(0.1 -0.1)">
       <use xlink:href="#DejaVuSans-32"/>
       <use xlink:href="#DejaVuSans-30" x="63.623047"/>
       <use xlink:href="#DejaVuSans-31" x="127.246094"/>
       <use xlink:href="#DejaVuSans-39" x="190.869141"/>
      </g>
     </g>
    </g>
    <g id="xtick_18">
     <g id="line2d_18">
      <path d="M 140.256 194.150562 
L 152.183048 326.670918 
" clip-path="url(#pf35e053255)" style="fill: none; stroke: #b0b0b0; stroke-width: 0.8; stroke-linecap: square"/>
     </g>
     <g id="text_18">
      <!-- 2020 -->
      <g style="fill: #808080" transform="translate(141.295654 349.847766) scale(0.1 -0.1)">
       <use xlink:href="#DejaVuSans-32"/>
       <use xlink:href="#DejaVuSans-30" x="63.623047"/>
       <use xlink:href="#DejaVuSans-32" x="127.246094"/>
       <use xlink:href="#DejaVuSans-30" x="190.869141"/>
      </g>
     </g>
    </g>
    <g id="xtick_19">
     <g id="line2d_19">
      <path d="M 140.256 194.150562 
L 128.328952 326.670918 
" clip-path="url(#pf35e053255)" style="fill: none; stroke: #b0b0b0; stroke-width: 0.8; stroke-linecap: square"/>
     </g>
     <g id="text_19">
      <!-- 2021 -->
      <g style="fill: #808080" transform="translate(113.766346 349.847766) scale(0.1 -0.1)">
       <use xlink:href="#DejaVuSans-32"/>
       <use xlink:href="#DejaVuSans-30" x="63.623047"/>
       <use xlink:href="#DejaVuSans-32" x="127.246094"/>
       <use xlink:href="#DejaVuSans-31" x="190.869141"/>
      </g>
     </g>
    </g>
    <g id="xtick_20">
     <g id="line2d_20">
      <path d="M 140.256 194.150562 
L 104.858201 322.411605 
" clip-path="url(#pf35e053255)" style="fill: none; stroke: #b0b0b0; stroke-width: 0.8; stroke-linecap: square"/>
     </g>
     <g id="text_20">
      <!-- 2022 -->
      <g style="fill: #808080" transform="translate(86.679446 344.932219) scale(0.1 -0.1)">
       <use xlink:href="#DejaVuSans-32"/>
       <use xlink:href="#DejaVuSans-30" x="63.623047"/>
       <use xlink:href="#DejaVuSans-32" x="127.246094"/>
       <use xlink:href="#DejaVuSans-32" x="190.869141"/>
      </g>
     </g>
    </g>
    <g id="xtick_21">
     <g id="line2d_21">
      <path d="M 140.256 194.150562 
L 82.525165 314.029876 
" clip-path="url(#pf35e053255)" style="fill: none; stroke: #b0b0b0; stroke-width: 0.8; stroke-linecap: square"/>
     </g>
    </g>
    <g id="xtick_22">
     <g id="line2d_22">
      <path d="M 140.256 194.150562 
L 62.047645 301.795128 
" clip-path="url(#pf35e053255)" style="fill: none; stroke: #b0b0b0; stroke-width: 0.8; stroke-linecap: square"/>
     </g>
    </g>
    <g id="xtick_23">
     <g id="line2d_23">
      <path d="M 140.256 194.150562 
L 44.083807 286.100594 
" clip-path="url(#pf35e053255)" style="fill: none; stroke: #b0b0b0; stroke-width: 0.8; stroke-linecap: square"/>
     </g>
    </g>
    <g id="xtick_24">
     <g id="line2d_24">
      <path d="M 140.256 194.150562 
L 29.211021 267.450711 
" clip-path="url(#pf35e053255)" style="fill: none; stroke: #b0b0b0; stroke-width: 0.8; stroke-linecap: square"/>
     </g>
    </g>
    <g id="xtick_25">
     <g id="line2d_25">
      <path d="M 140.256 194.150562 
L 17.907313 246.444901 
" clip-path="url(#pf35e053255)" style="fill: none; stroke: #b0b0b0; stroke-width: 0.8; stroke-linecap: square"/>
     </g>
    </g>
    <g id="xtick_26">
     <g id="line2d_26">
      <path d="M 140.256 194.150562 
L 10.535992 223.758308 
" clip-path="url(#pf35e053255)" style="fill: none; stroke: #b0b0b0; stroke-width: 0.8; stroke-linecap: square"/>
     </g>
    </g>
    <g id="xtick_27">
     <g id="line2d_27">
      <path d="M 140.256 194.150562 
L 7.333979 200.120097 
" clip-path="url(#pf35e053255)" style="fill: none; stroke: #b0b0b0; stroke-width: 0.8; stroke-linecap: square"/>
     </g>
    </g>
    <g id="xtick_28">
     <g id="line2d_28">
      <path d="M 140.256 194.150562 
L 8.404188 176.290021 
" clip-path="url(#pf35e053255)" style="fill: none; stroke: #b0b0b0; stroke-width: 0.8; stroke-linecap: square"/>
     </g>
    </g>
    <g id="xtick_29">
     <g id="line2d_29">
      <path d="M 140.256 194.150562 
L 13.712224 153.033997 
" clip-path="url(#pf35e053255)" style="fill: none; stroke: #b0b0b0; stroke-width: 0.8; stroke-linecap: square"/>
     </g>
    </g>
    <g id="xtick_30">
     <g id="line2d_30">
      <path d="M 140.256 194.150562 
L 23.087481 131.099494 
" clip-path="url(#pf35e053255)" style="fill: none; stroke: #b0b0b0; stroke-width: 0.8; stroke-linecap: square"/>
     </g>
    </g>
    <g id="xtick_31">
     <g id="line2d_31">
      <path d="M 140.256 194.150562 
L 36.22863 111.191503 
" clip-path="url(#pf35e053255)" style="fill: none; stroke: #b0b0b0; stroke-width: 0.8; stroke-linecap: square"/>
     </g>
    </g>
    <g id="xtick_32">
     <g id="line2d_32">
      <path d="M 140.256 194.150562 
L 52.713305 93.949886 
" clip-path="url(#pf35e053255)" style="fill: none; stroke: #b0b0b0; stroke-width: 0.8; stroke-linecap: square"/>
     </g>
    </g>
    <g id="xtick_33">
     <g id="line2d_33">
      <path d="M 140.256 194.150562 
L 72.011674 79.9288 
" clip-path="url(#pf35e053255)" style="fill: none; stroke: #b0b0b0; stroke-width: 0.8; stroke-linecap: square"/>
     </g>
    </g>
    <g id="xtick_34">
     <g id="line2d_34">
      <path d="M 140.256 194.150562 
L 93.503471 69.578896 
" clip-path="url(#pf35e053255)" style="fill: none; stroke: #b0b0b0; stroke-width: 0.8; stroke-linecap: square"/>
     </g>
    </g>
    <g id="xtick_35">
     <g id="line2d_35">
      <path d="M 140.256 194.150562 
L 116.497934 63.232827 
" clip-path="url(#pf35e053255)" style="fill: none; stroke: #b0b0b0; stroke-width: 0.8; stroke-linecap: square"/>
     </g>
    </g>
   </g>
   <g id="matplotlib.axis_2">
    <g id="ytick_1">
     <g id="line2d_36">
      <path d="M 140.256 171.974562 
C 143.168126 171.974562 146.051935 172.548188 148.742388 173.66261 
C 151.432841 174.777032 153.877616 176.410579 155.9368 178.469763 
C 157.995984 180.528946 159.62953 182.973721 160.743953 185.664175 
C 161.858375 188.354628 162.432 191.238437 162.432 194.150562 
C 162.432 197.062688 161.858375 199.946497 160.743953 202.63695 
C 159.62953 205.327404 157.995984 207.772179 155.9368 209.831362 
C 153.877616 211.890546 151.432841 213.524093 148.742388 214.638515 
C 146.051935 215.752937 143.168126 216.326562 140.256 216.326562 
C 137.343874 216.326562 134.460065 215.752937 131.769612 214.638515 
C 129.079159 213.524093 126.634384 211.890546 124.5752 209.831362 
C 122.516016 207.772179 120.88247 205.327404 119.768047 202.63695 
C 118.653625 199.946497 118.08 197.062688 118.08 194.150562 
C 118.08 191.238437 118.653625 188.354628 119.768047 185.664175 
C 120.88247 182.973721 122.516016 180.528946 124.5752 178.469763 
C 126.634384 176.410579 129.079159 174.777032 131.769612 173.66261 
C 134.460065 172.548188 137.343874 171.974562 140.256 171.974562 
" clip-path="url(#pf35e053255)" style="fill: none; stroke: #b0b0b0; stroke-width: 0.8; stroke-linecap: square"/>
     </g>
     <g id="text_21">
      <!-- 5 -->
      <g transform="translate(148.742388 171.582922) scale(0.1 -0.1)">
       <use xlink:href="#DejaVuSans-35"/>
      </g>
     </g>
    </g>
    <g id="ytick_2">
     <g id="line2d_37">
      <path d="M 140.256 149.798562 
C 146.080251 149.798562 151.847869 150.945813 157.228776 153.174657 
C 162.609682 155.403502 167.499232 158.670595 171.6176 162.788963 
C 175.735968 166.90733 179.003061 171.79688 181.231905 177.177787 
C 183.460749 182.558693 184.608 188.326311 184.608 194.150562 
C 184.608 199.974814 183.460749 205.742432 181.231905 211.123338 
C 179.003061 216.504245 175.735968 221.393795 171.6176 225.512162 
C 167.499232 229.63053 162.609682 232.897623 157.228776 235.126468 
C 151.847869 237.355312 146.080251 238.502562 140.256 238.502562 
C 134.431749 238.502562 128.664131 237.355312 123.283224 235.126468 
C 117.902318 232.897623 113.012768 229.63053 108.8944 225.512162 
C 104.776032 221.393795 101.508939 216.504245 99.280095 211.123338 
C 97.051251 205.742432 95.904 199.974814 95.904 194.150562 
C 95.904 188.326311 97.051251 182.558693 99.280095 177.177787 
C 101.508939 171.79688 104.776032 166.90733 108.8944 162.788963 
C 113.012768 158.670595 117.902318 155.403502 123.283224 153.174657 
C 128.664131 150.945813 134.431749 149.798562 140.256 149.798562 
" clip-path="url(#pf35e053255)" style="fill: none; stroke: #b0b0b0; stroke-width: 0.8; stroke-linecap: square"/>
     </g>
     <g id="text_22">
      <!-- 10 -->
      <g transform="translate(157.228776 151.09497) scale(0.1 -0.1)">
       <use xlink:href="#DejaVuSans-31"/>
       <use xlink:href="#DejaVuSans-30" x="63.623047"/>
      </g>
     </g>
    </g>
    <g id="ytick_3">
     <g id="line2d_38">
      <path d="M 140.256 127.622562 
C 148.992377 127.622562 157.643804 129.343438 165.715163 132.686705 
C 173.786523 136.029972 181.120849 140.930611 187.2984 147.108163 
C 193.475951 153.285714 198.376591 160.620039 201.719858 168.691399 
C 205.063124 176.762759 206.784 185.414186 206.784 194.150562 
C 206.784 202.886939 205.063124 211.538366 201.719858 219.609726 
C 198.376591 227.681086 193.475951 235.015411 187.2984 241.192962 
C 181.120849 247.370514 173.786523 252.271153 165.715163 255.61442 
C 157.643804 258.957687 148.992377 260.678562 140.256 260.678562 
C 131.519623 260.678562 122.868196 258.957687 114.796837 255.61442 
C 106.725477 252.271153 99.391151 247.370514 93.2136 241.192962 
C 87.036049 235.015411 82.135409 227.681086 78.792142 219.609726 
C 75.448876 211.538366 73.728 202.886939 73.728 194.150562 
C 73.728 185.414186 75.448876 176.762759 78.792142 168.691399 
C 82.135409 160.620039 87.036049 153.285714 93.2136 147.108163 
C 99.391151 140.930611 106.725477 136.029972 114.796837 132.686705 
C 122.868196 129.343438 131.519623 127.622562 140.256 127.622562 
" clip-path="url(#pf35e053255)" style="fill: none; stroke: #b0b0b0; stroke-width: 0.8; stroke-linecap: square"/>
     </g>
     <g id="text_23">
      <!-- 15 -->
      <g transform="translate(165.715163 130.607017) scale(0.1 -0.1)">
       <use xlink:href="#DejaVuSans-31"/>
       <use xlink:href="#DejaVuSans-35" x="63.623047"/>
      </g>
     </g>
    </g>
    <g id="ytick_4">
     <g id="line2d_39">
      <path d="M 140.256 105.446562 
C 151.904503 105.446562 163.439738 107.741064 174.201551 112.198752 
C 184.963364 116.656441 194.742465 123.190627 202.9792 131.427363 
C 211.215935 139.664098 217.750121 149.443198 222.20781 160.205011 
C 226.665499 170.966824 228.96 182.50206 228.96 194.150562 
C 228.96 205.799065 226.665499 217.334301 222.20781 228.096114 
C 217.750121 238.857927 211.215935 248.637027 202.9792 256.873762 
C 194.742465 265.110498 184.963364 271.644684 174.201551 276.102373 
C 163.439738 280.560061 151.904503 282.854562 140.256 282.854562 
C 128.607497 282.854562 117.072262 280.560061 106.310449 276.102373 
C 95.548636 271.644684 85.769535 265.110498 77.5328 256.873762 
C 69.296065 248.637027 62.761879 238.857927 58.30419 228.096114 
C 53.846501 217.334301 51.552 205.799065 51.552 194.150562 
C 51.552 182.50206 53.846501 170.966824 58.30419 160.205011 
C 62.761879 149.443198 69.296065 139.664098 77.5328 131.427363 
C 85.769535 123.190627 95.548636 116.656441 106.310449 112.198752 
C 117.072262 107.741064 128.607497 105.446562 140.256 105.446562 
" clip-path="url(#pf35e053255)" style="fill: none; stroke: #b0b0b0; stroke-width: 0.8; stroke-linecap: square"/>
     </g>
     <g id="text_24">
      <!-- 20 -->
      <g transform="translate(174.201551 110.119065) scale(0.1 -0.1)">
       <use xlink:href="#DejaVuSans-32"/>
       <use xlink:href="#DejaVuSans-30" x="63.623047"/>
      </g>
     </g>
    </g>
    <g id="ytick_5">
     <g id="line2d_40">
      <path d="M 140.256 83.270562 
C 154.816628 83.270562 169.235673 86.138689 182.687939 91.7108 
C 196.140205 97.282911 208.364081 105.450644 218.66 115.746563 
C 228.955919 126.042482 237.123651 138.266357 242.695763 151.718624 
C 248.267874 165.17089 251.136 179.589934 251.136 194.150562 
C 251.136 208.711191 248.267874 223.130235 242.695763 236.582501 
C 237.123651 250.034768 228.955919 262.258643 218.66 272.554562 
C 208.364081 282.850481 196.140205 291.018214 182.687939 296.590325 
C 169.235673 302.162436 154.816628 305.030562 140.256 305.030562 
C 125.695372 305.030562 111.276327 302.162436 97.824061 296.590325 
C 84.371795 291.018214 72.147919 282.850481 61.852 272.554562 
C 51.556081 262.258643 43.388349 250.034768 37.816237 236.582501 
C 32.244126 223.130235 29.376 208.711191 29.376 194.150562 
C 29.376 179.589934 32.244126 165.17089 37.816237 151.718624 
C 43.388349 138.266357 51.556081 126.042482 61.852 115.746563 
C 72.147919 105.450644 84.371795 97.282911 97.824061 91.7108 
C 111.276327 86.138689 125.695372 83.270562 140.256 83.270562 
" clip-path="url(#pf35e053255)" style="fill: none; stroke: #b0b0b0; stroke-width: 0.8; stroke-linecap: square"/>
     </g>
     <g id="text_25">
      <!-- 25 -->
      <g transform="translate(182.687939 89.631112) scale(0.1 -0.1)">
       <use xlink:href="#DejaVuSans-32"/>
       <use xlink:href="#DejaVuSans-35" x="63.623047"/>
      </g>
     </g>
    </g>
    <g id="ytick_6">
     <g id="line2d_41">
      <path d="M 140.256 61.094562 
C 157.728754 61.094562 175.031607 64.536314 191.174327 71.222847 
C 207.317046 77.909381 221.985697 87.71066 234.3408 100.065763 
C 246.695903 112.420865 256.497182 127.089516 263.183715 143.232236 
C 269.870248 159.374955 273.312 176.677809 273.312 194.150562 
C 273.312 211.623316 269.870248 228.92617 263.183715 245.068889 
C 256.497182 261.211609 246.695903 275.88026 234.3408 288.235362 
C 221.985697 300.590465 207.317046 310.391744 191.174327 317.078278 
C 175.031607 323.764811 157.728754 327.206562 140.256 327.206562 
C 122.783246 327.206562 105.480393 323.764811 89.337673 317.078278 
C 73.194954 310.391744 58.526303 300.590465 46.1712 288.235362 
C 33.816097 275.88026 24.014818 261.211609 17.328285 245.068889 
C 10.641752 228.92617 7.2 211.623316 7.2 194.150562 
C 7.2 176.677809 10.641752 159.374955 17.328285 143.232236 
C 24.014818 127.089516 33.816097 112.420865 46.1712 100.065763 
C 58.526303 87.71066 73.194954 77.909381 89.337673 71.222847 
C 105.480393 64.536314 122.783246 61.094562 140.256 61.094562 
" clip-path="url(#pf35e053255)" style="fill: none; stroke: #b0b0b0; stroke-width: 0.8; stroke-linecap: square"/>
     </g>
     <g id="text_26">
      <!-- 30 -->
      <g transform="translate(191.174327 69.14316) scale(0.1 -0.1)">
       <use xlink:href="#DejaVuSans-33"/>
       <use xlink:href="#DejaVuSans-30" x="63.623047"/>
      </g>
     </g>
    </g>
   </g>
   <g id="line2d_42">
    <path d="M 140.256 156.343135 
L 148.365489 149.463594 
L 155.54381 153.416337 
L 162.985408 156.107942 
L 168.817818 161.458931 
L 180.668511 161.92266 
L 179.804246 172.868744 
L 187.645341 178.752832 
L 193.673364 186.914689 
L 194.589073 196.590664 
L 190.291913 205.570933 
L 185.480569 213.480471 
L 181.545122 221.405273 
L 175.462377 227.811305 
L 168.367897 232.843269 
L 160.486207 236.159019 
L 152.771911 239.500948 
L 144.561995 241.994082 
L 135.869309 242.890692 
L 127.236477 241.325743 
" clip-path="url(#pf35e053255)" style="fill: none; stroke: #2ca02c; stroke-width: 1.5; stroke-linecap: square"/>
    <defs>
     <path id="md8b1c1e0d0" d="M 0 3 
C 0.795609 3 1.55874 2.683901 2.12132 2.12132 
C 2.683901 1.55874 3 0.795609 3 0 
C 3 -0.795609 2.683901 -1.55874 2.12132 -2.12132 
C 1.55874 -2.683901 0.795609 -3 0 -3 
C -0.795609 -3 -1.55874 -2.683901 -2.12132 -2.12132 
C -2.683901 -1.55874 -3 -0.795609 -3 0 
C -3 0.795609 -2.683901 1.55874 -2.12132 2.12132 
C -1.55874 2.683901 -0.795609 3 0 3 
z
" style="stroke: #2ca02c"/>
    </defs>
    <g clip-path="url(#pf35e053255)">
     <use xlink:href="#md8b1c1e0d0" x="140.256" y="156.343135" style="fill: #2ca02c; stroke: #2ca02c"/>
     <use xlink:href="#md8b1c1e0d0" x="148.365489" y="149.463594" style="fill: #2ca02c; stroke: #2ca02c"/>
     <use xlink:href="#md8b1c1e0d0" x="155.54381" y="153.416337" style="fill: #2ca02c; stroke: #2ca02c"/>
     <use xlink:href="#md8b1c1e0d0" x="162.985408" y="156.107942" style="fill: #2ca02c; stroke: #2ca02c"/>
     <use xlink:href="#md8b1c1e0d0" x="168.817818" y="161.458931" style="fill: #2ca02c; stroke: #2ca02c"/>
     <use xlink:href="#md8b1c1e0d0" x="180.668511" y="161.92266" style="fill: #2ca02c; stroke: #2ca02c"/>
     <use xlink:href="#md8b1c1e0d0" x="179.804246" y="172.868744" style="fill: #2ca02c; stroke: #2ca02c"/>
     <use xlink:href="#md8b1c1e0d0" x="187.645341" y="178.752832" style="fill: #2ca02c; stroke: #2ca02c"/>
     <use xlink:href="#md8b1c1e0d0" x="193.673364" y="186.914689" style="fill: #2ca02c; stroke: #2ca02c"/>
     <use xlink:href="#md8b1c1e0d0" x="194.589073" y="196.590664" style="fill: #2ca02c; stroke: #2ca02c"/>
     <use xlink:href="#md8b1c1e0d0" x="190.291913" y="205.570933" style="fill: #2ca02c; stroke: #2ca02c"/>
     <use xlink:href="#md8b1c1e0d0" x="185.480569" y="213.480471" style="fill: #2ca02c; stroke: #2ca02c"/>
     <use xlink:href="#md8b1c1e0d0" x="181.545122" y="221.405273" style="fill: #2ca02c; stroke: #2ca02c"/>
     <use xlink:href="#md8b1c1e0d0" x="175.462377" y="227.811305" style="fill: #2ca02c; stroke: #2ca02c"/>
     <use xlink:href="#md8b1c1e0d0" x="168.367897" y="232.843269" style="fill: #2ca02c; stroke: #2ca02c"/>
     <use xlink:href="#md8b1c1e0d0" x="160.486207" y="236.159019" style="fill: #2ca02c; stroke: #2ca02c"/>
     <use xlink:href="#md8b1c1e0d0" x="152.771911" y="239.500948" style="fill: #2ca02c; stroke: #2ca02c"/>
     <use xlink:href="#md8b1c1e0d0" x="144.561995" y="241.994082" style="fill: #2ca02c; stroke: #2ca02c"/>
     <use xlink:href="#md8b1c1e0d0" x="135.869309" y="242.890692" style="fill: #2ca02c; stroke: #2ca02c"/>
     <use xlink:href="#md8b1c1e0d0" x="127.236477" y="241.325743" style="fill: #2ca02c; stroke: #2ca02c"/>
    </g>
   </g>
   <g id="patch_3">
    <path d="M 140.256 61.094562 
C 122.783246 61.094562 105.480393 64.536314 89.337673 71.222847 
C 73.194954 77.909381 58.526303 87.71066 46.1712 100.065763 
C 33.816097 112.420865 24.014818 127.089516 17.328285 143.232236 
C 10.641752 159.374955 7.2 176.677809 7.2 194.150562 
C 7.2 211.623316 10.641752 228.92617 17.328285 245.068889 
C 24.014818 261.211609 33.816097 275.88026 46.1712 288.235362 
C 58.526303 300.590465 73.194954 310.391744 89.337673 317.078278 
C 105.480393 323.764811 122.783246 327.206562 140.256 327.206562 
C 157.728754 327.206562 175.031607 323.764811 191.174327 317.078278 
C 207.317046 310.391744 221.985697 300.590465 234.3408 288.235362 
C 246.695903 275.88026 256.497182 261.211609 263.183715 245.068889 
C 269.870248 228.92617 273.312 211.623316 273.312 194.150562 
C 273.312 176.677809 269.870248 159.374955 263.183715 143.232236 
C 256.497182 127.089516 246.695903 112.420865 234.3408 100.065763 
C 221.985697 87.71066 207.317046 77.909381 191.174327 71.222847 
C 175.031607 64.536314 157.728754 61.094562 140.256 61.094562 
" style="fill: none; stroke: #000000; stroke-width: 0.8; stroke-linejoin: miter; stroke-linecap: square"/>
   </g>
   <g id="text_27">
    <!-- Turkmenistan -->
    <g transform="translate(99.792562 16.318125) scale(0.12 -0.12)">
     <defs>
      <path id="DejaVuSans-54" d="M -19 4666 
L 3928 4666 
L 3928 4134 
L 2272 4134 
L 2272 0 
L 1638 0 
L 1638 4134 
L -19 4134 
L -19 4666 
z
" transform="scale(0.015625)"/>
      <path id="DejaVuSans-75" d="M 544 1381 
L 544 3500 
L 1119 3500 
L 1119 1403 
Q 1119 906 1312 657 
Q 1506 409 1894 409 
Q 2359 409 2629 706 
Q 2900 1003 2900 1516 
L 2900 3500 
L 3475 3500 
L 3475 0 
L 2900 0 
L 2900 538 
Q 2691 219 2414 64 
Q 2138 -91 1772 -91 
Q 1169 -91 856 284 
Q 544 659 544 1381 
z
M 1991 3584 
L 1991 3584 
z
" transform="scale(0.015625)"/>
      <path id="DejaVuSans-72" d="M 2631 2963 
Q 2534 3019 2420 3045 
Q 2306 3072 2169 3072 
Q 1681 3072 1420 2755 
Q 1159 2438 1159 1844 
L 1159 0 
L 581 0 
L 581 3500 
L 1159 3500 
L 1159 2956 
Q 1341 3275 1631 3429 
Q 1922 3584 2338 3584 
Q 2397 3584 2469 3576 
Q 2541 3569 2628 3553 
L 2631 2963 
z
" transform="scale(0.015625)"/>
      <path id="DejaVuSans-6b" d="M 581 4863 
L 1159 4863 
L 1159 1991 
L 2875 3500 
L 3609 3500 
L 1753 1863 
L 3688 0 
L 2938 0 
L 1159 1709 
L 1159 0 
L 581 0 
L 581 4863 
z
" transform="scale(0.015625)"/>
      <path id="DejaVuSans-6d" d="M 3328 2828 
Q 3544 3216 3844 3400 
Q 4144 3584 4550 3584 
Q 5097 3584 5394 3201 
Q 5691 2819 5691 2113 
L 5691 0 
L 5113 0 
L 5113 2094 
Q 5113 2597 4934 2840 
Q 4756 3084 4391 3084 
Q 3944 3084 3684 2787 
Q 3425 2491 3425 1978 
L 3425 0 
L 2847 0 
L 2847 2094 
Q 2847 2600 2669 2842 
Q 2491 3084 2119 3084 
Q 1678 3084 1418 2786 
Q 1159 2488 1159 1978 
L 1159 0 
L 581 0 
L 581 3500 
L 1159 3500 
L 1159 2956 
Q 1356 3278 1631 3431 
Q 1906 3584 2284 3584 
Q 2666 3584 2933 3390 
Q 3200 3197 3328 2828 
z
" transform="scale(0.015625)"/>
      <path id="DejaVuSans-65" d="M 3597 1894 
L 3597 1613 
L 953 1613 
Q 991 1019 1311 708 
Q 1631 397 2203 397 
Q 2534 397 2845 478 
Q 3156 559 3463 722 
L 3463 178 
Q 3153 47 2828 -22 
Q 2503 -91 2169 -91 
Q 1331 -91 842 396 
Q 353 884 353 1716 
Q 353 2575 817 3079 
Q 1281 3584 2069 3584 
Q 2775 3584 3186 3129 
Q 3597 2675 3597 1894 
z
M 3022 2063 
Q 3016 2534 2758 2815 
Q 2500 3097 2075 3097 
Q 1594 3097 1305 2825 
Q 1016 2553 972 2059 
L 3022 2063 
z
" transform="scale(0.015625)"/>
      <path id="DejaVuSans-6e" d="M 3513 2113 
L 3513 0 
L 2938 0 
L 2938 2094 
Q 2938 2591 2744 2837 
Q 2550 3084 2163 3084 
Q 1697 3084 1428 2787 
Q 1159 2491 1159 1978 
L 1159 0 
L 581 0 
L 581 3500 
L 1159 3500 
L 1159 2956 
Q 1366 3272 1645 3428 
Q 1925 3584 2291 3584 
Q 2894 3584 3203 3211 
Q 3513 2838 3513 2113 
z
" transform="scale(0.015625)"/>
      <path id="DejaVuSans-69" d="M 603 3500 
L 1178 3500 
L 1178 0 
L 603 0 
L 603 3500 
z
M 603 4863 
L 1178 4863 
L 1178 4134 
L 603 4134 
L 603 4863 
z
" transform="scale(0.015625)"/>
      <path id="DejaVuSans-73" d="M 2834 3397 
L 2834 2853 
Q 2591 2978 2328 3040 
Q 2066 3103 1784 3103 
Q 1356 3103 1142 2972 
Q 928 2841 928 2578 
Q 928 2378 1081 2264 
Q 1234 2150 1697 2047 
L 1894 2003 
Q 2506 1872 2764 1633 
Q 3022 1394 3022 966 
Q 3022 478 2636 193 
Q 2250 -91 1575 -91 
Q 1294 -91 989 -36 
Q 684 19 347 128 
L 347 722 
Q 666 556 975 473 
Q 1284 391 1588 391 
Q 1994 391 2212 530 
Q 2431 669 2431 922 
Q 2431 1156 2273 1281 
Q 2116 1406 1581 1522 
L 1381 1569 
Q 847 1681 609 1914 
Q 372 2147 372 2553 
Q 372 3047 722 3315 
Q 1072 3584 1716 3584 
Q 2034 3584 2315 3537 
Q 2597 3491 2834 3397 
z
" transform="scale(0.015625)"/>
      <path id="DejaVuSans-74" d="M 1172 4494 
L 1172 3500 
L 2356 3500 
L 2356 3053 
L 1172 3053 
L 1172 1153 
Q 1172 725 1289 603 
Q 1406 481 1766 481 
L 2356 481 
L 2356 0 
L 1766 0 
Q 1100 0 847 248 
Q 594 497 594 1153 
L 594 3053 
L 172 3053 
L 172 3500 
L 594 3500 
L 594 4494 
L 1172 4494 
z
" transform="scale(0.015625)"/>
      <path id="DejaVuSans-61" d="M 2194 1759 
Q 1497 1759 1228 1600 
Q 959 1441 959 1056 
Q 959 750 1161 570 
Q 1363 391 1709 391 
Q 2188 391 2477 730 
Q 2766 1069 2766 1631 
L 2766 1759 
L 2194 1759 
z
M 3341 1997 
L 3341 0 
L 2766 0 
L 2766 531 
Q 2569 213 2275 61 
Q 1981 -91 1556 -91 
Q 1019 -91 701 211 
Q 384 513 384 1019 
Q 384 1609 779 1909 
Q 1175 2209 1959 2209 
L 2766 2209 
L 2766 2266 
Q 2766 2663 2505 2880 
Q 2244 3097 1772 3097 
Q 1472 3097 1187 3025 
Q 903 2953 641 2809 
L 641 3341 
Q 956 3463 1253 3523 
Q 1550 3584 1831 3584 
Q 2591 3584 2966 3190 
Q 3341 2797 3341 1997 
z
" transform="scale(0.015625)"/>
     </defs>
     <use xlink:href="#DejaVuSans-54"/>
     <use xlink:href="#DejaVuSans-75" x="45.958984"/>
     <use xlink:href="#DejaVuSans-72" x="109.337891"/>
     <use xlink:href="#DejaVuSans-6b" x="150.451172"/>
     <use xlink:href="#DejaVuSans-6d" x="208.361328"/>
     <use xlink:href="#DejaVuSans-65" x="305.773438"/>
     <use xlink:href="#DejaVuSans-6e" x="367.296875"/>
     <use xlink:href="#DejaVuSans-69" x="430.675781"/>
     <use xlink:href="#DejaVuSans-73" x="458.458984"/>
     <use xlink:href="#DejaVuSans-74" x="510.558594"/>
     <use xlink:href="#DejaVuSans-61" x="549.767578"/>
     <use xlink:href="#DejaVuSans-6e" x="611.046875"/>
    </g>
    <!-- Annual CO₂ emissions (per capita) -->
    <g transform="translate(37.6035 29.7555) scale(0.12 -0.12)">
     <defs>
      <path id="DejaVuSans-41" d="M 2188 4044 
L 1331 1722 
L 3047 1722 
L 2188 4044 
z
M 1831 4666 
L 2547 4666 
L 4325 0 
L 3669 0 
L 3244 1197 
L 1141 1197 
L 716 0 
L 50 0 
L 1831 4666 
z
" transform="scale(0.015625)"/>
      <path id="DejaVuSans-6c" d="M 603 4863 
L 1178 4863 
L 1178 0 
L 603 0 
L 603 4863 
z
" transform="scale(0.015625)"/>
      <path id="DejaVuSans-20" transform="scale(0.015625)"/>
      <path id="DejaVuSans-43" d="M 4122 4306 
L 4122 3641 
Q 3803 3938 3442 4084 
Q 3081 4231 2675 4231 
Q 1875 4231 1450 3742 
Q 1025 3253 1025 2328 
Q 1025 1406 1450 917 
Q 1875 428 2675 428 
Q 3081 428 3442 575 
Q 3803 722 4122 1019 
L 4122 359 
Q 3791 134 3420 21 
Q 3050 -91 2638 -91 
Q 1578 -91 968 557 
Q 359 1206 359 2328 
Q 359 3453 968 4101 
Q 1578 4750 2638 4750 
Q 3056 4750 3426 4639 
Q 3797 4528 4122 4306 
z
" transform="scale(0.015625)"/>
      <path id="DejaVuSans-4f" d="M 2522 4238 
Q 1834 4238 1429 3725 
Q 1025 3213 1025 2328 
Q 1025 1447 1429 934 
Q 1834 422 2522 422 
Q 3209 422 3611 934 
Q 4013 1447 4013 2328 
Q 4013 3213 3611 3725 
Q 3209 4238 2522 4238 
z
M 2522 4750 
Q 3503 4750 4090 4092 
Q 4678 3434 4678 2328 
Q 4678 1225 4090 567 
Q 3503 -91 2522 -91 
Q 1538 -91 948 565 
Q 359 1222 359 2328 
Q 359 3434 948 4092 
Q 1538 4750 2522 4750 
z
" transform="scale(0.015625)"/>
      <path id="DejaVuSans-2082" d="M 838 356 
L 2163 356 
L 2163 0 
L 294 0 
L 294 343 
Q 400 440 597 615 
Q 1672 1568 1672 1862 
Q 1672 2068 1509 2194 
Q 1347 2321 1081 2321 
Q 919 2321 728 2266 
Q 538 2212 313 2103 
L 313 2487 
Q 553 2575 761 2618 
Q 969 2662 1147 2662 
Q 1600 2662 1872 2456 
Q 2144 2250 2144 1912 
Q 2144 1478 1109 590 
Q 934 440 838 356 
z
" transform="scale(0.015625)"/>
      <path id="DejaVuSans-6f" d="M 1959 3097 
Q 1497 3097 1228 2736 
Q 959 2375 959 1747 
Q 959 1119 1226 758 
Q 1494 397 1959 397 
Q 2419 397 2687 759 
Q 2956 1122 2956 1747 
Q 2956 2369 2687 2733 
Q 2419 3097 1959 3097 
z
M 1959 3584 
Q 2709 3584 3137 3096 
Q 3566 2609 3566 1747 
Q 3566 888 3137 398 
Q 2709 -91 1959 -91 
Q 1206 -91 779 398 
Q 353 888 353 1747 
Q 353 2609 779 3096 
Q 1206 3584 1959 3584 
z
" transform="scale(0.015625)"/>
      <path id="DejaVuSans-28" d="M 1984 4856 
Q 1566 4138 1362 3434 
Q 1159 2731 1159 2009 
Q 1159 1288 1364 580 
Q 1569 -128 1984 -844 
L 1484 -844 
Q 1016 -109 783 600 
Q 550 1309 550 2009 
Q 550 2706 781 3412 
Q 1013 4119 1484 4856 
L 1984 4856 
z
" transform="scale(0.015625)"/>
      <path id="DejaVuSans-70" d="M 1159 525 
L 1159 -1331 
L 581 -1331 
L 581 3500 
L 1159 3500 
L 1159 2969 
Q 1341 3281 1617 3432 
Q 1894 3584 2278 3584 
Q 2916 3584 3314 3078 
Q 3713 2572 3713 1747 
Q 3713 922 3314 415 
Q 2916 -91 2278 -91 
Q 1894 -91 1617 61 
Q 1341 213 1159 525 
z
M 3116 1747 
Q 3116 2381 2855 2742 
Q 2594 3103 2138 3103 
Q 1681 3103 1420 2742 
Q 1159 2381 1159 1747 
Q 1159 1113 1420 752 
Q 1681 391 2138 391 
Q 2594 391 2855 752 
Q 3116 1113 3116 1747 
z
" transform="scale(0.015625)"/>
      <path id="DejaVuSans-63" d="M 3122 3366 
L 3122 2828 
Q 2878 2963 2633 3030 
Q 2388 3097 2138 3097 
Q 1578 3097 1268 2742 
Q 959 2388 959 1747 
Q 959 1106 1268 751 
Q 1578 397 2138 397 
Q 2388 397 2633 464 
Q 2878 531 3122 666 
L 3122 134 
Q 2881 22 2623 -34 
Q 2366 -91 2075 -91 
Q 1284 -91 818 406 
Q 353 903 353 1747 
Q 353 2603 823 3093 
Q 1294 3584 2113 3584 
Q 2378 3584 2631 3529 
Q 2884 3475 3122 3366 
z
" transform="scale(0.015625)"/>
      <path id="DejaVuSans-29" d="M 513 4856 
L 1013 4856 
Q 1481 4119 1714 3412 
Q 1947 2706 1947 2009 
Q 1947 1309 1714 600 
Q 1481 -109 1013 -844 
L 513 -844 
Q 928 -128 1133 580 
Q 1338 1288 1338 2009 
Q 1338 2731 1133 3434 
Q 928 4138 513 4856 
z
" transform="scale(0.015625)"/>
     </defs>
     <use xlink:href="#DejaVuSans-41"/>
     <use xlink:href="#DejaVuSans-6e" x="68.408203"/>
     <use xlink:href="#DejaVuSans-6e" x="131.787109"/>
     <use xlink:href="#DejaVuSans-75" x="195.166016"/>
     <use xlink:href="#DejaVuSans-61" x="258.544922"/>
     <use xlink:href="#DejaVuSans-6c" x="319.824219"/>
     <use xlink:href="#DejaVuSans-20" x="347.607422"/>
     <use xlink:href="#DejaVuSans-43" x="379.394531"/>
     <use xlink:href="#DejaVuSans-4f" x="449.21875"/>
     <use xlink:href="#DejaVuSans-2082" x="527.929688"/>
     <use xlink:href="#DejaVuSans-20" x="568.017578"/>
     <use xlink:href="#DejaVuSans-65" x="599.804688"/>
     <use xlink:href="#DejaVuSans-6d" x="661.328125"/>
     <use xlink:href="#DejaVuSans-69" x="758.740234"/>
     <use xlink:href="#DejaVuSans-73" x="786.523438"/>
     <use xlink:href="#DejaVuSans-73" x="838.623047"/>
     <use xlink:href="#DejaVuSans-69" x="890.722656"/>
     <use xlink:href="#DejaVuSans-6f" x="918.505859"/>
     <use xlink:href="#DejaVuSans-6e" x="979.6875"/>
     <use xlink:href="#DejaVuSans-73" x="1043.066406"/>
     <use xlink:href="#DejaVuSans-20" x="1095.166016"/>
     <use xlink:href="#DejaVuSans-28" x="1126.953125"/>
     <use xlink:href="#DejaVuSans-70" x="1165.966797"/>
     <use xlink:href="#DejaVuSans-65" x="1229.443359"/>
     <use xlink:href="#DejaVuSans-72" x="1290.966797"/>
     <use xlink:href="#DejaVuSans-20" x="1332.080078"/>
     <use xlink:href="#DejaVuSans-63" x="1363.867188"/>
     <use xlink:href="#DejaVuSans-61" x="1418.847656"/>
     <use xlink:href="#DejaVuSans-70" x="1480.126953"/>
     <use xlink:href="#DejaVuSans-69" x="1543.603516"/>
     <use xlink:href="#DejaVuSans-74" x="1571.386719"/>
     <use xlink:href="#DejaVuSans-61" x="1610.595703"/>
     <use xlink:href="#DejaVuSans-29" x="1671.875"/>
    </g>
   </g>
  </g>
 </g>
 <defs>
  <clipPath id="pf35e053255">
   <path d="M 273.312 194.150562 
C 273.312 176.677809 269.870248 159.374955 263.183715 143.232236 
C 256.497182 127.089516 246.695903 112.420865 234.3408 100.065763 
C 221.985697 87.71066 207.317046 77.909381 191.174327 71.222847 
C 175.031607 64.536314 157.728754 61.094562 140.256 61.094562 
C 122.783246 61.094562 105.480393 64.536314 89.337673 71.222847 
C 73.194954 77.909381 58.526303 87.71066 46.1712 100.065763 
C 33.816097 112.420865 24.014818 127.089516 17.328285 143.232236 
C 10.641752 159.374955 7.2 176.677809 7.2 194.150562 
C 7.2 211.623316 10.641752 228.92617 17.328285 245.068889 
C 24.014818 261.211609 33.816097 275.88026 46.1712 288.235362 
C 58.526303 300.590465 73.194954 310.391744 89.337673 317.078278 
C 105.480393 323.764811 122.783246 327.206562 140.256 327.206562 
C 157.728754 327.206562 175.031607 323.764811 191.174327 317.078278 
C 207.317046 310.391744 221.985697 300.590465 234.3408 288.235362 
C 246.695903 275.88026 256.497182 261.211609 263.183715 245.068889 
C 269.870248 228.92617 273.312 211.623316 273.312 194.150562 
M 140.256 194.150562 
C 140.256 194.150562 140.256 194.150562 140.256 194.150562 
C 140.256 194.150562 140.256 194.150562 140.256 194.150562 
C 140.256 194.150562 140.256 194.150562 140.256 194.150562 
C 140.256 194.150562 140.256 194.150562 140.256 194.150562 
C 140.256 194.150562 140.256 194.150562 140.256 194.150562 
C 140.256 194.150562 140.256 194.150562 140.256 194.150562 
C 140.256 194.150562 140.256 194.150562 140.256 194.150562 
C 140.256 194.150562 140.256 194.150562 140.256 194.150562 
C 140.256 194.150562 140.256 194.150562 140.256 194.150562 
C 140.256 194.150562 140.256 194.150562 140.256 194.150562 
C 140.256 194.150562 140.256 194.150562 140.256 194.150562 
C 140.256 194.150562 140.256 194.150562 140.256 194.150562 
C 140.256 194.150562 140.256 194.150562 140.256 194.150562 
C 140.256 194.150562 140.256 194.150562 140.256 194.150562 
C 140.256 194.150562 140.256 194.150562 140.256 194.150562 
C 140.256 194.150562 140.256 194.150562 140.256 194.150562 
z
"/>
  </clipPath>
 </defs>
</svg>
