<?xml version="1.0" encoding="utf-8"?>
<!-- Generator: Adobe Illustrator 28.1.0, SVG Export Plug-In . SVG Version: 6.00 Build 0)  -->
<svg version="1.1" id="Layer_1" xmlns="http://www.w3.org/2000/svg" xmlns:xlink="http://www.w3.org/1999/xlink" x="0px" y="0px"
	 viewBox="0 0 600 600" style="enable-background:new 0 0 600 600;" xml:space="preserve">
<style type="text/css">
	.st0{fill:none;stroke:#000000;stroke-width:2;stroke-miterlimit:10;}
	.st1{fill:#CCCCCC;}
	.st2{fill:#883037;}
	.st3{fill:#010101;}
	.st4{font-family:'LibreBaskerville-Bold';}
	.st5{font-size:46.2251px;}
</style>
<rect x="34.42" y="34.42" class="st0" width="531.15" height="531.15"/>
<circle class="st1" cx="414.95" cy="305.57" r="17.84"/>
<g>
	<path class="st2" d="M415.8,210.93c-2.89,3.07-4.47,7.08-4.95,11.15c-2.08,12.77,5.32,24.01,9.99,35.45
		c3.28,7.78,4.65,16.39,3.81,24.81c-0.75,8.41-3.81,16.64-8.96,23.32c6.46-10.64,9.56-23.46,7.62-35.82
		c-1.74-12.62-9.83-22.92-12.84-35.27C408.5,226.54,409.2,216.68,415.8,210.93L415.8,210.93z"/>
</g>
<g>
	<path class="st2" d="M435.44,195.3c-8.28,5.88-10.75,16.78-10.27,26.42c0.93,14.85,8.27,28.76,7.65,43.82
		c-0.32,14.91-6.39,29.74-17.14,40.14c10.17-10.78,16.33-25.32,16.64-40.15c0.61-15.04-6.73-28.9-7.65-43.78
		C424.09,212.01,426.81,200.88,435.44,195.3L435.44,195.3z"/>
</g>
<g>
	<path class="st2" d="M452.53,204.12c-8.82,4.23-12.94,14.18-14.07,23.4c-1.55,14.26,3.14,28.67,0.08,42.86
		c-2.75,14.11-10.94,27.2-22.87,35.31c11.41-8.58,19.65-21.37,22.38-35.4c3.04-14.18-1.66-28.55-0.09-42.83
		C439,218.13,443.42,208,452.53,204.12L452.53,204.12z"/>
</g>
<g>
	<path class="st2" d="M470.22,210.98c-9.54,2.67-15.39,11.85-18.14,20.84c-4.05,13.93-1.91,29.11-7.45,42.72
		c-5.22,13.57-15.68,25.17-28.99,31.16c12.88-6.54,23.33-17.83,28.52-31.34c5.52-13.6,3.37-28.73,7.44-42.68
		C454.29,222.56,460.46,213.25,470.22,210.98L470.22,210.98z"/>
</g>
<g>
	<path class="st2" d="M487.28,223.86c-9.82,0.75-17.32,8.58-21.74,16.82c-6.66,12.81-7.51,28.04-15.56,40.24
		c-7.73,12.23-20.19,21.52-34.34,24.78c13.84-3.88,26.23-12.88,33.91-25.05c8.03-12.2,8.86-27.39,15.54-40.21
		C469.48,232.07,477.32,224.18,487.28,223.86L487.28,223.86z"/>
</g>
<g>
	<path class="st2" d="M515.94,224.34c-11.57-0.89-21.85,6.72-28.67,15.43c-10.36,13.64-14.44,31.32-26.33,43.97
		c-11.53,12.76-28.03,21.29-45.32,21.95c16.89-2.06,33.16-9.93,44.58-22.62c11.85-12.65,15.87-30.25,26.28-43.92
		C493.29,230.2,504.19,222.49,515.94,224.34L515.94,224.34z"/>
</g>
<g>
	<path class="st2" d="M513.68,251.24c-9.8-2.7-19.81,2.28-26.97,8.74c-10.93,10.11-17.07,24.6-29.13,33.64
		c-11.76,9.18-27.09,13.85-41.96,12.09c14.79,1.06,29.95-3.35,41.66-12.49c12.05-9.04,18.15-23.5,29.11-33.62
		C493.54,253,503.89,248.08,513.68,251.24L513.68,251.24z"/>
</g>
<g>
	<path class="st2" d="M533.99,267.85c-10.05-5.09-22.03-1.86-31.22,3.61c-14.08,8.61-23.89,23.01-38.97,30.21
		c-14.77,7.41-32.43,9.14-48.21,4.03c15.83,4.41,33.28,2.9,47.98-4.48c15.06-7.2,24.83-21.58,38.94-30.19
		C511.74,265.42,524.04,262.32,533.99,267.85L533.99,267.85z"/>
</g>
<g>
	<path class="st2" d="M548.22,287.87c-9.69-7.31-23-6.14-33.78-2.08c-16.54,6.47-29.67,19.89-47,24.68
		c-17.05,5.07-36.09,3.57-51.86-4.79c15.94,7.68,34.74,9.37,51.72,4.31c17.32-4.8,30.39-18.2,46.96-24.67
		C525.1,281.13,538.71,280.15,548.22,287.87L548.22,287.87z"/>
</g>
<g>
	<path class="st2" d="M550.73,310.07c-8.43-8.9-21.9-9.97-33.32-7.71c-17.57,3.69-32.88,14.87-50.96,16.75
		c-17.84,2.21-36.56-2.47-50.88-13.43c14.6,10.32,33.05,15.14,50.82,12.93c18.06-1.89,33.33-13.06,50.92-16.74
		C528.81,299.5,542.54,300.79,550.73,310.07L550.73,310.07z"/>
</g>
<g>
	<path class="st2" d="M539.06,331.85c-6.45-9.32-18.54-12.45-29.36-12.28c-16.74,0.52-32.67,8.29-49.6,7.05
		c-16.79-0.91-33.43-8.2-44.55-20.94c11.96,11.55,27.94,19.08,44.6,19.94c16.9,1.22,32.74-6.55,49.52-7.05
		C520.68,318.23,533.26,321.78,539.06,331.85L539.06,331.85z"/>
</g>
<g>
	<path class="st2" d="M527.9,353.81c-4.19-10.26-15.17-15.57-25.52-17.43c-16-2.67-32.58,1.71-48.41-2.65
		c-15.75-4.01-29.99-14.1-38.42-28.06c8.93,13.47,22.86,23.59,38.54,27.58c15.82,4.35,32.35-0.04,48.38,2.65
		C512.93,337.67,524.07,343.29,527.9,353.81L527.9,353.81z"/>
</g>
<g>
	<path class="st2" d="M517.81,371.99c-2.39-10.79-12.28-17.86-22.14-21.45c-15.28-5.33-32.31-3.83-47.13-10.8
		c-14.8-6.61-27.09-18.93-33.01-34.08c6.49,14.75,18.47,27.05,33.21,33.62c14.82,6.95,31.8,5.44,47.1,10.79
		C505.83,353.59,515.83,361,517.81,371.99L517.81,371.99z"/>
</g>
<g>
	<path class="st2" d="M503.4,387.49c-0.47-10.87-8.86-19.43-17.81-24.59c-13.91-7.79-30.69-9.25-43.88-18.54
		c-13.23-8.94-23.05-23-26.19-38.71c3.78,15.42,13.3,29.4,26.47,38.3c13.18,9.28,29.92,10.72,43.85,18.52
		C494.93,367.59,503.37,376.49,503.4,387.49L503.4,387.49z"/>
</g>
<g>
	<path class="st2" d="M484.51,401.05c1.61-10.55-4.83-20.37-12.46-27.03c-11.9-10.13-27.76-14.72-38.69-26.17
		c-11.03-11.12-17.8-26.51-17.83-42.22c0.72,15.55,7.21,30.81,18.19,41.87c10.92,11.43,26.75,15.99,38.66,26.15
		C480.15,380.3,486.57,390.46,484.51,401.05L484.51,401.05z"/>
</g>
<g>
	<path class="st2" d="M466.04,410.21c3.12-9.94-1.42-20.48-7.63-28.25c-9.81-11.88-24.43-19.1-33.06-32.12
		c-8.79-12.73-12.89-28.96-9.82-44.23c-1.61,15.2,1.89,31.05,10.64,43.66c8.63,12.98,23.2,20.12,33.02,32.06
		C465.63,389.15,470.14,400.32,466.04,410.21L466.04,410.21z"/>
</g>
<g>
	<path class="st2" d="M447.73,418.18c5.07-9.32,2.37-20.68-2.5-29.49c-7.7-13.5-20.98-23.17-27.31-37.57
		c-6.55-14.13-7.67-30.81-2.38-45.51c-4.59,14.78-3.69,31.25,2.84,45.3c6.34,14.38,19.6,24.01,27.3,37.54
		C450.67,397.29,453.24,408.98,447.73,418.18L447.73,418.18z"/>
</g>
<g>
	<path class="st2" d="M428.06,424.47c6.75-8.47,6.04-20.38,2.69-30.1c-5.36-14.93-17.01-27-20.84-42.59
		c-4.09-15.36-2.28-32.33,5.62-46.19c-7.23,14.05-9.22,30.77-5.14,46.06c3.84,15.58,15.47,27.6,20.83,42.56
		C434.7,403.99,435.22,416.19,428.06,424.47L428.06,424.47z"/>
</g>
<g>
	<path class="st2" d="M404.77,426.79c8.41-7.14,10.03-19.17,8.59-29.55c-2.43-15.97-11.7-30.3-12.47-46.64
		c-1.08-16.15,4.06-32.75,14.66-45.04c-9.98,12.62-15.25,28.93-14.16,45.01c0.78,16.32,10.05,30.6,12.47,46.6
		C415.41,407.64,413.54,419.92,404.77,426.79L404.77,426.79z"/>
</g>
<g>
	<path class="st2" d="M384.07,423.25c8.41-6.7,12.36-17.49,13.13-27.95c0.68-10.66-2.32-21.08-3.35-31.64
		c-1.15-10.64,0.61-21.47,4.48-31.41c3.81-9.96,9.7-19.12,17.21-26.7c-10.67,11.75-18.42,26.45-20.85,42.2
		c-2.85,15.99,3.88,31.58,3.01,47.57C397.01,405.89,392.81,416.84,384.07,423.25L384.07,423.25z"/>
</g>
<text transform="matrix(1 0 0 1 65.7573 302.6973)" class="st3 st4 st5">Turkmenistan</text>
</svg>
