<?xml version="1.0" encoding="utf-8"?>
<!-- Generator: Adobe Illustrator 28.1.0, SVG Export Plug-In . SVG Version: 6.00 Build 0)  -->
<svg version="1.1" id="Layer_1" xmlns="http://www.w3.org/2000/svg" xmlns:xlink="http://www.w3.org/1999/xlink" x="0px" y="0px"
	 viewBox="0 0 600 600" style="enable-background:new 0 0 600 600;" xml:space="preserve">
<style type="text/css">
	.st0{fill:none;stroke:#000000;stroke-width:2;stroke-miterlimit:10;}
	.st1{fill:#CCCCCC;}
	.st2{fill:#883037;}
	.st3{fill:#010101;}
	.st4{font-family:'LibreBaskerville-Bold';}
	.st5{font-size:29.3184px;}
</style>
<rect x="34.42" y="34.42" class="st0" width="531.15" height="531.15"/>
<circle class="st1" cx="383.47" cy="303.1" r="23.19"/>
<g>
	<path class="st2" d="M383.61,108.13c-11.88,12.71-12.79,31.83-9.22,48.07c5.97,25.09,22.65,46.79,26.01,72.71
		c3.82,25.66-1.94,53.17-18.04,73.78c15.73-25.33,21.73-57.07,13.39-85.96c-5.88-20.74-18.39-38.96-23.31-60.09
		C368.49,140.07,369.98,119.97,383.61,108.13L383.61,108.13z"/>
</g>
<g>
	<path class="st2" d="M416.76,110.58c-14.33,10.23-18.64,29.24-17.81,45.97c1.62,25.84,14.4,50.08,13.32,76.27
		c-0.56,25.96-11.1,51.81-29.9,69.86c20.59-21.92,31.65-52.73,28.39-82.74c-2.27-21.49-11.53-41.66-12.8-63.34
		C396.94,139.64,401.69,120.3,416.76,110.58L416.76,110.58z"/>
</g>
<g>
	<path class="st2" d="M447.12,128.2c-15.17,7.19-22.41,24.3-24.46,40.14c-2.85,24.53,5.05,49.43-0.39,73.83
		c-4.92,24.27-19.17,46.76-39.89,60.51c19.69-14.7,34.04-36.58,38.91-60.71c5.41-24.4-2.5-49.18,0.38-73.76
		C423.58,152.12,431.31,134.76,447.12,128.2L447.12,128.2z"/>
</g>
<g>
	<path class="st2" d="M470.16,152.79c-15.09,4.18-24.5,18.73-28.95,32.95c-6.59,22.08-3.36,46.26-12.32,67.81
		c-8.45,21.52-25.2,39.91-46.5,49.15c20.45-10.36,37.19-28.13,45.57-49.52c8.93-21.55,5.66-45.61,12.29-67.74
		C444.61,170.94,454.55,156.23,470.16,152.79L470.16,152.79z"/>
</g>
<g>
	<path class="st2" d="M487.23,182.92c-14.28,1.19-25.24,12.66-31.7,24.68c-9.74,18.74-11,41.06-22.78,58.9
		c-11.32,17.91-29.57,31.6-50.36,36.19c20.16-5.85,38.29-18.93,49.52-36.73c11.75-17.86,12.96-40.07,22.74-58.84
		C461.07,194.82,472.58,183.3,487.23,182.92L487.23,182.92z"/>
</g>
<g>
	<path class="st2" d="M502.22,206.64c-13.65-0.75-25.7,8.19-33.88,18.41c-12.39,16.14-17.4,37.18-31.62,52.13
		c-13.84,15.12-33.63,25.43-54.34,25.52c19.92-2.89,39.24-11.88,52.86-26.87c14.16-14.98,19.02-35.82,31.52-52.02
		C474.92,213.1,488.22,203.95,502.22,206.64L502.22,206.64z"/>
</g>
<g>
	<path class="st2" d="M511.97,231.54c-12.84-3.47-26.03,3.06-35.49,11.48c-14.45,13.25-22.66,32.33-38.62,44.15
		c-15.58,12.03-35.87,18.19-55.48,15.53c19.45,1.26,39.41-4.37,54.87-16.32c15.93-11.84,24.05-30.84,38.56-44.11
		C485.32,233.57,499.11,227.17,511.97,231.54L511.97,231.54z"/>
</g>
<g>
	<path class="st2" d="M528.44,256.01c-12.38-6.1-27.11-2.08-38.41,4.61c-17.35,10.62-29.49,28.4-48.08,37.27
		c-18.25,9.15-40.12,11.38-59.55,4.8c19.54,5.17,40.99,3.4,59.1-5.7c18.57-8.89,30.61-26.61,48.02-37.24
		C500.93,252.81,516.16,249.02,528.44,256.01L528.44,256.01z"/>
</g>
<g>
	<path class="st2" d="M543.35,281.08c-11.77-8.68-27.89-7.23-40.93-2.33c-20.06,7.86-36.02,24.15-57.05,29.96
		c-20.72,6.16-43.93,4.41-62.98-6c19.41,9.06,42.12,11.17,62.7,5.04c21.01-5.83,36.85-22.08,56.97-29.93
		C515.26,272.67,531.83,271.53,543.35,281.08L543.35,281.08z"/>
</g>
<g>
	<path class="st2" d="M550.93,308.53c-10.53-10.95-27.29-12.27-41.49-9.52c-21.9,4.56-41.07,18.47-63.6,20.75
		c-22.28,2.7-45.72-3.12-63.43-17.07c18.29,12.67,41.18,18.78,63.31,16.08c22.53-2.31,41.57-16.2,63.53-20.74
		C523.64,295.07,540.79,296.78,550.93,308.53L550.93,308.53z"/>
</g>
<g>
	<path class="st2" d="M550.49,338.16c-8.97-12.43-25.3-16.56-39.95-16.35c-22.75,0.74-44.49,11.33-67.51,9.65
		c-22.88-1.24-45.75-11.06-60.63-28.76c16.54,15.32,38.09,25.62,60.74,26.77c23.01,1.62,44.49-8.96,67.36-9.65
		C525.52,319.28,542.8,324.24,550.49,338.16L550.49,338.16z"/>
</g>
<g>
	<path class="st2" d="M536.25,368.62c-5.82-13.91-20.85-21.15-34.98-23.71c-21.9-3.65-44.63,2.34-66.31-3.64
		c-21.59-5.5-41.19-19.31-52.57-38.58c12.38,18.29,31.36,32.16,52.82,37.61c21.67,5.95,44.28-0.06,66.24,3.62
		C515.84,346.35,531.1,354.1,536.25,368.62L536.25,368.62z"/>
</g>
<g>
	<path class="st2" d="M532.06,399.09c-3.61-15.64-18.1-25.91-32.47-31.09c-22.32-7.71-47.22-5.46-68.89-15.57
		c-21.66-9.59-39.75-27.54-48.3-49.74c9.7,21.4,27.17,39.31,48.71,48.83c21.67,10.08,46.45,7.78,68.82,15.54
		C514.58,372.16,529.2,382.97,532.06,399.09L532.06,399.09z"/>
</g>
<g>
	<path class="st2" d="M512.01,422.43c-0.85-15.88-13.24-28.39-26.38-35.91c-20.47-11.35-45.16-13.41-64.59-26.99
		c-19.51-13.07-34.1-33.69-38.64-56.83c5.82,22.55,19.8,43.02,39.2,56c19.44,13.55,44.02,15.55,64.53,26.95
		C499.56,393.13,511.99,406.19,512.01,422.43L512.01,422.43z"/>
</g>
<g>
	<path class="st2" d="M479.61,434.83c1.99-14.64-7.11-28.22-17.78-37.4c-16.69-13.96-38.87-20.2-54.21-36.02
		c-15.51-15.37-25.21-36.78-25.23-58.71c1.38,21.6,10.53,42.74,25.94,58c15.36,15.79,37.44,21.95,54.15,35.97
		C473.44,405.87,482.48,420,479.61,434.83L479.61,434.83z"/>
</g>
<g>
	<path class="st2" d="M454.18,446.32c3.82-13.79-2.66-28.1-11.32-38.7c-13.77-16.22-34.16-25.97-46.32-43.79
		c-12.41-17.47-18.56-39.94-14.15-61.13c-1.5,21,3.46,42.74,15.78,59.97c12.19,17.78,32.43,27.34,46.23,43.67
		C453.54,417.03,459.96,432.61,454.18,446.32L454.18,446.32z"/>
</g>
<g>
	<path class="st2" d="M429.67,463.28c7.01-13.35,3.01-29.55-4.03-42.06c-11.15-19.2-30.25-32.9-39.46-53.41
		c-9.52-20.14-11.38-44.05-3.78-65.1c-6.2,21.2-4.79,44.67,4.68,64.67c9.23,20.49,28.27,34.08,39.43,53.35
		C433.81,433.36,437.57,450.05,429.67,463.28L429.67,463.28z"/>
</g>
<g>
	<path class="st2" d="M400.63,464.58c8.96-11.62,7.85-27.81,3.22-40.99c-7.45-20.28-23.45-36.64-28.82-57.85
		c-5.73-20.91-3.49-44.15,7.36-63.03c-9.5,19.27-12.11,42-6.4,62.77c5.39,21.2,21.35,37.43,28.8,57.78
		C409.66,436.6,410.45,453.24,400.63,464.58L400.63,464.58z"/>
</g>
<g>
	<path class="st2" d="M368.18,479.05c12-10.5,14.2-28.01,12-43.03c-3.72-23.17-17.38-43.92-18.69-67.65
		c-1.76-23.48,5.47-47.75,20.91-65.66c-14.19,18.54-21.68,42.25-19.91,65.58c1.34,23.72,14.98,44.34,18.68,67.58
		C383.58,451.1,380.97,468.98,368.18,479.05L368.18,479.05z"/>
</g>
<g>
	<path class="st2" d="M336.91,477.15c12.29-10.06,17.97-26.04,19.04-41.49c0.91-15.77-3.62-31.15-5.25-46.76
		c-0.88-7.85-0.73-15.84,0.36-23.67c3.48-23.44,14.64-45.71,31.32-62.52c-15.52,17.58-26.9,39.35-30.33,62.67
		c-1.08,7.76-1.23,15.63-0.36,23.43c1.63,15.63,6.17,31.06,5.25,46.93C356.05,451.38,349.88,467.66,336.91,477.15L336.91,477.15z"/>
</g>
<text transform="matrix(1 0 0 1 49.1638 299.8618)" class="st3 st4 st5">United Arab Emirates</text>
</svg>
