<?xml version="1.0" encoding="utf-8"?>
<!-- Generator: Adobe Illustrator 28.1.0, SVG Export Plug-In . SVG Version: 6.00 Build 0)  -->
<svg version="1.1" id="Layer_1" xmlns="http://www.w3.org/2000/svg" xmlns:xlink="http://www.w3.org/1999/xlink" x="0px" y="0px"
	 viewBox="0 0 1920 1080" style="enable-background:new 0 0 1920 1080;" xml:space="preserve">
<style type="text/css">
	.st0{fill:#606060;}
	.st1{fill:#A3696F;}
	.st2{fill:#FFE9D6;}
	.st3{font-family:'LibreBaskerville-Italic';}
	.st4{font-size:39.5133px;}
	.st5{fill:#CBCBCA;}
	.st6{font-family:'LibreBaskerville-Regular';}
	.st7{font-size:32.892px;}
	.st8{fill:none;stroke:#000000;stroke-miterlimit:10;stroke-dasharray:2,3;}
</style>
<rect x="61.08" y="-1" class="st0" width="1805.07" height="1019"/>
<g>
	<path class="st1" d="M1321.88,426.47c-1.79,3.5-2.35,7.64-1.87,11.46c-0.65,3.49-0.31,7.29,0.52,10.92
		c1.84,7.69,6.08,14.81,9.1,22.37c5.17,12.1,5.6,26.33,1.05,38.72c-2.46,3.8-5.43,7.18-8.91,9.79c1.14-4.07,1.99-8.01,2.32-12.16
		c2.61-7.2,3.38-15.08,2.21-22.64c-1.76-12.29-9.72-22.29-12.59-34.5c-1.02-4.38-1.36-8.97-0.68-13.63
		C1314.71,432.34,1317.87,428.29,1321.88,426.47L1321.88,426.47z"/>
</g>
<g>
	<path class="st1" d="M1338.2,428.02c-2.84,3.19-4.28,6.88-4.8,10.62c-2.65,7.37-1.36,15.33,0.59,22.89
		c0.99,3.94,2.15,7.92,3.03,12.07c1.9,8.34,1.74,17.36-0.61,25.64c-1.16,4.17-2.86,8.18-5.02,11.93c-2.81,3.37-6,6.34-9.61,8.57
		c2.18-3.64,3.98-7.29,5.28-11.06c3.91-6.77,6.09-14.55,6.26-22.36c0.44-12.43-5.65-23.74-6.36-36.21
		c-0.23-4.38,0.22-8.84,1.67-13.14C1330.72,433.06,1334.03,429.51,1338.2,428.02L1338.2,428.02z"/>
</g>
<g>
	<path class="st1" d="M1354.1,432.33c-3.36,2.64-5.42,6.02-6.59,9.61c-3.9,6.79-4.04,14.85-3.45,22.64
		c0.28,4.05,0.72,8.18,0.85,12.42c0.4,8.55-1.35,17.4-5.12,25.13c-1.88,3.9-4.26,7.54-7.04,10.86c-3.36,2.82-7.02,5.19-10.97,6.75
		c2.78-3.2,5.21-6.48,7.14-9.96c5.04-5.97,8.55-13.25,10.11-20.91c2.63-12.16-1.38-24.37,0.12-36.77c0.55-4.35,1.78-8.66,3.96-12.64
		C1345.85,435.98,1349.73,433.07,1354.1,432.33L1354.1,432.33z"/>
</g>
<g>
	<path class="st1" d="M1413.08,363.64c-7.55,2.93-13.47,8.3-17.68,14.61c-4.87,5.83-8.26,12.92-10.56,20.27
		c-5.73,19.01-4.15,39.66-9.08,59.01c-5.02,19.9-16.52,38.04-32.28,51.17c-6.77,4.68-14.07,8.48-21.73,10.98
		c6.8-4.31,13.04-9.23,18.52-14.81c18.05-14.95,29.92-36.83,32.86-60.07c2.33-15.84,2.18-32.14,6.94-47.76
		c2.45-7.87,6.12-15.46,11.43-22C1397.28,369.08,1404.78,364.63,1413.08,363.64L1413.08,363.64z"/>
</g>
<g>
	<path class="st1" d="M1444.19,379.82c-8.2,1.47-15.23,5.72-20.72,11.28c-6.05,4.95-10.85,11.46-14.6,18.44
		c-11.28,21.81-12.87,48.08-26.67,68.91c-9.03,14.24-21.64,26.14-36.39,34.3c-7.73,3.43-15.82,5.87-24.03,6.94
		c7.71-3.01,14.97-6.75,21.61-11.31c17.52-9.68,31.9-24.98,40.36-43.12c8.7-18.7,11-39.61,20.72-58.07
		c4-7.47,9.16-14.41,15.79-19.97C1427.21,382.29,1435.62,379.23,1444.19,379.82L1444.19,379.82z"/>
</g>
<g>
	<path class="st1" d="M1466.78,403.35c-8.38,0.43-15.78,3.68-21.88,8.36c-6.69,3.71-12.47,9.22-17.32,15.35
		c-9.89,12.75-15.68,28.32-23.67,42.53c-8.06,14.94-19.83,27.93-34.07,37.21c-7.11,4.67-14.82,8.41-22.86,11.19
		c-8.38,1.76-16.9,2.47-25.21,1.68c8.09-2.01,15.78-4.72,22.93-8.3c22.61-7.66,41.86-24.15,53.1-45.19
		c8.06-14.38,13.91-30.11,24.28-43.44c5.31-6.74,11.7-12.75,19.32-17.17C1449.38,402.14,1458.4,400.83,1466.78,403.35
		L1466.78,403.35z"/>
</g>
<g>
	<path class="st1" d="M1562.27,386.39c-11.7-2.48-24.07-0.64-34.9,4.16c-11.08,3.94-21.14,10.67-29.96,18.59
		c-22.33,20.49-36.24,48.66-57.7,70.18c-30.31,30.23-75.11,48.59-117.92,40.29c12.19,0.16,24.26-1.05,35.92-3.72
		c11.78-1.93,23.34-5.27,34.3-10.05c16.41-7.17,31.51-17.35,44.15-30.05c21.47-21.63,35.21-49.61,57.9-70.37
		C1512.69,388.51,1537.17,376.82,1562.27,386.39L1562.27,386.39z"/>
</g>
<g>
	<path class="st1" d="M1585.58,435.3c-11.07-4.76-23.65-5.38-35.3-2.77c-11.73,1.71-22.99,6.38-33.26,12.47
		c-26.09,15.85-45.37,40.95-70.81,57.98c-35.89,23.91-83.74,33.22-124.41,16.63c12.01,2.57,24.17,3.75,36.22,3.41
		c12.02,0.41,24.1-0.62,35.86-3.18c17.63-3.86,34.55-10.94,49.53-21.01c25.47-17.14,44.54-42.09,71.04-58.13
		C1536.18,427.66,1562.67,420.92,1585.58,435.3L1585.58,435.3z"/>
</g>
<g>
	<path class="st1" d="M1594.93,480.02c-10.1-6.49-22.36-9.16-34.25-8.51c-11.81-0.24-23.64,2.5-34.73,6.8
		c-28.25,11.3-51.32,32.8-79.11,45.38c-39.2,17.61-87.77,18.91-125.01-4.07c11.39,4.49,23.14,7.64,35.04,9.29
		c11.74,2.37,23.79,3.35,35.77,2.76c17.96-0.9,35.75-5.09,52.13-12.52c27.85-12.67,50.69-34.06,79.36-45.48
		C1547.63,464.4,1574.77,462.13,1594.93,480.02L1594.93,480.02z"/>
</g>
<g>
	<path class="st1" d="M1693.09,532.03c-11.59-11.41-27.22-18.06-43.16-20.31c-32.28-6.35-64.53,3.39-94.25,15.92
		c-22.72,9.33-45.34,20.08-69.36,26.2c-56.02,14.08-119.91,3.74-164.43-34.27c47.92,30.39,107.69,43.91,163.19,29.43
		c54.97-14.3,106.34-53.92,165.8-42.23C1667.13,510.54,1682.64,518.88,1693.09,532.03L1693.09,532.03z"/>
</g>
<g>
	<path class="st1" d="M1681.43,596.11c-9.91-12.52-24.05-21.04-39.27-25.35c-18.36-7.02-38.42-8.66-57.91-6.74
		c-28.3,2.82-55.19,11.32-83.31,16.31c-48.97,9.62-101.3,0.22-143.64-26.29c-13.41-9.9-25.5-21.4-35.38-34.43
		c12.5,10.54,25.9,19.59,40.12,26.78c26.95,16.76,58.18,26.6,89.87,28.36c65,4.46,129.15-37.38,193.52-12.47
		C1660.6,569.4,1674.18,580.85,1681.43,596.11L1681.43,596.11z"/>
</g>
<g>
	<path class="st1" d="M1662.46,665.54c-6.65-14.8-18.76-26.64-32.77-34.49c-27.7-17.58-61.21-20.2-93.36-19.31
		c-24.49,0.45-49.41,2.26-73.95-0.74c-57.16-7.19-112.81-39.92-140.44-91.37c33.55,45.58,84.21,79.78,141.04,86.4
		c56.27,6.6,118.36-11.64,169.4,20.75C1646.12,636.16,1657.51,649.53,1662.46,665.54L1662.46,665.54z"/>
</g>
<g>
	<path class="st1" d="M1705.91,770.89c-4.71-19.61-16.8-36.76-32.14-49.56c-18.54-16.74-41.67-27.96-65.64-34.64
		c-34.23-9.51-69.68-11.81-104.56-18.66c-60.6-10.76-116.56-44.88-153.43-94.23c-11.74-16.8-21.36-35.01-28.13-54.16
		c17.46,36.36,42.77,68.78,73.95,94.25c31.37,25.23,69,42.04,108.58,49.24c58.98,11.21,125.68,11.51,172.62,54.47
		C1691.96,731.82,1703.09,750.4,1705.91,770.89L1705.91,770.89z"/>
</g>
<g>
	<path class="st1" d="M1655.69,830.46c-1.32-20-10.26-38.83-23.14-53.95c-15.33-19.52-36.1-34.4-58.45-44.98
		c-31.93-15.08-66.26-23.31-99.26-35.9c-57.54-20.75-106.61-63.6-134.4-118.16c-8.66-18.43-15.01-37.9-18.41-57.79
		c10.99,38.55,30.31,74.57,56.55,104.76c26.47,30,60.5,52.8,98.04,66.52c55.88,20.92,121.16,32.45,159.9,82.45
		C1648.62,789.84,1656.38,809.92,1655.69,830.46L1655.69,830.46z"/>
</g>
<g>
	<path class="st1" d="M1591.44,891.13c2.57-20-2.62-40.33-12.41-57.76c-11.37-22.24-29-40.95-49.02-55.72
		c-28.61-21.06-60.93-35.83-91.08-54.64c-52.81-31.62-92.97-83.41-109.87-142.65c-4.99-19.87-7.5-40.32-7.03-60.63
		c3.38,40.2,15.5,79.5,35.58,114.39c20.34,34.74,49.53,63.84,83.96,84.64c51.13,31.46,113.36,55.47,141.95,112.32
		C1592.3,849.64,1596.09,870.97,1591.44,891.13L1591.44,891.13z"/>
</g>
<g>
	<path class="st1" d="M1523.78,935.58c5.44-19.44,3.48-40.3-3.56-59.03c-7.24-23.83-21.35-45.31-38.44-63.32
		c-24.66-25.92-53.99-46.15-80.62-70.16c-47.07-40.9-77.95-99.69-84.31-161.78c-1.01-20.76,0.55-41.56,5.19-61.52
		c-1.46,20.44-0.59,40.82,2.77,60.67c2.17,19.96,6.73,39.7,13.75,58.54c13.98,37.83,37.65,71.6,67.96,98.16
		c45.36,40.31,102.99,75.35,121.43,137.08C1532.99,894.45,1532.6,916.5,1523.78,935.58L1523.78,935.58z"/>
</g>
<g>
	<g>
		<polygon class="st2" points="1244.24,469.24 1244.73,468.37 1244.86,468.46 		"/>
		<polygon class="st2" points="1245.23,467.5 1245.75,466.63 1246.13,466.91 1245.49,467.68 		"/>
		<polygon class="st2" points="1246.28,465.78 1246.82,464.94 1247.41,465.38 1246.77,466.14 		"/>
		<polygon class="st2" points="1247.38,464.1 1247.94,463.26 1248.72,463.87 1248.07,464.62 		"/>
		<polygon class="st2" points="1248.52,462.44 1249.11,461.62 1250.05,462.39 1249.38,463.13 		"/>
		<polygon class="st2" points="1249.71,460.81 1250.32,460.01 1251.4,460.93 1250.72,461.66 		"/>
		<polygon class="st2" points="1250.94,459.21 1251.57,458.43 1252.78,459.5 1252.09,460.21 		"/>
		<polygon class="st2" points="1252.22,457.65 1252.87,456.88 1254.17,458.09 1253.47,458.79 		"/>
		<polygon class="st2" points="1253.53,456.11 1254.2,455.36 1255.6,456.71 1254.88,457.4 		"/>
		<polygon class="st2" points="1254.87,454.6 1255.57,453.87 1257.04,455.36 1256.32,456.04 		"/>
		<polygon class="st2" points="1256.27,453.14 1256.98,452.42 1258.5,454.03 1257.77,454.69 		"/>
		<polygon class="st2" points="1257.69,451.7 1258.42,451 1260,452.74 1259.25,453.38 		"/>
		<polygon class="st2" points="1259.15,450.3 1259.89,449.61 1261.51,451.47 1260.75,452.1 		"/>
		<polygon class="st2" points="1260.64,448.93 1261.41,448.26 1263.05,450.24 1262.28,450.86 		"/>
		<polygon class="st2" points="1262.18,447.6 1262.96,446.95 1264.6,449.02 1263.82,449.63 		"/>
		<polygon class="st2" points="1263.74,446.31 1264.53,445.68 1266.18,447.84 1265.39,448.43 		"/>
		<polygon class="st2" points="1265.33,445.06 1266.14,444.44 1267.78,446.7 1266.98,447.27 		"/>
		<polygon class="st2" points="1266.95,443.83 1267.77,443.24 1269.41,445.59 1268.59,446.14 		"/>
		<polygon class="st2" points="1268.6,442.65 1269.44,442.08 1271.04,444.5 1270.22,445.04 		"/>
		<polygon class="st2" points="1270.29,441.52 1271.14,440.97 1272.7,443.44 1271.87,443.96 		"/>
		<polygon class="st2" points="1272,440.43 1272.86,439.89 1274.38,442.41 1273.54,442.92 		"/>
		<polygon class="st2" points="1273.73,439.37 1274.61,438.85 1276.08,441.43 1275.23,441.92 		"/>
		<polygon class="st2" points="1275.49,438.35 1276.37,437.85 1277.8,440.48 1276.94,440.95 		"/>
		<polygon class="st2" points="1277.27,437.37 1278.17,436.9 1279.54,439.55 1278.67,440.01 		"/>
		<polygon class="st2" points="1279.08,436.45 1279.99,436 1281.29,438.66 1280.41,439.1 		"/>
		<polygon class="st2" points="1280.9,435.56 1281.83,435.14 1283.06,437.8 1282.17,438.22 		"/>
		<polygon class="st2" points="1282.75,434.72 1283.68,434.31 1284.85,436.98 1283.95,437.38 		"/>
		<polygon class="st2" points="1284.62,433.92 1285.56,433.53 1286.65,436.2 1285.75,436.58 		"/>
		<polygon class="st2" points="1286.5,433.16 1287.45,432.8 1288.47,435.45 1287.56,435.82 		"/>
		<polygon class="st2" points="1288.41,432.46 1289.36,432.13 1290.3,434.72 1289.39,435.08 		"/>
		<polygon class="st2" points="1290.33,431.8 1291.29,431.49 1292.15,434.04 1291.23,434.38 		"/>
		<polygon class="st2" points="1292.26,431.19 1293.23,430.9 1294.01,433.39 1293.08,433.71 		"/>
		<polygon class="st2" points="1294.21,430.62 1295.18,430.35 1295.89,432.79 1294.95,433.09 		"/>
		<polygon class="st2" points="1296.17,430.1 1297.15,429.86 1297.77,432.21 1296.83,432.49 		"/>
		<polygon class="st2" points="1298.14,429.64 1299.13,429.43 1299.67,431.66 1298.72,431.93 		"/>
		<polygon class="st2" points="1300.12,429.22 1301.11,429.03 1301.58,431.15 1300.62,431.4 		"/>
		<polygon class="st2" points="1302.11,428.85 1303.11,428.68 1303.5,430.69 1302.54,430.92 		"/>
		<polygon class="st2" points="1304.11,428.53 1305.11,428.39 1305.43,430.24 1304.47,430.46 		"/>
		<polygon class="st2" points="1306.11,428.26 1307.11,428.15 1307.37,429.84 1306.4,430.04 		"/>
		<polygon class="st2" points="1308.12,428.04 1309.12,427.95 1309.32,429.48 1308.35,429.65 		"/>
		<polygon class="st2" points="1310.13,427.87 1311.14,427.81 1311.28,429.14 1310.3,429.3 		"/>
		<polygon class="st2" points="1312.14,427.77 1313.15,427.73 1313.25,428.84 1312.26,428.98 		"/>
		<polygon class="st2" points="1314.16,427.7 1315.16,427.69 1315.22,428.57 1314.23,428.7 		"/>
		<polygon class="st2" points="1316.17,427.69 1317.17,427.71 1317.2,428.33 1316.21,428.44 		"/>
		<polygon class="st2" points="1318.17,427.74 1319.17,427.79 1319.18,428.12 1318.19,428.23 		"/>
		<polygon class="st2" points="1320.18,427.85 1321.18,427.92 1321.18,427.94 1320.18,428.02 		"/>
	</g>
</g>
<g>
	<g>
		<polygon class="st2" points="1211.22,374.22 1212,373.59 1212.04,373.65 		"/>
		<polygon class="st2" points="1212.78,372.97 1213.56,372.34 1213.68,372.51 1212.86,373.07 		"/>
		<polygon class="st2" points="1214.35,371.73 1215.14,371.11 1215.34,371.39 1214.51,371.94 		"/>
		<polygon class="st2" points="1215.93,370.5 1216.73,369.9 1217,370.28 1216.17,370.83 		"/>
		<polygon class="st2" points="1217.54,369.31 1218.35,368.72 1218.67,369.19 1217.83,369.73 		"/>
		<polygon class="st2" points="1219.16,368.13 1219.98,367.55 1220.35,368.11 1219.51,368.65 		"/>
		<polygon class="st2" points="1220.79,366.97 1221.62,366.4 1222.04,367.05 1221.19,367.58 		"/>
		<polygon class="st2" points="1222.44,365.83 1223.27,365.27 1223.74,366.01 1222.89,366.53 		"/>
		<polygon class="st2" points="1224.1,364.71 1224.94,364.16 1225.45,364.98 1224.6,365.49 		"/>
		<polygon class="st2" points="1225.78,363.61 1226.62,363.06 1227.18,363.98 1226.31,364.48 		"/>
		<polygon class="st2" points="1227.46,362.52 1228.31,361.99 1228.91,363 1228.04,363.49 		"/>
		<polygon class="st2" points="1229.16,361.46 1230.01,360.93 1230.65,362.03 1229.78,362.51 		"/>
		<polygon class="st2" points="1230.87,360.41 1231.73,359.89 1232.41,361.09 1231.53,361.56 		"/>
		<polygon class="st2" points="1232.59,359.38 1233.46,358.87 1234.17,360.16 1233.29,360.62 		"/>
		<polygon class="st2" points="1234.33,358.37 1235.2,357.87 1235.94,359.25 1235.05,359.7 		"/>
		<polygon class="st2" points="1236.08,357.39 1236.96,356.9 1237.71,358.35 1236.82,358.79 		"/>
		<polygon class="st2" points="1237.84,356.43 1238.73,355.95 1239.5,357.47 1238.6,357.9 		"/>
		<polygon class="st2" points="1239.61,355.48 1240.51,355.02 1241.29,356.61 1240.39,357.03 		"/>
		<polygon class="st2" points="1241.4,354.56 1242.29,354.1 1243.09,355.77 1242.19,356.18 		"/>
		<polygon class="st2" points="1243.19,353.66 1244.09,353.21 1244.91,354.95 1244,355.36 		"/>
		<polygon class="st2" points="1245,352.77 1245.9,352.34 1246.73,354.15 1245.82,354.55 		"/>
		<polygon class="st2" points="1246.81,351.91 1247.72,351.48 1248.56,353.37 1247.64,353.76 		"/>
		<polygon class="st2" points="1248.64,351.07 1249.56,350.66 1250.39,352.6 1249.47,352.98 		"/>
		<polygon class="st2" points="1250.48,350.25 1251.4,349.85 1252.23,351.85 1251.31,352.22 		"/>
		<polygon class="st2" points="1252.32,349.46 1253.25,349.07 1254.08,351.12 1253.15,351.48 		"/>
		<polygon class="st2" points="1254.18,348.68 1255.11,348.3 1255.93,350.42 1255.01,350.77 		"/>
		<polygon class="st2" points="1256.04,347.93 1256.98,347.56 1257.8,349.73 1256.87,350.07 		"/>
		<polygon class="st2" points="1257.92,347.19 1258.86,346.83 1259.67,349.06 1258.73,349.39 		"/>
		<polygon class="st2" points="1259.8,346.48 1260.74,346.13 1261.55,348.42 1260.61,348.74 		"/>
		<polygon class="st2" points="1261.69,345.79 1262.64,345.45 1263.43,347.79 1262.49,348.1 		"/>
		<polygon class="st2" points="1263.58,345.11 1264.54,344.79 1265.32,347.19 1264.38,347.49 		"/>
		<polygon class="st2" points="1265.49,344.47 1266.45,344.15 1267.22,346.6 1266.27,346.89 		"/>
		<polygon class="st2" points="1267.41,343.85 1268.37,343.54 1269.12,346.03 1268.17,346.31 		"/>
		<polygon class="st2" points="1269.33,343.25 1270.29,342.96 1271.03,345.48 1270.07,345.75 		"/>
		<polygon class="st2" points="1271.26,342.67 1272.22,342.39 1272.94,344.95 1271.98,345.21 		"/>
		<polygon class="st2" points="1273.19,342.11 1274.16,341.84 1274.86,344.44 1273.9,344.69 		"/>
		<polygon class="st2" points="1275.13,341.58 1276.11,341.32 1276.78,343.95 1275.82,344.19 		"/>
		<polygon class="st2" points="1277.08,341.06 1278.06,340.81 1278.71,343.48 1277.74,343.71 		"/>
		<polygon class="st2" points="1279.03,340.57 1280.01,340.33 1280.64,343.04 1279.68,343.26 		"/>
		<polygon class="st2" points="1280.99,340.1 1281.97,339.87 1282.58,342.62 1281.61,342.82 		"/>
		<polygon class="st2" points="1282.96,339.65 1283.94,339.43 1284.52,342.21 1283.55,342.41 		"/>
		<polygon class="st2" points="1284.93,339.22 1285.91,339.01 1286.47,341.83 1285.5,342.02 		"/>
		<polygon class="st2" points="1286.9,338.82 1287.89,338.63 1288.42,341.46 1287.44,341.64 		"/>
		<polygon class="st2" points="1288.88,338.44 1289.87,338.26 1290.37,341.11 1289.4,341.28 		"/>
		<polygon class="st2" points="1290.86,338.09 1291.86,337.92 1292.33,340.79 1291.35,340.95 		"/>
		<polygon class="st2" points="1292.85,337.76 1293.85,337.6 1294.29,340.48 1293.31,340.63 		"/>
		<polygon class="st2" points="1294.84,337.45 1295.84,337.3 1296.25,340.2 1295.27,340.34 		"/>
		<polygon class="st2" points="1296.84,337.16 1297.84,337.02 1298.22,339.94 1297.23,340.06 		"/>
		<polygon class="st2" points="1298.84,336.89 1299.84,336.77 1300.19,339.69 1299.2,339.81 		"/>
		<polygon class="st2" points="1300.84,336.65 1301.84,336.54 1302.16,339.48 1301.17,339.58 		"/>
		<polygon class="st2" points="1302.84,336.43 1303.84,336.32 1304.13,339.28 1303.15,339.37 		"/>
		<polygon class="st2" points="1304.85,336.23 1305.85,336.13 1306.11,339.1 1305.12,339.19 		"/>
		<polygon class="st2" points="1306.86,336.05 1307.86,335.97 1308.09,338.95 1307.1,339.02 		"/>
		<polygon class="st2" points="1308.87,335.89 1309.87,335.82 1310.06,338.81 1309.08,338.88 		"/>
		<polygon class="st2" points="1310.88,335.76 1311.88,335.71 1312.05,338.69 1311.05,338.75 		"/>
		<polygon class="st2" points="1312.89,335.66 1313.89,335.61 1314.02,338.59 1313.04,338.64 		"/>
		<polygon class="st2" points="1314.9,335.58 1315.9,335.54 1316,338.51 1315.01,338.55 		"/>
		<polygon class="st2" points="1316.91,335.52 1317.91,335.5 1317.97,338.45 1316.99,338.48 		"/>
		<polygon class="st2" points="1318.92,335.48 1319.92,335.47 1319.96,338.42 1318.96,338.43 		"/>
		<polygon class="st2" points="1320.93,335.46 1321.93,335.46 1321.93,338.4 1320.95,338.41 		"/>
		<polygon class="st2" points="1322.94,335.47 1323.95,335.48 1323.92,338.41 1322.93,338.4 		"/>
		<polygon class="st2" points="1324.96,335.5 1325.97,335.52 1325.9,338.43 1324.91,338.42 		"/>
		<polygon class="st2" points="1326.97,335.54 1327.98,335.58 1327.89,338.48 1326.89,338.45 		"/>
		<polygon class="st2" points="1328.99,335.61 1329.99,335.66 1329.87,338.55 1328.88,338.51 		"/>
		<polygon class="st2" points="1331,335.71 1332.01,335.76 1331.85,338.64 1330.86,338.59 		"/>
		<polygon class="st2" points="1333.01,335.82 1334.02,335.88 1333.83,338.75 1332.84,338.69 		"/>
		<polygon class="st2" points="1335.02,335.96 1336.03,336.04 1335.81,338.88 1334.82,338.82 		"/>
		<polygon class="st2" points="1337.03,336.12 1338.04,336.22 1337.79,339.02 1336.8,338.95 		"/>
		<polygon class="st2" points="1339.04,336.31 1340.04,336.42 1339.77,339.19 1338.78,339.1 		"/>
		<polygon class="st2" points="1341.04,336.53 1342.04,336.64 1341.75,339.38 1340.76,339.28 		"/>
		<polygon class="st2" points="1343.04,336.76 1344.04,336.88 1343.72,339.59 1342.73,339.48 		"/>
		<polygon class="st2" points="1345.04,337.01 1346.04,337.15 1345.69,339.82 1344.71,339.7 		"/>
		<polygon class="st2" points="1347.04,337.29 1348.04,337.44 1347.66,340.07 1346.68,339.94 		"/>
		<polygon class="st2" points="1349.03,337.59 1350.03,337.75 1349.63,340.34 1348.65,340.2 		"/>
		<polygon class="st2" points="1351.02,337.91 1352.01,338.08 1351.59,340.64 1350.61,340.49 		"/>
		<polygon class="st2" points="1353.01,338.25 1354,338.43 1353.55,340.96 1352.57,340.8 		"/>
		<polygon class="st2" points="1354.99,338.61 1355.98,338.81 1355.51,341.29 1354.53,341.12 		"/>
		<polygon class="st2" points="1356.96,339.01 1357.95,339.21 1357.47,341.64 1356.49,341.47 		"/>
		<polygon class="st2" points="1358.93,339.42 1359.92,339.64 1359.42,342.02 1358.44,341.83 		"/>
		<polygon class="st2" points="1360.9,339.86 1361.88,340.09 1361.36,342.41 1360.39,342.21 		"/>
		<polygon class="st2" points="1362.86,340.32 1363.84,340.56 1363.31,342.82 1362.34,342.61 		"/>
		<polygon class="st2" points="1364.81,340.8 1365.79,341.05 1365.25,343.26 1364.28,343.04 		"/>
		<polygon class="st2" points="1366.76,341.31 1367.73,341.57 1367.18,343.72 1366.22,343.48 		"/>
		<polygon class="st2" points="1368.7,341.83 1369.67,342.1 1369.11,344.19 1368.15,343.95 		"/>
		<polygon class="st2" points="1370.64,342.38 1371.61,342.66 1371.04,344.69 1370.08,344.44 		"/>
		<polygon class="st2" points="1372.57,342.94 1373.53,343.24 1372.96,345.21 1372,344.95 		"/>
		<polygon class="st2" points="1374.49,343.54 1375.45,343.84 1374.87,345.75 1373.91,345.48 		"/>
		<polygon class="st2" points="1376.41,344.16 1377.36,344.47 1376.78,346.3 1375.83,346.02 		"/>
		<polygon class="st2" points="1378.31,344.8 1379.26,345.12 1378.69,346.88 1377.74,346.59 		"/>
		<polygon class="st2" points="1380.21,345.46 1381.16,345.79 1380.59,347.47 1379.64,347.17 		"/>
		<polygon class="st2" points="1382.1,346.14 1383.05,346.49 1382.48,348.09 1381.53,347.78 		"/>
		<polygon class="st2" points="1383.99,346.84 1384.92,347.2 1384.37,348.73 1383.42,348.41 		"/>
		<polygon class="st2" points="1385.86,347.56 1386.79,347.93 1386.25,349.39 1385.31,349.05 		"/>
		<polygon class="st2" points="1387.73,348.31 1388.66,348.69 1388.12,350.06 1387.18,349.72 		"/>
		<polygon class="st2" points="1389.58,349.08 1390.5,349.48 1389.99,350.75 1389.06,350.4 		"/>
		<polygon class="st2" points="1391.42,349.88 1392.35,350.28 1391.86,351.46 1390.92,351.1 		"/>
		<polygon class="st2" points="1393.27,350.7 1394.18,351.12 1393.72,352.19 1392.79,351.82 		"/>
		<polygon class="st2" points="1395.1,351.54 1396.01,351.97 1395.58,352.94 1394.65,352.56 		"/>
		<polygon class="st2" points="1396.92,352.4 1397.83,352.84 1397.43,353.72 1396.5,353.33 		"/>
		<polygon class="st2" points="1398.73,353.28 1399.63,353.72 1399.26,354.51 1398.34,354.11 		"/>
		<polygon class="st2" points="1400.53,354.18 1401.42,354.63 1401.09,355.32 1400.18,354.91 		"/>
		<polygon class="st2" points="1402.32,355.09 1403.21,355.56 1402.91,356.15 1402,355.74 		"/>
		<polygon class="st2" points="1404.09,356.03 1404.98,356.51 1404.72,357.01 1403.82,356.58 		"/>
		<polygon class="st2" points="1405.86,356.99 1406.73,357.47 1406.52,357.88 1405.62,357.44 		"/>
		<polygon class="st2" points="1407.61,357.97 1408.47,358.47 1408.32,358.76 1407.42,358.31 		"/>
		<polygon class="st2" points="1409.34,358.98 1410.2,359.49 1410.11,359.65 1409.22,359.2 		"/>
		<polygon class="st2" points="1411.06,360 1411.91,360.52 1411.89,360.57 1411,360.11 		"/>
	</g>
</g>
<g>
	<g>
		<polygon class="st2" points="1278.39,249.26 1279.38,249.09 1279.38,249.13 		"/>
		<polygon class="st2" points="1280.36,248.92 1281.35,248.76 1281.37,248.88 1280.38,249 		"/>
		<polygon class="st2" points="1282.34,248.6 1283.33,248.44 1283.35,248.65 1282.36,248.77 		"/>
		<polygon class="st2" points="1284.31,248.29 1285.3,248.14 1285.34,248.44 1284.35,248.54 		"/>
		<polygon class="st2" points="1286.29,247.99 1287.29,247.85 1287.33,248.24 1286.34,248.34 		"/>
		<polygon class="st2" points="1288.28,247.71 1289.27,247.58 1289.32,248.05 1288.33,248.14 		"/>
		<polygon class="st2" points="1290.26,247.45 1291.25,247.33 1291.31,247.87 1290.32,247.96 		"/>
		<polygon class="st2" points="1292.25,247.21 1293.24,247.1 1293.3,247.7 1292.31,247.78 		"/>
		<polygon class="st2" points="1294.24,246.99 1295.23,246.88 1295.29,247.54 1294.3,247.62 		"/>
		<polygon class="st2" points="1296.23,246.77 1297.23,246.67 1297.29,247.4 1296.29,247.47 		"/>
		<polygon class="st2" points="1298.22,246.58 1299.22,246.48 1299.28,247.28 1298.28,247.34 		"/>
		<polygon class="st2" points="1300.22,246.39 1301.21,246.31 1301.27,247.17 1300.28,247.22 		"/>
		<polygon class="st2" points="1302.21,246.22 1303.21,246.15 1303.27,247.07 1302.27,247.12 		"/>
		<polygon class="st2" points="1304.21,246.07 1305.21,246 1305.26,246.99 1304.27,247.03 		"/>
		<polygon class="st2" points="1306.21,245.93 1307.2,245.87 1307.25,246.92 1306.26,246.95 		"/>
		<polygon class="st2" points="1308.2,245.8 1309.2,245.75 1309.24,246.87 1308.25,246.89 		"/>
		<polygon class="st2" points="1310.19,245.69 1311.19,245.64 1311.23,246.83 1310.23,246.85 		"/>
		<polygon class="st2" points="1312.19,245.6 1313.19,245.55 1313.22,246.8 1312.22,246.81 		"/>
		<polygon class="st2" points="1314.19,245.51 1315.19,245.48 1315.21,246.79 1314.21,246.8 		"/>
		<polygon class="st2" points="1316.19,245.45 1317.19,245.42 1317.2,246.8 1316.21,246.79 		"/>
		<polygon class="st2" points="1318.19,245.39 1319.19,245.37 1319.2,246.81 1318.2,246.8 		"/>
		<polygon class="st2" points="1320.19,245.35 1321.2,245.34 1321.19,246.84 1320.19,246.83 		"/>
		<polygon class="st2" points="1322.2,245.33 1323.2,245.33 1323.19,246.88 1322.19,246.86 		"/>
		<polygon class="st2" points="1324.2,245.33 1325.21,245.34 1325.18,246.92 1324.18,246.9 		"/>
		<polygon class="st2" points="1326.21,245.35 1327.21,245.36 1327.17,246.98 1326.18,246.95 		"/>
		<polygon class="st2" points="1328.22,245.38 1329.22,245.4 1329.17,247.06 1328.17,247.02 		"/>
		<polygon class="st2" points="1330.22,245.42 1331.22,245.45 1331.16,247.15 1330.16,247.1 		"/>
		<polygon class="st2" points="1332.23,245.48 1333.23,245.51 1333.15,247.25 1332.15,247.2 		"/>
		<polygon class="st2" points="1334.23,245.55 1335.23,245.59 1335.14,247.37 1334.14,247.31 		"/>
		<polygon class="st2" points="1336.24,245.64 1337.24,245.69 1337.13,247.51 1336.13,247.44 		"/>
		<polygon class="st2" points="1338.24,245.74 1339.24,245.8 1339.12,247.65 1338.12,247.58 		"/>
		<polygon class="st2" points="1340.24,245.86 1341.25,245.92 1341.1,247.82 1340.11,247.73 		"/>
		<polygon class="st2" points="1342.25,245.99 1343.25,246.06 1343.09,247.99 1342.1,247.9 		"/>
		<polygon class="st2" points="1344.25,246.13 1345.25,246.21 1345.07,248.18 1344.08,248.08 		"/>
		<polygon class="st2" points="1346.25,246.29 1347.25,246.38 1347.06,248.39 1346.06,248.28 		"/>
		<polygon class="st2" points="1348.25,246.47 1349.25,246.56 1349.04,248.6 1348.05,248.49 		"/>
		<polygon class="st2" points="1350.25,246.65 1351.25,246.75 1351.01,248.84 1350.03,248.72 		"/>
		<polygon class="st2" points="1352.25,246.86 1353.24,246.96 1352.99,249.08 1352,248.96 		"/>
		<polygon class="st2" points="1354.24,247.07 1355.24,247.19 1354.97,249.35 1353.98,249.21 		"/>
		<polygon class="st2" points="1356.24,247.3 1357.23,247.43 1356.94,249.62 1355.95,249.48 		"/>
		<polygon class="st2" points="1358.23,247.55 1359.23,247.68 1358.91,249.91 1357.93,249.77 		"/>
		<polygon class="st2" points="1360.22,247.81 1361.22,247.95 1360.88,250.22 1359.9,250.06 		"/>
		<polygon class="st2" points="1362.21,248.09 1363.2,248.23 1362.84,250.54 1361.86,250.37 		"/>
		<polygon class="st2" points="1364.2,248.38 1365.19,248.53 1364.81,250.87 1363.83,250.7 		"/>
		<polygon class="st2" points="1366.18,248.68 1367.18,248.84 1366.77,251.22 1365.79,251.04 		"/>
		<polygon class="st2" points="1368.17,249 1369.16,249.16 1368.73,251.58 1367.75,251.4 		"/>
		<polygon class="st2" points="1370.15,249.33 1371.14,249.5 1370.68,251.95 1369.71,251.76 		"/>
		<polygon class="st2" points="1372.13,249.68 1373.12,249.86 1372.64,252.34 1371.66,252.15 		"/>
		<polygon class="st2" points="1374.1,250.05 1375.09,250.24 1374.59,252.74 1373.61,252.54 		"/>
		<polygon class="st2" points="1376.07,250.43 1377.06,250.63 1376.53,253.15 1375.56,252.94 		"/>
		<polygon class="st2" points="1378.04,250.83 1379.03,251.04 1378.48,253.57 1377.51,253.36 		"/>
		<polygon class="st2" points="1380.01,251.25 1380.99,251.46 1380.42,254.01 1379.45,253.79 		"/>
		<polygon class="st2" points="1381.97,251.68 1382.95,251.9 1382.36,254.46 1381.39,254.23 		"/>
		<polygon class="st2" points="1383.93,252.12 1384.91,252.35 1384.3,254.93 1383.33,254.69 		"/>
		<polygon class="st2" points="1385.89,252.58 1386.87,252.81 1386.23,255.41 1385.26,255.16 		"/>
		<polygon class="st2" points="1387.84,253.05 1388.82,253.29 1388.15,255.9 1387.19,255.65 		"/>
		<polygon class="st2" points="1389.79,253.53 1390.77,253.78 1390.08,256.41 1389.12,256.15 		"/>
		<polygon class="st2" points="1391.74,254.03 1392.71,254.29 1392,256.93 1391.04,256.67 		"/>
		<polygon class="st2" points="1393.68,254.55 1394.65,254.81 1393.92,257.47 1392.96,257.2 		"/>
		<polygon class="st2" points="1395.62,255.08 1396.59,255.35 1395.83,258.02 1394.87,257.74 		"/>
		<polygon class="st2" points="1397.56,255.62 1398.52,255.9 1397.74,258.58 1396.78,258.3 		"/>
		<polygon class="st2" points="1399.49,256.18 1400.45,256.46 1399.64,259.16 1398.69,258.87 		"/>
		<polygon class="st2" points="1401.42,256.75 1402.38,257.04 1401.54,259.75 1400.59,259.45 		"/>
		<polygon class="st2" points="1403.34,257.34 1404.3,257.63 1403.43,260.36 1402.49,260.05 		"/>
		<polygon class="st2" points="1405.26,257.94 1406.22,258.24 1405.33,260.97 1404.38,260.66 		"/>
		<polygon class="st2" points="1407.17,258.55 1408.13,258.87 1407.21,261.6 1406.27,261.29 		"/>
		<polygon class="st2" points="1409.08,259.19 1410.03,259.51 1409.1,262.24 1408.16,261.92 		"/>
		<polygon class="st2" points="1410.98,259.84 1411.93,260.17 1410.98,262.9 1410.04,262.57 		"/>
		<polygon class="st2" points="1412.88,260.5 1413.83,260.84 1412.85,263.56 1411.91,263.23 		"/>
		<polygon class="st2" points="1414.78,261.17 1415.72,261.52 1414.72,264.25 1413.79,263.9 		"/>
		<polygon class="st2" points="1416.66,261.86 1417.61,262.21 1416.58,264.94 1415.65,264.59 		"/>
		<polygon class="st2" points="1418.55,262.57 1419.49,262.93 1418.44,265.65 1417.51,265.29 		"/>
		<polygon class="st2" points="1420.43,263.29 1421.36,263.65 1420.29,266.37 1419.37,266.01 		"/>
		<polygon class="st2" points="1422.3,264.02 1423.23,264.39 1422.14,267.11 1421.22,266.74 		"/>
		<polygon class="st2" points="1424.17,264.76 1425.1,265.14 1423.99,267.86 1423.06,267.48 		"/>
		<polygon class="st2" points="1426.03,265.52 1426.96,265.9 1425.82,268.62 1424.9,268.24 		"/>
		<polygon class="st2" points="1427.89,266.29 1428.81,266.68 1427.65,269.4 1426.74,269.01 		"/>
		<polygon class="st2" points="1429.74,267.08 1430.66,267.48 1429.48,270.19 1428.57,269.79 		"/>
		<polygon class="st2" points="1431.58,267.88 1432.5,268.28 1431.3,270.99 1430.39,270.59 		"/>
		<polygon class="st2" points="1433.42,268.69 1434.34,269.1 1433.11,271.81 1432.21,271.4 		"/>
		<polygon class="st2" points="1435.25,269.51 1436.17,269.93 1434.92,272.64 1434.02,272.22 		"/>
		<polygon class="st2" points="1437.08,270.35 1437.99,270.78 1436.72,273.48 1435.82,273.06 		"/>
		<polygon class="st2" points="1438.9,271.21 1439.81,271.64 1438.52,274.34 1437.62,273.91 		"/>
		<polygon class="st2" points="1440.72,272.07 1441.62,272.51 1440.31,275.21 1439.41,274.77 		"/>
		<polygon class="st2" points="1442.53,272.96 1443.43,273.4 1442.09,276.08 1441.2,275.64 		"/>
		<polygon class="st2" points="1444.32,273.85 1445.22,274.31 1443.87,276.97 1442.98,276.53 		"/>
		<polygon class="st2" points="1446.12,274.76 1447.01,275.23 1445.65,277.87 1444.76,277.42 		"/>
		<polygon class="st2" points="1447.9,275.69 1448.79,276.16 1447.41,278.79 1446.53,278.33 		"/>
		<polygon class="st2" points="1449.68,276.63 1450.57,277.1 1449.17,279.72 1448.29,279.25 		"/>
		<polygon class="st2" points="1451.45,277.58 1452.34,278.06 1450.92,280.66 1450.05,280.18 		"/>
		<polygon class="st2" points="1453.22,278.54 1454.1,279.03 1452.67,281.61 1451.8,281.13 		"/>
		<polygon class="st2" points="1454.98,279.52 1455.85,280.01 1454.41,282.58 1453.54,282.09 		"/>
		<polygon class="st2" points="1456.73,280.51 1457.61,281.01 1456.15,283.56 1455.28,283.07 		"/>
		<polygon class="st2" points="1458.48,281.51 1459.36,282.02 1457.88,284.56 1457.02,284.06 		"/>
		<polygon class="st2" points="1460.23,282.53 1461.1,283.05 1459.61,285.56 1458.75,285.06 		"/>
		<polygon class="st2" points="1461.96,283.56 1462.83,284.08 1461.32,286.58 1460.47,286.07 		"/>
		<polygon class="st2" points="1463.69,284.61 1464.55,285.13 1463.03,287.62 1462.18,287.1 		"/>
		<polygon class="st2" points="1465.41,285.66 1466.27,286.19 1464.73,288.66 1463.88,288.14 		"/>
		<polygon class="st2" points="1467.12,286.73 1467.97,287.27 1466.43,289.72 1465.58,289.19 		"/>
		<polygon class="st2" points="1468.82,287.81 1469.67,288.35 1468.11,290.79 1467.27,290.25 		"/>
		<polygon class="st2" points="1470.52,288.9 1471.36,289.45 1469.79,291.87 1468.95,291.32 		"/>
		<polygon class="st2" points="1472.2,290 1473.04,290.56 1471.45,292.96 1470.62,292.41 		"/>
		<polygon class="st2" points="1473.88,291.12 1474.72,291.68 1473.11,294.06 1472.28,293.51 		"/>
		<polygon class="st2" points="1475.55,292.25 1476.38,292.82 1474.77,295.17 1473.94,294.62 		"/>
		<polygon class="st2" points="1477.2,293.4 1478.03,293.97 1476.42,296.3 1475.59,295.73 		"/>
		<polygon class="st2" points="1478.85,294.55 1479.67,295.13 1478.05,297.43 1477.24,296.86 		"/>
		<polygon class="st2" points="1480.49,295.72 1481.31,296.31 1479.68,298.58 1478.87,298 		"/>
		<polygon class="st2" points="1482.12,296.9 1482.93,297.49 1481.3,299.73 1480.49,299.15 		"/>
		<polygon class="st2" points="1483.74,298.09 1484.55,298.69 1482.92,300.9 1482.11,300.32 		"/>
		<polygon class="st2" points="1485.35,299.29 1486.15,299.9 1484.52,302.08 1483.72,301.49 		"/>
		<polygon class="st2" points="1486.95,300.51 1487.75,301.12 1486.11,303.27 1485.32,302.68 		"/>
		<polygon class="st2" points="1488.55,301.73 1489.34,302.35 1487.7,304.48 1486.91,303.87 		"/>
		<polygon class="st2" points="1490.13,302.97 1490.92,303.59 1489.28,305.69 1488.49,305.08 		"/>
		<polygon class="st2" points="1491.71,304.22 1492.49,304.85 1490.84,306.92 1490.06,306.3 		"/>
		<polygon class="st2" points="1493.27,305.48 1494.05,306.11 1492.4,308.15 1491.62,307.53 		"/>
		<polygon class="st2" points="1494.83,306.75 1495.6,307.39 1493.95,309.4 1493.18,308.77 		"/>
		<polygon class="st2" points="1496.38,308.03 1497.14,308.67 1495.49,310.66 1494.72,310.03 		"/>
		<polygon class="st2" points="1497.91,309.32 1498.68,309.97 1497.02,311.93 1496.26,311.29 		"/>
		<polygon class="st2" points="1499.44,310.62 1500.2,311.28 1498.54,313.21 1497.79,312.57 		"/>
		<polygon class="st2" points="1500.96,311.93 1501.71,312.6 1500.06,314.5 1499.3,313.85 		"/>
		<polygon class="st2" points="1502.46,313.26 1503.21,313.93 1501.57,315.79 1500.82,315.14 		"/>
		<polygon class="st2" points="1503.95,314.61 1504.69,315.28 1503.07,317.1 1502.32,316.44 		"/>
		<polygon class="st2" points="1505.43,315.96 1506.17,316.64 1504.56,318.41 1503.81,317.75 		"/>
		<polygon class="st2" points="1506.9,317.32 1507.64,318.01 1506.04,319.74 1505.3,319.07 		"/>
		<polygon class="st2" points="1508.36,318.69 1509.09,319.38 1507.51,321.08 1506.78,320.41 		"/>
		<polygon class="st2" points="1509.82,320.08 1510.54,320.77 1508.97,322.42 1508.24,321.75 		"/>
		<polygon class="st2" points="1511.26,321.47 1511.97,322.17 1510.42,323.78 1509.7,323.1 		"/>
		<polygon class="st2" points="1512.69,322.87 1513.4,323.58 1511.86,325.15 1511.14,324.47 		"/>
		<polygon class="st2" points="1514.11,324.29 1514.81,325 1513.3,326.53 1512.58,325.84 		"/>
		<polygon class="st2" points="1515.52,325.71 1516.22,326.43 1514.72,327.92 1514.01,327.22 		"/>
		<polygon class="st2" points="1516.92,327.14 1517.61,327.87 1516.13,329.32 1515.43,328.62 		"/>
		<polygon class="st2" points="1518.31,328.59 1519,329.31 1517.53,330.73 1516.83,330.02 		"/>
		<polygon class="st2" points="1519.68,330.04 1520.37,330.77 1518.92,332.15 1518.23,331.44 		"/>
		<polygon class="st2" points="1521.05,331.5 1521.73,332.24 1520.3,333.58 1519.61,332.86 		"/>
		<polygon class="st2" points="1522.41,332.98 1523.08,333.72 1521.68,335.02 1520.99,334.3 		"/>
		<polygon class="st2" points="1523.75,334.46 1524.42,335.2 1523.04,336.47 1522.36,335.74 		"/>
		<polygon class="st2" points="1525.09,335.95 1525.75,336.7 1524.39,337.93 1523.71,337.2 		"/>
		<polygon class="st2" points="1526.41,337.45 1527.07,338.21 1525.73,339.4 1525.06,338.66 		"/>
		<polygon class="st2" points="1527.73,338.96 1528.38,339.72 1527.06,340.88 1526.39,340.14 		"/>
		<polygon class="st2" points="1529.03,340.48 1529.68,341.25 1528.37,342.37 1527.72,341.62 		"/>
		<polygon class="st2" points="1530.32,342.01 1530.96,342.78 1529.68,343.87 1529.03,343.12 		"/>
		<polygon class="st2" points="1531.6,343.55 1532.24,344.32 1530.98,345.37 1530.33,344.62 		"/>
		<polygon class="st2" points="1532.87,345.1 1533.5,345.87 1532.27,346.89 1531.62,346.13 		"/>
		<polygon class="st2" points="1534.13,346.65 1534.75,347.43 1533.54,348.42 1532.91,347.65 		"/>
		<polygon class="st2" points="1535.38,348.22 1535.99,349 1534.81,349.95 1534.18,349.19 		"/>
		<polygon class="st2" points="1536.61,349.79 1537.22,350.59 1536.06,351.5 1535.43,350.73 		"/>
		<polygon class="st2" points="1537.82,351.38 1538.43,352.18 1537.32,353.04 1536.69,352.27 		"/>
		<polygon class="st2" points="1539.03,352.98 1539.62,353.78 1538.56,354.6 1537.94,353.82 		"/>
		<polygon class="st2" points="1540.22,354.59 1540.81,355.4 1539.79,356.16 1539.18,355.38 		"/>
		<polygon class="st2" points="1541.4,356.21 1541.98,357.02 1541.01,357.74 1540.4,356.95 		"/>
		<polygon class="st2" points="1542.56,357.83 1543.14,358.65 1542.22,359.32 1541.62,358.53 		"/>
		<polygon class="st2" points="1543.72,359.46 1544.29,360.28 1543.42,360.91 1542.82,360.12 		"/>
		<polygon class="st2" points="1544.86,361.1 1545.43,361.93 1544.6,362.52 1544.01,361.71 		"/>
		<polygon class="st2" points="1545.99,362.75 1546.55,363.58 1545.78,364.13 1545.19,363.32 		"/>
		<polygon class="st2" points="1547.11,364.41 1547.67,365.24 1546.94,365.75 1546.36,364.93 		"/>
		<polygon class="st2" points="1548.22,366.08 1548.77,366.91 1548.09,367.37 1547.52,366.56 		"/>
		<polygon class="st2" points="1549.32,367.75 1549.86,368.59 1549.23,369.01 1548.66,368.19 		"/>
		<polygon class="st2" points="1550.4,369.43 1550.94,370.28 1550.36,370.65 1549.8,369.83 		"/>
		<polygon class="st2" points="1551.47,371.12 1552,371.97 1551.48,372.31 1550.92,371.48 		"/>
		<polygon class="st2" points="1552.53,372.82 1553.05,373.67 1552.58,373.97 1552.03,373.14 		"/>
		<polygon class="st2" points="1553.58,374.52 1554.09,375.38 1553.67,375.64 1553.13,374.8 		"/>
		<polygon class="st2" points="1554.61,376.24 1555.12,377.1 1554.76,377.32 1554.22,376.48 		"/>
		<polygon class="st2" points="1555.62,377.96 1556.12,378.83 1555.84,379 1555.3,378.16 		"/>
		<polygon class="st2" points="1556.62,379.69 1557.12,380.56 1556.91,380.69 1556.38,379.84 		"/>
		<polygon class="st2" points="1557.61,381.43 1558.1,382.31 1557.96,382.38 1557.44,381.53 		"/>
		<polygon class="st2" points="1558.58,383.18 1559.06,384.06 1559.01,384.09 1558.49,383.24 		"/>
		<polygon class="st2" points="1559.54,384.93 1559.88,385.55 1559.52,384.95 		"/>
	</g>
</g>
<g>
	<g>
		<polygon class="st2" points="1543.62,225.67 1544.43,226.25 1544.4,226.29 		"/>
		<polygon class="st2" points="1545.23,226.84 1546.04,227.43 1545.96,227.53 1545.18,226.91 		"/>
		<polygon class="st2" points="1546.85,228.03 1547.65,228.62 1547.52,228.79 1546.74,228.16 		"/>
		<polygon class="st2" points="1548.45,229.22 1549.25,229.82 1549.07,230.05 1548.3,229.42 		"/>
		<polygon class="st2" points="1550.05,230.42 1550.85,231.03 1550.61,231.32 1549.84,230.69 		"/>
		<polygon class="st2" points="1551.64,231.63 1552.44,232.24 1552.15,232.6 1551.38,231.96 		"/>
		<polygon class="st2" points="1553.23,232.85 1554.01,233.47 1553.68,233.88 1552.91,233.24 		"/>
		<polygon class="st2" points="1554.8,234.09 1555.58,234.71 1555.21,235.17 1554.45,234.53 		"/>
		<polygon class="st2" points="1556.37,235.34 1557.15,235.96 1556.73,236.47 1555.97,235.82 		"/>
		<polygon class="st2" points="1557.93,236.59 1558.7,237.22 1558.24,237.77 1557.49,237.12 		"/>
		<polygon class="st2" points="1559.48,237.85 1560.26,238.49 1559.75,239.08 1559,238.42 		"/>
		<polygon class="st2" points="1561.03,239.12 1561.8,239.76 1561.25,240.4 1560.5,239.74 		"/>
		<polygon class="st2" points="1562.57,240.4 1563.34,241.04 1562.74,241.73 1562,241.06 		"/>
		<polygon class="st2" points="1564.1,241.69 1564.86,242.33 1564.23,243.06 1563.48,242.39 		"/>
		<polygon class="st2" points="1565.63,242.98 1566.39,243.63 1565.7,244.41 1564.97,243.73 		"/>
		<polygon class="st2" points="1567.15,244.29 1567.9,244.94 1567.17,245.76 1566.44,245.08 		"/>
		<polygon class="st2" points="1568.66,245.6 1569.41,246.26 1568.64,247.12 1567.91,246.44 		"/>
		<polygon class="st2" points="1570.16,246.92 1570.91,247.58 1570.09,248.48 1569.36,247.8 		"/>
		<polygon class="st2" points="1571.66,248.25 1572.41,248.92 1571.54,249.86 1570.82,249.17 		"/>
		<polygon class="st2" points="1573.15,249.58 1573.9,250.26 1572.98,251.24 1572.26,250.55 		"/>
		<polygon class="st2" points="1574.64,250.93 1575.38,251.6 1574.41,252.63 1573.69,251.93 		"/>
		<polygon class="st2" points="1576.12,252.28 1576.85,252.96 1575.83,254.03 1575.12,253.33 		"/>
		<polygon class="st2" points="1577.59,253.64 1578.31,254.33 1577.26,255.43 1576.54,254.73 		"/>
		<polygon class="st2" points="1579.04,255.02 1579.76,255.71 1578.67,256.83 1577.97,256.13 		"/>
		<polygon class="st2" points="1580.49,256.41 1581.21,257.1 1580.08,258.24 1579.38,257.53 		"/>
		<polygon class="st2" points="1581.93,257.8 1582.64,258.5 1581.49,259.66 1580.79,258.95 		"/>
		<polygon class="st2" points="1583.36,259.2 1584.07,259.91 1582.88,261.09 1582.19,260.37 		"/>
		<polygon class="st2" points="1584.78,260.61 1585.49,261.32 1584.27,262.52 1583.58,261.8 		"/>
		<polygon class="st2" points="1586.2,262.03 1586.91,262.74 1585.65,263.96 1584.96,263.24 		"/>
		<polygon class="st2" points="1587.61,263.45 1588.31,264.17 1587.02,265.41 1586.33,264.68 		"/>
		<polygon class="st2" points="1589.01,264.88 1589.71,265.6 1588.38,266.86 1587.7,266.13 		"/>
		<polygon class="st2" points="1590.41,266.32 1591.1,267.05 1589.74,268.33 1589.06,267.59 		"/>
		<polygon class="st2" points="1591.79,267.77 1592.48,268.5 1591.09,269.79 1590.41,269.06 		"/>
		<polygon class="st2" points="1593.17,269.22 1593.86,269.96 1592.42,271.27 1591.76,270.53 		"/>
		<polygon class="st2" points="1594.54,270.69 1595.22,271.42 1593.76,272.76 1593.09,272.01 		"/>
		<polygon class="st2" points="1595.9,272.16 1596.58,272.89 1595.08,274.25 1594.42,273.5 		"/>
		<polygon class="st2" points="1597.26,273.63 1597.93,274.37 1596.39,275.74 1595.74,274.99 		"/>
		<polygon class="st2" points="1598.61,275.12 1599.28,275.86 1597.7,277.25 1597.05,276.5 		"/>
		<polygon class="st2" points="1599.95,276.61 1600.61,277.36 1599,278.76 1598.35,278 		"/>
		<polygon class="st2" points="1601.28,278.11 1601.94,278.86 1600.29,280.28 1599.65,279.52 		"/>
		<polygon class="st2" points="1602.6,279.61 1603.26,280.37 1601.57,281.81 1600.93,281.04 		"/>
		<polygon class="st2" points="1603.91,281.13 1604.57,281.89 1602.85,283.34 1602.21,282.57 		"/>
		<polygon class="st2" points="1605.22,282.65 1605.87,283.41 1604.11,284.88 1603.48,284.11 		"/>
		<polygon class="st2" points="1606.52,284.18 1607.17,284.94 1605.37,286.42 1604.74,285.65 		"/>
		<polygon class="st2" points="1607.81,285.71 1608.45,286.48 1606.62,287.98 1606,287.2 		"/>
		<polygon class="st2" points="1609.09,287.25 1609.73,288.02 1607.86,289.54 1607.24,288.76 		"/>
		<polygon class="st2" points="1610.37,288.8 1611,289.58 1609.09,291.1 1608.48,290.32 		"/>
		<polygon class="st2" points="1611.63,290.36 1612.26,291.14 1610.31,292.67 1609.7,291.89 		"/>
		<polygon class="st2" points="1612.89,291.92 1613.52,292.7 1611.53,294.25 1610.92,293.46 		"/>
		<polygon class="st2" points="1614.14,293.49 1614.76,294.28 1612.74,295.83 1612.14,295.04 		"/>
		<polygon class="st2" points="1615.37,295.07 1615.99,295.86 1613.95,297.42 1613.34,296.63 		"/>
		<polygon class="st2" points="1616.6,296.66 1617.21,297.45 1615.14,299.01 1614.55,298.22 		"/>
		<polygon class="st2" points="1617.81,298.25 1618.42,299.05 1616.33,300.61 1615.74,299.81 		"/>
		<polygon class="st2" points="1619.02,299.85 1619.62,300.66 1617.51,302.22 1616.92,301.41 		"/>
		<polygon class="st2" points="1620.22,301.46 1620.82,302.27 1618.68,303.83 1618.09,303.02 		"/>
		<polygon class="st2" points="1621.41,303.08 1622,303.89 1619.84,305.45 1619.26,304.64 		"/>
		<polygon class="st2" points="1622.59,304.7 1623.18,305.51 1620.99,307.07 1620.42,306.26 		"/>
		<polygon class="st2" points="1623.76,306.33 1624.35,307.14 1622.14,308.7 1621.57,307.88 		"/>
		<polygon class="st2" points="1624.93,307.96 1625.51,308.78 1623.27,310.34 1622.71,309.52 		"/>
		<polygon class="st2" points="1626.08,309.6 1626.66,310.42 1624.4,311.98 1623.84,311.16 		"/>
		<polygon class="st2" points="1627.23,311.25 1627.8,312.07 1625.52,313.63 1624.96,312.8 		"/>
		<polygon class="st2" points="1628.37,312.9 1628.93,313.73 1626.62,315.28 1626.07,314.45 		"/>
		<polygon class="st2" points="1629.5,314.56 1630.06,315.39 1627.72,316.94 1627.17,316.11 		"/>
		<polygon class="st2" points="1630.62,316.22 1631.17,317.06 1628.81,318.61 1628.27,317.77 		"/>
		<polygon class="st2" points="1631.73,317.89 1632.28,318.73 1629.89,320.28 1629.36,319.44 		"/>
		<polygon class="st2" points="1632.83,319.57 1633.38,320.41 1630.97,321.96 1630.43,321.12 		"/>
		<polygon class="st2" points="1633.92,321.25 1634.46,322.1 1632.03,323.64 1631.5,322.8 		"/>
		<polygon class="st2" points="1635,322.94 1635.53,323.79 1633.09,325.32 1632.56,324.48 		"/>
		<polygon class="st2" points="1636.07,324.64 1636.6,325.49 1634.14,327.01 1633.62,326.17 		"/>
		<polygon class="st2" points="1637.13,326.35 1637.65,327.2 1635.18,328.71 1634.66,327.86 		"/>
		<polygon class="st2" points="1638.18,328.06 1638.7,328.91 1636.22,330.41 1635.7,329.56 		"/>
		
			<rect x="1636.78" y="330.45" transform="matrix(0.857 -0.5153 0.5153 0.857 63.7256 891.5363)" class="st2" width="2.91" height="1"/>
		<polygon class="st2" points="1640.25,331.49 1640.76,332.35 1638.25,333.84 1637.75,332.98 		"/>
		<polygon class="st2" points="1641.27,333.22 1641.78,334.08 1639.26,335.55 1638.75,334.69 		"/>
		<polygon class="st2" points="1642.28,334.95 1642.79,335.82 1640.25,337.28 1639.75,336.42 		"/>
		<polygon class="st2" points="1643.29,336.69 1643.79,337.56 1641.24,339.01 1640.74,338.14 		"/>
		<polygon class="st2" points="1644.28,338.43 1644.78,339.3 1642.21,340.74 1641.72,339.88 		"/>
		<polygon class="st2" points="1645.27,340.18 1645.76,341.06 1643.18,342.48 1642.7,341.61 		"/>
		<polygon class="st2" points="1646.24,341.93 1646.73,342.81 1644.13,344.23 1643.66,343.36 		"/>
		<polygon class="st2" points="1647.21,343.69 1647.69,344.57 1645.08,345.98 1644.61,345.1 		"/>
		<polygon class="st2" points="1648.16,345.46 1648.64,346.34 1646.02,347.74 1645.55,346.86 		"/>
		<polygon class="st2" points="1649.11,347.23 1649.58,348.11 1646.95,349.5 1646.49,348.62 		"/>
		<polygon class="st2" points="1650.05,349 1650.51,349.89 1647.87,351.26 1647.41,350.38 		"/>
		<polygon class="st2" points="1650.97,350.78 1651.43,351.67 1648.78,353.03 1648.32,352.15 		"/>
		<polygon class="st2" points="1651.89,352.56 1652.35,353.46 1649.68,354.81 1649.23,353.92 		"/>
		<polygon class="st2" points="1652.8,354.35 1653.25,355.25 1650.57,356.59 1650.12,355.7 		"/>
		<polygon class="st2" points="1653.7,356.15 1654.14,357.05 1651.45,358.37 1651.01,357.48 		"/>
		<polygon class="st2" points="1654.58,357.95 1655.02,358.86 1652.33,360.16 1651.89,359.26 		"/>
		<polygon class="st2" points="1655.45,359.76 1655.88,360.66 1653.19,361.95 1652.76,361.05 		"/>
		<polygon class="st2" points="1656.31,361.57 1656.74,362.48 1654.05,363.75 1653.62,362.85 		"/>
		<polygon class="st2" points="1657.17,363.39 1657.59,364.3 1654.9,365.55 1654.48,364.65 		"/>
		<polygon class="st2" points="1658.01,365.21 1658.43,366.12 1655.74,367.35 1655.32,366.45 		"/>
		<polygon class="st2" points="1658.84,367.03 1659.26,367.95 1656.56,369.17 1656.15,368.26 		"/>
		<polygon class="st2" points="1659.67,368.86 1660.07,369.78 1657.38,370.98 1656.97,370.07 		"/>
		<polygon class="st2" points="1660.48,370.7 1660.88,371.62 1658.19,372.8 1657.79,371.89 		"/>
		<polygon class="st2" points="1661.28,372.54 1661.68,373.46 1658.99,374.62 1658.59,373.71 		"/>
		<polygon class="st2" points="1662.08,374.38 1662.47,375.3 1659.77,376.45 1659.38,375.54 		"/>
		<polygon class="st2" points="1662.86,376.23 1663.25,377.15 1660.55,378.28 1660.16,377.37 		"/>
		<polygon class="st2" points="1663.63,378.08 1664.01,379.01 1661.32,380.12 1660.94,379.2 		"/>
		<polygon class="st2" points="1664.39,379.94 1664.77,380.87 1662.08,381.96 1661.7,381.04 		"/>
		<polygon class="st2" points="1665.15,381.8 1665.52,382.73 1662.83,383.81 1662.45,382.88 		"/>
		<polygon class="st2" points="1665.89,383.66 1666.26,384.6 1663.56,385.66 1663.2,384.73 		"/>
		
			<rect x="1664.01" y="386.02" transform="matrix(0.9325 -0.3612 0.3612 0.9325 -27.1646 627.7238)" class="st2" width="2.89" height="1"/>
		<polygon class="st2" points="1667.34,387.4 1667.7,388.34 1665.01,389.37 1664.65,388.44 		"/>
		<polygon class="st2" points="1668.06,389.28 1668.41,390.22 1665.72,391.23 1665.36,390.3 		"/>
		<polygon class="st2" points="1668.76,391.16 1669.1,392.1 1666.42,393.09 1666.07,392.16 		"/>
		<polygon class="st2" points="1669.44,393.04 1669.78,393.99 1667.11,394.96 1666.76,394.02 		"/>
		<polygon class="st2" points="1670.12,394.93 1670.45,395.88 1667.79,396.83 1667.45,395.89 		"/>
		<polygon class="st2" points="1670.78,396.83 1671.11,397.78 1668.47,398.7 1668.13,397.76 		"/>
		<polygon class="st2" points="1671.44,398.72 1671.76,399.67 1669.13,400.58 1668.8,399.64 		"/>
		<polygon class="st2" points="1672.08,400.62 1672.4,401.58 1669.78,402.46 1669.46,401.52 		"/>
		<polygon class="st2" points="1672.71,402.53 1673.03,403.48 1670.42,404.35 1670.1,403.4 		"/>
		<polygon class="st2" points="1673.34,404.44 1673.64,405.39 1671.06,406.24 1670.74,405.29 		"/>
		<polygon class="st2" points="1673.95,406.35 1674.25,407.3 1671.68,408.13 1671.37,407.18 		"/>
		<polygon class="st2" points="1674.55,408.26 1674.85,409.22 1672.29,410.02 1671.98,409.07 		"/>
		<polygon class="st2" points="1675.14,410.18 1675.44,411.14 1672.89,411.92 1672.59,410.97 		"/>
		<polygon class="st2" points="1675.72,412.1 1676.01,413.06 1673.48,413.82 1673.19,412.87 		"/>
		<polygon class="st2" points="1676.3,414.02 1676.58,414.98 1674.06,415.73 1673.77,414.78 		"/>
		<polygon class="st2" points="1676.86,415.95 1677.13,416.91 1674.63,417.64 1674.35,416.68 		"/>
		<polygon class="st2" points="1677.4,417.88 1677.68,418.84 1675.19,419.55 1674.91,418.59 		"/>
		<polygon class="st2" points="1677.94,419.81 1678.21,420.78 1675.74,421.46 1675.47,420.51 		"/>
		<polygon class="st2" points="1678.47,421.75 1678.73,422.71 1676.28,423.38 1676.01,422.42 		"/>
		<polygon class="st2" points="1678.99,423.68 1679.24,424.65 1676.81,425.3 1676.54,424.34 		"/>
		<polygon class="st2" points="1679.49,425.63 1679.73,426.6 1677.33,427.22 1677.07,426.26 		"/>
		<polygon class="st2" points="1679.98,427.57 1680.22,428.55 1677.85,429.15 1677.59,428.19 		"/>
		<polygon class="st2" points="1680.45,429.52 1680.69,430.5 1678.36,431.08 1678.11,430.11 		"/>
		<polygon class="st2" points="1680.92,431.47 1681.15,432.45 1678.85,433.01 1678.61,432.04 		"/>
		<polygon class="st2" points="1681.38,433.42 1681.6,434.4 1679.34,434.94 1679.1,433.97 		"/>
		<polygon class="st2" points="1681.82,435.38 1682.04,436.36 1679.81,436.88 1679.58,435.91 		"/>
		<polygon class="st2" points="1682.25,437.34 1682.47,438.32 1680.28,438.81 1680.04,437.84 		"/>
		<polygon class="st2" points="1682.68,439.3 1682.89,440.28 1680.73,440.76 1680.5,439.78 		"/>
		<polygon class="st2" points="1683.09,441.26 1683.29,442.24 1681.17,442.7 1680.95,441.73 		"/>
		<polygon class="st2" points="1683.49,443.23 1683.69,444.21 1681.6,444.65 1681.39,443.67 		"/>
		<polygon class="st2" points="1683.88,445.19 1684.08,446.18 1682.02,446.59 1681.81,445.62 		"/>
		<polygon class="st2" points="1684.26,447.16 1684.45,448.15 1682.44,448.55 1682.23,447.57 		"/>
		<polygon class="st2" points="1684.63,449.13 1684.81,450.12 1682.84,450.5 1682.64,449.52 		"/>
		<polygon class="st2" points="1684.99,451.11 1685.17,452.09 1683.22,452.45 1683.03,451.48 		"/>
		<polygon class="st2" points="1685.34,453.08 1685.51,454.07 1683.6,454.41 1683.42,453.43 		"/>
		<polygon class="st2" points="1685.68,455.06 1685.84,456.04 1683.97,456.37 1683.79,455.39 		"/>
		<polygon class="st2" points="1686.01,457.03 1686.16,458.02 1684.33,458.33 1684.15,457.35 		"/>
		<polygon class="st2" points="1686.32,459.01 1686.48,460 1684.68,460.3 1684.5,459.32 		"/>
		<polygon class="st2" points="1686.63,460.99 1686.77,461.99 1685.01,462.26 1684.85,461.28 		"/>
		<polygon class="st2" points="1686.92,462.98 1687.06,463.97 1685.34,464.23 1685.18,463.25 		"/>
		<polygon class="st2" points="1687.2,464.96 1687.34,465.95 1685.65,466.2 1685.5,465.22 		"/>
		<polygon class="st2" points="1687.48,466.95 1687.61,467.94 1685.96,468.17 1685.81,467.19 		"/>
		<polygon class="st2" points="1687.74,468.93 1687.87,469.93 1686.25,470.15 1686.11,469.16 		"/>
		<polygon class="st2" points="1687.99,470.92 1688.11,471.92 1686.54,472.12 1686.4,471.14 		"/>
		<polygon class="st2" points="1688.23,472.91 1688.35,473.91 1686.81,474.1 1686.67,473.11 		"/>
		<polygon class="st2" points="1688.46,474.9 1688.57,475.9 1687.07,476.08 1686.94,475.09 		"/>
		<polygon class="st2" points="1688.68,476.9 1688.78,477.89 1687.33,478.06 1687.2,477.07 		"/>
		<polygon class="st2" points="1688.87,478.89 1688.97,479.89 1687.58,480.04 1687.46,479.05 		"/>
		<polygon class="st2" points="1689.06,480.89 1689.15,481.88 1687.82,482.02 1687.7,481.03 		"/>
		<polygon class="st2" points="1689.23,482.88 1689.31,483.88 1688.05,484 1687.94,483.01 		"/>
		<polygon class="st2" points="1689.4,484.88 1689.47,485.88 1688.27,485.99 1688.17,484.99 		"/>
		<polygon class="st2" points="1689.55,486.88 1689.62,487.87 1688.48,487.97 1688.38,486.98 		"/>
		<polygon class="st2" points="1689.69,488.87 1689.76,489.87 1688.68,489.96 1688.58,488.97 		"/>
		<polygon class="st2" points="1689.82,490.87 1689.88,491.87 1688.87,491.95 1688.78,490.95 		"/>
		<polygon class="st2" points="1689.94,492.87 1690,493.87 1689.05,493.94 1688.96,492.94 		"/>
		<polygon class="st2" points="1690.05,494.87 1690.1,495.87 1689.22,495.93 1689.13,494.93 		"/>
		<polygon class="st2" points="1690.15,496.87 1690.19,497.87 1689.37,497.92 1689.3,496.92 		"/>
		<polygon class="st2" points="1690.24,498.87 1690.28,499.87 1689.52,499.91 1689.45,498.92 		"/>
		<polygon class="st2" points="1690.31,500.87 1690.35,501.87 1689.65,501.91 1689.59,500.91 		"/>
		<polygon class="st2" points="1690.38,502.87 1690.41,503.86 1689.78,503.89 1689.72,502.9 		"/>
		<polygon class="st2" points="1690.44,504.86 1690.46,505.86 1689.89,505.88 1689.83,504.89 		"/>
		<polygon class="st2" points="1690.48,506.85 1690.5,507.85 1689.99,507.87 1689.94,506.87 		"/>
		<polygon class="st2" points="1690.51,508.85 1690.52,509.85 1690.09,509.86 1690.04,508.86 		"/>
		<polygon class="st2" points="1690.53,510.84 1690.53,511.84 1690.18,511.85 1690.14,510.85 		"/>
		<polygon class="st2" points="1690.53,512.84 1690.53,513.84 1690.26,513.84 1690.22,512.85 		"/>
		<polygon class="st2" points="1690.52,514.84 1690.51,515.84 1690.33,515.84 1690.3,514.84 		"/>
		<polygon class="st2" points="1690.5,516.84 1690.49,517.84 1690.4,517.84 1690.37,516.84 		"/>
		<polygon class="st2" points="1690.47,518.84 1690.46,519.84 1690.45,519.84 1690.42,518.84 		"/>
	</g>
</g>
<g>
	<g>
		<polygon class="st2" points="1772.21,445.86 1772.39,446.84 1772.35,446.85 		"/>
		<polygon class="st2" points="1772.57,447.82 1772.75,448.81 1772.63,448.83 1772.49,447.84 		"/>
		<polygon class="st2" points="1772.93,449.79 1773.11,450.78 1772.89,450.81 1772.76,449.82 		"/>
		<polygon class="st2" points="1773.28,451.76 1773.45,452.75 1773.15,452.79 1773.02,451.8 		"/>
		<polygon class="st2" points="1773.62,453.73 1773.79,454.72 1773.4,454.78 1773.28,453.78 		"/>
		<polygon class="st2" points="1773.95,455.71 1774.11,456.69 1773.64,456.76 1773.52,455.77 		"/>
		<polygon class="st2" points="1774.27,457.68 1774.42,458.67 1773.88,458.74 1773.76,457.75 		"/>
		<polygon class="st2" points="1774.57,459.66 1774.72,460.65 1774.12,460.73 1774,459.74 		"/>
		<polygon class="st2" points="1774.86,461.64 1775.01,462.63 1774.34,462.72 1774.23,461.72 		"/>
		<polygon class="st2" points="1775.15,463.62 1775.29,464.61 1774.56,464.7 1774.45,463.71 		"/>
		<polygon class="st2" points="1775.43,465.6 1775.56,466.6 1774.77,466.69 1774.67,465.7 		"/>
		<polygon class="st2" points="1775.69,467.59 1775.82,468.58 1774.97,468.68 1774.87,467.68 		"/>
		<polygon class="st2" points="1775.95,469.57 1776.08,470.57 1775.16,470.67 1775.06,469.67 		"/>
		<polygon class="st2" points="1776.2,471.56 1776.33,472.55 1775.34,472.66 1775.25,471.66 		"/>
		<polygon class="st2" points="1776.45,473.55 1776.56,474.54 1775.51,474.65 1775.43,473.65 		"/>
		<polygon class="st2" points="1776.68,475.53 1776.79,476.53 1775.68,476.64 1775.6,475.64 		"/>
		<polygon class="st2" points="1776.91,477.52 1777.02,478.52 1775.84,478.63 1775.76,477.63 		"/>
		<polygon class="st2" points="1777.12,479.52 1777.23,480.51 1775.98,480.62 1775.91,479.62 		"/>
		<polygon class="st2" points="1777.33,481.51 1777.43,482.5 1776.12,482.61 1776.05,481.62 		"/>
		<polygon class="st2" points="1777.53,483.5 1777.63,484.5 1776.25,484.61 1776.19,483.61 		"/>
		<polygon class="st2" points="1777.72,485.49 1777.81,486.49 1776.37,486.6 1776.31,485.6 		"/>
		<polygon class="st2" points="1777.9,487.49 1777.99,488.49 1776.49,488.59 1776.43,487.6 		"/>
		<polygon class="st2" points="1778.07,489.49 1778.14,490.48 1776.6,490.59 1776.55,489.59 		"/>
		<polygon class="st2" points="1778.22,491.48 1778.29,492.48 1776.71,492.58 1776.66,491.58 		"/>
		<polygon class="st2" points="1778.36,493.48 1778.43,494.48 1776.81,494.57 1776.76,493.58 		"/>
		<polygon class="st2" points="1778.5,495.48 1778.56,496.48 1776.9,496.57 1776.86,495.57 		"/>
		<polygon class="st2" points="1778.62,497.48 1778.68,498.48 1776.98,498.56 1776.94,497.57 		"/>
		<polygon class="st2" points="1778.74,499.48 1778.8,500.48 1777.06,500.55 1777.02,499.56 		"/>
		<polygon class="st2" points="1778.85,501.47 1778.9,502.47 1777.12,502.54 1777.09,501.55 		"/>
		<polygon class="st2" points="1778.95,503.47 1779,504.46 1777.18,504.53 1777.15,503.53 		"/>
		<polygon class="st2" points="1779.04,505.46 1779.08,506.46 1777.23,506.52 1777.2,505.52 		"/>
		<polygon class="st2" points="1779.12,507.45 1779.16,508.45 1777.26,508.51 1777.25,507.51 		"/>
		<polygon class="st2" points="1779.2,509.45 1779.23,510.45 1777.3,510.5 1777.28,509.5 		"/>
		<polygon class="st2" points="1779.27,511.45 1779.3,512.45 1777.32,512.49 1777.31,511.49 		"/>
		<polygon class="st2" points="1779.32,513.45 1779.35,514.45 1777.33,514.48 1777.33,513.48 		"/>
		<polygon class="st2" points="1779.37,515.45 1779.39,516.45 1777.34,516.47 1777.33,515.48 		"/>
		<polygon class="st2" points="1779.41,517.45 1779.43,518.45 1777.33,518.47 1777.34,517.47 		"/>
		<polygon class="st2" points="1779.44,519.46 1779.46,520.46 1777.32,520.46 1777.33,519.46 		"/>
		<polygon class="st2" points="1779.47,521.37 1779.48,522.37 1777.3,522.36 1777.31,521.37 		"/>
		<polygon class="st2" points="1779.48,523.37 1779.49,524.37 1777.27,524.36 1777.29,523.36 		"/>
		<polygon class="st2" points="1779.49,525.38 1779.49,526.38 1777.23,526.35 1777.25,525.36 		"/>
		<polygon class="st2" points="1779.49,527.38 1779.48,528.38 1777.19,528.35 1777.21,527.35 		"/>
		<polygon class="st2" points="1779.48,529.39 1779.47,530.39 1777.13,530.34 1777.16,529.35 		"/>
		<polygon class="st2" points="1779.46,531.39 1779.44,532.39 1777.07,532.34 1777.1,531.34 		"/>
		<polygon class="st2" points="1779.43,533.4 1779.41,534.4 1777,534.33 1777.04,533.33 		"/>
		<polygon class="st2" points="1779.39,535.4 1779.37,536.4 1776.92,536.32 1776.96,535.33 		"/>
		<polygon class="st2" points="1779.35,537.41 1779.32,538.41 1776.83,538.32 1776.88,537.32 		"/>
		<polygon class="st2" points="1779.29,539.41 1779.26,540.41 1776.73,540.31 1776.78,539.31 		"/>
		<polygon class="st2" points="1779.23,541.42 1779.19,542.42 1776.64,542.3 1776.69,541.31 		"/>
		<polygon class="st2" points="1779.14,543.42 1779.1,544.42 1776.53,544.29 1776.59,543.3 		"/>
		<polygon class="st2" points="1779.06,545.42 1779.01,546.42 1776.42,546.28 1776.48,545.29 		"/>
		<polygon class="st2" points="1778.96,547.43 1778.9,548.43 1776.3,548.28 1776.36,547.28 		"/>
		<polygon class="st2" points="1778.85,549.43 1778.79,550.43 1776.17,550.27 1776.23,549.27 		"/>
		<polygon class="st2" points="1778.73,551.43 1778.67,552.43 1776.03,552.25 1776.1,551.26 		"/>
		<polygon class="st2" points="1778.61,553.43 1778.55,554.43 1775.88,554.24 1775.95,553.25 		"/>
		<polygon class="st2" points="1778.48,555.43 1778.41,556.44 1775.72,556.23 1775.8,555.24 		"/>
		<polygon class="st2" points="1778.34,557.44 1778.26,558.44 1775.56,558.22 1775.64,557.23 		"/>
		<polygon class="st2" points="1778.19,559.44 1778.11,560.44 1775.38,560.21 1775.47,559.21 		"/>
		<polygon class="st2" points="1778.03,561.44 1777.95,562.44 1775.2,562.19 1775.29,561.2 		"/>
		<polygon class="st2" points="1777.86,563.43 1777.77,564.43 1775.01,564.18 1775.11,563.18 		"/>
		<polygon class="st2" points="1777.68,565.43 1777.59,566.43 1774.81,566.16 1774.91,565.17 		"/>
		<polygon class="st2" points="1777.5,567.43 1777.4,568.43 1774.6,568.14 1774.71,567.15 		"/>
		<polygon class="st2" points="1777.31,569.43 1777.21,570.43 1774.39,570.13 1774.5,569.13 		"/>
		<polygon class="st2" points="1777.1,571.42 1777,572.42 1774.16,572.11 1774.28,571.12 		"/>
		<polygon class="st2" points="1776.89,573.42 1776.78,574.42 1773.93,574.09 1774.05,573.1 		"/>
		
			<rect x="1774.68" y="574.3" transform="matrix(0.116 -0.9933 0.9933 0.116 997.4529 2272.1741)" class="st2" width="1" height="2.88"/>
		
			<rect x="1774.44" y="576.28" transform="matrix(0.1205 -0.9927 0.9927 0.1205 987.5967 2270.1431)" class="st2" width="1" height="2.88"/>
		
			<rect x="1774.19" y="578.27" transform="matrix(0.1247 -0.9922 0.9922 0.1247 978.163 2268.2432)" class="st2" width="1" height="2.89"/>
		
			<rect x="1773.94" y="580.25" transform="matrix(0.129 -0.9916 0.9916 0.129 968.7423 2266.2861)" class="st2" width="1" height="2.9"/>
		
			<rect x="1773.67" y="582.22" transform="matrix(0.1334 -0.9911 0.9911 0.1334 959.0782 2264.1479)" class="st2" width="1" height="2.9"/>
		
			<rect x="1773.4" y="584.2" transform="matrix(0.1377 -0.9905 0.9905 0.1377 949.4828 2261.9766)" class="st2" width="1" height="2.91"/>
		
			<rect x="1773.11" y="586.18" transform="matrix(0.1421 -0.9898 0.9898 0.1421 939.8459 2259.718)" class="st2" width="1" height="2.92"/>
		
			<rect x="1772.82" y="588.15" transform="matrix(0.1464 -0.9892 0.9892 0.1464 930.4532 2257.5159)" class="st2" width="1" height="2.92"/>
		
			<rect x="1772.52" y="590.13" transform="matrix(0.1506 -0.9886 0.9886 0.1506 921.0754 2255.2566)" class="st2" width="1" height="2.93"/>
		
			<rect x="1772.21" y="592.1" transform="matrix(0.155 -0.9879 0.9879 0.155 911.5135 2252.8372)" class="st2" width="1" height="2.94"/>
		
			<rect x="1771.89" y="594.07" transform="matrix(0.1593 -0.9872 0.9872 0.1593 902.1681 2250.4641)" class="st2" width="1" height="2.94"/>
		
			<rect x="1771.57" y="596.04" transform="matrix(0.1636 -0.9865 0.9865 0.1636 892.6083 2247.9119)" class="st2" width="1" height="2.95"/>
		
			<rect x="1771.23" y="598.01" transform="matrix(0.168 -0.9858 0.9858 0.168 883.0322 2245.2822)" class="st2" width="1" height="2.96"/>
		
			<rect x="1770.89" y="599.98" transform="matrix(0.1724 -0.985 0.985 0.1724 873.5414 2242.6304)" class="st2" width="1" height="2.96"/>
		
			<rect x="1770.54" y="601.94" transform="matrix(0.1767 -0.9843 0.9843 0.1767 864.2314 2240.01)" class="st2" width="1" height="2.97"/>
		
			<rect x="1770.18" y="603.91" transform="matrix(0.1809 -0.9835 0.9835 0.1809 854.9034 2237.3135)" class="st2" width="1" height="2.98"/>
		
			<rect x="1769.81" y="605.87" transform="matrix(0.1853 -0.9827 0.9827 0.1853 845.4347 2234.47)" class="st2" width="1" height="2.99"/>
		
			<rect x="1769.43" y="607.83" transform="matrix(0.1896 -0.9819 0.9819 0.1896 836.1429 2231.6587)" class="st2" width="1" height="2.99"/>
		
			<rect x="1769.04" y="609.79" transform="matrix(0.1942 -0.981 0.981 0.1942 826.2903 2228.4529)" class="st2" width="1" height="3"/>
		
			<rect x="1768.65" y="611.75" transform="matrix(0.2015 -0.9795 0.9795 0.2015 812.0025 2222.5413)" class="st2" width="1" height="2.99"/>
		
			<rect x="1768.24" y="613.71" transform="matrix(0.2057 -0.9786 0.9786 0.2057 802.785 2219.5298)" class="st2" width="1" height="2.99"/>
		
			<rect x="1767.83" y="615.67" transform="matrix(0.21 -0.9777 0.9777 0.21 793.5881 2216.4626)" class="st2" width="1" height="2.98"/>
		
			<rect x="1767.41" y="617.63" transform="matrix(0.2144 -0.9768 0.9768 0.2144 784.1816 2213.1978)" class="st2" width="1" height="2.97"/>
		
			<rect x="1766.98" y="619.59" transform="matrix(0.2188 -0.9758 0.9758 0.2188 774.7973 2209.8745)" class="st2" width="1" height="2.97"/>
		
			<rect x="1766.54" y="621.54" transform="matrix(0.223 -0.9748 0.9748 0.223 765.5808 2206.5847)" class="st2" width="1" height="2.96"/>
		
			<rect x="1766.09" y="623.5" transform="matrix(0.2273 -0.9738 0.9738 0.2273 756.4722 2203.2937)" class="st2" width="1" height="2.95"/>
		
			<rect x="1765.64" y="625.45" transform="matrix(0.2316 -0.9728 0.9728 0.2316 747.2988 2199.8911)" class="st2" width="1" height="2.95"/>
		
			<rect x="1765.17" y="627.4" transform="matrix(0.2358 -0.9718 0.9718 0.2358 738.1923 2196.4614)" class="st2" width="1" height="2.94"/>
		
			<rect x="1764.7" y="629.34" transform="matrix(0.2401 -0.9708 0.9708 0.2401 729.0638 2192.9465)" class="st2" width="1" height="2.93"/>
		
			<rect x="1764.22" y="631.29" transform="matrix(0.2443 -0.9697 0.9697 0.2443 720.005 2189.4065)" class="st2" width="1" height="2.93"/>
		
			<rect x="1763.73" y="633.23" transform="matrix(0.2487 -0.9686 0.9686 0.2487 710.7416 2185.6567)" class="st2" width="1" height="2.92"/>
		
			<rect x="1763.23" y="635.17" transform="matrix(0.253 -0.9675 0.9675 0.253 701.6387 2181.9419)" class="st2" width="1" height="2.91"/>
		
			<rect x="1762.73" y="637.11" transform="matrix(0.2571 -0.9664 0.9664 0.2571 692.789 2178.3301)" class="st2" width="1" height="2.91"/>
		
			<rect x="1762.21" y="639.04" transform="matrix(0.2614 -0.9652 0.9652 0.2614 683.7831 2174.5386)" class="st2" width="1" height="2.9"/>
		
			<rect x="1761.69" y="640.98" transform="matrix(0.2657 -0.9641 0.9641 0.2657 674.7048 2170.6226)" class="st2" width="1" height="2.89"/>
		
			<rect x="1761.15" y="642.91" transform="matrix(0.2699 -0.9629 0.9629 0.2699 665.7511 2166.7214)" class="st2" width="1" height="2.89"/>
		
			<rect x="1760.61" y="644.84" transform="matrix(0.2742 -0.9617 0.9617 0.2742 656.7745 2162.73)" class="st2" width="1" height="2.88"/>
		
			<rect x="1760.06" y="646.76" transform="matrix(0.2783 -0.9605 0.9605 0.2783 648.0015 2158.8137)" class="st2" width="1" height="2.87"/>
		<polygon class="st2" points="1761.52,650.04 1761.23,651 1758.5,650.2 1758.77,649.24 		"/>
		<polygon class="st2" points="1760.94,651.96 1760.65,652.92 1757.94,652.11 1758.22,651.16 		"/>
		<polygon class="st2" points="1760.36,653.88 1760.07,654.84 1757.38,654.03 1757.66,653.07 		"/>
		<polygon class="st2" points="1759.77,655.8 1759.47,656.76 1756.8,655.93 1757.09,654.98 		"/>
		<polygon class="st2" points="1759.17,657.71 1758.86,658.67 1756.22,657.84 1756.51,656.89 		"/>
		<polygon class="st2" points="1758.56,659.62 1758.25,660.58 1755.63,659.75 1755.93,658.79 		"/>
		<polygon class="st2" points="1757.94,661.53 1757.63,662.49 1755.03,661.65 1755.33,660.7 		"/>
		<polygon class="st2" points="1757.31,663.44 1757,664.39 1754.43,663.55 1754.73,662.6 		"/>
		<polygon class="st2" points="1756.68,665.34 1756.36,666.29 1753.81,665.44 1754.12,664.5 		"/>
		<polygon class="st2" points="1756.04,667.24 1755.71,668.19 1753.19,667.34 1753.5,666.39 		"/>
		<polygon class="st2" points="1755.39,669.14 1755.06,670.09 1752.55,669.23 1752.87,668.28 		"/>
		<polygon class="st2" points="1754.73,671.03 1754.39,671.98 1751.91,671.12 1752.23,670.17 		"/>
		<polygon class="st2" points="1754.06,672.93 1753.72,673.87 1751.26,673 1751.59,672.06 		"/>
		<polygon class="st2" points="1753.38,674.81 1753.04,675.76 1750.61,674.89 1750.94,673.95 		"/>
		<polygon class="st2" points="1752.7,676.7 1752.35,677.64 1749.94,676.77 1750.28,675.83 		"/>
		<polygon class="st2" points="1752.01,678.58 1751.66,679.52 1749.27,678.64 1749.61,677.71 		"/>
		<polygon class="st2" points="1751.3,680.46 1750.95,681.4 1748.59,680.52 1748.93,679.58 		"/>
		<polygon class="st2" points="1750.59,682.33 1750.23,683.27 1747.91,682.39 1748.25,681.46 		"/>
		<polygon class="st2" points="1749.86,684.2 1749.5,685.14 1747.22,684.27 1747.56,683.33 		"/>
		<polygon class="st2" points="1749.13,686.07 1748.76,687 1746.52,686.13 1746.87,685.2 		"/>
		<polygon class="st2" points="1748.38,687.93 1748.01,688.86 1745.81,688 1746.17,687.07 		"/>
		<polygon class="st2" points="1747.63,689.79 1747.25,690.72 1745.1,689.86 1745.46,688.93 		"/>
		<polygon class="st2" points="1746.87,691.65 1746.49,692.57 1744.38,691.72 1744.74,690.79 		"/>
		<polygon class="st2" points="1746.11,693.5 1745.72,694.42 1743.65,693.58 1744.01,692.65 		"/>
		<polygon class="st2" points="1745.33,695.35 1744.94,696.27 1742.91,695.43 1743.28,694.51 		"/>
		<polygon class="st2" points="1744.55,697.19 1744.15,698.12 1742.16,697.28 1742.54,696.36 		"/>
		<polygon class="st2" points="1743.76,699.04 1743.36,699.96 1741.41,699.13 1741.78,698.21 		"/>
		<polygon class="st2" points="1742.96,700.87 1742.55,701.79 1740.64,700.97 1741.02,700.05 		"/>
		<polygon class="st2" points="1742.15,702.71 1741.74,703.63 1739.87,702.81 1740.26,701.89 		"/>
		<polygon class="st2" points="1741.33,704.54 1740.92,705.46 1739.09,704.65 1739.48,703.73 		"/>
		<polygon class="st2" points="1740.51,706.37 1740.09,707.29 1738.3,706.49 1738.7,705.57 		"/>
		<polygon class="st2" points="1739.68,708.2 1739.25,709.12 1737.5,708.33 1737.9,707.41 		"/>
		<polygon class="st2" points="1738.83,710.03 1738.41,710.94 1736.69,710.16 1737.1,709.25 		"/>
		<polygon class="st2" points="1737.98,711.85 1737.55,712.76 1735.88,711.99 1736.29,711.08 		"/>
		<polygon class="st2" points="1737.12,713.67 1736.69,714.58 1735.05,713.82 1735.47,712.91 		"/>
		<polygon class="st2" points="1736.25,715.49 1735.82,716.4 1734.22,715.65 1734.64,714.73 		"/>
		<polygon class="st2" points="1735.38,717.3 1734.94,718.21 1733.38,717.47 1733.8,716.56 		"/>
		<polygon class="st2" points="1734.5,719.11 1734.05,720.01 1732.54,719.28 1732.96,718.37 		"/>
		<polygon class="st2" points="1733.61,720.91 1733.16,721.81 1731.68,721.09 1732.11,720.19 		"/>
		<polygon class="st2" points="1732.71,722.71 1732.26,723.61 1730.82,722.9 1731.25,722 		"/>
		<polygon class="st2" points="1731.8,724.51 1731.35,725.4 1729.95,724.7 1730.38,723.8 		"/>
		<polygon class="st2" points="1730.89,726.3 1730.43,727.19 1729.07,726.5 1729.51,725.6 		"/>
		<polygon class="st2" points="1729.97,728.08 1729.5,728.97 1728.19,728.3 1728.63,727.4 		"/>
		<polygon class="st2" points="1729.03,729.86 1728.56,730.74 1727.3,730.1 1727.75,729.2 		"/>
		<polygon class="st2" points="1728.08,731.63 1727.61,732.51 1726.41,731.89 1726.86,730.99 		"/>
		<polygon class="st2" points="1727.13,733.39 1726.65,734.28 1725.51,733.68 1725.96,732.79 		"/>
		<polygon class="st2" points="1726.17,735.16 1725.68,736.03 1724.61,735.46 1725.06,734.57 		"/>
		<polygon class="st2" points="1725.2,736.91 1724.71,737.79 1723.69,737.25 1724.15,736.36 		"/>
		<polygon class="st2" points="1724.22,738.67 1723.73,739.54 1722.77,739.02 1723.23,738.13 		"/>
		<polygon class="st2" points="1723.23,740.41 1722.74,741.28 1721.84,740.79 1722.31,739.91 		"/>
		<polygon class="st2" points="1722.24,742.16 1721.74,743.03 1720.9,742.56 1721.37,741.68 		"/>
		<polygon class="st2" points="1721.24,743.89 1720.74,744.76 1719.96,744.33 1720.43,743.44 		"/>
		<polygon class="st2" points="1720.23,745.63 1719.73,746.49 1719.01,746.09 1719.48,745.21 		"/>
		<polygon class="st2" points="1719.22,747.36 1718.71,748.22 1718.05,747.84 1718.53,746.96 		"/>
		<polygon class="st2" points="1718.2,749.08 1717.68,749.94 1717.08,749.59 1717.56,748.72 		"/>
		<polygon class="st2" points="1717.17,750.8 1716.65,751.66 1716.1,751.34 1716.59,750.47 		"/>
		<polygon class="st2" points="1716.13,752.51 1715.61,753.37 1715.12,753.08 1715.61,752.21 		"/>
		<polygon class="st2" points="1715.08,754.22 1714.56,755.08 1714.13,754.82 1714.63,753.95 		"/>
		<polygon class="st2" points="1714.03,755.93 1713.5,756.77 1713.14,756.56 1713.63,755.69 		"/>
		<polygon class="st2" points="1712.97,757.62 1712.43,758.47 1712.14,758.29 1712.64,757.42 		"/>
		<polygon class="st2" points="1711.89,759.31 1711.35,760.15 1711.14,760.02 1711.64,759.16 		"/>
		<polygon class="st2" points="1710.81,760.99 1710.26,761.83 1710.12,761.75 1710.63,760.88 		"/>
		<polygon class="st2" points="1709.72,762.67 1709.17,763.51 1709.11,763.47 1709.62,762.61 		"/>
		<polygon class="st2" points="1708.62,764.35 1708.2,764.99 1708.59,764.33 		"/>
	</g>
</g>
<g>
	<text transform="matrix(1 0 0 1 1211.114 483.4849)" class="st2 st3 st4">5</text>
</g>
<g>
	<text transform="matrix(1 0 0 1 1157.115 383.0542)" class="st2 st3 st4">10</text>
</g>
<g>
	<text transform="matrix(1 0 0 1 1226.9563 260.6187)" class="st2 st3 st4">15</text>
</g>
<g>
	<text transform="matrix(1 0 0 1 1487.5544 223.729)" class="st2 st3 st4">20</text>
</g>
<g>
	<text transform="matrix(1 0 0 1 1726.0066 433.0835)" class="st2 st3 st4">25</text>
</g>
<text transform="matrix(1 0 0 1 1310.7585 100.3501)"><tspan x="0" y="0" class="st2 st3 st4">Line length = CO2 emissions</tspan><tspan x="185.51" y="47.42" class="st2 st3 st4">per capita (tonnes)</tspan></text>
<circle class="st2" cx="451.75" cy="744.99" r="211.01"/>
<circle class="st5" cx="451.75" cy="744.99" r="99.77"/>
<g>
	<text transform="matrix(1 0 0 1 89.6538 302.6333)" class="st3 st4">Circle = total annual CO2 emissions, 2022</text>
</g>
<g>
	<text transform="matrix(1 0 0 1 87.5195 393.603)" class="st3 st4">Circles area = annual CO2 emissions (tonnes)</text>
</g>
<text transform="matrix(1 0 0 1 270.8975 779.7661)" class="st6 st7">40,000</text>
<g>
	<text transform="matrix(1 0 0 1 686.7451 715.019)"><tspan x="0" y="0" class="st3 st4">Annual CO2 emissions in 2019</tspan><tspan x="426.03" y="47.42" class="st3 st4">(tonnes)</tspan></text>
</g>
<line class="st8" x1="682.66" y1="712.03" x2="387" y2="712.5"/>
<line class="st8" x1="386.29" y1="739.16" x2="386.29" y2="712.12"/>
<g>
	<polygon points="388.75,737.44 386.25,745.61 383.75,737.44 388.75,737.44 	"/>
</g>
</svg>
