<?xml version="1.0" encoding="utf-8"?>
<!-- Generator: Adobe Illustrator 28.1.0, SVG Export Plug-In . SVG Version: 6.00 Build 0)  -->
<svg version="1.1" id="Layer_1" xmlns="http://www.w3.org/2000/svg" xmlns:xlink="http://www.w3.org/1999/xlink" x="0px" y="0px"
	 viewBox="0 0 600 600" style="enable-background:new 0 0 600 600;" xml:space="preserve">
<style type="text/css">
	.st0{fill:#CCCCCC;}
	.st1{fill:#883037;}
</style>
<circle class="st0" cx="300" cy="300" r="68.31"/>
<g>
	<path class="st1" d="M300.3,28.29c-3.39,5.15-5.71,10.63-7.16,16.14c-1.44,5.53-2,11.12-1.98,16.66c0,1.04-0.18,2.04-0.4,3.05
		c-2.05,15.75,1.51,31.84,7.06,46.57c8.48,22.47,21.03,43.5,27.81,66.94c5.23,18.11,6.88,37.21,5.09,55.94
		c-1.2,12.49-4.03,24.8-8.27,36.61c-0.77,1.39-1.51,2.78-2.29,4.16c-2.75,4.57-6,9.42-9.27,13.62c-1.27,1.57-3.26,3.88-4.48,5.37
		c-2,2.25-4.31,4.51-6.43,6.64c1.92-4.82,3.85-9.99,5.49-14.9c1.44-4.83,2.84-10.06,3.95-14.98c0,0,0.8-4.3,0.8-4.3
		c9.78-26.93,10.88-56.99,2.93-84.52c-10.66-36.1-36.01-68.46-35.98-107.73c0-2.57,0.21-7.08,0.41-9.69c0-1.62,0.19-3.27,0.62-4.85
		c1.94-6.31,4.74-12.36,8.48-17.67C290.3,36.07,294.97,31.69,300.3,28.29L300.3,28.29z"/>
</g>
<g>
	<path class="st1" d="M348.71,27.78c-9.35,7.76-15.41,18.5-18.45,30.04c-3.95,11.07-5.08,23.14-4.49,34.99
		c1.81,30.39,14.96,59.15,18.12,89.55c3.28,31.04-3.61,62.98-19.22,89.99c-7,10.35-15.24,19.78-24.69,27.64
		c7.73-9.54,14.31-19.8,19.49-30.63c5.95-10.38,10.67-21.49,13.89-33.02c4.81-17.3,6.45-35.48,4.57-53.34
		c-4.76-42.16-28.45-84.39-13.38-127.17C329.43,44.22,337.57,33.83,348.71,27.78L348.71,27.78z"/>
</g>
<g>
	<path class="st1" d="M400.06,40.79c-10.7,5.86-18.74,15.3-23.95,26.1c-6.01,10.17-9.43,21.86-11.12,33.66
		c-4.02,30.32,3.46,61.21,0.76,91.79c-2.7,31.24-15.6,61.43-36.15,85.09c-8.88,8.88-18.81,16.61-29.62,22.56
		c9.45-7.93,17.9-16.78,25.08-26.48c7.85-9.1,14.63-19.16,20.01-29.92c8.05-16.15,13.14-33.77,14.7-51.74
		c3.36-42.49-11.94-88.68,11.1-127.99C377.91,53.32,387.92,44.62,400.06,40.79L400.06,40.79z"/>
</g>
<g>
	<path class="st1" d="M443.92,61.66c-11.59,3.92-21.16,11.82-28.19,21.57c-7.7,8.98-13.11,19.92-16.84,31.28
		c-9.25,29.22-7.26,61-15.25,90.71c-8.11,30.36-26.1,57.9-50.5,77.66c-10.31,7.21-21.45,13.11-33.16,17.1
		c10.71-6.18,20.6-13.44,29.37-21.75c9.34-7.61,17.78-16.35,24.96-26.04c10.76-14.53,18.86-31.03,23.52-48.5
		c7.94-29.84,5.87-61.32,15.34-91.03C401.25,87.98,416.44,65.77,443.92,61.66L443.92,61.66z"/>
</g>
<g>
	<path class="st1" d="M482.73,91.22c-12.05,1.83-22.82,7.92-31.41,16.26c-9.12,7.47-16.34,17.26-21.97,27.75
		c-14.17,27.06-17.74,58.59-30.76,86.35c-13.24,28.37-35.69,52.26-63.08,67.41c-11.37,5.28-23.33,9.12-35.52,10.99
		c11.58-4.2,22.55-9.6,32.6-16.23c10.49-5.84,20.29-12.95,29.03-21.2c13.09-12.39,23.9-27.16,31.53-43.49
		c12.99-27.89,16.44-59.14,30.91-86.64C436.27,109.59,455.04,90.45,482.73,91.22L482.73,91.22z"/>
</g>
<g>
	<path class="st1" d="M522.03,128.57c-6.34,0.45-12.29,1.97-17.73,4.24c-5.44,2.29-10.4,5.34-14.93,8.84
		c-0.85,0.66-1.79,1.14-2.75,1.6c-14.17,8.31-25.1,21.39-33.63,35.26c-12.99,21.12-22.23,44.64-37.07,64.98
		c-11.46,15.69-26,29.08-42.4,39.45c-10.94,6.9-22.77,12.36-35.07,16.36c-1.62,0.26-3.22,0.54-4.83,0.78
		c-5.46,0.67-11.45,1.1-16.94,1.12c-2.09-0.04-5.22-0.18-7.2-0.23c-3.1-0.19-6.4-0.63-9.48-1c5.15-1.44,10.6-3.1,15.65-4.84
		c4.86-1.85,10.03-3.98,14.76-6.16c1.36-0.66,2.7-1.37,4.03-2.04c11.27-3.66,22.12-8.67,32.16-15c15.03-9.5,28.32-21.74,38.81-36.08
		c22.74-31.5,33.13-72.62,65.19-97.41c2.1-1.62,5.9-4.29,8.16-5.77c1.33-1.02,2.79-1.89,4.34-2.55
		C495.51,125.33,509.45,123.99,522.03,128.57L522.03,128.57z"/>
</g>
<g>
	<path class="st1" d="M548.76,168.66c-12.07-2.66-24.48-0.81-35.65,3.96c-23.29,7.73-40.88,26.38-55.48,45.48
		c-11.42,14.66-22.33,30.33-35.86,43.41c-22.83,22.05-52.74,36.51-84.16,40.91c-12.68,0.88-25.39,0.19-37.61-2.44
		c12.49,0.24,24.83-0.88,36.76-3.5c12.05-1.73,23.92-4.89,35.19-9.54c16.89-6.98,32.5-17.04,45.64-29.73
		c22.41-21.69,37.03-50.02,60.7-70.81C498.09,169.25,522.86,157.93,548.76,168.66L548.76,168.66z"/>
</g>
<g>
	<path class="st1" d="M569.04,213.97c-11.46-4.76-24.06-5.12-35.94-2.37c-24.38,3.54-45.06,18.88-62.86,35.19
		c-13.87,12.48-27.41,26.05-43.09,36.59c-26.45,17.77-58.56,26.81-90.39,25.62c-12.69-1.36-25.13-4.27-36.75-9.03
		c12.3,2.44,24.7,3.51,36.96,3.03c12.22,0.42,24.51-0.63,36.46-3.23c17.92-3.93,35.13-11.13,50.36-21.36
		c35.78-24.42,62.59-65.98,108.4-72.8C544.99,204.45,558.25,206.82,569.04,213.97L569.04,213.97z"/>
</g>
<g>
	<path class="st1" d="M579.6,262.42c-10.44-6.68-22.77-9.24-34.93-8.61c-24.6-0.78-47.61,10.69-67.97,23.62
		c-15.83,9.85-31.51,20.82-48.77,28.46c-29.11,12.86-62.28,16.13-93.37,9.39c-12.24-3.55-23.97-8.6-34.56-15.3
		c11.67,4.55,23.68,7.77,35.81,9.43c11.94,2.54,24.21,3.67,36.42,3.19c18.31-0.73,36.49-4.8,53.25-12.2
		c39.46-17.76,73.09-53.95,119.32-52.65C557.61,248.86,570.25,253.5,579.6,262.42L579.6,262.42z"/>
</g>
<g>
	<path class="st1" d="M582.96,316.63c-9.01-8.6-20.67-13.49-32.79-15.22c-24.11-5.49-49.01,1.39-71.57,10.24
		c-17.5,6.67-35.07,14.48-53.56,18.7c-31.18,7.09-64.51,3.94-93.87-8.67c-11.39-5.85-21.99-13.08-31.15-21.71
		c10.63,6.73,21.85,12.21,33.5,16.2c11.29,4.8,23.17,8.27,35.31,10.14c18.2,2.8,36.91,2.27,54.87-1.81
		c42.32-9.94,82.44-39.16,127.78-29.01C563.88,299.04,575.44,306.05,582.96,316.63L582.96,316.63z"/>
</g>
<g>
	<path class="st1" d="M575.19,364.56c-8.44-9.06-19.29-14.54-30.96-17.26c-0.96-0.23-2.1-0.7-3.01-1.13
		c-15.51-5.8-32.7-6.02-48.98-3.87c-24.77,3.28-49.03,11.01-74.37,12.34c-19.55,1.02-39.25-1.83-57.78-8.06
		c-12.34-4.16-24.13-9.93-35.08-17.01c-1.23-1.1-2.47-2.17-3.68-3.27c-4.57-4.46-9.3-9.34-13.14-14.44
		c-1.55-1.98-4.3-5.63-5.61-7.84c-0.88-1.34-1.73-2.68-2.57-4.03c3.73,2.63,7.88,5.52,11.76,7.92c5.09,3.25,10.76,6.18,16.15,8.9
		c1.38,0.64,2.78,1.24,4.16,1.86c10.03,6.48,20.85,11.79,32.18,15.61c16.99,5.71,35.01,8.32,52.9,7.39
		c39.08-2.25,77.83-20.28,117.58-10.98c2.6,0.61,7.1,1.88,9.69,2.7c1.64,0.39,3.25,0.97,4.75,1.77
		C560.84,341.79,570.76,351.83,575.19,364.56L575.19,364.56z"/>
</g>
<g>
	<path class="st1" d="M558.41,410.69c-5.52-11.05-14.76-19.53-25.49-25.2c-20.64-13.23-46.19-15.18-70.21-14.51
		c-18.57,0.34-37.6,1.72-56.26-0.57c-31.48-3.87-61.52-18.02-84.68-39.67c-8.65-9.29-16.11-19.61-21.74-30.75
		c7.66,9.85,16.29,18.73,25.83,26.36c8.92,8.28,18.84,15.5,29.53,21.34c16.04,8.73,33.67,14.53,51.79,16.77
		c42.83,4.96,90.09-8.81,128.99,15.92C546.53,387.85,554.96,398.28,558.41,410.69L558.41,410.69z"/>
</g>
<g>
	<path class="st1" d="M533.17,458.98c-3.3-11.95-10.76-22.1-20.23-29.76c-17.78-17.03-42.57-23.88-66.36-27.87
		c-18.36-3.25-37.37-5.57-55.31-11.44c-30.26-9.9-57.12-29.64-75.75-55.44c-6.73-10.82-12.09-22.42-15.48-34.49
		c5.64,11.19,12.42,21.61,20.34,30.97c7.18,9.88,15.56,18.92,24.97,26.73c14.11,11.7,30.36,20.82,47.78,26.53
		c29.75,9.7,61.73,9.37,91.27,20.61C508.87,414.34,530.53,430.99,533.17,458.98L533.17,458.98z"/>
</g>
<g>
	<path class="st1" d="M501.95,496c-1.21-12.3-6.81-23.54-14.8-32.69c-14.56-19.76-37.75-30.73-60.44-38.7
		c-17.48-6.33-35.76-11.86-52.39-20.68c-28.04-14.89-51.06-38.87-64.97-67.4c-4.76-11.79-8.04-24.1-9.32-36.53
		c3.63,11.96,8.52,23.35,14.7,33.89c5.37,10.93,12.06,21.24,19.97,30.52c11.87,13.91,26.27,25.64,42.42,34.22
		c27.57,14.61,59.05,19.75,86.15,35.83C485.7,447.98,504.14,468.04,501.95,496L501.95,496z"/>
</g>
<g>
	<path class="st1" d="M462.3,524.47c0.91-12.13-2.61-23.97-8.81-34.19c-5.23-10.54-13.14-19.75-22.09-27.58
		c-23.16-19.83-53.04-30.36-77.14-49.23c-24.65-19.23-42.88-46.41-51.49-76.45c-2.59-12.25-3.66-24.75-2.75-37.02
		c1.5,12.21,4.31,24.08,8.51,35.35c3.34,11.51,8.06,22.64,14.14,32.98c9.13,15.5,21.08,29.33,35.26,40.4
		c24.24,18.87,53.87,29.22,77.4,49.44C454.81,475.15,469.24,497.69,462.3,524.47L462.3,524.47z"/>
</g>
<g>
	<path class="st1" d="M420.99,550.48c0.85-6.25,0.58-12.33-0.52-18.07c-1.12-5.75-3.07-11.17-5.55-16.27
		c-0.46-0.96-0.74-1.97-0.99-3c-5.16-15.44-15.62-28.71-27.33-39.82c-17.84-16.92-38.78-30.69-55.49-49.25
		c-12.89-14.33-22.92-31.18-29.62-49.22c-4.46-12.03-7.35-24.63-8.71-37.39c0.08-1.62,0.14-3.24,0.24-4.84
		c0.5-5.44,1.26-11.34,2.4-16.67c0.46-2.02,1.25-5.03,1.71-6.94c0.83-2.97,1.93-6.08,2.92-8.99c0.35,5.29,0.86,10.92,1.52,16.17
		c0.81,5.1,1.83,10.54,2.98,15.58c0.37,1.45,0.78,2.89,1.17,4.33c1.25,11.68,3.89,23.23,7.98,34.26
		c6.15,16.52,15.3,31.91,27.08,45.01c25.92,28.5,63.71,46.99,81.21,83.17c1.14,2.37,2.96,6.61,3.94,9.1
		c0.72,1.5,1.27,3.09,1.59,4.74C429.6,525.4,428.03,539.22,420.99,550.48L420.99,550.48z"/>
</g>
<g>
	<path class="st1" d="M371.82,569.67c5.24-11.08,6.2-23.5,4.05-35.34c-1.12-11.81-5.25-23.33-10.85-33.91
		c-17.74-32.36-49.1-56.25-63.51-90.88c-14.98-34.32-18.29-75.33-1.49-109.52c-3,12.02-4.64,24.21-4.75,36.32
		c-1,12.03-0.57,24.21,1.42,36.13c3,17.87,9.27,35.2,18.63,50.72c22.37,36.5,62.07,64.98,66.58,110.52
		C382.41,546.4,379.41,559.38,371.82,569.67L371.82,569.67z"/>
</g>
<g>
	<path class="st1" d="M324.55,577.5c7.04-10.01,10.11-22.05,10.02-34.07c0.91-11.81-1.18-23.84-4.87-35.21
		c-9.79-29.07-30.17-53.55-41.27-82.27c-11.38-29.3-13.12-62.17-5.08-92.55c4.06-11.91,9.58-23.26,16.68-33.4
		c-5,11.32-8.7,23.02-10.88,34.92c-3.04,11.66-4.7,23.71-4.78,35.78c-0.1,18.09,3.1,36.2,9.65,53.07
		c15.76,39.72,49.94,74.52,46.6,120.08C338.94,556.43,333.77,568.68,324.55,577.5L324.55,577.5z"/>
</g>
<g>
	<path class="st1" d="M275.33,577.83c8.71-8.62,13.85-19.95,15.88-31.81c2.98-11.48,3.04-23.7,1.4-35.56
		c-4.53-30.37-20.31-58.09-26.19-88.35c-6.06-30.89-1.98-63.59,11.29-92.11c6.1-11.03,13.54-21.24,22.32-29.98
		c-6.92,10.27-12.63,21.15-16.87,32.5c-5.05,10.96-8.81,22.54-11.01,34.42c-3.29,17.81-3.32,36.23,0.17,54
		c8.54,41.92,36.1,82.24,24.78,126.56C293.22,559.59,285.97,570.75,275.33,577.83L275.33,577.83z"/>
</g>
<g>
	<path class="st1" d="M220.86,565.93c17.23-15.45,26.86-40.5,29.25-63.03c2.2-23.98-3.95-47.77-5.62-71.84
		c-0.97-12.28-0.29-24.79,1.83-36.94c4.38-24.3,14.36-47.38,28.08-67.83c7.63-9.69,16.14-18.62,25.59-26.3
		c-7.75,9.38-14.71,19.25-20.62,29.65c-13.25,19.74-22.93,42.1-27.14,65.53c-0.96,5.86-1.75,11.75-1.98,17.66
		c-1.02,18.06,2.31,35.69,4.49,53.73C260.01,502.41,255.31,546.06,220.86,565.93L220.86,565.93z"/>
</g>
</svg>
